<?xml version="1.0" encoding="UTF-8"?>
<svg id="_レイヤー_2" data-name="レイヤー 2" xmlns="http://www.w3.org/2000/svg" viewBox="0 0 50.12 50.12">
  <defs>
    <style>
      .cls-1 {
        fill: #fff;
      }

      .cls-2 {
        fill: #06d800;
      }
    </style>
  </defs>
  <g id="_レイヤー_2-2" data-name="レイヤー 2">
    <g>
      <rect class="cls-2" x="0" y="0" width="50.12" height="50.12" rx="4.45" ry="4.45"/>
      <path class="cls-1" d="M36.81,14.15c-3.65,6.35-8.51,15.48-11.44,21.18-.49.94-1.45,1.55-2.51,1.59-.8.03-1.61.04-2.39.04-.61,0-1.17-.32-1.49-.84-2.02-3.31-3.77-6.04-5.65-9.39-.41-.72-.11-1.64.64-1.99.58-.27,1.19-.52,1.83-.74,1.22-.42,2.57.09,3.21,1.21.98,1.73,1.94,3.47,2.87,5.24,2.49-4.45,6.89-12.6,9.64-16.88.71-1.1,2-1.69,3.29-1.48.42.07.84.15,1.24.26.79.21,1.16,1.1.75,1.81Z"/>
    </g>
  </g>
</svg>