<?xml version="1.0" encoding="UTF-8"?>
<svg id="_レイヤー_2" data-name="レイヤー 2" xmlns="http://www.w3.org/2000/svg" viewBox="0 0 478 81.24">
  <defs>
    <style>
      .cls-1 {
        fill: #515266;
      }
    </style>
  </defs>
  <g id="_レイヤー_2-2" data-name="レイヤー 2">
    <g>
      <g>
        <path class="cls-1" d="M67.4,24.71c2.64-1.92,5.96-3.65,9.52-4.13,10.09-1.35,14.66,7.55,8.6,14.76-2.64,3.17-7.79,5.62-12.93,6.3-4.61.62-4.85-4.18-1.25-4.61,4.13-.48,8.03-2.07,10-4.33,3.51-3.94,2.69-8.51-3.85-7.98-3.03.24-6.44,2.26-8.46,4.42-.87.91-1.11,2.31-2.74,2.74-2.11.58-3.75-1.49-3.41-3.94.38-2.74,1.06-7.64,1.78-12.35-1.44.14-2.93.1-4.52-.14-3.56-.58-3.17-5.43.67-4.57,1.35.29,2.93.34,4.57.05.48-3.08.96-5.72,1.3-7.21.77-3.27,5.53-1.83,4.61,1.15-.34,1.11-.67,2.69-1.06,4.47.87-.43,1.73-.96,2.55-1.54,3.32-2.36,6.34,2.45,1.87,4.52-2.02.96-3.8,1.68-5.43,2.26-.77,4.23-1.49,8.46-1.83,10.14Z"/>
        <path class="cls-1" d="M112.34,40.04c-3.6-1.92-3.65-6.39.72-8.03,1.87-.67,4.28-.77,6.73-.38,0-.58,0-1.11-.05-1.59-.38-7.02-.82-10.38-.77-15.43,0-2.98,4.57-2.79,4.42.05-.1,1.59-.1,3.08-.1,4.61,1.15-.05,2.21-.19,3.32-.82,2.64-1.49,5.29,2.21,2.5,3.8-1.35.77-2.98.82-4.47,1.01-.38.05-.82.1-1.25.1.05,1.87.14,3.89.24,6.3.05.87,0,1.87,0,2.98,1.83.67,3.51,1.59,4.71,2.64,2.88,2.5-.29,6.63-3.03,3.7-.67-.72-1.49-1.39-2.36-1.97-1.49,3.12-6.15,5.43-10.62,3.03ZM114.36,35.18c-.82.29-.72,1.25-.05,1.63,1.78.96,4.37.38,5-1.54-1.78-.53-3.56-.62-4.95-.1Z"/>
        <path class="cls-1" d="M166.56,40.37c-3.8.62-4.18-3.99-.87-4.47,4.37-.62,7.69-1.92,10.09-4.04,2.88-2.55,3.03-5.19,1.59-6.83-2.07-2.36-5.86-2.31-8.99-1.39-3.46,1.06-6.58,2.98-9.85,4.47-3.32,1.54-5.19-2.93-2.07-4.23,3.08-1.25,7.26-3.17,11.05-4.13,4.04-1.01,9.56-1.06,12.93,2.45,4.04,4.18,2.4,9.52-1.97,13.17-2.88,2.4-6.68,4.13-11.92,5Z"/>
        <path class="cls-1" d="M206.88,9.23c-2.5-3.08,2.21-5.67,4.13-2.93,2.07,2.93,4.23,7.21,5.62,11.2,2.6-1.83,5.34-3.56,8.46-5.29,3.27-1.83,5.77,2.79,2.07,4.66-4.9,2.5-9.85,5.29-13.65,8.51-4.76,4.04-4.9,7.64-1.15,9.47,3.36,1.68,10.24.43,13.12-.62,4.04-1.54,5.48,3.99,1.2,5.19-3.8,1.06-11.82,2.02-16.58-.38-6.92-3.51-6.63-11.3,1.15-17.5.48-.38.91-.77,1.39-1.11-1.25-3.8-3.56-8.51-5.77-11.2Z"/>
        <path class="cls-1" d="M249.41,23.02c-3.75,3.32-4.81,3.36-5.19,3.36-1.35,0-2.31-1.2-2.31-2.4,0-.72.34-1.44,1.15-1.92,4.13-2.4,8.27-6.63,11.2-11.54.48-.77,1.15-1.11,1.78-1.11,1.3,0,2.55,1.15,2.55,2.45,0,.82-.91,2.45-4.57,6.58l-.58,22.21c-.05,1.44-1.2,2.16-2.4,2.16-1.11,0-2.21-.67-2.21-2.07v-.1l.58-17.64ZM244.8,14.95c-1.35,0-2.4-1.01-2.4-2.16,0-.77.48-1.63,1.59-2.26,3.75-2.16,6.87-5.43,9.23-9.32.53-.87,1.25-1.2,1.92-1.2,1.25,0,2.4,1.06,2.4,2.36,0,.43-.14.96-.48,1.44-3.03,4.37-9.42,11.15-12.26,11.15ZM279.02,26.68l.05,2.93.19,6.44v.19c0,3.22-1.87,6.1-7.59,6.1-4.66,0-6.1-.91-6.1-2.69,0-1.15.77-2.26,2.11-2.26.14,0,.29,0,.48.05,1.35.29,2.5.43,3.41.43,2.02,0,3.03-.77,3.03-2.69l-.05-8.51h-15.81c-1.39,0-2.11-1.01-2.11-1.97,0-1.01.72-1.97,2.11-1.97h15.81l-.05-1.78c0-1.3,1.11-1.97,2.26-1.97s2.21.67,2.21,1.97l.05,1.78h4.95c1.35,0,2.02.96,2.02,1.97s-.67,1.97-2.02,1.97h-4.95ZM259.22,18.36c-1.39,0-2.11-1.01-2.11-1.97,0-1.01.72-1.97,2.11-1.97h9.42v-4.18h-7.26c-1.44,0-2.16-.96-2.16-1.97s.72-1.92,2.16-1.92h7.21V2.16c0-1.39,1.15-2.07,2.31-2.07s2.31.67,2.31,2.07v4.18h7.88c1.39,0,2.07.96,2.07,1.92,0,1.01-.67,1.97-2.07,1.97h-7.93v4.18h10.53c1.35,0,2.02.96,2.02,1.97s-.67,1.97-2.02,1.97h-24.47ZM266.04,34.7c-1.3-1.68-2.98-2.84-3.99-3.36-.72-.38-1.01-.91-1.01-1.49,0-1.01.91-2.02,2.21-2.02s6.63,2.79,6.63,5.29c0,1.35-1.06,2.5-2.21,2.5-.58,0-1.15-.29-1.63-.91Z"/>
        <path class="cls-1" d="M310.74,40.37c-3.8.62-4.18-3.99-.87-4.47,4.37-.62,7.69-1.92,10.09-4.04,2.88-2.55,3.03-5.19,1.59-6.83-2.07-2.36-5.86-2.31-8.99-1.39-3.46,1.06-6.58,2.98-9.85,4.47-3.32,1.54-5.19-2.93-2.07-4.23,3.08-1.25,7.26-3.17,11.06-4.13,4.04-1.01,9.56-1.06,12.93,2.45,4.04,4.18,2.4,9.52-1.97,13.17-2.88,2.4-6.68,4.13-11.92,5Z"/>
        <path class="cls-1" d="M356.3,17.35c.48-.91.91-1.68,1.54-2.5.77-1.01.53-.96-.38-.67-3.6,1.15-2.79,1.15-6.06,2.4-1.54.58-2.88,1.06-4.33,1.44-4.23,1.15-5.48-4.37-1.63-5.19,1.01-.24,3.8-.77,5.34-1.15,2.36-.58,6.54-1.54,11.44-2.93,4.95-1.39,8.89-2.55,13.12-2.84,2.98-.19,3.8,2.16,3.27,3.7-.29.82-1.35,1.78-4.71,1.59-2.45-.14-5.53.77-7.16,1.35-2.69.96-5.09,3.85-6.15,5.62-4.23,7.07-1.01,17.16,9.76,16.77,5.05-.19,5.34,5.48.24,5.43-14.52-.05-19.51-13.36-14.28-23.02Z"/>
      </g>
      <path class="cls-1" d="M390.25,43.57c-.62-.62-.94-1.39-.94-2.28s.31-1.66.94-2.28c.62-.62,1.39-.94,2.28-.94s1.66.31,2.28.94.94,1.39.94,2.28-.31,1.66-.94,2.28c-.62.62-1.39.94-2.28.94s-1.66-.31-2.28-.94ZM397.34,33.79c0-.29.1-.54.29-.77,2.37-3.72,5.22-8.52,8.56-14.42,1.79-3.14,3.23-5.61,4.3-7.4,1.07-1.79,2.11-3.38,3.1-4.76.51-.7,1.09-1.23,1.73-1.56.64-.34,1.28-.5,1.92-.5.93,0,1.73.33,2.4.99.67.66,1.01,1.48,1.01,2.48s-.37,2.05-1.11,3.08c-.74.99-1.67,2.11-2.81,3.36-1.14,1.25-2.84,3.06-5.12,5.43-2.72,2.82-5.09,5.32-7.09,7.5-2,2.18-3.92,4.41-5.74,6.68-.32.32-.61.48-.87.48-.38,0-.58-.19-.58-.58Z"/>
      <polygon class="cls-1" points="239 81.24 222.12 64.07 0 64.07 0 62.07 222.96 62.07 239 78.39 255.04 62.07 478 62.07 478 64.07 255.88 64.07 239 81.24"/>
    </g>
  </g>
</svg>