<?xml version="1.0" encoding="UTF-8"?>
<svg id="_レイヤー_2" data-name="レイヤー 2" xmlns="http://www.w3.org/2000/svg" viewBox="0 0 1023.88 511.69">
  <defs>
    <style>
      .cls-1 {
        fill: #515266;
      }

      .cls-2 {
        fill: none;
        stroke: #515266;
        stroke-miterlimit: 10;
        stroke-width: 1.75px;
      }

      .cls-3 {
        fill: #f5c73f;
      }
    </style>
  </defs>
  <g id="_レイヤー_2-2" data-name="レイヤー 2">
    <g>
      <g>
        <path class="cls-1" d="M205.81,17.4c-4.64,4.3-9.39,7.75-14.26,10.37-.25.14-.45.09-.59-.16-.11-.25-.07-.45.11-.59,2.94-2.01,5.95-4.57,9.05-7.71,3.1-3.13,5.76-6.33,7.98-9.59,2.08-2.94,3.4-5.84,3.97-8.7.04-.14.1-.24.19-.3.09-.05.21-.06.35-.03l6.55,2.04c.32.14.41.32.27.54-.29.32-.97.54-2.04.64,2.18,3.51,5.23,6.76,9.13,9.75,3.9,2.99,8.24,5.58,13,7.76.25.11.34.29.27.54v.05c-.07.21-.21.38-.43.48-.72.21-1.34.59-1.88,1.13-.54.54-.93,1.15-1.18,1.83-.11.29-.3.34-.59.16-4.3-2.58-8.17-5.7-11.6-9.37-3.44-3.67-6-7.55-7.68-11.63-2.44,4.23-5.97,8.49-10.61,12.78ZM206.8,31.48c-2.29.04-4.85.27-7.68.7h-.16c-.14,0-.27-.09-.38-.27l-.97-1.93s-.05-.11-.05-.21c0-.18.12-.27.38-.27,1.97.18,4.15.3,6.55.38h21.27l.97-1.24c.11-.11.26-.29.46-.54.2-.25.37-.44.51-.56.14-.13.29-.19.43-.19.29,0,1.02.5,2.2,1.5,1.18,1,1.92,1.77,2.2,2.31.11.18.07.36-.11.54-.47.32-1.25.54-2.36.64-.93,2.29-2.23,5.26-3.89,8.92-1.67,3.65-3.21,6.93-4.65,9.83-.14.21-.3.32-.48.32-.43.07-.77.11-1.02.11-.82,0-1.68-.2-2.58-.59-.32-.11-.39-.3-.21-.59,1.43-2.9,2.93-6.1,4.49-9.59,1.56-3.49,2.87-6.58,3.95-9.27h-18.86ZM211.21,22.13c-2.15.04-4.17.27-6.07.7h-.16c-.14,0-.27-.09-.38-.27l-.97-1.88s-.05-.11-.05-.21c0-.18.12-.27.38-.27,1.97.18,4.15.3,6.55.38h8.65l1.18-1.77c.11-.14.29-.39.54-.75.25-.36.46-.63.62-.81.16-.18.31-.27.46-.27.29,0,1.05.54,2.28,1.61,1.24,1.07,2,1.88,2.28,2.42.04.07.05.16.05.27,0,.29-.13.5-.4.64-.27.14-.6.21-.99.21h-13.97Z"/>
        <path class="cls-1" d="M262.35,14.99c-.97,2.72-2.43,6.64-4.38,11.76-1.95,5.12-3.2,8.33-3.73,9.62-.25.57-.62,1.03-1.1,1.37-.48.34-.98.51-1.48.51-1.07,0-1.61-1.11-1.61-3.33,0-.46.04-.8.11-.99.07-.2.25-.51.54-.94.43-.57.81-1.18,1.13-1.83l1.24-2.31c1.36-2.43,2.53-4.65,3.52-6.66.99-2.01,1.83-4.08,2.55-6.23-.54.11-1.02.16-1.45.16-1.68,0-3.01-.42-3.97-1.26-.97-.84-1.7-1.75-2.2-2.71-.21-.39-.32-.73-.32-1.02,0-.18.07-.27.21-.27s.39.18.75.54c.46.43,1.08.75,1.85.97.77.21,1.57.32,2.39.32s2.11-.21,3.76-.64c.14-.68.21-1.4.21-2.15,0-1.36-.3-2.36-.91-3.01-.32-.36-.72-.67-1.21-.94-.48-.27-.73-.46-.73-.56,0-.18.14-.32.43-.43.29-.11.64-.16,1.07-.16.64,0,1.25.11,1.83.32.93.32,1.64.7,2.12,1.13s.78.97.89,1.61c.11-.07.39-.11.86-.11l2.42-.05c.25,0,.47-.02.67-.05.2-.04.4-.05.62-.05.25,0,.45.02.59.05.43.04.77.21,1.02.51.25.3.38.67.38,1.1s-.13.86-.38,1.29c-.25.43-.57.79-.97,1.07-2.01,1.36-4.24,2.49-6.71,3.38ZM275.83,20.79c-.9,1.11-1.34,2.7-1.34,4.78,0,1.25.07,2.53.21,3.84.14,1.31.36,2.89.64,4.75.21,1.43.36,2.51.43,3.22,1.65.39,3.19.89,4.62,1.48,1.43.59,2.52,1.23,3.28,1.91.5.39.89.82,1.15,1.29.27.47.4.9.4,1.29,0,.5-.16.93-.48,1.29-.32.36-.72.54-1.18.54-.43,0-.91-.13-1.42-.4-.52-.27-1.17-.67-1.96-1.21-1.29-.86-2.63-1.56-4.03-2.1v.91c0,2.01-.78,3.6-2.34,4.78-1.56,1.18-3.41,1.77-5.56,1.77-1.25,0-2.49-.24-3.71-.73-1.22-.48-2.22-1.19-3.01-2.12-.79-.93-1.18-2.02-1.18-3.28,0-1.97.97-3.5,2.9-4.59,1.93-1.09,4.28-1.64,7.04-1.64.32,0,.95.04,1.88.11l-.05-2.15c-.07-2.15-.11-3.71-.11-4.67,0-2.61.2-4.67.59-6.18.39-1.5,1.19-2.77,2.39-3.81,1.2-1.04,3.02-1.93,5.45-2.69.64-.21.97-.54.97-.97,0-.72-.84-1.79-2.52-3.22-.29-.18-.43-.32-.43-.43s.16-.16.48-.16c.29,0,.65.05,1.1.13.45.09.83.21,1.15.35,1.47.5,2.87,1.32,4.19,2.44,1.32,1.13,1.99,2.28,1.99,3.46,0,.75-.26,1.38-.78,1.88-.52.5-1.12.75-1.8.75-.47,0-.88-.09-1.24-.27-.36-.18-.82-.48-1.4-.91-.54-.39-1.01-.68-1.42-.86-.41-.18-.87-.27-1.37-.27-1.47,0-2.65.56-3.54,1.67ZM271.21,44.32c.64-.97.98-2.31,1.02-4.03-1.5-.32-2.88-.48-4.14-.48-1.58,0-2.9.23-3.97.7-1.07.47-1.61,1.18-1.61,2.15s.48,1.77,1.45,2.31c.97.54,2.09.81,3.38.81,1.93,0,3.22-.48,3.87-1.45ZM263.64,10.85c.11-.07.24-.13.4-.19s.31-.13.46-.24c.72-.43,1.07-.77,1.07-1.02,0-.18-.2-.38-.59-.59-.11-.04-.29-.12-.54-.24-.25-.13-.41-.24-.48-.35v.48c0,.61-.11,1.33-.32,2.15Z"/>
        <path class="cls-1" d="M314.18,48.72c0-.18.08-.3.24-.38.16-.07.34-.13.54-.16.2-.04.33-.05.4-.05,5.66-.93,9.93-2.5,12.81-4.7,2.88-2.2,4.32-4.99,4.32-8.35,0-1.93-.44-3.48-1.32-4.65-.88-1.16-2.12-1.75-3.73-1.75s-3.17.65-4.46,1.96c-1.29,1.31-2.72,3.29-4.3,5.94-.32.61-.81,1.13-1.45,1.56s-1.2.64-1.67.64c-1.72,0-3.04-.52-3.95-1.56-.91-1.04-1.37-2.52-1.37-4.46,0-1.15.08-2.85.24-5.1.16-2.26.28-3.85.35-4.78.21-2.01.32-3.4.32-4.19,0-.54-.04-1.06-.13-1.56-.09-.5-.13-.88-.13-1.13,0-.75.21-1.39.64-1.91.43-.52,1.11-1.12,2.04-1.8.75-.57,2.1-1.31,4.03-2.2,1-.43,1.71-.76,2.12-.99.41-.23.62-.49.62-.78,0-.39-.32-.88-.97-1.45-.64-.57-1.38-1.09-2.2-1.56-.11-.07-.26-.15-.46-.24-.2-.09-.29-.19-.29-.3s.21-.19.64-.24.79-.08,1.07-.08c1.54,0,2.9.3,4.08.89,1.18.59,2.2,1.62,3.06,3.09.36.61.54,1.24.54,1.88,0,.72-.21,1.33-.64,1.83-.43.5-.91.75-1.45.75-.29,0-.56-.06-.81-.19-.25-.13-.5-.28-.75-.46-.5-.32-.95-.57-1.34-.75-.39-.18-.9-.27-1.5-.27-1.43,0-2.94.52-4.51,1.56-.39.21-.7.53-.91.94-.21.41-.32.8-.32,1.15,0,.29.06.56.19.83.12.27.21.44.24.51.43.79.65,1.52.65,2.2,0,.47-.13,1.65-.38,3.55-.5,3.22-.75,5.64-.75,7.25,0,.97.13,1.89.4,2.77.27.88.64,1.32,1.1,1.32.5,0,1.56-.59,3.17-1.77,1.83-1.32,3.52-2.38,5.08-3.17,1.56-.79,3.21-1.18,4.97-1.18,1.58,0,3.04.42,4.41,1.26,1.36.84,2.43,1.97,3.22,3.38.79,1.42,1.18,2.93,1.18,4.54s-.41,3.23-1.24,4.75c-.82,1.52-2.78,3.02-5.88,4.49-3.1,1.47-7.73,2.58-13.89,3.33-.47.07-.86.11-1.18.11-.47,0-.7-.11-.7-.32Z"/>
        <path class="cls-1" d="M394.55,20.68c.11-.18.28-.44.51-.78.23-.34.42-.59.56-.75.14-.16.29-.24.43-.24.29,0,1.02.52,2.2,1.56,1.18,1.04,1.9,1.83,2.15,2.36.04.18.04.36,0,.54-.21.39-.63.59-1.24.59h-7.74v11.07h1.88l1.07-1.77c.14-.21.31-.48.51-.81.2-.32.37-.56.51-.73.14-.16.29-.24.43-.24.29,0,1,.54,2.15,1.61,1.15,1.07,1.84,1.88,2.1,2.42l.05.21c0,.29-.13.51-.4.67-.27.16-.58.24-.94.24h-36.9c-2.29.04-4.85.27-7.68.7h-.16c-.14,0-.27-.09-.38-.27l-.97-1.93-.05-.21c0-.21.14-.29.43-.21,1.61.18,3.26.29,4.94.32h2.63v-11.07h-2.58c-1.43.04-2.85.25-4.24.64-.29.07-.47,0-.54-.21l-.97-1.88-.05-.21c0-.21.14-.29.43-.21,1.72.14,3.44.25,5.16.32h2.79v-9.02c-2.22,2.22-4.55,4.05-6.98,5.48-.21.11-.41.07-.59-.11l-.05-.05c-.18-.21-.18-.41,0-.59,1.54-1.58,3.15-3.63,4.83-6.18.93-1.43,1.85-3.13,2.77-5.1.91-1.97,1.55-3.69,1.91-5.16.07-.36.27-.45.59-.27,2.04.93,3.46,1.64,4.27,2.12s1.21.83,1.21,1.05c0,.18-.18.3-.54.38l-1.02.27c-.97,1.58-1.93,3.01-2.9,4.3l.64.27h26.75l1.18-1.77c.14-.18.33-.44.56-.78.23-.34.43-.59.59-.75.16-.16.31-.24.46-.24.29,0,1.05.53,2.28,1.58,1.24,1.06,2,1.85,2.28,2.39.04.07.05.16.05.27,0,.25-.13.46-.4.62-.27.16-.58.24-.94.24h-6.18v11.07h1.99l1.13-1.72ZM361.35,38.46c.29.07.43.21.43.43.21,1,.32,1.99.32,2.95,0,2.18-.44,4.04-1.32,5.56-.88,1.52-1.93,2.61-3.14,3.25-.68.43-1.42.64-2.2.64-.64,0-1.18-.18-1.61-.54-.43-.36-.65-.84-.65-1.45,0-.86.5-1.61,1.5-2.26l.38-.21c1.4-.61,2.66-1.63,3.79-3.06,1.13-1.43,1.8-3.06,2.01-4.89.07-.29.23-.43.48-.43ZM369.35,11.33h-5.05v11.07h5.05v-11.07ZM369.35,23.96h-5.05v11.07h5.05v-11.07ZM367.79,39.48c0-.18.09-.3.27-.38.22-.11.41-.07.59.11,1.61,1.4,2.79,2.8,3.54,4.22.75,1.42,1.13,2.75,1.13,4,0,1.04-.21,1.87-.64,2.5-.43.63-.97.94-1.61.94-.54,0-1.07-.27-1.61-.81-.14-.14-.21-.32-.21-.54.04-.29.05-.72.05-1.29,0-2.76-.48-5.62-1.45-8.59-.04-.04-.05-.09-.05-.16ZM378.54,22.4v-11.07h-5.43v11.07h5.43ZM378.54,35.02v-11.07h-5.43v11.07h5.43ZM377.41,39.11h.05c.18-.11.38-.11.59,0,2.54,1.29,4.41,2.74,5.61,4.35,1.2,1.61,1.8,3.1,1.8,4.46,0,.82-.19,1.49-.56,1.99-.38.5-.85.75-1.42.75-.47,0-.95-.18-1.45-.54-.11-.11-.2-.29-.27-.54-.18-1.54-.69-3.2-1.53-5-.84-1.79-1.8-3.42-2.87-4.89-.14-.25-.13-.45.05-.59ZM387.67,22.4v-11.07h-5.43v11.07h5.43ZM382.24,35.02h5.43v-11.07h-5.43v11.07ZM387.46,38.52c.14-.14.34-.18.59-.11,2.69.9,4.89,1.95,6.61,3.17,1.72,1.22,2.95,2.45,3.71,3.71.75,1.25,1.13,2.4,1.13,3.44,0,.79-.19,1.42-.56,1.91s-.85.73-1.42.73c-.39,0-.84-.14-1.34-.43-.18-.07-.29-.21-.32-.43-.57-1.83-1.66-3.8-3.25-5.91-1.59-2.11-3.29-3.94-5.08-5.48-.21-.21-.23-.41-.05-.59Z"/>
        <path class="cls-1" d="M424.2,20.74c.11-.14.27-.37.48-.67.21-.3.4-.54.56-.7s.31-.24.46-.24c.29,0,1,.48,2.15,1.42,1.15.95,1.84,1.67,2.1,2.18.04.07.05.16.05.27,0,.25-.13.46-.4.62s-.6.24-.99.24h-8.65v3.44c3.08.82,5.34,1.93,6.8,3.33,1.45,1.4,2.17,2.76,2.17,4.08,0,.68-.18,1.24-.54,1.67s-.81.64-1.34.64c-.43,0-.84-.13-1.24-.38-.14-.07-.25-.21-.32-.43-.39-1.29-1.11-2.67-2.15-4.14-1.04-1.47-2.17-2.76-3.38-3.87v8.65c.07,4.44.21,8.56.43,12.36,0,.18-.05.34-.16.48-.32.43-.81.81-1.48,1.13-.66.32-1.3.48-1.91.48-.36,0-.66-.11-.91-.32-.25-.21-.38-.47-.38-.75.14-1.86.26-3.69.35-5.48.09-1.79.15-4.06.19-6.82v-6.71c-2.19,4.33-5.19,8.22-9.02,11.66-.22.14-.41.13-.59-.05l-.11-.11c-.18-.18-.18-.38,0-.59,1.79-2.43,3.37-5.23,4.73-8.38,1.36-3.15,2.47-6.45,3.33-9.88h-2.69c-1.43.04-2.85.25-4.24.64h-.16c-.14,0-.27-.09-.38-.27l-.91-1.77s-.05-.11-.05-.21c0-.18.14-.27.43-.27,1.86.18,3.98.3,6.34.38h3.33v-9.67c0-3.9-.2-7.39-.59-10.48v-.11c0-.29.16-.38.48-.27,1.97.54,3.35.98,4.14,1.32.79.34,1.18.64,1.18.89,0,.18-.14.36-.43.54l-.91.59v17.19h3.12l1.13-1.61ZM407.17,6.61c.25-.11.45-.09.59.05,1.93,1.4,3.35,2.84,4.24,4.32.89,1.49,1.34,2.87,1.34,4.16,0,.9-.2,1.62-.59,2.18-.39.56-.88.83-1.45.83-.5,0-.97-.2-1.4-.59-.14-.14-.21-.32-.21-.54-.04-1.5-.31-3.14-.83-4.92-.52-1.77-1.14-3.43-1.85-4.97-.11-.25-.05-.43.16-.54ZM423.96,6.07c.09-.07.21-.07.35,0l2.9,1.13c1.61.36,2.42.7,2.42,1.02,0,.18-.2.36-.59.54l-.91.38c-2.01,3.9-3.83,6.98-5.48,9.24-.18.21-.38.27-.59.16l-.11-.05c-.21-.11-.29-.29-.21-.54l.21-.91c.43-1.65.82-3.46,1.18-5.45.36-1.99.59-3.71.7-5.18,0-.14.04-.25.13-.32ZM449.12,31.37c.11-.21.25-.52.43-.91.18-.39.33-.69.46-.89.12-.2.26-.3.4-.3.21,0,.71.23,1.48.7.77.47,1.48.97,2.12,1.5s.97.93.97,1.18c0,.57-.36.95-1.07,1.13l-6.61,1.45v4.83c.11,3.94.21,6.96.32,9.08,0,.21-.04.39-.11.54-.29.39-.78.76-1.48,1.1-.7.34-1.39.51-2.07.51-.36,0-.64-.11-.86-.32-.21-.21-.32-.47-.32-.75.21-3.01.36-6.02.43-9.02v-5.05l-14.13,3.06c-.29.07-.47,0-.54-.21l-.32-.59s-.05-.11-.05-.21c0-.18.11-.29.32-.32l14.72-3.28V12.68c0-3.9-.2-7.39-.59-10.48v-.11c0-.29.16-.38.48-.27,2.04.54,3.46.98,4.27,1.32.81.34,1.21.64,1.21.89,0,.18-.14.36-.43.54l-.86.59v28.52l.97-.21.86-2.09ZM430.16,19.66c.14-.14.32-.2.54-.16,2.11.39,3.84.97,5.18,1.72,1.34.75,2.32,1.57,2.93,2.44.61.88.91,1.71.91,2.5,0,.64-.18,1.17-.54,1.58-.36.41-.82.62-1.4.62-.43,0-.81-.09-1.13-.27-.14-.07-.27-.21-.38-.43-.43-1.25-1.22-2.57-2.36-3.95-1.15-1.38-2.36-2.55-3.65-3.52-.25-.18-.29-.36-.11-.54ZM431.34,7.04c.18-.11.36-.14.54-.11,2.94.72,5.09,1.73,6.47,3.04,1.38,1.31,2.07,2.59,2.07,3.84,0,.64-.18,1.18-.54,1.61-.36.43-.81.64-1.34.64-.43,0-.84-.13-1.24-.38-.18-.07-.29-.21-.32-.43-.39-1.25-1.11-2.58-2.15-3.98-1.04-1.4-2.17-2.63-3.38-3.71-.25-.25-.29-.43-.11-.54Z"/>
        <path class="cls-1" d="M499.43,26.91c1.16.97,1.75,2.49,1.75,4.57,0,1.93-.7,3.92-2.09,5.96-1.4,2.04-3.15,3.74-5.26,5.1-2.11,1.36-4.16,2.04-6.12,2.04-1.4,0-2.53-.39-3.41-1.18-.88-.79-1.32-1.9-1.32-3.33,0-1.97.9-4.32,2.69-7.04.32-.43.55-.64.7-.64s.21.09.21.27-.18.64-.54,1.4c-.25.57-.48,1.28-.7,2.12-.21.84-.32,1.62-.32,2.34,0,1.68.59,2.52,1.77,2.52,1.29,0,2.77-.56,4.46-1.69,1.68-1.13,3.12-2.5,4.32-4.11,1.2-1.61,1.8-3.08,1.8-4.4,0-2.33-1.31-3.49-3.92-3.49-2.4,0-5.52.88-9.35,2.63-1.76.79-3.64,1.83-5.64,3.12l.16,3.01c.11,1.72.16,2.88.16,3.49,0,1-.08,1.99-.24,2.95-.16.97-.33,1.61-.51,1.93-.21.39-.56.77-1.02,1.13-.47.36-.81.54-1.02.54-.68,0-1.17-.41-1.45-1.24-.5-1.29-1.11-2.4-1.83-3.33-.29-.39-.66-.75-1.13-1.07-.47-.32-1.07-.7-1.83-1.13l-1.45,1.07c-.54.39-.96.68-1.26.86-.3.18-.62.27-.94.27-.9,0-1.69-.42-2.39-1.26-.7-.84-1.05-1.75-1.05-2.71,0-.72.21-1.25.62-1.61.41-.36.8-.54,1.16-.54.21,0,.58.11,1.1.32.52.21.85.32.99.32l.43-.05c1.61-.54,4.58-1.95,8.92-4.24,0-3.83-.02-6.57-.05-8.22-1.47.54-2.79.97-3.98,1.29-.75.11-1.2.16-1.34.16-1.18,0-2.18-.29-3.01-.86-1.36-.93-2.45-1.95-3.28-3.06-.29-.29-.43-.52-.43-.7,0-.14.09-.21.27-.21.14,0,.37.06.67.19.3.13.53.22.67.3l.43.21c1.18.47,2.54.7,4.08.7.5,0,.86-.02,1.07-.05.93-.11,2.54-.54,4.83-1.29-.11-3.87-.41-6.32-.91-7.36-.25-.57-.62-1.02-1.1-1.34-.48-.32-.95-.57-1.4-.75-.45-.18-.74-.3-.89-.38-.11-.04-.28-.09-.51-.16-.23-.07-.35-.16-.35-.27,0-.25.34-.52,1.02-.81.75-.25,1.38-.38,1.88-.38.82,0,1.66.16,2.5.48.84.32,1.5.7,1.96,1.13.54.47.81,1.18.81,2.15,0,.29-.04.61-.11.97-.07.36-.13.63-.16.81,0,.14-.02.25-.05.32.54.61,1.06,1.07,1.56,1.4.93.64,1.79,1.06,2.58,1.24.68.14,1.2.33,1.56.56.36.23.54.56.54.99,0,.54-.11.94-.32,1.21-.21.27-.57.51-1.07.73l-2.85,1.13c-.43.14-.83.29-1.21.43-.38.14-.71.27-.99.38v2.9c0,1.11.04,2.74.11,4.89,2.51-1.25,4.19-2.04,5.05-2.36,4.62-1.79,8.36-2.69,11.23-2.69,2,0,3.59.48,4.75,1.45ZM475.88,34.81c-1.15.79-2.87,2.04-5.16,3.76.61.36,1.45.78,2.52,1.26,1.07.48,1.72.73,1.93.73.36,0,.56-.25.59-.75.07-.5.11-2.17.11-5ZM478.35,18.05l-.05,1.18c.29-.11.48-.21.59-.32.11-.07.28-.19.51-.35.23-.16.35-.35.35-.56s-.11-.48-.32-.81c-.07-.14-.39-.64-.97-1.5-.07,1-.11,1.79-.11,2.36ZM504.83,17.43c.93.48,1.66,1.1,2.18,1.85.52.75.78,1.5.78,2.26s-.21,1.33-.64,1.75c-.43.41-.95.62-1.56.62-.79,0-1.4-.3-1.83-.91-1.75-2.22-3.44-3.33-5.05-3.33-.72,0-1.49.3-2.31.91-.32.18-.68.43-1.07.75-.39.32-.64.48-.75.48-.21,0-.32-.11-.32-.32,0-.14.09-.34.27-.59,1.18-1.58,2.34-2.67,3.49-3.28,1.15-.61,2.38-.91,3.71-.91,1.15,0,2.18.24,3.12.73Z"/>
        <path class="cls-1" d="M549.15,3.6c.14-.18.29-.38.43-.59.14-.21.3-.41.46-.59.16-.18.31-.27.46-.27.29,0,1.02.52,2.2,1.56,1.18,1.04,1.92,1.83,2.2,2.36.11.14.07.3-.11.48-.5.39-1.16.66-1.99.81v14.07c.07,4.48.21,8.58.43,12.3,0,.21-.07.39-.21.54-.39.36-.96.69-1.69.99-.73.3-1.39.46-1.96.46-.5,0-.79-.27-.86-.81l.05-.54s.04-.13.11-.48v-.91h-4.3v12.3c0,.39.12.65.35.78.23.13.78.19,1.64.19h5.05c2.61,0,4.15-.02,4.62-.05.32-.04.55-.1.7-.19.14-.09.27-.28.38-.56.36-.64.93-2.94,1.72-6.88.04-.25.2-.38.48-.38.22,0,.32.14.32.43l.11,7.09c.61.25,1.02.51,1.24.78.21.27.32.62.32,1.05,0,.68-.27,1.2-.81,1.56-.54.36-1.53.63-2.98.81-1.45.18-3.55.27-6.31.27h-5.59c-1.5,0-2.62-.12-3.36-.35-.73-.23-1.25-.63-1.53-1.18-.29-.56-.43-1.37-.43-2.44v-13.21h-5.32c-.5,3.62-1.51,6.62-3.04,9-1.52,2.38-3.68,4.31-6.47,5.77-2.79,1.47-6.41,2.61-10.85,3.44h-.11c-.22,0-.36-.11-.43-.32v-.11c0-.21.11-.36.32-.43,3.62-1.15,6.53-2.48,8.73-4,2.2-1.52,3.88-3.36,5.02-5.51,1.15-2.15,1.9-4.76,2.26-7.84h-3.71v1.77c0,.29-.36.61-1.07.97-.72.36-1.49.54-2.31.54-.32,0-.6-.11-.83-.32-.23-.21-.35-.46-.35-.75.14-2.08.26-4.14.35-6.18.09-2.04.15-4.62.19-7.74v-7.52c0-4.23-.2-7.7-.59-10.42v-.11c0-.14.04-.23.11-.27.07-.04.18-.02.32.05l4.57,2.04h21.11l.97-1.45ZM548.66,13.64v-6.98h-21.97v6.98h21.97ZM526.69,22.51h21.97v-7.25h-21.97v7.25ZM548.66,24.01h-21.97v7.36h21.97v-7.36Z"/>
        <path class="cls-1" d="M608.4,10.9c.11-.14.26-.34.46-.59.2-.25.37-.44.51-.56.14-.13.29-.19.43-.19.32,0,.98.39,1.99,1.15,1,.77,1.61,1.39,1.83,1.85.04.18.04.36,0,.54-.21.39-.63.59-1.24.59h-10.21v4.19h6.93l1.02-1.56c.14-.18.3-.39.46-.64.16-.25.33-.46.51-.64.18-.18.34-.27.48-.27.29,0,.98.47,2.07,1.4,1.09.93,1.76,1.65,2.01,2.15.04.18.02.36-.05.54-.21.39-.63.59-1.24.59h-27.77c-.25.25-.63.38-1.13.38h-6.34v5.21c2.43,1,4.23,2.13,5.37,3.38,1.15,1.25,1.72,2.44,1.72,3.55,0,.61-.16,1.11-.48,1.5-.32.39-.73.59-1.24.59-.43,0-.86-.16-1.29-.48-.14-.07-.25-.21-.32-.43-.29-1.07-.78-2.24-1.48-3.49-.7-1.25-1.46-2.42-2.28-3.49v10.96c.07,4.48.21,8.58.43,12.3,0,.21-.07.39-.21.54-.32.36-.78.67-1.37.94-.59.27-1.26.4-2.01.4-.32,0-.6-.11-.83-.32-.23-.21-.35-.47-.35-.75.14-1.97.26-3.91.35-5.83.09-1.92.15-4.36.19-7.33v-7.14c-2.08,4.33-4.69,8.13-7.84,11.39-.21.21-.43.21-.64,0l-.11-.11c-.18-.18-.2-.38-.05-.59,1.83-2.79,3.4-5.99,4.73-9.59,1.32-3.6,2.36-7.33,3.12-11.2h-2.2c-1.11.04-2.2.25-3.28.64h-.16c-.14,0-.27-.09-.38-.27l-.91-1.77c-.04-.07-.05-.16-.05-.27,0-.18.12-.25.38-.21,1.61.18,3.22.29,4.83.32h2.58v-8.97c-3.08.75-5.53,1.27-7.36,1.56h-.11c-.18,0-.3-.11-.38-.32v-.21c0-.18.09-.3.27-.38,2.36-.89,4.82-2.04,7.36-3.44s4.58-2.7,6.12-3.92c.21-.18.43-.16.64.05,2.69,2.11,4.03,3.38,4.03,3.81,0,.18-.27.27-.81.27l-1.4-.05c-1.4.54-2.92,1.06-4.57,1.56v10.05h1.18l2.09-2.85c.18-.25.38-.27.59-.05,1.08.97,1.97,1.81,2.69,2.52h12.62v-4.19h-3.33c-1.93.07-3.78.3-5.53.7-.11,0-.21-.02-.32-.05-.11-.04-.18-.11-.21-.21l-.97-1.83s-.05-.11-.05-.21c0-.18.14-.27.43-.27,1.93.18,4.1.3,6.5.38h3.49v-3.81h-3.71c-2.26.04-4.39.27-6.39.7h-.16c-.14,0-.27-.09-.38-.27l-.97-1.83s-.05-.11-.05-.21c0-.18.14-.27.43-.27,1.93.18,4.1.3,6.5.38h4.73c0-1.75-.07-3.2-.21-4.35,0-.36.16-.48.48-.38,1.86.5,3.16.92,3.89,1.26.73.34,1.1.64,1.1.89,0,.18-.16.36-.48.54l-.91.59v1.45h6.39l1.02-1.61c.11-.14.26-.37.46-.67.2-.3.37-.54.51-.7.14-.16.29-.24.43-.24.29,0,.98.48,2.07,1.42,1.09.95,1.76,1.67,2.01,2.18l.05.21c0,.29-.13.51-.4.67s-.58.24-.94.24h-11.6v3.81h5.26l.97-1.29ZM595.61,41.9l2.26,2.04c1.33.75,1.99,1.29,1.99,1.61,0,.21-.2.32-.59.32h-.91c-2.08,1.15-4.43,2.18-7.06,3.09s-5.31,1.67-8.03,2.28h-.16c-.14,0-.27-.09-.38-.27l-.11-.21c-.11-.25-.04-.43.21-.54,1.79-.79,3.04-1.38,3.76-1.77,1.54-.79,3.09-1.78,4.65-2.98,1.56-1.2,2.82-2.37,3.79-3.52.14-.21.34-.23.59-.05ZM608.07,21.33c.11-.14.25-.34.43-.59.18-.25.33-.44.46-.56.13-.13.26-.19.4-.19.29,0,.98.46,2.07,1.37,1.09.91,1.78,1.62,2.07,2.12.11.18.07.36-.11.54-.43.39-1.04.66-1.83.81v5.53c.11,4.66.23,8.15.38,10.48,0,.21-.07.39-.21.54-.32.32-.84.62-1.56.89-.72.27-1.34.4-1.88.4h-.21c-.29,0-.43-.14-.43-.43v-1.13h-14.45v1.07c0,.25-.35.54-1.05.86-.7.32-1.42.48-2.18.48-.29,0-.52-.11-.7-.32-.18-.21-.27-.47-.27-.75.14-1.68.27-3.98.38-6.88v-4.03c0-4.23-.2-7.7-.59-10.42v-.11c0-.14.04-.23.11-.27.07-.04.18-.02.32.05l4.24,1.88h13.7l.91-1.34ZM607.64,28.15v-3.98h-14.45v3.98h14.45ZM593.19,33.73h14.45v-3.98h-14.45v3.98ZM593.19,35.29v4.24h14.45v-4.24h-14.45ZM602.38,43.24v-.05c.14-.25.34-.36.59-.32,4.26.82,7.34,1.84,9.24,3.06,1.9,1.22,2.85,2.38,2.85,3.49,0,.54-.21.98-.62,1.34-.41.36-.9.54-1.48.54-.68,0-1.31-.29-1.88-.86-.86-1.07-2.02-2.19-3.49-3.36-1.47-1.16-3.13-2.25-5-3.25-.25-.14-.32-.34-.21-.59Z"/>
        <path class="cls-1" d="M650.94,14.32c1.25,1.13,2.28,2.77,3.09,4.92.81,2.15,1.21,4.64,1.21,7.47,0,11.93-5.44,19.5-16.33,22.72-.32.14-.61.21-.86.21-.29,0-.43-.13-.43-.38,0-.14.09-.27.27-.38,4.76-1.97,8.1-4.98,10.02-9.02,1.92-4.05,2.87-8.34,2.87-12.89,0-3.37-.42-6.21-1.26-8.54-.84-2.33-2.01-3.49-3.52-3.49-1.22,0-2.36.73-3.44,2.2-1.07,1.47-1.94,3.18-2.61,5.13-.66,1.95-.99,3.57-.99,4.86,0,.61.11,1.21.32,1.8.21.59.5,1.24.86,1.96.25.5.47,1,.67,1.5.2.5.29.95.29,1.34,0,.47-.15.84-.46,1.13-.3.29-.67.43-1.1.43-1,0-1.87-.43-2.61-1.29-.73-.86-1.3-1.94-1.69-3.25-.39-1.31-.59-2.59-.59-3.84,0-1.54.18-3.29.54-5.24.36-1.95.86-4.23,1.5-6.85.86-3.65,1.29-6,1.29-7.04,0-.93-.29-1.7-.86-2.31-.25-.25-.52-.49-.81-.73-.29-.23-.43-.44-.43-.62s.14-.34.43-.48c.29-.14.66-.21,1.13-.21,1.11,0,2.01.47,2.71,1.4.7.93,1.05,2.08,1.05,3.44,0,1.15-.13,2.27-.4,3.38-.27,1.11-.67,2.45-1.21,4.03l-.75,2.36c-.25.9-.45,1.93-.59,3.12,1.25-2.79,2.54-4.92,3.87-6.37,1.32-1.45,2.97-2.18,4.94-2.18,1.32,0,2.61.56,3.87,1.69Z"/>
        <path class="cls-1" d="M681.4,21.81c-1.9,2.79-3.92,5.25-6.07,7.36-.18.18-.38.2-.59.05h-.05c-.25-.18-.29-.38-.11-.59,2.87-4.4,5.43-9.65,7.68-15.74.57-1.65,1.13-3.54,1.67-5.67.54-2.13.88-3.93,1.02-5.4.04-.32.21-.43.54-.32,2.18.72,3.7,1.27,4.54,1.67.84.39,1.26.7,1.26.91,0,.14-.16.29-.48.43l-.97.38c-1.33,3.69-2.99,7.45-5,11.28,1.29.97,1.93,1.67,1.93,2.1,0,.18-.14.36-.43.54l-.75.32v17.94c.07,4.48.21,8.58.43,12.3,0,.21-.07.39-.21.54-.43.36-.98.68-1.64.97-.66.29-1.32.43-1.96.43-.39,0-.72-.11-.99-.32-.27-.21-.4-.47-.4-.75.14-2.11.27-4.16.38-6.15.11-1.99.18-4.59.21-7.82v-14.45ZM716.1,10.37c.18-.25.38-.55.62-.89.23-.34.43-.59.59-.75s.31-.24.46-.24c.32,0,1.15.55,2.47,1.64,1.33,1.09,2.13,1.91,2.42,2.44.04.07.05.16.05.27,0,.25-.13.46-.4.62-.27.16-.58.24-.94.24h-15.15c.61,5.59,1.72,10.46,3.33,14.61l1.61-1.88c1.11-1.29,2.23-2.72,3.36-4.3,1.13-1.58,2.05-3.01,2.77-4.3.07-.14.16-.22.27-.24.11-.02.21.03.32.13,2.79,2.47,4.19,3.94,4.19,4.4,0,.14-.16.21-.48.21l-.86-.05c-1.22.93-2.85,2.07-4.89,3.41-2.04,1.34-3.99,2.59-5.86,3.73,2.76,6.63,7.11,11.89,13.05,15.79.18.11.27.25.27.43,0,.29-.14.45-.43.48-1.79.39-2.97,1.54-3.55,3.44-.04.14-.1.23-.19.27-.09.04-.21,0-.35-.11-4.37-3.8-7.55-8.68-9.54-14.67-1.99-5.98-3.27-12.64-3.84-19.98-1.65,2.83-3.65,5.46-6.02,7.9v20.09c3.22-.89,6.61-1.93,10.15-3.12h.11c.21,0,.36.09.43.27v.16c0,.14-.07.27-.21.38-6.2,3.37-12.3,6.39-18.32,9.08-.14.47-.39.84-.75,1.13-.07.07-.16.11-.27.11-.14,0-.25-.09-.32-.27l-2.04-4.3-.05-.21c0-.18.11-.29.32-.32,1.32-.25,3.65-.84,6.98-1.77v-17.46c-2.79,2.26-5.8,4.24-9.02,5.96-.29.18-.48.14-.59-.11-.11-.25-.07-.45.11-.59,3.22-2.4,6.16-5.24,8.81-8.51,2.65-3.28,4.62-6.54,5.91-9.8h-4.19c-2.22.04-4.67.27-7.36.7h-.16c-.14,0-.27-.09-.38-.27l-.97-1.83s-.05-.11-.05-.21c0-.18.14-.27.43-.27,1.93.18,4.1.3,6.5.38h7.9c0-3.62-.2-6.84-.59-9.67,0-.36.18-.48.54-.38,2.08.54,3.51.97,4.3,1.29.79.32,1.18.61,1.18.86,0,.14-.13.3-.38.48l-.86.54v6.88h8.33l1.24-1.83Z"/>
        <path class="cls-1" d="M747.04,15.63c.11-.14.29-.38.54-.73.25-.34.48-.51.7-.51.32,0,.97.41,1.93,1.24.97.82,1.58,1.49,1.83,1.99.11.14.07.3-.11.48-.39.39-.95.64-1.67.75v3.6c.04.57.05,1.31.05,2.2.04,1.65.11,3.13.21,4.46,0,.14-.05.3-.16.48-.29.29-.76.56-1.42.83-.66.27-1.25.4-1.75.4h-.16c-.29,0-.43-.14-.43-.43v-1.61h-4.24v3.55c2.94.93,5.1,2.08,6.5,3.44,1.4,1.36,2.09,2.65,2.09,3.87,0,.61-.17,1.11-.51,1.5-.34.39-.76.59-1.26.59-.43,0-.9-.16-1.4-.48-.14-.07-.27-.21-.38-.43-.39-1.11-1.07-2.35-2.01-3.71-.95-1.36-1.96-2.6-3.04-3.71v5.48c.11,4.58.23,8.04.38,10.37,0,.21-.05.39-.16.54-.29.36-.75.7-1.4,1.02s-1.25.48-1.83.48c-.32,0-.59-.11-.81-.32-.21-.21-.32-.47-.32-.75.21-2.9.36-5.84.43-8.81v-4.94c-2.54,4.3-5.8,7.97-9.78,11.01-.25.18-.45.16-.59-.05l-.11-.16c-.18-.21-.18-.41,0-.59,2.18-2.4,4.1-5.14,5.75-8.22,1.65-3.08,2.96-6.3,3.92-9.67h-3.49v1.83c0,.18-.33.41-.99.7-.66.29-1.33.43-2.01.43-.21,0-.39-.11-.54-.32-.14-.21-.21-.47-.21-.75.11-1.04.18-2.06.21-3.06l.05-1.45v-2.79c0-2.86-.14-5.53-.43-8v-.11c0-.14.04-.23.13-.27.09-.04.21-.02.35.05l3.71,1.77h4.03v-5.21h-3.12c-1.72.04-3.42.25-5.1.64-.29.07-.47,0-.54-.21l-.91-1.93s-.05-.11-.05-.21c0-.18.13-.27.38-.27,1.86.18,3.92.3,6.18.38h3.17c0-2.79-.14-5.39-.43-7.79v-.11c0-.29.16-.38.48-.27,1.86.54,3.16.98,3.89,1.32.73.34,1.1.64,1.1.89,0,.18-.14.36-.43.54l-.91.59v4.83h3.44l1.18-1.72c.18-.21.38-.48.59-.81.21-.32.39-.56.54-.73.14-.16.29-.24.43-.24.29,0,1.03.53,2.23,1.58,1.2,1.06,1.94,1.85,2.23,2.39l.05.21c0,.29-.13.51-.4.67-.27.16-.6.24-.99.24h-9.29v5.21h3.81l.86-1.18ZM738.66,18.32h-4.3v8.92h4.3v-8.92ZM746.61,27.23v-8.92h-4.24v8.92h4.24ZM758.7,40.18l2.53,1.83c1.43.68,2.15,1.2,2.15,1.56,0,.18-.18.27-.54.27h-.81c-1.4,1.36-3.36,2.73-5.88,4.11-2.53,1.38-5.09,2.5-7.71,3.36h-.16c-.18,0-.32-.07-.43-.21l-.05-.05s-.05-.11-.05-.21c0-.14.09-.27.27-.38.72-.43,1.79-1.18,3.22-2.26,1.4-1.07,2.74-2.34,4.03-3.79,1.29-1.45,2.24-2.8,2.85-4.06.18-.29.38-.34.59-.16ZM769.6,12.03c.07-.11.2-.29.38-.54.18-.25.34-.44.48-.56.14-.13.29-.19.43-.19.32,0,1,.45,2.04,1.34,1.04.9,1.68,1.61,1.93,2.15.11.14.07.3-.11.48-.43.36-.99.59-1.67.7v11.07c.07,4.48.21,8.58.43,12.3,0,.21-.07.39-.21.54-.39.32-.94.63-1.64.91-.7.29-1.32.43-1.85.43h-.21c-.29,0-.43-.14-.43-.43v-1.45h-11.44v1.18c0,.25-.35.55-1.05.89-.7.34-1.42.51-2.18.51-.29,0-.54-.11-.75-.32-.21-.21-.32-.46-.32-.75.25-3.51.41-7.41.48-11.71v-6.39c0-4.23-.2-7.7-.59-10.42v-.11c0-.14.04-.23.11-.27.07-.04.18-.02.32.05l4.24,1.88h2.26c.29-1.68.52-3.67.7-5.96h-3.17c-1.75.04-3.49.25-5.21.64-.29.07-.47,0-.54-.21l-.97-1.83s-.05-.11-.05-.21c0-.18.14-.27.43-.27,1.93.18,4.1.3,6.5.38h11.01l1.24-1.83c.11-.14.29-.39.54-.75.25-.36.46-.63.62-.81.16-.18.31-.27.46-.27.29,0,1.07.55,2.34,1.64,1.27,1.09,2.05,1.91,2.34,2.44l.05.21c0,.57-.45.86-1.34.86h-9.56c-1.18,2.26-2.42,4.24-3.71,5.96h6.77l.91-1.29ZM769.17,21.11v-6.23h-11.44v6.23h11.44ZM769.17,22.67h-11.44v6.45h11.44v-6.45ZM757.73,30.67v6.55h11.44v-6.55h-11.44ZM764.82,40.99c.14-.14.32-.2.54-.16,2.4.57,4.38,1.33,5.94,2.28,1.56.95,2.69,1.93,3.38,2.93s1.05,1.95,1.05,2.85c0,.68-.19,1.24-.56,1.67-.38.43-.85.64-1.42.64-.43,0-.82-.09-1.18-.27-.14-.07-.27-.21-.38-.43-.61-1.43-1.6-2.96-2.98-4.59-1.38-1.63-2.82-3.09-4.32-4.38-.21-.18-.23-.36-.05-.54Z"/>
        <path class="cls-1" d="M819.91,8.73c1.13.73,1.69,1.58,1.69,2.55,0,.47-.15.84-.46,1.13-.3.29-.67.43-1.1.43-.54,0-1.45-.11-2.74-.32-1.5-.29-2.65-.43-3.44-.43-.93,0-1.84.11-2.71.32-.88.21-1.57.41-2.07.59-1.54.68-2.9,2.18-4.08,4.49-1.18,2.31-2.1,4.89-2.77,7.74-.66,2.85-.99,5.36-.99,7.55,0,3.55.55,6.02,1.64,7.41,1.09,1.4,2.87,2.1,5.34,2.1l1.45-.11c1.07-.14,1.92-.21,2.52-.21,1.29,0,2.31.2,3.06.59.75.39,1.13.97,1.13,1.72,0,1.07-.73,1.77-2.18,2.1-1.45.32-2.96.48-4.54.48-4.44,0-7.57-1.1-9.4-3.3-1.83-2.2-2.74-5.68-2.74-10.45,0-4.3.92-8.25,2.77-11.84s4.16-6.53,6.96-8.78c-.11,0-.34.04-.7.11-1.25.21-3.14.83-5.67,1.85-2.52,1.02-5.06,2.14-7.6,3.36-.43.25-.81.48-1.13.67-.32.2-.61.37-.86.51-.75.54-1.4.93-1.93,1.18-.54.25-1.13.38-1.77.38-1.04,0-2.11-.51-3.22-1.53-1.11-1.02-1.88-2-2.31-2.93-.14-.25-.21-.48-.21-.7,0-.32.16-.48.48-.48.21,0,.45.07.7.21.5.29.96.51,1.37.67.41.16.89.24,1.42.24.21,0,.54-.04.97-.11.29-.07,1.47-.45,3.54-1.13,3.69-1.29,7.2-2.43,10.53-3.41,3.33-.98,6.37-1.66,9.13-2.01.82-.11,1.84-.41,3.06-.91.68-.29,1.25-.49,1.72-.62.46-.13.97-.19,1.5-.19,1.29,0,2.5.37,3.63,1.1ZM823.48,10.5c-.43-.27-.73-.69-.91-1.26-.36-1.11-.79-2.07-1.29-2.87-.5-.81-1.2-1.53-2.1-2.18-.11-.07-.32-.21-.64-.43-.32-.21-.48-.41-.48-.59,0-.21.16-.32.48-.32.46,0,1.39.22,2.77.67,1.38.45,2.64,1.11,3.79,1.99,1.15.88,1.72,1.98,1.72,3.3,0,.68-.21,1.2-.62,1.56-.41.36-.89.54-1.42.54-.43,0-.86-.13-1.29-.4ZM829.66,6.96c-.39-.27-.72-.65-.97-1.15-.47-1.04-.94-1.86-1.42-2.47-.48-.61-1.21-1.24-2.18-1.88-.21-.14-.5-.32-.86-.54-.36-.21-.54-.41-.54-.59,0-.21.23-.32.7-.32.75,0,1.8.2,3.14.59,1.34.39,2.54,1,3.6,1.83,1.06.82,1.58,1.83,1.58,3.01,0,.68-.2,1.17-.59,1.48-.39.3-.84.46-1.34.46-.36,0-.73-.13-1.13-.4Z"/>
      </g>
      <g>
        <g>
          <path class="cls-1" d="M363.86,455.79c0-.18.3-.43.89-.76,5.35-2.76,9.8-5.98,13.35-9.65,3.55-3.67,6.17-7.06,7.87-10.18,1.69-3.12,2.57-5.2,2.63-6.24,0-.24-.13-.36-.4-.36s-1.49.15-3.68.45c-2.18.3-4.52.68-7,1.16-2.48.48-4.55.97-6.22,1.47-.65.21-1.26.31-1.83.31-.92,0-1.72-.27-2.41-.8-.53-.45-1-1.05-1.38-1.83-.39-.77-.58-1.4-.58-1.87,0-.33.13-.49.4-.49s.61.12,1.03.36c.65.27,1.2.45,1.65.53.45.09.94.13,1.47.13.92,0,3.6-.18,8.04-.53,4.44-.36,7.14-.67,8.09-.94.54-.15,1.07-.36,1.6-.62,1.07-.42,1.75-.62,2.05-.62.33,0,.86.24,1.6.71.74.48,1.41,1.03,2,1.65.59.62.89,1.14.89,1.56,0,.33-.09.62-.27.89-.18.27-.48.62-.89,1.07-.77.83-1.32,1.56-1.65,2.18-1.99,3.89-4.25,7.21-6.77,9.94-2.53,2.73-5.33,5.05-8.42,6.95-3.09,1.9-6.76,3.74-11.01,5.53-.36.15-.61.22-.76.22-.21,0-.31-.07-.31-.22ZM393.23,425.69c-.83-.82-1.25-1.82-1.25-3.01s.42-2.19,1.25-3.01c.83-.82,1.84-1.23,3.03-1.23s2.19.42,3.01,1.25c.82.83,1.23,1.83,1.23,2.99s-.42,2.19-1.25,3.01c-.83.82-1.83,1.23-2.99,1.23s-2.2-.41-3.03-1.23ZM398.4,424.82c.59-.59.89-1.31.89-2.14s-.3-1.55-.89-2.16c-.59-.61-1.31-.91-2.14-.91s-1.54.31-2.14.91c-.59.61-.89,1.33-.89,2.16s.3,1.55.89,2.14c.59.59,1.31.89,2.14.89s1.54-.3,2.14-.89Z"/>
          <path class="cls-1" d="M414.58,450.96c-.53-.46-1.01-.98-1.43-1.56-.42-.58-.62-.99-.62-1.23,0-.15.07-.35.2-.6.13-.25.22-.51.25-.78.24-1.6.36-3.79.36-6.55,0-3.09-.19-6.11-.58-9.05-.12-.98-.82-1.47-2.09-1.47-.18,0-.34,0-.49-.02-.15-.01-.22-.07-.22-.16,0-.39.31-.71.94-.96.62-.25,1.2-.38,1.74-.38.56,0,1.25.13,2.05.38.8.25,1.5.58,2.09.98.59.4.89.82.89,1.27,0,.33-.16.74-.49,1.25-.24.33-.42.64-.53.94-.12.3-.19.7-.22,1.2l-.09,2.54-.13,4.32c0,1.99.03,3.34.09,4.06.03.39.07.68.13.87.06.19.19.29.4.29.42,0,1.92-.62,4.52-1.85,2.6-1.23,5.61-3.02,9.02-5.35,3.42-2.33,6.71-5.16,9.89-8.49.33-.36.58-.53.76-.53.09,0,.13.07.13.22,0,.12-.05.27-.16.45-.1.18-.22.33-.33.45-2.38,3.15-5.05,6.02-8.02,8.62-2.97,2.6-5.68,4.71-8.11,6.33-2.44,1.62-4.34,2.77-5.71,3.45-.27.15-.67.49-1.2,1.03-.36.36-.65.62-.87.78-.22.16-.48.25-.78.25-.39,0-.85-.23-1.38-.69Z"/>
          <path class="cls-1" d="M477.98,433c.97.49,1.84,1.05,2.63,1.67.79.62,1.18,1.22,1.18,1.78,0,.24-.1.42-.29.53-.19.12-.54.27-1.05.45l-.85.31c-.3.12-.73.37-1.29.76l-1.03.62c-2.08,1.28-3.71,2.21-4.9,2.81-.39.21-.61.31-.67.31s-.09-.03-.09-.09c0-.09.15-.28.45-.58.68-.71,1.37-1.68,2.07-2.9.7-1.22,1.05-2.14,1.05-2.76,0-.5-.21-.76-.62-.76-.3,0-1.36.25-3.19.76-1.83.51-3.74,1.08-5.73,1.74-.12,2.58-.18,5.02-.18,7.31,0,1.58.1,2.79.29,3.65.19.86.64,1.54,1.34,2.03.7.49,1.79.74,3.28.74.68,0,1.37-.07,2.07-.2s1.6-.33,2.7-.6c1.37-.33,2.27-.49,2.72-.49.89,0,1.7.19,2.43.56.73.37,1.09.85,1.09,1.45,0,.89-.89,1.52-2.67,1.87-.74.18-1.81.34-3.21.49-1.4.15-2.76.22-4.1.22-2.44,0-4.28-.32-5.53-.96-1.25-.64-2.09-1.59-2.54-2.85-.45-1.26-.67-3.02-.67-5.28,0-1.25.03-3.24.09-5.97v-.94c-1.81.71-2.96,1.19-3.43,1.43-.68.33-1.37.7-2.05,1.11-.59.36-1.08.62-1.45.8-.37.18-.71.27-1,.27-.53,0-1.23-.21-2.07-.62-.85-.42-1.59-.91-2.23-1.49-.64-.58-.96-1.09-.96-1.54,0-.21.1-.31.31-.31.09,0,.25.04.47.13s.39.15.51.18c.77.27,1.5.4,2.18.4s2.02-.24,3.92-.71c1.9-.47,3.85-1.03,5.84-1.65v-.67c.03-.77.04-1.89.04-3.34,0-1.25-.01-2.03-.04-2.36-.06-.62-.16-1.11-.31-1.47s-.45-.7-.89-1.03c-.24-.18-.47-.32-.69-.42-.22-.1-.39-.19-.49-.25-.1-.06-.16-.15-.16-.27,0-.3.33-.59.98-.89.65-.3,1.26-.45,1.83-.45.48,0,1.05.15,1.72.45.67.3,1.24.68,1.72,1.14.47.46.71.91.71,1.36,0,.33-.13.79-.4,1.38-.33.8-.55,1.47-.67,2.01-.15.98-.27,2.26-.36,3.83.56-.18,1.5-.45,2.81-.8.3-.09,1.12-.32,2.47-.69,1.35-.37,2.22-.66,2.61-.87.3-.12.53-.23.69-.33.16-.1.29-.17.38-.2.27-.15.52-.27.76-.38.24-.1.46-.16.67-.16.24,0,.84.25,1.8.74ZM479.69,424.84c1.16.31,2.21.81,3.16,1.49.95.68,1.43,1.56,1.43,2.63,0,.56-.16.99-.49,1.27-.33.28-.71.42-1.16.42-.36,0-.72-.1-1.09-.31-.37-.21-.65-.52-.83-.94-.42-.89-.88-1.65-1.38-2.27-.5-.62-1.16-1.16-1.96-1.6-.15-.09-.37-.22-.67-.38-.3-.16-.45-.32-.45-.47,0-.21.27-.31.8-.31.59,0,1.47.16,2.63.47ZM483.9,421.01c1.11.25,2.14.7,3.08,1.34.94.64,1.4,1.48,1.4,2.52,0,.51-.16.89-.47,1.16-.31.27-.66.4-1.05.4-.65,0-1.25-.39-1.78-1.16-.57-.86-1.09-1.54-1.58-2.03-.49-.49-1.14-.93-1.94-1.31-.21-.12-.45-.23-.71-.33-.27-.1-.45-.19-.56-.27-.1-.07-.16-.17-.16-.29,0-.27.43-.4,1.29-.4.54,0,1.36.13,2.47.38Z"/>
          <path class="cls-1" d="M505.5,431.01c-.71-1.13-1.65-2.1-2.81-2.92-1.16-.82-2.36-1.36-3.61-1.63-.51-.15-.76-.28-.76-.4,0-.15.28-.26.85-.33.56-.07,1.14-.11,1.74-.11,1.28,0,2.58.15,3.9.45,1.32.3,2.41.77,3.28,1.43.59.45,1.05.95,1.36,1.52.31.56.47,1.11.47,1.65,0,.59-.16,1.1-.49,1.52-.33.42-.79.62-1.38.62-.92,0-1.77-.59-2.54-1.78ZM499.13,447.68c0-.45.05-.82.16-1.14s.2-.47.29-.47c.12,0,.27.17.45.51.18.34.43.68.76,1,.65.71,1.37,1.07,2.14,1.07,1.07,0,3-.83,5.79-2.5,2.79-1.66,6.08-4.06,9.85-7.18,3.77-3.12,7.59-6.74,11.45-10.87.27-.33.49-.49.67-.49.12,0,.18.06.18.18,0,.21-.13.52-.4.94-2.11,3.03-4.52,6.01-7.24,8.94-2.72,2.93-5.36,5.53-7.91,7.8-2.56,2.27-4.68,3.99-6.37,5.15l-.8.53c-.39.21-.69.4-.91.58-.22.18-.53.48-.91.89-.56.68-1.22,1.03-1.96,1.03-1.01,0-2.03-.47-3.05-1.4-1.03-.94-1.67-1.95-1.94-3.05-.15-.65-.22-1.16-.22-1.52Z"/>
          <path class="cls-1" d="M563.95,436.63c2.45,1.19,3.68,2.7,3.68,4.55,0,.56-.15,1.04-.45,1.43-.3.39-.67.58-1.11.58-.89,0-1.98-.79-3.25-2.36-2.11-2.67-4.52-4.62-7.22-5.84v7.93c.06,4.69.15,7.46.27,8.29.3,1.55.45,2.61.45,3.21,0,.8-.22,1.46-.65,1.96-.43.5-.85.76-1.27.76-.48,0-.92-.36-1.34-1.07-.42-.71-.75-1.53-1-2.45-.25-.92-.38-1.59-.38-2.01,0-.33.04-.76.13-1.29.18-1.16.3-2.12.36-2.9.09-1.1.18-3.09.27-5.97,0-.59.03-1.52.09-2.76.06-1.9.09-4.68.09-8.33,0-2.91-.07-4.83-.22-5.75-.09-.68-.28-1.19-.58-1.52-.3-.33-.73-.68-1.29-1.07-.15-.09-.27-.16-.36-.22-.09-.06-.13-.13-.13-.22,0-.36.38-.62,1.14-.8.76-.18,1.42-.27,1.98-.27,1.04,0,1.93.37,2.67,1.11.36.36.54.79.54,1.29,0,.27-.06.64-.18,1.11-.33,1.31-.49,2.88-.49,4.72l-.09,5.35c3.12.51,5.91,1.35,8.36,2.54Z"/>
          <path class="cls-1" d="M615.72,426.51c.09-.12.26-.32.51-.6.25-.28.47-.42.65-.42.27,0,.89.38,1.87,1.14.98.76,1.6,1.34,1.87,1.76.09.12.06.25-.09.4-.45.39-1,.64-1.65.76v5.04c.06,3.48.18,6.66.36,9.54,0,.18-.06.33-.18.45-.3.27-.77.52-1.43.76-.65.24-1.23.36-1.74.36-.39,0-.64-.22-.76-.67,0-.18.01-.33.04-.45l.13-1.34v-1.25h-11.68v5.26c.06,3.68.18,7.04.36,10.07,0,.15-.04.28-.13.4-.27.39-.7.73-1.29,1.03-.59.3-1.19.45-1.78.45-.33,0-.59-.09-.8-.27s-.31-.39-.31-.62c.12-1.6.21-3.17.29-4.7.07-1.53.13-3.48.16-5.86v-5.75h-11.63v1.03l.13,1.56c.03.15.01.3-.04.45-.24.3-.66.58-1.27.85-.61.27-1.21.4-1.8.4-.27,0-.48-.09-.62-.27-.15-.18-.22-.39-.22-.62.12-1.66.22-3.92.31-6.77v-3.88c0-3.51-.16-6.39-.49-8.65v-.09c0-.21.12-.27.36-.18l3.97,1.74h11.32v-.58c0-3.24-.16-6.14-.49-8.69v-.09c0-.24.13-.31.4-.22,1.78.48,3.02.85,3.72,1.14.7.28,1.05.53,1.05.74,0,.15-.12.3-.36.45l-.8.53v6.73h11.23l.85-1.03ZM588.48,428.83v11.86h11.63v-11.86h-11.63ZM603.64,428.83v11.86h11.68v-11.86h-11.68Z"/>
          <path class="cls-1" d="M634.66,456.33c-.57-.56-.85-1.25-.85-2.05s.28-1.54.85-2.12c.56-.58,1.25-.87,2.05-.87s1.54.29,2.12.87c.58.58.87,1.29.87,2.12s-.29,1.49-.87,2.05c-.58.56-1.29.85-2.12.85s-1.49-.28-2.05-.85ZM640.43,448.06c-.1-.1-.16-.26-.16-.47,0-.24.09-.5.27-.8,1.57-2.82,2.93-5.38,4.08-7.67,1.14-2.29,2.38-4.86,3.72-7.71,1.04-2.26,1.9-4.06,2.58-5.42.68-1.35,1.41-2.62,2.18-3.81.47-.71,1.01-1.25,1.6-1.6.59-.36,1.19-.53,1.78-.53.77,0,1.43.29,1.98.87.55.58.83,1.3.83,2.16,0,.8-.27,1.63-.8,2.5-.56.92-1.2,1.83-1.89,2.74-.7.91-1.43,1.82-2.21,2.74-.77.92-1.29,1.55-1.56,1.87-2.14,2.56-4.05,4.91-5.73,7.06-1.68,2.15-3.48,4.66-5.42,7.51-.3.48-.59.71-.89.71-.15,0-.28-.05-.38-.16Z"/>
        </g>
        <g>
          <g>
            <path class="cls-1" d="M176.25,233.35c8.6-.42,16,.74,22.21,3.49,6.2,2.75,11,6.56,14.39,11.42s5.08,10.4,5.08,16.61c0,5.08-1.13,9.94-3.38,14.6-2.26,4.65-5.18,8.67-8.78,12.06-3.6,3.38-7.48,5.82-11.63,7.3-4.16,1.48-8.14,1.73-11.95.74,4.65,0,9.31.81,13.96,2.43,4.65,1.62,8.95,4.06,12.9,7.3,3.95,3.25,7.09,7.3,9.41,12.16,2.33,4.87,3.49,10.47,3.49,16.82s-1.37,12.9-4.12,18.83c-2.75,5.92-6.56,11.25-11.42,15.97-4.87,4.73-10.61,8.67-17.24,11.85-6.63,3.17-13.86,5.29-21.68,6.35-7.83,1.06-15.97.88-24.43-.53l.42-2.12c8.46.14,16.43-.99,23.9-3.38,7.47-2.4,14.14-5.85,19.99-10.37,5.85-4.51,10.44-9.94,13.75-16.29,3.31-6.35,4.97-13.33,4.97-20.94,0-8.04-1.87-14.63-5.61-19.78-3.74-5.15-8.85-8.95-15.34-11.42-6.49-2.47-13.96-3.7-22.42-3.7l.42-2.12c6.35,0,12.55-1.41,18.62-4.23,6.06-2.82,11.03-6.91,14.91-12.27,3.88-5.36,5.61-11.92,5.18-19.67-.14-4.23-1.16-8.21-3.07-11.95-1.9-3.73-4.73-6.8-8.46-9.2-3.74-2.4-8.57-3.6-14.49-3.6-8.75,0-15.51,2.64-20.31,7.93-4.8,5.29-6.98,12.09-6.56,20.41h-2.12l-3.6-19.67c3.38-3.81,7.65-7.16,12.8-10.05,5.15-2.89,11.88-4.55,20.2-4.97Z"/>
            <path class="cls-1" d="M229.65,408.32c-.11-.5-.1-.88,0-1.14s.34-.47.71-.63c3.56-1.3,6.48-2.79,8.75-4.47,2.27-1.68,3.74-3.36,4.43-5.06.95-2.36.62-4.39-.97-6.09-4.11-4.53-5.26-9.03-3.48-13.48,1.37-3.4,3.64-5.75,6.83-7.06,3.18-1.3,6.41-1.3,9.68.01,3.14,1.26,5.39,3.5,6.77,6.71,1.37,3.21,1.35,6.58-.07,10.12-2.68,6.67-7,11.85-12.97,15.54-5.96,3.68-11.98,5.9-18.06,6.65l-.86-.12c-.39-.16-.64-.49-.75-.98Z"/>
            <path class="cls-1" d="M329.8,232.92c10.29,0,19.14,3.1,26.55,9.31,7.4,6.21,13.12,15.06,17.13,26.55,4.02,11.5,6.03,25.21,6.03,41.14s-2.01,29.65-6.03,41.14c-4.02,11.5-9.73,20.34-17.13,26.55-7.4,6.21-16.26,9.31-26.55,9.31s-19.14-3.1-26.55-9.31c-7.4-6.2-13.12-15.05-17.14-26.55-4.02-11.49-6.03-25.21-6.03-41.14s2.01-29.65,6.03-41.14c4.02-11.49,9.73-20.34,17.14-26.55,7.4-6.2,16.25-9.31,26.55-9.31ZM329.8,239.27c-10.72,0-19.22,6.31-25.49,18.93-6.28,12.62-9.41,29.86-9.41,51.72s3.14,39.1,9.41,51.72c6.27,12.62,14.77,18.93,25.49,18.93s19.39-6.31,25.6-18.93c6.2-12.62,9.31-29.86,9.31-51.72s-3.1-39.1-9.31-51.72c-6.21-12.62-14.74-18.93-25.6-18.93Z"/>
            <path class="cls-1" d="M455.87,232.92c10.29,0,19.14,3.1,26.55,9.31,7.4,6.21,13.12,15.06,17.13,26.55,4.02,11.5,6.03,25.21,6.03,41.14s-2.01,29.65-6.03,41.14c-4.02,11.5-9.73,20.34-17.13,26.55-7.4,6.21-16.26,9.31-26.55,9.31s-19.14-3.1-26.55-9.31c-7.4-6.2-13.12-15.05-17.14-26.55-4.02-11.49-6.03-25.21-6.03-41.14s2.01-29.65,6.03-41.14c4.02-11.49,9.73-20.34,17.14-26.55,7.4-6.2,16.25-9.31,26.55-9.31ZM455.87,239.27c-10.72,0-19.22,6.31-25.49,18.93-6.28,12.62-9.41,29.86-9.41,51.72s3.14,39.1,9.41,51.72c6.27,12.62,14.77,18.93,25.49,18.93s19.39-6.31,25.6-18.93c6.2-12.62,9.31-29.86,9.31-51.72s-3.1-39.1-9.31-51.72c-6.21-12.62-14.74-18.93-25.6-18.93Z"/>
            <path class="cls-1" d="M581.95,232.92c10.29,0,19.14,3.1,26.55,9.31,7.4,6.21,13.12,15.06,17.13,26.55,4.02,11.5,6.03,25.21,6.03,41.14s-2.01,29.65-6.03,41.14c-4.02,11.5-9.73,20.34-17.13,26.55-7.4,6.21-16.26,9.31-26.55,9.31s-19.14-3.1-26.55-9.31c-7.4-6.2-13.12-15.05-17.14-26.55-4.02-11.49-6.03-25.21-6.03-41.14s2.01-29.65,6.03-41.14c4.02-11.49,9.73-20.34,17.14-26.55,7.4-6.2,16.25-9.31,26.55-9.31ZM581.95,239.27c-10.72,0-19.22,6.31-25.49,18.93-6.28,12.62-9.41,29.86-9.41,51.72s3.14,39.1,9.41,51.72c6.27,12.62,14.77,18.93,25.49,18.93s19.39-6.31,25.6-18.93c6.2-12.62,9.31-29.86,9.31-51.72s-3.1-39.1-9.31-51.72c-6.21-12.62-14.74-18.93-25.6-18.93Z"/>
          </g>
          <g>
            <path class="cls-1" d="M669.95,345.28c.16,9.78.47,18.85.95,27.2,0,.47-.12.87-.35,1.18-.71,1.1-1.99,2.09-3.84,2.96-1.85.87-3.8,1.3-5.85,1.3-.87,0-1.6-.24-2.19-.71-.59-.47-.89-1.03-.89-1.66.31-4.65.59-9.17.83-13.54.24-4.38.39-10.11.47-17.21v-47.31c0-9.3-.43-16.95-1.3-22.95v-.24c0-.63.31-.83.95-.59l12.06,5.2h65.29l2.37-3.19c.31-.31.71-.77,1.18-1.36.47-.59.87-1.04,1.18-1.36.31-.31.63-.47.95-.47.71,0,2.54,1.16,5.5,3.49,2.96,2.33,4.79,4.08,5.5,5.26.24.32.16.67-.24,1.06-1.03,1.03-2.45,1.66-4.26,1.89v79.01c0,2.92-.38,5.28-1.12,7.1-.75,1.81-2.25,3.29-4.5,4.44-2.25,1.14-5.62,1.95-10.11,2.42h-.24c-.4,0-.67-.28-.83-.83-.24-1.58-.61-2.92-1.12-4.02-.51-1.11-1.28-2.01-2.31-2.72-2.37-1.73-6.15-3.03-11.36-3.9-.63-.16-.95-.47-.95-.95,0-.24.08-.43.24-.59.16-.16.39-.2.71-.12,9.15.63,14.98.95,17.51.95,1.18,0,1.99-.24,2.42-.71.43-.47.65-1.22.65-2.25v-37.02h-67.3v20.23ZM697.62,282.35h-27.68v39.27h27.68v-39.27ZM708.39,282.35v39.27h28.86v-39.27h-28.86Z"/>
            <path class="cls-1" d="M795.26,276.56c.2-.08.45-.04.77.12l7.45,4.02c4.18,1.58,6.27,2.8,6.27,3.67,0,.4-.43.71-1.3.95l-2.13.59c-4.1,7.18-9.25,14.29-15.44,21.35-6.19,7.06-12.99,12.95-20.4,17.68-.63.4-1.06.32-1.3-.24-.24-.55-.2-.99.12-1.3,6.39-6.78,12.34-15.26,17.86-25.43,1.81-3.31,3.41-6.8,4.79-10.47,1.38-3.67,2.35-7.12,2.9-10.35.08-.31.22-.51.41-.59ZM799.11,320.91c-3.86.08-7.69.55-11.47,1.42-.63.16-1.03,0-1.18-.47l-2.13-4.14-.12-.47c0-.39.28-.59.83-.59,4.26.4,9.03.67,14.31.83h41.75l2.72-3.08c.39-.39.99-1.02,1.77-1.89.79-.87,1.42-1.3,1.89-1.3.71,0,2.38,1.16,5.03,3.49,2.64,2.33,4.28,4.08,4.91,5.26.24.4.16.79-.24,1.18-.95.79-2.29,1.3-4.02,1.54-.71,14.67-1.82,26.14-3.31,34.42-1.5,8.28-3.67,13.72-6.5,16.32-1.66,1.5-3.59,2.62-5.8,3.37-2.21.75-4.81,1.16-7.81,1.24-.63,0-.95-.32-.95-.95-.16-3.23-.99-5.52-2.48-6.86-.95-.87-2.42-1.68-4.44-2.42-2.01-.75-4.28-1.36-6.8-1.83-.55-.08-.83-.43-.83-1.06,0-.24.08-.43.24-.59.16-.16.39-.2.71-.12,8.52.71,13.96,1.06,16.32,1.06,1.1,0,1.95-.08,2.54-.24.59-.16,1.16-.51,1.71-1.06,3.08-2.84,5.24-17.19,6.51-43.05h-24.37c-.87,7.65-2.5,14.69-4.91,21.11-2.41,6.43-6.62,12.76-12.66,18.98-6.03,6.23-14.41,11.83-25.13,16.8-.55.24-.99.12-1.3-.35l-.24-.24c-.08-.08-.12-.2-.12-.35,0-.4.39-.87,1.18-1.42,8.28-5.52,14.65-11.37,19.1-17.56,4.45-6.19,7.49-12.2,9.11-18.04,1.62-5.83,2.66-12.14,3.13-18.92h-6.98ZM852.75,297.2c6.9,6.19,14.45,11.1,22.65,14.73.47.24.71.51.71.83s-.08.55-.24.71c-.16.16-.36.28-.59.35-1.81.63-3.47,1.68-4.97,3.13-1.5,1.46-2.64,3.1-3.43,4.91-.08.32-.24.51-.47.59-.24.08-.47,0-.71-.24-7.1-5.52-13.39-12.18-18.87-19.99-5.48-7.81-9.56-16.01-12.24-24.6h-8.04c-4.97.08-9.66.59-14.08,1.54h-.24c-.4,0-.71-.2-.95-.59l-2.13-4.02-.12-.47c0-.39.28-.59.83-.59,4.18.4,8.91.67,14.19.83h7.57l3.55-5.44c.31-.55.75-.63,1.3-.24l8.99,6.39c.55.4.71.71.47.95-1.26,1.03-4.02,1.81-8.28,2.37,3.15,6.39,8.18,12.68,15.08,18.87Z"/>
          </g>
        </g>
        <g>
          <g>
            <path class="cls-1" d="M366.16,186.3c.03.13.04.28.04.42,0,.39-.09.58-.27.58h-13.33c-.21,0-.31-.19-.31-.58,0-.21.02-.36.07-.47.04-.1.13-.16.25-.16,1.16,0,2.13-.17,2.92-.51.79-.34,1.18-.91,1.18-1.72,0-.39-.09-.82-.27-1.29l-2.36-6.82h-11.94c-.77,2.08-1.46,4.03-2.05,5.84-.24.71-.36,1.31-.36,1.78,0,1.81,1.44,2.72,4.32,2.72.12,0,.19.07.22.2.03.13.04.28.04.42,0,.39-.09.58-.27.58h-11.1c-.21,0-.31-.19-.31-.58,0-.42.1-.62.31-.62.92,0,1.82-.31,2.7-.94.88-.62,1.6-1.63,2.16-3.03.56-1.37,3.03-7.86,7.4-19.48l2.9-7.67c.06-.18.18-.3.36-.36l1.83-.53c.12-.03.27-.03.45,0,.24.06.37.19.4.4l1.78,5.13c1.01,2.88,2.28,6.54,3.81,10.99,1.53,4.44,2.89,8.31,4.08,11.61.59,1.52,1.3,2.54,2.12,3.08.82.53,1.82.8,3.01.8.12,0,.19.07.22.2ZM353.51,174.07l-5.21-15.06c-.71,1.87-2.56,6.89-5.53,15.06h10.74Z"/>
            <path class="cls-1" d="M407.7,186.15c.21,0,.31.19.31.58s-.1.58-.31.58h-10.43c-.21,0-.31-.19-.31-.58s.1-.58.31-.58h.54c.86,0,1.54-.13,2.03-.38.49-.25.74-.78.74-1.58l.04-6.37c0-2.02-.03-3.65-.09-4.9-.09-1.57-.45-2.85-1.07-3.83s-1.71-1.47-3.25-1.47c-1.13,0-2.22.33-3.28,1-1.05.67-1.97,1.64-2.74,2.92l.04.67c.03.53.04,1.59.04,3.16,0,2.41-.04,5.35-.13,8.82,0,.8.25,1.33.74,1.58.49.25,1.17.38,2.03.38h.58c.21,0,.31.19.31.58s-.1.58-.31.58h-10.43c-.24,0-.36-.19-.36-.58s.12-.58.36-.58h.58c.86,0,1.54-.13,2.03-.38.49-.25.74-.78.74-1.58v-6.2c0-2.14-.03-3.83-.09-5.08-.12-3.54-1.56-5.3-4.32-5.3-1.16,0-2.27.33-3.32,1-1.05.67-1.95,1.64-2.7,2.92l-.04,12.66c0,.8.25,1.33.76,1.58.5.25,1.19.38,2.05.38h.54c.24,0,.36.19.36.58s-.12.58-.36.58h-10.38c-.21,0-.31-.19-.31-.58s.1-.58.31-.58h.54c.86,0,1.54-.13,2.05-.38.5-.25.76-.78.76-1.58l-.13-13.64c-.03-.89-.29-1.47-.78-1.74-.49-.27-1.3-.46-2.43-.58-.27-.03-.4-.27-.4-.71,0-.21.07-.33.22-.36.27-.09,1.21-.33,2.83-.71,1.62-.39,2.96-.7,4.03-.94h.09c.21,0,.31.1.31.31v3.61c.92-1.28,1.97-2.27,3.14-2.96,1.17-.7,2.44-1.05,3.81-1.05,1.84,0,3.34.42,4.5,1.25,1.16.83,1.96,1.93,2.41,3.3,2.02-3.03,4.46-4.55,7.31-4.55,2.35,0,4.13.65,5.35,1.96,1.22,1.31,1.87,2.91,1.96,4.81.03.53.04,1.59.04,3.16,0,2.41-.06,5.35-.18,8.82,0,.8.25,1.33.76,1.58.5.25,1.19.38,2.05.38h.58Z"/>
            <path class="cls-1" d="M433.91,183.92l-.04.27c-.42,1.22-1.08,2.13-2.01,2.74s-1.83.91-2.72.91c-.98,0-1.78-.28-2.38-.85-.61-.56-1.05-1.32-1.31-2.27-1.07,1.04-2.31,1.83-3.72,2.38-1.41.55-2.82.82-4.21.82-1.78,0-3.19-.42-4.23-1.25s-1.56-1.96-1.56-3.39c0-1.13.26-2.1.78-2.92.52-.82,1.34-1.55,2.47-2.21.68-.39,1.53-.73,2.54-1.03,1.01-.3,2.27-.62,3.79-.98.54-.15,1.14-.3,1.81-.47.67-.16,1.4-.36,2.21-.6v-1.92c0-1.52-.07-2.62-.2-3.32-.13-.7-.42-1.31-.87-1.85-.59-.77-1.62-1.16-3.08-1.16-.98,0-1.76.26-2.34.78-.58.52-1.06,1.37-1.45,2.56-.51,1.63-1.32,2.45-2.45,2.45-.56,0-1.08-.19-1.56-.56-.48-.37-.71-.87-.71-1.49,0-.56.22-1.24.65-2.03.43-.79,1.28-1.51,2.54-2.16,1.26-.65,3.07-.98,5.42-.98,1.49,0,2.83.23,4.03.69,1.2.46,2.09,1.05,2.65,1.76.48.62.79,1.27.96,1.94.16.67.25,1.49.25,2.47,0,1.63-.01,3-.04,4.1l-.04,5.88c0,1.25.21,2.07.62,2.47s.85.6,1.29.6c.39,0,.78-.12,1.18-.36.4-.24.76-.62,1.09-1.16.09-.15.19-.22.31-.22.24,0,.36.1.36.31ZM422.52,185.05c1-.43,1.89-1.06,2.7-1.89-.03-.18-.04-.45-.04-.8l.09-5.75c-3.21.77-5.57,1.62-7.09,2.54-1.51.92-2.27,2.12-2.27,3.61,0,.83.3,1.53.89,2.09.59.56,1.51.85,2.76.85.98,0,1.97-.22,2.96-.65Z"/>
            <path class="cls-1" d="M451.82,187.31h-15.42c-.09,0-.17-.04-.25-.13-.07-.09-.14-.19-.2-.31-.06-.12-.09-.21-.09-.27,0-.12.06-.27.18-.45l13.77-19.16h-3.12c-2.02,0-3.64.31-4.86.94-1.22.62-2.45,1.63-3.7,3.03-.15.18-.27.27-.36.27-.06,0-.18-.04-.36-.13-.24-.12-.36-.25-.36-.4l.04-.18,1.29-2.72.85-1.69c.09-.18.24-.27.45-.27h14.49c.21,0,.37.12.49.36l.09.27c0,.12-.06.27-.18.45l-14.4,19.21h4.28c2.17,0,3.99-.49,5.46-1.47,1.47-.98,2.71-2.41,3.72-4.28.09-.18.21-.27.36-.27s.27.03.36.09c.24.12.36.25.36.4l-.04.27-1.56,4.01-.85,2.18c-.09.18-.24.27-.45.27Z"/>
            <path class="cls-1" d="M463.3,186.26c-1.62-1.11-2.87-2.54-3.74-4.28-.88-1.74-1.32-3.51-1.32-5.33s.43-3.71,1.29-5.44c.86-1.72,2.11-3.12,3.74-4.19s3.52-1.6,5.66-1.6,4.07.53,5.71,1.6,2.89,2.47,3.77,4.19c.88,1.72,1.31,3.54,1.31,5.44s-.44,3.59-1.31,5.33c-.88,1.74-2.14,3.16-3.79,4.28-1.65,1.11-3.54,1.67-5.68,1.67s-4.02-.56-5.64-1.67ZM473.71,183.63c1.16-1.89,1.74-4.21,1.74-6.97s-.57-5.24-1.72-7.06c-1.14-1.83-2.74-2.74-4.79-2.74s-3.57.91-4.72,2.74c-1.16,1.83-1.74,4.18-1.74,7.06,0,1.78.26,3.42.78,4.92.52,1.5,1.26,2.69,2.23,3.57.96.88,2.12,1.31,3.45,1.31,2.02,0,3.61-.94,4.77-2.83Z"/>
            <path class="cls-1" d="M508.47,186.15c.24,0,.36.19.36.58s-.12.58-.36.58h-10.43c-.21,0-.31-.19-.31-.58s.1-.58.31-.58h.62c.83,0,1.49-.13,1.98-.38.49-.25.74-.78.74-1.58l-.04-8.16-.04-3.12c-.06-3.57-1.5-5.35-4.32-5.35-1.13,0-2.22.33-3.28,1-1.05.67-1.95,1.66-2.7,2.96l-.04,12.66c0,.8.25,1.33.76,1.58.5.25,1.19.38,2.05.38h.54c.21,0,.31.19.31.58s-.1.58-.31.58h-10.38c-.24,0-.36-.19-.36-.58s.12-.58.36-.58h.54c.86,0,1.54-.13,2.05-.38.5-.25.76-.78.76-1.58l-.13-13.68c0-.89-.25-1.47-.74-1.74-.49-.27-1.31-.46-2.47-.58-.18-.03-.29-.1-.33-.22-.04-.12-.07-.28-.07-.49,0-.18.07-.3.22-.36.74-.21,1.8-.47,3.19-.78,1.38-.31,2.61-.59,3.68-.82h.09c.21,0,.31.1.31.31v3.57c1.9-2.64,4.2-3.97,6.91-3.97,2.38,0,4.17.65,5.37,1.96,1.2,1.31,1.85,2.9,1.94,4.77.03.59.04,1.77.04,3.52,0,2.41-.03,5.24-.09,8.51,0,.8.25,1.33.74,1.58.49.25,1.17.38,2.03.38h.54Z"/>
            <path class="cls-1" d="M546.53,168.39c.86.25,1.61.59,2.25,1,.64.42.96.85.96,1.29,0,.8-.91,1.2-2.72,1.2h-1.38c-2.41,0-6.11.46-11.1,1.38,1.01,3.68,2.09,7.15,3.25,10.38.5,1.46.76,2.51.76,3.16,0,1.25-.56,1.87-1.69,1.87-.62,0-1.2-.27-1.74-.8-.53-.53-.88-1.16-1.03-1.87-.21-.77-.46-2.06-.76-3.88-.36-2.14-.67-3.79-.94-4.95l-.22-.98c-.24-1.01-.4-1.78-.49-2.32-4.46,1.01-7.53,2.01-9.23,2.99-.56.33-1.16.49-1.78.49-1.04,0-1.99-.37-2.85-1.11-.86-.74-1.56-1.47-2.09-2.18-.3-.39-.45-.65-.45-.8,0-.18.12-.27.36-.27.21,0,.52.06.94.18,1.66.27,2.87.4,3.61.4,1.52,0,5.18-.59,11.01-1.78l-.4-1.69c-.59-2.67-1.04-4.61-1.34-5.79-2.62.65-4.46,1.16-5.53,1.52-.59.18-1.04.27-1.34.27-.71,0-1.4-.25-2.05-.76-.65-.5-1.32-1.14-2-1.92-.03-.06-.12-.19-.27-.38-.15-.19-.22-.35-.22-.47s.07-.18.22-.18.36.04.62.13c.92.42,1.99.62,3.21.62.68,0,1.65-.1,2.9-.29,1.25-.19,2.57-.44,3.97-.74l-.31-1.16c-.39-1.57-.67-2.61-.85-3.12-.45-1.22-.91-2.02-1.38-2.41-.48-.39-1.13-.58-1.96-.58-.06,0-.17,0-.33-.02-.16-.01-.27-.04-.33-.09-.06-.04-.09-.13-.09-.25,0-.3.31-.64.94-1.03.62-.39,1.23-.64,1.83-.76.21-.03.52-.04.94-.04.92,0,1.78.19,2.58.58.8.39,1.2.89,1.2,1.52,0,.12-.05.42-.16.91s-.16.91-.16,1.27c0,.68.24,2.21.71,4.59,1.87-.5,3.28-.94,4.23-1.29.54-.21,1.04-.47,1.52-.8.36-.21.65-.36.89-.47.24-.1.52-.16.85-.16.74,0,1.58.22,2.52.65.94.43,1.4.93,1.4,1.49,0,.36-.19.63-.58.82-.39.19-.8.32-1.25.38-2.35.24-5.38.76-9.09,1.56.59,2.59,1.22,5.1,1.87,7.53,3.03-.65,5.05-1.14,6.06-1.47.89-.27,1.63-.64,2.23-1.11.42-.24.74-.41.98-.51.24-.1.61-.16,1.11-.16.59,0,1.32.13,2.18.38ZM541.92,154.57c-.28-.16-.42-.32-.42-.47,0-.18.22-.27.67-.27.5,0,1.32.15,2.45.45,1.13.3,2.17.79,3.12,1.47.95.68,1.43,1.56,1.43,2.63,0,.56-.16.98-.49,1.25-.33.27-.7.4-1.11.4-.39,0-.75-.1-1.09-.29-.34-.19-.6-.51-.78-.96-.36-.86-.78-1.6-1.27-2.21-.49-.61-1.12-1.15-1.89-1.63-.12-.09-.32-.22-.6-.38ZM549.25,150.94c1.01.27,1.89.7,2.65,1.29.76.59,1.14,1.35,1.14,2.27,0,.51-.16.88-.47,1.14-.31.25-.66.38-1.05.38-.59,0-1.16-.36-1.69-1.07-.59-.89-1.1-1.56-1.52-2.01s-1-.86-1.74-1.25c-.18-.09-.37-.18-.58-.27-.21-.09-.39-.18-.54-.27-.15-.09-.22-.18-.22-.27,0-.24.45-.36,1.34-.36.77,0,1.66.13,2.67.4Z"/>
            <path class="cls-1" d="M561.82,187.53c0-.18.3-.43.89-.76,5.35-2.76,9.8-5.98,13.35-9.65,3.55-3.67,6.17-7.06,7.87-10.18,1.69-3.12,2.57-5.2,2.63-6.24,0-.24-.13-.36-.4-.36s-1.49.15-3.68.45c-2.18.3-4.52.68-7,1.16-2.48.48-4.55.97-6.22,1.47-.65.21-1.26.31-1.83.31-.92,0-1.72-.27-2.41-.8-.53-.45-1-1.05-1.38-1.83-.39-.77-.58-1.4-.58-1.87,0-.33.13-.49.4-.49s.61.12,1.03.36c.65.27,1.2.45,1.65.53.45.09.94.13,1.47.13.92,0,3.6-.18,8.04-.53,4.44-.36,7.14-.67,8.09-.94.54-.15,1.07-.36,1.6-.62,1.07-.42,1.75-.62,2.05-.62.33,0,.86.24,1.6.71.74.48,1.41,1.03,2,1.65s.89,1.14.89,1.56c0,.33-.09.62-.27.89-.18.27-.48.62-.89,1.07-.77.83-1.32,1.56-1.65,2.18-1.99,3.89-4.25,7.21-6.77,9.94-2.53,2.73-5.33,5.05-8.42,6.95-3.09,1.9-6.76,3.74-11.01,5.53-.36.15-.61.22-.76.22-.21,0-.31-.07-.31-.22Z"/>
            <path class="cls-1" d="M628.2,168.36c2.45,1.19,3.68,2.7,3.68,4.55,0,.56-.15,1.04-.45,1.43-.3.39-.67.58-1.11.58-.89,0-1.98-.79-3.25-2.36-2.11-2.67-4.52-4.62-7.22-5.84v7.93c.06,4.7.15,7.46.27,8.29.3,1.55.45,2.61.45,3.21,0,.8-.22,1.46-.65,1.96-.43.5-.85.76-1.27.76-.48,0-.92-.36-1.34-1.07-.42-.71-.75-1.53-1-2.45-.25-.92-.38-1.59-.38-2.01,0-.33.04-.76.13-1.29.18-1.16.3-2.12.36-2.9.09-1.1.18-3.09.27-5.97,0-.59.03-1.52.09-2.76.06-1.9.09-4.68.09-8.33,0-2.91-.07-4.83-.22-5.75-.09-.68-.28-1.19-.58-1.52-.3-.33-.73-.68-1.29-1.07-.15-.09-.27-.16-.36-.22-.09-.06-.13-.13-.13-.22,0-.36.38-.62,1.14-.8s1.42-.27,1.98-.27c1.04,0,1.93.37,2.67,1.11.36.36.54.79.54,1.29,0,.27-.06.64-.18,1.11-.33,1.31-.49,2.88-.49,4.72l-.09,5.35c3.12.51,5.91,1.35,8.36,2.54Z"/>
            <path class="cls-1" d="M680.55,165.11c.09-.12.24-.33.45-.62.21-.3.38-.52.51-.67.13-.15.26-.22.38-.22.27,0,.94.45,2.01,1.34s1.72,1.56,1.96,2.01c.09.15.09.3,0,.45-.18.3-.52.45-1.03.45h-9.54c3.09,2.85,6.7,5.01,10.83,6.46.21.03.3.15.27.36v.04c-.03.21-.13.33-.31.36-1.4.59-2.29,1.46-2.67,2.59-.03.12-.08.2-.16.25s-.17.04-.29-.02c-1.46-.77-2.97-1.8-4.55-3.08-.33.24-.85.42-1.56.53-.24,4.07-.61,7.24-1.11,9.52-.51,2.27-1.22,3.8-2.14,4.57-1.04.89-2.47,1.37-4.28,1.43-.24,0-.36-.12-.36-.36-.06-.98-.31-1.68-.76-2.09-.53-.48-1.71-.91-3.52-1.29-.21-.03-.31-.15-.31-.36v-.04c0-.27.12-.37.36-.31,2.32.24,4.03.36,5.13.36.68,0,1.17-.13,1.47-.4.47-.47.89-1.7,1.25-3.68.36-1.98.62-4.58.8-7.82h-7.31c-.89,4.16-2.62,7.53-5.19,10.09-2.57,2.57-6.23,4.55-10.99,5.95h-.09c-.15,0-.27-.07-.36-.22v-.04c-.09-.21-.03-.36.18-.45,3.77-1.69,6.65-3.77,8.62-6.24,1.98-2.47,3.28-5.5,3.9-9.09h-6.95c-.18,0-.3-.07-.36-.22l-.09-.18c-2.2,1.75-4.81,3.25-7.84,4.5-.03.03-.09.04-.18.04-.15,0-.25-.06-.31-.18-.06-.06-.07-.13-.04-.22.03-.09.1-.15.22-.18,4.52-2.7,8.1-6.22,10.74-10.56h-3.39c-1.78.03-3.79.22-6.02.58h-.09c-.15,0-.27-.07-.36-.22l-.8-1.52-.04-.18c0-.15.1-.22.31-.22,1.6.15,3.4.25,5.39.31h5.75c1.04-1.87,1.9-3.85,2.58-5.93h-4.72c-1.9.03-4.03.22-6.37.58h-.13c-.12,0-.22-.07-.31-.22l-.8-1.56s-.04-.09-.04-.18c0-.15.1-.22.31-.22,1.63.15,3.45.25,5.44.31h7.09l.27-.85c.39-1.34.68-2.8.89-4.39.21-1.59.3-3.02.27-4.3,0-.27.13-.37.4-.31l5.17,1.2c.12.03.2.08.25.16.04.07.05.17.02.29-.27.48-.79.71-1.56.71-.48,2.64-1.1,5.14-1.87,7.49h4.99l-.04-.04c-.18-.18-.21-.34-.09-.49l.4-.53c.74-1.1,1.47-2.42,2.18-3.97.71-1.54,1.26-2.94,1.65-4.19.09-.27.25-.33.49-.18,2.79,1.58,4.19,2.56,4.19,2.94,0,.12-.13.21-.4.27l-.85.18c-2.47,2.56-4.78,4.56-6.95,6.02h7.67l.98-1.38c.12-.15.27-.35.47-.6.19-.25.36-.45.49-.58.13-.13.26-.2.38-.2.24,0,.86.42,1.87,1.25,1.01.83,1.63,1.46,1.87,1.87.03.15.03.3,0,.45-.18.33-.55.49-1.11.49h-13.15c1.13,2.29,2.48,4.26,4.06,5.93h5.53l.98-1.47ZM652.16,150.8c.12-.09.28-.1.49-.04,2.2.71,3.82,1.63,4.86,2.74,1.04,1.11,1.56,2.19,1.56,3.23,0,.62-.18,1.14-.53,1.56-.36.42-.79.62-1.29.62-.42,0-.82-.15-1.2-.45-.12-.06-.21-.19-.27-.4-.18-1.1-.6-2.26-1.27-3.48-.67-1.22-1.43-2.33-2.29-3.34-.18-.18-.19-.33-.04-.45ZM673.01,173.53l1.69-1.74c.18-.18.34-.19.49-.04l.67.58c-1.28-1.31-2.44-2.81-3.48-4.5h-11.54c-1.46,2.14-3.13,4.04-5.04,5.7h17.2ZM671.63,166.58c-1.04-1.78-1.93-3.76-2.67-5.93h-4.41c-.89,2.26-1.86,4.23-2.9,5.93h9.98Z"/>
          </g>
          <rect class="cls-2" x="210.62" y="139.18" width="597.8" height="62.01"/>
        </g>
      </g>
      <g>
        <path class="cls-3" d="M142.29,501.22c-1.76-1.22-3.78-2.63-6.04-4.21-2.23-1.67-4.7-3.53-7.38-5.54-2.61-2.17-5.53-4.34-8.48-6.98-1.57-1.33-3.18-2.74-4.82-4.23.02-.28.03-.63.06-1.04.04-.51.03-1.13.05-1.78,0,0,0,0,0-.01.19.02.47-.04.83-.19.98-.4,2.49-1.43,4.07-3.04,1.17-1.2,2.37-2.71,3.42-4.54,3.32-5.38,5.28-13.49,6.15-23.41.03-.33.06-.66.09-.99.68-9.62-3-18.82-5.6-25.51-1.02-2.42-1.91-4.51-2.68-6.21-1.02-2.29-1.82-3.87-2.43-4.56-.23-.27-.44-.4-.62-.39-.91-.07-2.93,1.86-4.83,5.26-.7,1.26-1.39,2.71-1.99,4.35-2.39,6.04-3.69,14.47-4.37,23.56-.02.34-.04.68-.05,1.02-.36,8.69,1.78,17.01,3.41,23.26.52,1.81.99,3.44,1.43,4.87.96,3.09,1.77,5.22,2.56,6.1-.01.12-.03.24-.04.35-.07.63-.12,1.21-.2,1.72-.02.16-.04.3-.06.44-4.38-4.01-8.98-8.55-13.68-13.65-4.43-4.81-8.95-10.13-13.43-15.97.04-.21.08-.46.13-.73.09-.5.16-1.11.25-1.75,0,0,0,0,0-.01.19.05.47.04.84-.04,1.01-.22,2.62-.95,4.37-2.26,1.29-.97,2.65-2.25,3.9-3.86,3.89-4.72,6.74-12.38,8.71-22.04.07-.32.14-.64.2-.96,1.75-9.39-.86-19.18-2.68-26.27-.74-2.58-1.39-4.81-1.95-6.63-.76-2.46-1.37-4.16-1.89-4.96-.2-.31-.39-.48-.57-.5-.89-.24-3.11,1.3-5.37,4.32-.84,1.11-1.68,2.43-2.46,3.94-3.04,5.53-5.27,13.64-6.97,22.51-.06.33-.12.67-.17,1-1.33,8.53-.15,17.16.76,23.65.31,1.89.59,3.59.87,5.09.6,3.23,1.16,5.49,1.84,6.51-.03.11-.05.23-.08.34-.14.61-.25,1.18-.39,1.67-.01.04-.02.08-.03.12-2.12-2.79-4.22-5.7-6.3-8.73-5.84-8.52-11.43-18.03-16.55-28.39.05-.15.1-.31.15-.48.16-.47.3-1.06.47-1.68,0,0,0,0,0-.01.18.09.46.14.83.14,1.03,0,2.71-.39,4.6-1.31,1.4-.68,2.9-1.66,4.34-2.99,4.44-3.84,8.24-10.8,11.42-19.91.11-.3.22-.6.32-.91,2.93-8.9,1.61-19.1.72-26.48-.4-2.7-.75-5.04-1.07-6.95-.43-2.58-.82-4.39-1.23-5.29-.16-.34-.32-.55-.49-.61-.85-.42-3.23.64-5.85,3.13-.97.92-1.97,2.05-2.93,3.37-3.71,4.82-6.95,12.35-9.76,20.74-.1.32-.2.64-.29.96-2.41,8.13-2.35,16.89-2.28,23.49.06,1.92.12,3.66.21,5.2.18,3.31.45,5.66.99,6.81-.04.11-.08.21-.12.32-.2.52-.36,1-.54,1.42-.57-1.17-1.14-2.35-1.69-3.53-2.82-6.1-5.45-12.47-7.9-19.06-2.38-6.63-4.56-13.47-6.48-20.51-.06-.23-.12-.46-.18-.68.06-.12.13-.25.2-.39.23-.42.46-.96.73-1.52,0,0,0,0,0-.01.16.14.43.26.8.36,1.01.26,2.71.32,4.71-.09,1.48-.31,3.11-.87,4.72-1.8,4.96-2.6,9.79-8.42,14.35-16.52.16-.26.31-.53.46-.8,4.28-7.95,4.62-18.28,4.92-25.74.04-2.75.06-5.13.05-7.08,0-2.64-.1-4.51-.36-5.5-.1-.38-.23-.63-.39-.73-.77-.64-3.27-.22-6.23,1.54-1.09.65-2.25,1.49-3.4,2.53-4.4,3.76-8.77,10.28-12.86,17.76-.15.29-.3.57-.44.86-3.65,7.33-4.99,15.93-5.97,22.4-.24,1.9-.46,3.62-.63,5.14-.35,3.29-.47,5.66-.12,6.92-.06.09-.11.19-.17.28-.26.43-.48.83-.71,1.18-3.52-13.52-6.08-27.69-7.43-42.07-.22-2.37-.41-4.75-.57-7.13.13-.17.41-.54.79-1.04.26-.33.55-.77.86-1.22,0,0,0,0,0,0,.12.16.35.33.67.5.88.46,2.42.88,4.28.94,1.38.04,2.94-.11,4.53-.61,4.85-1.28,10-5.51,15.22-11.87.18-.2.35-.41.52-.63,4.94-6.28,6.62-15.58,7.89-22.29.4-2.48.74-4.64.99-6.42.34-2.4.51-4.12.4-5.07-.04-.36-.12-.62-.25-.74-.61-.74-2.93-.91-5.86.04-1.08.35-2.24.87-3.43,1.56-4.49,2.45-9.33,7.42-14.03,13.32-.17.22-.35.45-.51.69-4.29,5.86-6.65,13.37-8.4,19.03-.47,1.67-.9,3.18-1.25,4.53-.76,2.91-1.17,5.04-1.03,6.25-.06.07-.13.14-.19.22-.34.39-.64.76-.94,1.06-.14.15-.26.28-.38.4-.77-12.28-.78-24.62-.12-36.73.23-4.14.54-8.24.93-12.32.18-.14.47-.35.83-.63.31-.22.66-.54,1.04-.86,0,0,0,0,0,0,.09.19.26.42.53.68.73.71,2.08,1.6,3.8,2.26,1.28.49,2.76.84,4.34.89,4.76.37,10.39-1.92,16.5-6.16.2-.13.41-.27.61-.42,5.83-4.26,9.22-12.39,11.72-18.22.86-2.18,1.6-4.08,2.18-5.66.79-2.12,1.28-3.67,1.37-4.59.03-.36,0-.62-.09-.78-.42-.89-2.55-1.79-5.46-1.84-1.07-.02-2.26.08-3.5.35-4.66.84-10.14,3.91-15.68,7.9-.2.15-.41.31-.61.47-5.15,4.08-8.81,10.31-11.55,15.02-.77,1.4-1.46,2.68-2.06,3.82-1.27,2.46-2.08,4.31-2.18,5.49-.07.05-.15.09-.22.14-.4.26-.75.51-1.09.69-.14.08-.26.15-.38.22,1.02-10.18,2.53-20.14,4.47-29.72.99-4.91,2.1-9.71,3.3-14.41.12-.07.24-.14.38-.23.32-.18.7-.45,1.11-.72,0,0,0,0,0,0,.07.2.23.45.47.75.67.8,1.94,1.86,3.6,2.74,1.23.65,2.67,1.2,4.24,1.45,4.71.99,10.5-.55,16.91-3.96.21-.11.43-.22.64-.34,6.15-3.47,10.17-11.11,13.12-16.59,1.03-2.06,1.92-3.85,2.62-5.34.96-2.01,1.57-3.48,1.73-4.38.06-.35.06-.61-.03-.78-.35-.94-2.4-2.12-5.28-2.55-1.07-.16-2.25-.21-3.51-.11-4.71.22-10.4,2.56-16.23,5.8-.22.13-.43.26-.65.39-5.44,3.38-9.59,9.1-12.7,13.43-.88,1.3-1.67,2.47-2.35,3.53-1.46,2.28-2.42,4.01-2.61,5.17-.08.04-.16.08-.23.12-.35.17-.66.33-.96.46,2.1-8.08,4.47-15.82,7.05-23.15,2.69-7.65,5.58-14.84,8.58-21.57.16-.04.49-.12.93-.24.31-.07.67-.2,1.06-.32,0,0,0,0,0,0,.03.19.12.45.28.77.44.85,1.36,2.1,2.63,3.28.95.88,2.09,1.72,3.39,2.35,3.86,2.08,9.04,2.29,15.06,1.06.2-.03.4-.07.6-.12,5.8-1.35,10.45-6.81,13.85-10.71,1.21-1.49,2.25-2.78,3.09-3.87,1.14-1.46,1.9-2.56,2.18-3.29.11-.28.15-.51.1-.68-.15-.89-1.71-2.44-4.1-3.56-.88-.42-1.89-.77-2.97-1.01-4.05-1.05-9.28-.55-14.77.69-.2.05-.41.1-.61.16-5.19,1.46-9.64,5.25-12.98,8.12-.96.88-1.82,1.67-2.57,2.4-1.62,1.56-2.7,2.79-3.06,3.73-.07.01-.15.02-.22.04-.39.06-.74.14-1.05.16-.14.02-.27.03-.39.05,1.53-3.4,3.08-6.7,4.65-9.85,2.96-5.96,5.95-11.44,8.88-16.46.71.42,2.32.08,4.54-.81.89-.36,1.87-.8,2.94-1.32,3.64-1.89,8.17-4.78,11.53-9.79.13-.2.26-.4.39-.6,3.36-5.47,6.27-10.86,7.91-15.46.46-1.22.82-2.4,1.08-3.48.72-2.91.75-5.14.26-5.77-.08-.14-.25-.23-.5-.28-.66-.15-1.86-.07-3.49.21-1.21.2-2.66.51-4.28.92-4.42,1.27-10.16,3.42-13.73,9.18-.12.2-.24.4-.36.6-3.6,6.06-6.03,11.79-6.86,16.81-.32,1.65-.43,3.24-.42,4.65,0,1.89.24,3.43.52,4.31.04.14.09.25.13.36-3,5.01-6.06,10.5-9.1,16.47-1.7,3.33-3.38,6.82-5.04,10.44-.01-.06-.03-.11-.04-.17-.1-.39-.17-.83-.26-1.32-.02-.09-.03-.18-.05-.27.55-.76,1.06-2.51,1.61-5,.26-1.16.52-2.47.81-3.93.88-5.03,2.03-11.71,1.21-18.43-.03-.26-.07-.53-.11-.79-1.09-6.99-2.63-13.42-4.86-17.86-.57-1.21-1.19-2.27-1.82-3.18-1.69-2.45-3.38-3.74-4.08-3.6-.14,0-.29.14-.45.37-.43.6-.95,1.9-1.6,3.79-.49,1.4-1.05,3.11-1.69,5.09-1.61,5.46-3.89,12.99-2.77,20.4.04.25.08.51.13.76,1.29,7.62,3.32,13.72,6.23,17.57.93,1.32,1.96,2.37,2.94,3.18,1.33,1.1,2.57,1.74,3.35,1.95.29.08.51.09.66.06,0,0,0,0,0,0,.05.5.09.99.15,1.38.06.47.12.85.15,1.08-2.94,6.5-5.8,13.44-8.47,20.81-2.77,7.65-5.32,15.76-7.57,24.25,0-.02-.01-.04-.02-.07-.15-.42-.27-.91-.43-1.45-.03-.1-.05-.2-.08-.29.55-.95.95-3.01,1.33-5.93.18-1.35.35-2.89.53-4.59.5-5.83,1.14-13.59-.45-21.07-.06-.29-.13-.59-.2-.88-1.93-7.74-4.3-14.77-7.27-19.45-.77-1.28-1.57-2.38-2.37-3.31-2.15-2.5-4.19-3.69-4.98-3.41-.16.03-.32.2-.48.49-.42.75-.89,2.31-1.44,4.55-.41,1.66-.88,3.69-1.42,6.04-1.28,6.45-3.13,15.35-1.13,23.55.07.28.15.56.22.84,2.21,8.42,5.11,15.01,8.8,18.89,1.18,1.34,2.45,2.37,3.65,3.13,1.61,1.02,3.08,1.55,3.98,1.66.33.04.59.03.75-.03h0c.11.57.2,1.11.31,1.55.14.61.24,1.07.3,1.3-1.1,4.25-2.14,8.58-3.08,13.01-2.06,9.72-3.69,19.85-4.8,30.23-.18-.28-.35-.59-.55-.93-.05-.08-.1-.17-.15-.25.31-1.12.22-3.24-.08-6.16-.14-1.36-.33-2.89-.54-4.59-.85-5.77-2.01-13.43-5.24-19.98-.13-.26-.26-.52-.39-.77-3.61-6.68-7.48-12.52-11.39-15.89-1.03-.93-2.05-1.69-3.02-2.28-2.63-1.59-4.86-1.96-5.54-1.4-.14.09-.26.31-.35.65-.24.88-.32,2.54-.34,4.89-.02,1.74,0,3.86.03,6.31.25,6.64.51,15.84,4.3,22.95.13.24.27.48.41.72,4.03,7.23,8.31,12.44,12.72,14.78,1.44.84,2.89,1.35,4.2,1.63,1.77.38,3.3.33,4.19.11.33-.09.57-.19.71-.31,0,0,0,0,0,0,.23.5.44.98.64,1.36.09.18.17.34.25.48-.41,3.96-.75,7.95-1,11.98-.76,12.04-.87,24.3-.23,36.55-.12-.13-.23-.27-.35-.41-.06-.07-.13-.15-.19-.22.15-1.22-.27-3.35-1.03-6.25-.35-1.35-.78-2.86-1.25-4.53-1.75-5.66-4.11-13.17-8.4-19.03-.17-.23-.34-.46-.51-.68-4.7-5.9-9.54-10.87-14.03-13.32-1.19-.69-2.35-1.21-3.43-1.56-2.92-.95-5.25-.78-5.86-.04-.13.13-.21.38-.25.75-.11.95.06,2.67.4,5.07.25,1.78.59,3.93.99,6.42,1.27,6.7,2.95,16,7.89,22.29.17.21.35.43.52.63,5.22,6.35,10.37,10.59,15.22,11.86,1.59.5,3.15.65,4.53.61,1.87-.06,3.41-.49,4.28-.94.32-.17.55-.34.68-.5,0,0,0,0,0,0,.31.44.59.88.85,1.21.15,2.6.33,5.19.54,7.79,1.22,14.42,3.64,28.67,7.03,42.32,0,0,0,0-.01,0-.08-.06-.16-.12-.24-.18-.04-1.33-.84-3.49-2.12-6.37-.6-1.34-1.3-2.83-2.08-4.48-2.79-5.54-6.53-12.88-12.05-17.96-.22-.2-.44-.4-.66-.59-5.96-5-11.92-8.98-17.1-10.38-1.37-.42-2.69-.65-3.9-.73-3.26-.23-5.7.58-6.23,1.53-.12.17-.16.46-.15.86.04,1.04.5,2.82,1.26,5.27.56,1.82,1.28,4.02,2.11,6.55,2.45,6.78,5.76,16.21,12.05,21.55.22.18.44.36.66.53,6.59,5.34,12.76,8.45,18.12,8.5,1.77.1,3.45-.15,4.91-.57,1.97-.57,3.54-1.44,4.4-2.16.31-.27.53-.51.63-.71,0,0,0,0,0,0,.25.24.5.48.72.7.08.33.16.66.25.98,1.88,7.17,4.03,14.16,6.39,20.93,2.42,6.74,5.04,13.26,7.85,19.51.56,1.22,1.12,2.43,1.69,3.62-.07-.03-.14-.06-.21-.1-.09-.04-.17-.08-.26-.12-.25-1.3-1.35-3.21-3.05-5.72-.79-1.16-1.7-2.46-2.71-3.88-3.58-4.74-8.36-11.02-14.55-14.62-.24-.14-.49-.28-.74-.41-6.61-3.43-13.06-5.85-18.35-5.93-1.41-.07-2.74.03-3.93.25-3.23.59-5.5,1.98-5.88,3.05-.09.2-.09.49-.01.88.2,1.01.92,2.64,2.04,4.86.83,1.65,1.86,3.62,3.06,5.9,3.43,6.04,8.11,14.47,15.09,18.15.24.12.48.24.73.35,7.27,3.6,13.8,5.12,19.07,3.84,1.75-.34,3.36-1.01,4.73-1.78,1.85-1.05,3.26-2.29,3.99-3.21.27-.34.44-.63.51-.86,0,0,0,0,0,0,.4.24.77.49,1.11.68,5.08,10.52,10.64,20.2,16.45,28.89,2.3,3.43,4.64,6.72,6.98,9.86-.22-.03-.45-.06-.69-.09-.09-.01-.18-.02-.28-.03-.49-1.18-1.92-2.69-4.04-4.59-.98-.89-2.12-1.85-3.37-2.92-4.37-3.48-10.21-8.08-16.89-9.65-.26-.06-.53-.12-.79-.17-7.06-1.26-13.78-1.61-18.92-.04-1.38.37-2.65.89-3.77,1.47-3.02,1.57-4.96,3.64-5.12,4.79-.05.22,0,.51.16.86.39.91,1.4,2.27,2.9,4.08,1.11,1.35,2.5,2.94,4.09,4.77,4.48,4.79,10.62,11.51,18.09,12.91.26.05.51.08.77.12,7.74,1.23,14.36.67,19.22-2.21,1.63-.88,3.07-2.03,4.25-3.2,1.59-1.59,2.72-3.24,3.26-4.36.19-.41.31-.75.33-.99,0,0,0,0,.01,0,.5.13.97.28,1.36.35.1.02.19.04.28.06,4.23,5.59,8.5,10.71,12.69,15.37,4.91,5.44,9.7,10.28,14.26,14.53-.04,0-.07.01-.11.02-.4.09-.85.14-1.35.22-.09.01-.18.03-.28.04-.67-1.02-2.32-2.11-4.71-3.4-1.11-.6-2.37-1.24-3.77-1.94-4.85-2.22-11.31-5.14-18.11-4.86-.27.01-.53.03-.8.05-7.11.67-13.73,2.15-18.5,5.08-1.29.74-2.44,1.58-3.44,2.45-2.7,2.36-4.25,4.9-4.22,6.07-.01.23.09.49.29.8.53.79,1.74,1.84,3.51,3.2,1.31,1.01,2.92,2.19,4.79,3.56,5.17,3.47,12.28,8.37,19.81,7.72.26-.03.52-.06.77-.09,7.77-.9,14.15-3.23,18.42-7.36,1.45-1.3,2.66-2.81,3.62-4.28,1.29-1.99,2.13-3.9,2.46-5.14.12-.46.17-.81.16-1.06h.01c.51-.01,1,.01,1.39-.03.47-.03.84-.05,1.08-.07,1.41,1.3,2.8,2.54,4.16,3.73,2.98,2.74,5.92,4.98,8.56,7.23,2.71,2.09,5.21,4.02,7.46,5.75,2.3,1.65,4.36,3.12,6.14,4.4,1.79,1.28,3.32,2.23,4.56,3.08,2.48,1.65,3.8,2.53,3.8,2.53l2.01-5.01s-1.33-.86-3.82-2.47c-1.24-.82-2.81-1.77-4.57-2.99Z"/>
        <path class="cls-3" d="M1023.73,327.29c-.53-.95-2.97-1.76-6.23-1.53-1.2.09-2.52.32-3.9.73-5.17,1.39-11.13,5.37-17.1,10.38-.22.19-.44.39-.66.59-5.52,5.07-9.26,12.42-12.05,17.96-.78,1.65-1.48,3.14-2.07,4.48-1.28,2.89-2.08,5.04-2.12,6.37-.08.06-.16.12-.24.18,0,0,0,0-.01,0,3.39-13.65,5.81-27.9,7.03-42.32.22-2.6.39-5.19.54-7.79.26-.33.54-.77.85-1.21,0,0,0,0,0,0,.13.16.35.33.67.5.88.46,2.42.88,4.29.94,1.38.04,2.94-.11,4.53-.61,4.85-1.28,10-5.51,15.22-11.86.18-.21.35-.42.52-.63,4.94-6.28,6.62-15.58,7.89-22.29.4-2.48.74-4.64.99-6.42.34-2.4.51-4.12.4-5.07-.04-.37-.12-.62-.25-.75-.61-.74-2.93-.91-5.86.04-1.08.35-2.24.87-3.43,1.56-4.49,2.45-9.33,7.42-14.03,13.32-.17.22-.34.45-.51.68-4.29,5.86-6.65,13.37-8.4,19.03-.47,1.67-.9,3.18-1.25,4.53-.76,2.91-1.17,5.04-1.03,6.25-.06.07-.13.15-.19.22-.12.14-.24.28-.36.41.64-12.24.53-24.5-.23-36.55-.26-4.02-.59-8.02-1-11.98.08-.15.16-.31.25-.48.2-.37.41-.86.64-1.36,0,0,0,0,0-.01.14.12.38.23.71.32.9.23,2.42.27,4.19-.11,1.31-.28,2.77-.79,4.2-1.63,4.41-2.34,8.69-7.55,12.72-14.78.14-.24.27-.48.41-.72,3.79-7.1,4.05-16.3,4.3-22.95.02-2.45.04-4.57.03-6.31-.02-2.35-.11-4.02-.34-4.89-.09-.34-.21-.56-.35-.65-.68-.56-2.91-.18-5.54,1.4-.97.59-1.99,1.34-3.02,2.28-3.9,3.37-7.78,9.2-11.39,15.89-.13.25-.26.51-.39.77-3.23,6.55-4.39,14.21-5.24,19.98-.21,1.69-.4,3.23-.54,4.59-.3,2.93-.39,5.04-.08,6.16-.05.09-.1.17-.15.25-.2.34-.38.64-.55.93-1.12-10.38-2.74-20.5-4.8-30.23-.94-4.43-1.97-8.76-3.08-13.02.05-.23.16-.69.3-1.3.11-.43.2-.98.31-1.54,0,0,0,0,0,0,.16.06.42.07.75.03.91-.11,2.37-.64,3.98-1.66,1.19-.76,2.47-1.79,3.65-3.13,3.68-3.89,6.58-10.47,8.8-18.89.08-.28.15-.56.22-.84,2-8.21.15-17.1-1.13-23.55-.54-2.35-1-4.38-1.42-6.04-.55-2.24-1.02-3.81-1.44-4.55-.17-.29-.32-.46-.48-.49-.78-.28-2.82.91-4.97,3.41-.8.92-1.61,2.03-2.37,3.31-2.97,4.68-5.34,11.71-7.27,19.45-.07.29-.13.59-.19.88-1.59,7.47-.96,15.23-.45,21.07.18,1.7.35,3.24.53,4.59.38,2.92.77,4.98,1.33,5.93-.03.1-.06.2-.08.29-.15.54-.28,1.03-.43,1.45,0,.02-.01.04-.02.07-2.25-8.49-4.8-16.6-7.57-24.25-2.67-7.37-5.52-14.31-8.47-20.81.03-.23.08-.6.15-1.08.06-.39.1-.88.15-1.38,0,0,0,0,0,0,.15.03.37.01.66-.06.78-.21,2.02-.86,3.35-1.95.98-.81,2.01-1.86,2.94-3.18,2.92-3.85,4.95-9.94,6.23-17.57.05-.25.09-.5.13-.76,1.12-7.4-1.16-14.93-2.77-20.4-.65-1.98-1.21-3.69-1.69-5.09-.65-1.89-1.18-3.19-1.6-3.79-.17-.23-.32-.36-.46-.37-.7-.15-2.39,1.15-4.08,3.6-.63.9-1.25,1.97-1.82,3.18-2.23,4.45-3.77,10.87-4.86,17.86-.04.26-.07.53-.11.79-.82,6.71.32,13.4,1.2,18.43.29,1.46.55,2.78.81,3.93.55,2.49,1.05,4.24,1.61,5-.02.09-.04.18-.05.27-.09.49-.17.93-.26,1.32-.01.06-.03.11-.04.17-1.66-3.62-3.34-7.11-5.04-10.44-3.04-5.97-6.1-11.45-9.1-16.47.04-.1.09-.22.13-.36.28-.88.52-2.43.52-4.31,0-1.4-.11-2.99-.42-4.65-.83-5.02-3.26-10.75-6.86-16.81-.12-.2-.24-.41-.36-.6-3.57-5.76-9.32-7.9-13.73-9.18-1.63-.41-3.07-.72-4.28-.92-1.63-.28-2.83-.36-3.49-.21-.25.06-.42.15-.5.28-.48.63-.45,2.86.26,5.77.26,1.08.62,2.25,1.08,3.48,1.64,4.6,4.56,9.99,7.91,15.46.13.2.26.4.39.6,3.36,5.01,7.89,7.9,11.53,9.79,1.07.52,2.05.96,2.95,1.32,2.22.88,3.83,1.22,4.54.81,2.93,5.02,5.92,10.5,8.88,16.46,1.56,3.15,3.12,6.44,4.65,9.85-.12-.01-.25-.03-.39-.05-.32-.02-.67-.1-1.05-.16-.07-.01-.14-.03-.21-.04-.35-.94-1.44-2.17-3.06-3.73-.75-.73-1.61-1.52-2.57-2.4-3.34-2.87-7.79-6.66-12.98-8.12-.2-.06-.41-.11-.62-.16-5.49-1.23-10.72-1.74-14.77-.69-1.09.24-2.09.59-2.97,1.01-2.4,1.12-3.95,2.67-4.1,3.56-.04.17,0,.4.1.68.28.73,1.04,1.82,2.18,3.29.84,1.09,1.89,2.38,3.09,3.87,3.4,3.9,8.05,9.35,13.85,10.71.2.04.4.08.6.12,6.02,1.23,11.2,1.03,15.06-1.06,1.3-.63,2.44-1.47,3.39-2.35,1.28-1.19,2.19-2.43,2.63-3.28.16-.32.26-.58.28-.77,0,0,0,0,0,0,.39.12.75.25,1.06.32.44.11.77.2.93.24,2.99,6.72,5.89,13.92,8.58,21.57,2.58,7.33,4.95,15.07,7.05,23.15-.3-.13-.61-.29-.96-.46-.08-.04-.15-.08-.23-.12-.2-1.16-1.15-2.89-2.61-5.17-.68-1.06-1.47-2.24-2.35-3.53-3.11-4.32-7.25-10.05-12.7-13.43-.21-.13-.43-.26-.65-.39-5.82-3.24-11.52-5.58-16.23-5.8-1.26-.1-2.44-.05-3.51.11-2.89.43-4.94,1.61-5.28,2.55-.08.17-.09.43-.03.78.16.9.77,2.37,1.73,4.38.7,1.49,1.59,3.28,2.62,5.34,2.95,5.48,6.97,13.11,13.12,16.59.21.12.43.23.64.34,6.41,3.41,12.2,4.95,16.9,3.96,1.57-.25,3.01-.8,4.24-1.45,1.66-.88,2.94-1.94,3.6-2.74.25-.3.4-.55.47-.75,0,0,0,0,0,0,.4.26.78.54,1.11.72.14.08.27.16.39.23,1.2,4.7,2.31,9.5,3.3,14.41,1.94,9.58,3.46,19.53,4.47,29.72-.12-.07-.24-.14-.38-.22-.33-.18-.69-.43-1.08-.69-.07-.05-.15-.1-.22-.14-.1-1.18-.91-3.03-2.18-5.49-.59-1.14-1.29-2.42-2.06-3.82-2.74-4.71-6.41-10.94-11.55-15.02-.2-.16-.41-.32-.61-.47-5.54-3.99-11.02-7.06-15.68-7.9-1.24-.26-2.42-.37-3.5-.35-2.91.04-5.04.95-5.46,1.84-.1.16-.12.42-.09.78.09.92.58,2.47,1.37,4.59.58,1.58,1.32,3.47,2.18,5.66,2.5,5.83,5.89,13.96,11.72,18.22.2.14.41.28.61.42,6.1,4.24,11.73,6.52,16.5,6.16,1.58-.05,3.06-.4,4.33-.89,1.72-.65,3.08-1.55,3.8-2.26.27-.26.45-.49.53-.68,0,0,0,0,0,0,.38.32.73.64,1.04.86.36.28.65.49.83.63.39,4.07.7,8.18.93,12.32.66,12.11.65,24.45-.12,36.73-.11-.12-.24-.25-.38-.4-.3-.3-.6-.67-.94-1.06-.06-.07-.13-.15-.19-.22.15-1.22-.27-3.35-1.03-6.25-.35-1.35-.78-2.86-1.25-4.53-1.75-5.66-4.11-13.17-8.4-19.03-.17-.23-.34-.46-.51-.69-4.7-5.9-9.54-10.87-14.03-13.32-1.19-.69-2.35-1.21-3.43-1.56-2.92-.96-5.25-.79-5.86-.04-.13.13-.21.38-.26.74-.11.95.06,2.67.41,5.07.25,1.78.59,3.93.99,6.42,1.27,6.7,2.95,16,7.89,22.29.17.21.35.43.52.63,5.22,6.35,10.37,10.59,15.22,11.87,1.59.5,3.15.65,4.53.61,1.86-.06,3.41-.49,4.29-.94.32-.17.55-.34.67-.5,0,0,0,0,0,0,.31.44.6.89.86,1.22.38.5.66.87.79,1.04-.16,2.38-.35,4.76-.57,7.13-1.35,14.38-3.91,28.55-7.43,42.07-.22-.35-.45-.75-.71-1.18-.05-.09-.11-.19-.17-.28.35-1.26.23-3.63-.12-6.92-.16-1.52-.38-3.25-.63-5.14-.98-6.47-2.32-15.07-5.97-22.4-.14-.29-.29-.57-.44-.86-4.08-7.48-8.46-14.01-12.86-17.76-1.15-1.04-2.31-1.88-3.4-2.53-2.96-1.76-5.46-2.18-6.23-1.54-.16.1-.28.35-.39.73-.26.98-.35,2.85-.36,5.5-.01,1.96.02,4.34.05,7.08.31,7.46.64,17.79,4.92,25.74.15.27.3.54.46.8,4.56,8.09,9.39,13.92,14.35,16.52,1.62.93,3.25,1.49,4.73,1.8,1.99.41,3.7.35,4.71.09.37-.1.64-.22.79-.36,0,0,0,0,0,.01.27.55.5,1.1.73,1.52.07.14.14.26.2.39-.06.23-.12.46-.18.68-1.92,7.03-4.1,13.88-6.48,20.51-2.44,6.59-5.08,12.97-7.89,19.06-.56,1.19-1.12,2.37-1.69,3.54-.18-.42-.34-.91-.54-1.42-.04-.11-.08-.21-.12-.32.54-1.14.81-3.5.99-6.81.08-1.54.14-3.28.21-5.2.07-6.59.13-15.36-2.28-23.49-.09-.32-.19-.64-.29-.96-2.81-8.39-6.05-15.92-9.76-20.74-.97-1.32-1.96-2.45-2.93-3.37-2.62-2.5-5-3.55-5.85-3.13-.17.06-.33.27-.49.61-.41.9-.8,2.71-1.23,5.29-.32,1.92-.67,4.25-1.07,6.95-.89,7.38-2.2,17.58.72,26.48.1.3.21.61.32.91,3.18,9.11,6.98,16.07,11.42,19.91,1.43,1.33,2.94,2.31,4.34,2.99,1.89.92,3.57,1.31,4.6,1.31.38,0,.66-.05.83-.14,0,0,0,0,0,.01.17.61.31,1.21.47,1.68.05.17.1.33.15.48-5.12,10.36-10.72,19.87-16.55,28.39-2.08,3.03-4.19,5.94-6.3,8.73-.01-.04-.02-.08-.03-.12-.14-.49-.25-1.05-.39-1.67-.02-.11-.05-.23-.08-.34.68-1.01,1.24-3.28,1.84-6.51.28-1.5.56-3.2.87-5.09.91-6.49,2.1-15.12.76-23.65-.05-.33-.11-.67-.17-1-1.69-8.87-3.93-16.97-6.97-22.51-.78-1.5-1.62-2.82-2.46-3.94-2.26-3.01-4.48-4.55-5.37-4.32-.18.02-.36.19-.57.5-.52.8-1.13,2.5-1.89,4.96-.56,1.82-1.21,4.06-1.95,6.63-1.82,7.09-4.43,16.88-2.68,26.27.06.32.13.65.2.96,1.97,9.65,4.82,17.32,8.71,22.04,1.24,1.62,2.61,2.9,3.9,3.86,1.74,1.3,3.35,2.04,4.37,2.26.37.08.66.09.84.04,0,0,0,0,0,.01.09.64.16,1.26.25,1.75.05.27.09.52.13.73-4.48,5.84-8.99,11.16-13.43,15.97-4.71,5.1-9.3,9.64-13.68,13.65-.02-.14-.04-.28-.06-.44-.08-.51-.13-1.09-.2-1.72-.01-.11-.02-.23-.04-.35.78-.88,1.6-3.02,2.55-6.1.45-1.43.92-3.06,1.44-4.87,1.63-6.25,3.77-14.58,3.41-23.26-.01-.34-.03-.68-.06-1.02-.68-9.08-1.98-17.52-4.37-23.56-.6-1.63-1.29-3.09-1.99-4.35-1.9-3.4-3.92-5.33-4.83-5.26-.18-.01-.38.13-.62.39-.6.69-1.4,2.27-2.42,4.56-.76,1.7-1.65,3.79-2.68,6.21-2.6,6.69-6.27,15.89-5.6,25.51.03.33.06.66.09.99.87,9.92,2.83,18.02,6.15,23.41,1.05,1.83,2.25,3.35,3.42,4.54,1.58,1.61,3.09,2.63,4.07,3.04.36.14.64.21.83.19,0,0,0,0,0,.01.02.65.01,1.27.05,1.78.02.41.04.76.06,1.04-1.64,1.48-3.25,2.89-4.82,4.23-2.95,2.64-5.87,4.81-8.48,6.98-2.69,2.02-5.15,3.87-7.38,5.54-2.26,1.58-4.28,2.98-6.04,4.21-1.76,1.22-3.33,2.18-4.57,2.99-2.49,1.61-3.82,2.47-3.82,2.47l2.01,5.01s1.32-.88,3.8-2.53c1.24-.84,2.77-1.8,4.56-3.08,1.79-1.28,3.84-2.75,6.15-4.4,2.25-1.74,4.74-3.66,7.46-5.75,2.64-2.24,5.58-4.49,8.56-7.23,1.36-1.18,2.75-2.43,4.16-3.73.23.01.61.04,1.08.07.4.04.89.02,1.39.03h.01c-.01.24.04.6.16,1.06.34,1.24,1.17,3.15,2.46,5.14.96,1.47,2.17,2.98,3.62,4.28,4.28,4.13,10.65,6.47,18.42,7.36.26.03.52.07.78.09,7.53.66,14.64-4.25,19.81-7.72,1.87-1.36,3.48-2.54,4.79-3.56,1.77-1.36,2.98-2.41,3.51-3.2.2-.31.31-.57.29-.8.03-1.17-1.52-3.71-4.21-6.07-1-.87-2.15-1.71-3.44-2.45-4.77-2.92-11.39-4.4-18.5-5.08-.27-.02-.54-.04-.8-.05-6.8-.28-13.25,2.64-18.1,4.86-1.4.7-2.67,1.34-3.78,1.94-2.39,1.29-4.04,2.38-4.71,3.4-.09-.01-.19-.03-.28-.04-.5-.08-.95-.13-1.35-.22-.04,0-.07-.01-.11-.02,4.56-4.25,9.35-9.09,14.26-14.53,4.2-4.66,8.46-9.78,12.69-15.37.09-.02.18-.04.28-.06.39-.07.87-.22,1.37-.35,0,0,0,0,0,0,.03.24.14.58.33.99.54,1.12,1.67,2.77,3.26,4.36,1.18,1.18,2.61,2.32,4.25,3.2,4.87,2.88,11.48,3.44,19.22,2.21.26-.03.51-.07.77-.12,7.47-1.4,13.61-8.11,18.09-12.91,1.6-1.84,2.98-3.43,4.09-4.77,1.5-1.8,2.52-3.16,2.9-4.08.15-.35.2-.64.15-.86-.16-1.15-2.1-3.22-5.12-4.79-1.12-.58-2.39-1.09-3.77-1.47-5.15-1.57-11.86-1.22-18.92.04-.26.05-.53.11-.79.17-6.68,1.57-12.52,6.17-16.89,9.65-1.25,1.07-2.39,2.04-3.37,2.92-2.12,1.9-3.56,3.41-4.04,4.59-.09.01-.19.02-.28.03-.24.03-.47.06-.69.09,2.35-3.14,4.68-6.42,6.98-9.86,5.81-8.69,11.38-18.37,16.45-28.89.33-.19.71-.44,1.11-.68,0,0,0,0,0,0,.07.22.25.51.51.85.73.92,2.14,2.16,3.99,3.21,1.37.77,2.98,1.44,4.73,1.78,5.27,1.28,11.79-.24,19.06-3.84.24-.11.49-.23.73-.35,6.98-3.68,11.66-12.11,15.09-18.15,1.2-2.28,2.24-4.25,3.06-5.9,1.11-2.22,1.84-3.85,2.04-4.86.08-.39.07-.68-.01-.88-.37-1.06-2.65-2.46-5.88-3.05-1.2-.22-2.52-.32-3.94-.25-5.29.08-11.74,2.5-18.34,5.93-.25.14-.49.27-.74.41-6.19,3.6-10.97,9.88-14.55,14.62-1.01,1.42-1.93,2.71-2.72,3.88-1.7,2.51-2.8,4.42-3.05,5.72-.09.04-.18.08-.26.12-.07.03-.14.06-.21.1.57-1.2,1.13-2.4,1.69-3.62,2.81-6.25,5.43-12.77,7.85-19.51,2.36-6.77,4.51-13.76,6.39-20.93.08-.33.17-.66.25-.98.23-.22.47-.46.72-.7,0,0,0,0,0,0,.11.2.32.44.63.71.86.72,2.43,1.59,4.4,2.16,1.46.42,3.14.67,4.91.57,5.36-.05,11.53-3.16,18.12-8.5.22-.17.44-.35.66-.53,6.29-5.34,9.6-14.77,12.05-21.55.83-2.54,1.55-4.73,2.11-6.55.76-2.46,1.22-4.24,1.26-5.27.02-.4-.03-.69-.15-.86Z"/>
      </g>
    </g>
  </g>
</svg>