<?xml version="1.0" encoding="UTF-8"?>
<svg id="_レイヤー_2" data-name="レイヤー 2" xmlns="http://www.w3.org/2000/svg" viewBox="0 0 226 264">
  <defs>
    <style>
      .cls-1 {
        fill: #504e62;
      }

      .cls-2 {
        fill: #fff;
      }

      .cls-3 {
        fill: #77768f;
      }
    </style>
  </defs>
  <g id="_レイヤー_2-2" data-name="レイヤー 2">
    <rect class="cls-1" y="132" width="226" height="132"/>
    <rect class="cls-3" width="226" height="132"/>
    <g>
      <path class="cls-2" d="M34.87,66.1c2.27,2.14,4.86,3.9,7.39,5.06-.54.45-1.28,1.38-1.7,2.02-1.92-.99-3.87-2.37-5.7-3.97v11.33h-2.43v-13.66c-1.82-1.95-3.49-4.1-4.77-6.27-2.34,10.08-7.14,16.45-13.22,19.84-.42-.54-1.31-1.41-1.89-1.76,3.81-1.98,7.07-5.09,9.47-9.41-1.47-1.41-3.9-3.2-6.11-4.54-.67.9-1.38,1.73-2.11,2.46-.38-.42-1.41-1.18-1.95-1.54,3.52-3.26,6.18-8.54,7.65-14.27l2.34.48c-.42,1.5-.9,3.01-1.44,4.42h6.02l.45-.13,1.54.58c-.13.93-.32,1.82-.48,2.69l1.25-.48c.86,1.6,1.98,3.17,3.26,4.67v-12.19h2.43v14.69ZM19.51,58.48c-.74,1.6-1.5,3.1-2.37,4.45,2.08,1.22,4.45,2.82,5.98,4.19,1.12-2.53,2.02-5.41,2.62-8.64h-6.24Z"/>
      <path class="cls-2" d="M51.99,65.2c-1.34-1.02-4-2.37-6.18-3.17l1.25-1.79c2.11.7,4.83,1.92,6.24,2.94l-1.31,2.02ZM54.78,69.9c-1.66,3.36-3.9,7.3-5.79,10.27l-1.98-1.6c1.7-2.43,4.22-6.62,6.05-10.24l1.73,1.57ZM53.62,56.94c-1.25-1.18-3.84-2.69-5.98-3.55l1.28-1.76c2.14.8,4.77,2.21,6.08,3.36l-1.38,1.95ZM75.13,77.36v2.27h-20.89v-2.27h9.25v-7.74h-6.98v-2.24h6.98v-6.88h-8.19v-2.24h11.3c-1.5-1.6-4.58-3.81-7.2-5.15l1.54-1.79c2.62,1.31,5.82,3.42,7.39,4.99l-1.6,1.95h7.74v2.24h-8.54v6.88h7.39v2.24h-7.39v7.74h9.22Z"/>
      <path class="cls-2" d="M104.82,77.84c1.15,0,1.34-.67,1.47-4.8.54.42,1.54.83,2.21.99-.26,4.83-.96,6.08-3.49,6.08h-4.54c-2.82,0-3.52-.8-3.52-3.39v-9.38h-6.05c-.64,6.24-2.43,10.91-9.7,13.44-.26-.61-.96-1.57-1.5-2.02,6.75-2.08,8.19-6.18,8.74-11.42h-8.29v-2.3h12.74v-6.4h-6.59c-.77,1.82-1.73,3.52-2.78,4.86-.54-.38-1.47-.86-2.08-1.12,2.21-2.69,3.81-6.91,4.58-10.24l2.4.48c-.32,1.22-.74,2.46-1.18,3.74h5.66v-4.96h2.37v4.96h10.5v2.27h-10.5v6.4h12.8v2.3h-8.74v9.38c0,.96.22,1.12,1.44,1.12h4.06Z"/>
      <path class="cls-2" d="M128.73,79.15l-1.5-2.37c1.02-.1,2.02-.26,2.75-.42,4.1-.93,8.13-3.97,8.13-9.5,0-4.83-3.1-8.83-8.54-9.28-.42,2.98-1.02,6.24-1.92,9.22-1.95,6.59-4.48,9.95-7.46,9.95s-5.7-3.26-5.7-8.54c0-6.94,6.18-13.02,13.98-13.02s12.26,5.28,12.26,11.78-4.42,11.2-12,12.19ZM120.28,73.81c1.5,0,3.2-2.14,4.83-7.55.8-2.66,1.44-5.7,1.79-8.64-6.14.77-9.92,6.02-9.92,10.37,0,4.03,1.86,5.82,3.3,5.82Z"/>
      <path class="cls-2" d="M155.96,60.98h6.11v2.18h-6.11v2.34c1.44,1.12,5.09,4.26,6.02,5.09l-1.38,1.95c-.96-1.06-3.01-3.1-4.64-4.61v12.61h-2.3v-13.79c-1.66,3.65-3.9,7.26-6.08,9.44-.29-.64-.9-1.63-1.31-2.21,2.56-2.43,5.34-6.85,6.91-10.82h-6.21v-2.18h6.69v-5.41c-2.08.38-4.19.7-6.18.99-.1-.58-.45-1.38-.74-1.89,4.67-.7,10.24-1.79,13.21-3.1l1.76,1.82c-1.6.64-3.62,1.22-5.76,1.7v5.89ZM166.52,72.69h-2.3v-17.5h2.3v17.5ZM174.39,52.02v25.41c0,1.63-.45,2.37-1.44,2.78-1.06.35-2.85.42-5.76.42-.13-.64-.48-1.73-.86-2.4,2.24.06,4.26.06,4.86.03.58,0,.83-.19.83-.8v-25.44h2.37Z"/>
      <path class="cls-2" d="M200.15,60.18c2.3,3.71,6.02,7.2,9.66,8.96-.51.42-1.28,1.31-1.63,1.89-1.06-.58-2.11-1.28-3.14-2.08v8.54h4.29v2.14h-28.89v-2.14h4.42v-8.42c-1.02.9-2.11,1.66-3.2,2.37-.35-.48-1.28-1.38-1.82-1.79,3.78-2.14,7.2-5.54,9.41-9.47h-7.97v-2.11h7.97c-.7-1.63-2.14-3.97-3.46-5.66l2.02-.86c1.47,1.79,3.01,4.16,3.68,5.79l-1.47.74h9.79l-1.7-.61c1.31-1.63,3.01-4.26,3.9-6.11l2.46.77c-1.28,2.05-2.88,4.42-4.22,5.95h8.29v2.11h-8.38ZM204.44,68.46c-2.66-2.24-5.09-5.18-6.78-8.29h-5.66c-1.66,3.17-3.9,5.98-6.43,8.29h18.88ZM190.81,70.51h-3.81v6.98h3.81v-6.98ZM196.82,70.51h-3.84v6.98h3.84v-6.98ZM202.84,77.49v-6.98h-3.87v6.98h3.87Z"/>
    </g>
    <g>
      <path class="cls-2" d="M56.79,187.74v24.77h-2.46v-1.63h-17.05v1.79h-2.37v-24.93h8.03c.48-1.41.99-3.14,1.25-4.38l2.72.35c-.48,1.38-1.06,2.82-1.6,4.03h11.49ZM37.27,190.02v4.77h17.05v-4.77h-17.05ZM37.27,197.02v4.64h17.05v-4.64h-17.05ZM54.33,208.64v-4.74h-17.05v4.74h17.05Z"/>
      <path class="cls-2" d="M76.47,203.42c-.83-.93-2.59-2.72-4.03-4.06v13.25h-2.34v-12.42c-1.6,1.6-3.26,2.94-4.9,4-.26-.61-.86-1.7-1.25-2.14,3.81-2.21,7.81-6.24,10.02-10.5h-8.9v-2.18h5.02v-5.95h2.34v5.95h2.78l.42-.1,1.34.9c-.99,2.46-2.46,4.83-4.16,6.98,1.5,1.18,4.32,3.65,5.12,4.35l-1.47,1.92ZM94.1,209.38v2.34h-17.92v-2.34h8.1v-13.28h-6.85v-2.3h6.85v-10.14h2.37v10.14h6.82v2.3h-6.82v13.28h7.46Z"/>
      <path class="cls-2" d="M113.85,211.17l-1.5-2.37c1.02-.1,2.02-.26,2.75-.42,4.1-.93,8.13-3.97,8.13-9.5,0-4.83-3.1-8.83-8.54-9.28-.42,2.98-1.02,6.24-1.92,9.22-1.95,6.59-4.48,9.95-7.46,9.95s-5.7-3.26-5.7-8.54c0-6.94,6.18-13.02,13.98-13.02s12.26,5.28,12.26,11.78-4.42,11.2-12,12.19ZM105.4,205.82c1.5,0,3.2-2.14,4.83-7.55.8-2.66,1.44-5.7,1.79-8.64-6.14.77-9.92,6.02-9.92,10.37,0,4.03,1.86,5.82,3.3,5.82Z"/>
      <path class="cls-2" d="M141.08,192.99h6.11v2.18h-6.11v2.34c1.44,1.12,5.09,4.26,6.02,5.09l-1.38,1.95c-.96-1.06-3.01-3.1-4.64-4.61v12.61h-2.3v-13.79c-1.66,3.65-3.9,7.26-6.08,9.44-.29-.64-.9-1.63-1.31-2.21,2.56-2.43,5.34-6.85,6.91-10.82h-6.21v-2.18h6.69v-5.41c-2.08.38-4.19.7-6.18.99-.1-.58-.45-1.38-.74-1.89,4.67-.7,10.24-1.79,13.22-3.1l1.76,1.82c-1.6.64-3.62,1.22-5.76,1.7v5.89ZM151.64,204.7h-2.3v-17.5h2.3v17.5ZM159.51,184.03v25.41c0,1.63-.45,2.37-1.44,2.78-1.06.35-2.85.42-5.76.42-.13-.64-.48-1.73-.86-2.4,2.24.06,4.26.06,4.86.03.58,0,.83-.19.83-.8v-25.44h2.37Z"/>
      <path class="cls-2" d="M185.27,192.19c2.3,3.71,6.02,7.2,9.66,8.96-.51.42-1.28,1.31-1.63,1.89-1.06-.58-2.11-1.28-3.14-2.08v8.54h4.29v2.14h-28.89v-2.14h4.42v-8.42c-1.02.9-2.11,1.66-3.2,2.37-.35-.48-1.28-1.38-1.82-1.79,3.78-2.14,7.2-5.54,9.41-9.47h-7.97v-2.11h7.97c-.7-1.63-2.14-3.97-3.46-5.66l2.02-.86c1.47,1.79,3.01,4.16,3.68,5.79l-1.47.74h9.79l-1.7-.61c1.31-1.63,3.01-4.26,3.9-6.11l2.46.77c-1.28,2.05-2.88,4.42-4.22,5.95h8.29v2.11h-8.38ZM189.56,200.48c-2.66-2.24-5.09-5.18-6.78-8.29h-5.66c-1.66,3.17-3.9,5.98-6.43,8.29h18.88ZM175.93,202.53h-3.81v6.98h3.81v-6.98ZM181.94,202.53h-3.84v6.98h3.84v-6.98ZM187.96,209.5v-6.98h-3.87v6.98h3.87Z"/>
    </g>
  </g>
</svg>