<?xml version="1.0" encoding="UTF-8"?>
<svg id="_レイヤー_2" data-name="レイヤー 2" xmlns="http://www.w3.org/2000/svg" viewBox="0 0 226 396.5">
  <defs>
    <style>
      .cls-1 {
        fill: #ababce;
      }

      .cls-2 {
        fill: #504e62;
      }

      .cls-3 {
        fill: #fff;
      }

      .cls-4 {
        fill: #77768f;
      }
    </style>
  </defs>
  <g id="_レイヤー_2-2" data-name="レイヤー 2">
    <rect class="cls-2" y="264" width="226" height="132.5"/>
    <rect class="cls-4" y="132" width="226" height="132.5"/>
    <rect class="cls-1" width="226" height="132.5"/>
    <g>
      <path class="cls-3" d="M38.44,72.56v1.86h-20.26v-1.86h20.26ZM36.51,59.02v1.82h-16.4v-1.82h16.4Z"/>
      <path class="cls-3" d="M48.18,68.1c-1.7,1.84-3.61,3.84-5.17,5.31l-1.1-1.4c1.33-1.24,3.4-3.36,5.36-5.38l.92,1.47ZM46.77,61.98c-.85-.99-2.67-2.48-4.14-3.52l1.22-1.22c1.45.97,3.31,2.37,4.21,3.38l-1.29,1.36ZM55.86,64.42c-.02,2,1.08,8.07,7.29,10.76-.3.39-.83,1.1-1.1,1.52-4.78-2.21-6.76-6.94-7.08-9.08-.39,2.16-2.48,6.76-7.98,9.08-.21-.37-.74-1.08-1.06-1.38,6.97-2.76,8.16-8.76,8.16-10.9v-2.9h-2.81c-.74,1.79-1.61,3.4-2.55,4.67-.35-.28-1.17-.76-1.63-.97,1.93-2.25,3.33-5.79,4.12-9.45l1.79.32c-.32,1.29-.67,2.53-1.08,3.73h9.27l.34-.09,1.24.69c-.62,2.21-1.68,4.55-2.53,6.07-.37-.16-1.01-.53-1.43-.69.57-1.06,1.31-2.76,1.77-4.28h-4.74v2.9Z"/>
      <path class="cls-3" d="M82.35,66.28c1.63,1.54,3.5,2.81,5.31,3.63-.39.32-.92.99-1.22,1.45-1.38-.71-2.78-1.7-4.09-2.85v8.14h-1.75v-9.82c-1.31-1.4-2.51-2.94-3.43-4.51-1.68,7.24-5.13,11.82-9.5,14.26-.3-.39-.94-1.01-1.36-1.26,2.74-1.43,5.08-3.66,6.81-6.76-1.06-1.01-2.81-2.3-4.39-3.27-.48.64-.99,1.24-1.52,1.77-.28-.3-1.01-.85-1.4-1.1,2.53-2.35,4.44-6.14,5.5-10.26l1.68.34c-.3,1.08-.64,2.16-1.03,3.17h4.32l.32-.09,1.1.41c-.09.67-.23,1.31-.34,1.93l.9-.34c.62,1.15,1.43,2.28,2.35,3.36v-8.76h1.75v10.55ZM71.31,60.81c-.53,1.15-1.08,2.23-1.7,3.2,1.49.87,3.2,2.02,4.3,3.01.8-1.82,1.45-3.89,1.89-6.21h-4.48Z"/>
      <path class="cls-3" d="M94.66,65.64c-.97-.74-2.87-1.7-4.44-2.28l.9-1.29c1.52.51,3.47,1.38,4.48,2.12l-.94,1.45ZM96.66,69.02c-1.2,2.41-2.81,5.24-4.16,7.38l-1.43-1.15c1.22-1.75,3.04-4.76,4.35-7.36l1.24,1.13ZM95.83,59.71c-.9-.85-2.76-1.93-4.3-2.55l.92-1.26c1.54.57,3.43,1.59,4.37,2.41l-.99,1.4ZM111.28,74.38v1.63h-15.02v-1.63h6.65v-5.56h-5.01v-1.61h5.01v-4.94h-5.89v-1.61h8.12c-1.08-1.15-3.29-2.74-5.17-3.7l1.1-1.29c1.89.94,4.19,2.46,5.31,3.59l-1.15,1.4h5.56v1.61h-6.14v4.94h5.31v1.61h-5.31v5.56h6.62Z"/>
      <path class="cls-3" d="M132.63,74.72c.83,0,.97-.48,1.06-3.45.39.3,1.1.6,1.59.71-.18,3.47-.69,4.37-2.51,4.37h-3.27c-2.02,0-2.53-.57-2.53-2.44v-6.74h-4.35c-.46,4.48-1.75,7.84-6.97,9.66-.18-.44-.69-1.13-1.08-1.45,4.85-1.49,5.89-4.44,6.28-8.21h-5.96v-1.66h9.15v-4.6h-4.74c-.55,1.31-1.24,2.53-2,3.5-.39-.28-1.06-.62-1.49-.8,1.59-1.93,2.74-4.97,3.29-7.36l1.72.34c-.23.87-.53,1.77-.85,2.69h4.07v-3.56h1.7v3.56h7.54v1.63h-7.54v4.6h9.2v1.66h-6.28v6.74c0,.69.16.8,1.03.8h2.92Z"/>
      <path class="cls-3" d="M149.81,75.67l-1.08-1.7c.74-.07,1.45-.18,1.98-.3,2.94-.67,5.84-2.85,5.84-6.83,0-3.47-2.23-6.35-6.14-6.67-.3,2.14-.74,4.48-1.38,6.62-1.4,4.74-3.22,7.15-5.36,7.15s-4.09-2.35-4.09-6.14c0-4.99,4.44-9.36,10.05-9.36s8.81,3.79,8.81,8.46-3.17,8.05-8.62,8.76ZM143.74,71.83c1.08,0,2.3-1.54,3.47-5.43.57-1.91,1.03-4.09,1.29-6.21-4.42.55-7.13,4.32-7.13,7.45,0,2.9,1.33,4.19,2.37,4.19Z"/>
      <path class="cls-3" d="M169.39,62.61h4.39v1.56h-4.39v1.68c1.03.8,3.66,3.06,4.32,3.66l-.99,1.4c-.69-.76-2.16-2.23-3.33-3.31v9.06h-1.66v-9.91c-1.2,2.62-2.81,5.22-4.37,6.78-.21-.46-.64-1.17-.94-1.59,1.84-1.75,3.84-4.92,4.97-7.77h-4.46v-1.56h4.81v-3.89c-1.49.28-3.01.51-4.44.71-.07-.41-.32-.99-.53-1.36,3.36-.51,7.36-1.29,9.5-2.23l1.26,1.31c-1.15.46-2.6.87-4.14,1.22v4.23ZM176.97,71.02h-1.66v-12.58h1.66v12.58ZM182.63,56.17v18.26c0,1.17-.32,1.7-1.03,2-.76.25-2.05.3-4.14.3-.09-.46-.34-1.24-.62-1.72,1.61.05,3.06.05,3.5.02.41,0,.6-.14.6-.57v-18.28h1.7Z"/>
      <path class="cls-3" d="M201.15,62.03c1.66,2.67,4.32,5.17,6.94,6.44-.37.3-.92.94-1.17,1.36-.76-.41-1.52-.92-2.25-1.49v6.14h3.08v1.54h-20.76v-1.54h3.17v-6.05c-.74.64-1.52,1.2-2.3,1.7-.25-.34-.92-.99-1.31-1.29,2.71-1.54,5.17-3.98,6.76-6.81h-5.73v-1.52h5.73c-.51-1.17-1.54-2.85-2.48-4.07l1.45-.62c1.06,1.29,2.16,2.99,2.64,4.16l-1.06.53h7.04l-1.22-.44c.94-1.17,2.16-3.06,2.81-4.39l1.77.55c-.92,1.47-2.07,3.17-3.04,4.28h5.96v1.52h-6.02ZM204.23,67.99c-1.91-1.61-3.66-3.73-4.88-5.96h-4.07c-1.2,2.28-2.81,4.3-4.62,5.96h13.57ZM194.43,69.46h-2.74v5.01h2.74v-5.01ZM198.76,69.46h-2.76v5.01h2.76v-5.01ZM203.08,74.47v-5.01h-2.78v5.01h2.78Z"/>
    </g>
    <g>
      <path class="cls-3" d="M38.75,200.54v1.86h-20.88v-1.86h20.88Z"/>
      <path class="cls-3" d="M48.14,203.57c-1.7,1.84-3.61,3.84-5.17,5.31l-1.1-1.4c1.33-1.24,3.4-3.36,5.36-5.38l.92,1.47ZM46.74,197.46c-.85-.99-2.67-2.48-4.14-3.52l1.22-1.22c1.45.97,3.31,2.37,4.21,3.38l-1.29,1.36ZM55.82,199.89c-.02,2,1.08,8.07,7.29,10.76-.3.39-.83,1.1-1.1,1.52-4.78-2.21-6.76-6.94-7.08-9.08-.39,2.16-2.48,6.76-7.98,9.08-.21-.37-.74-1.08-1.06-1.38,6.97-2.76,8.16-8.76,8.16-10.9v-2.9h-2.81c-.74,1.79-1.61,3.4-2.55,4.67-.35-.28-1.17-.76-1.63-.97,1.93-2.25,3.33-5.79,4.12-9.45l1.79.32c-.32,1.29-.67,2.53-1.08,3.73h9.27l.34-.09,1.24.69c-.62,2.21-1.68,4.55-2.53,6.07-.37-.16-1.01-.53-1.43-.69.57-1.06,1.31-2.76,1.77-4.28h-4.74v2.9Z"/>
      <path class="cls-3" d="M82.31,201.76c1.63,1.54,3.5,2.81,5.31,3.63-.39.32-.92.99-1.22,1.45-1.38-.71-2.78-1.7-4.09-2.85v8.14h-1.75v-9.82c-1.31-1.4-2.51-2.94-3.43-4.51-1.68,7.24-5.13,11.82-9.5,14.26-.3-.39-.94-1.01-1.36-1.26,2.74-1.43,5.08-3.66,6.81-6.76-1.06-1.01-2.81-2.3-4.39-3.27-.48.64-.99,1.24-1.52,1.77-.28-.3-1.01-.85-1.4-1.1,2.53-2.35,4.44-6.14,5.5-10.26l1.68.34c-.3,1.08-.64,2.16-1.03,3.17h4.32l.32-.09,1.1.41c-.09.67-.23,1.31-.34,1.93l.9-.34c.62,1.15,1.43,2.28,2.35,3.36v-8.76h1.75v10.55ZM71.28,196.28c-.53,1.15-1.08,2.23-1.7,3.2,1.49.87,3.2,2.02,4.3,3.01.8-1.82,1.45-3.89,1.89-6.21h-4.48Z"/>
      <path class="cls-3" d="M94.62,201.11c-.97-.74-2.87-1.7-4.44-2.28l.9-1.29c1.52.51,3.47,1.38,4.48,2.12l-.94,1.45ZM96.62,204.49c-1.2,2.41-2.81,5.24-4.16,7.38l-1.43-1.15c1.22-1.75,3.04-4.76,4.35-7.36l1.24,1.13ZM95.79,195.18c-.9-.85-2.76-1.93-4.3-2.55l.92-1.26c1.54.57,3.43,1.59,4.37,2.41l-.99,1.4ZM111.25,209.85v1.63h-15.02v-1.63h6.65v-5.56h-5.01v-1.61h5.01v-4.94h-5.89v-1.61h8.12c-1.08-1.15-3.29-2.74-5.17-3.7l1.1-1.29c1.89.94,4.19,2.46,5.31,3.59l-1.15,1.4h5.56v1.61h-6.14v4.94h5.31v1.61h-5.31v5.56h6.62Z"/>
      <path class="cls-3" d="M132.59,210.2c.83,0,.97-.48,1.06-3.45.39.3,1.1.6,1.59.71-.18,3.47-.69,4.37-2.51,4.37h-3.27c-2.02,0-2.53-.57-2.53-2.44v-6.74h-4.35c-.46,4.48-1.75,7.84-6.97,9.66-.18-.44-.69-1.13-1.08-1.45,4.85-1.49,5.89-4.44,6.28-8.21h-5.96v-1.66h9.15v-4.6h-4.74c-.55,1.31-1.24,2.53-2,3.5-.39-.28-1.06-.62-1.49-.8,1.59-1.93,2.74-4.97,3.29-7.36l1.72.34c-.23.87-.53,1.77-.85,2.69h4.07v-3.56h1.7v3.56h7.54v1.63h-7.54v4.6h9.2v1.66h-6.28v6.74c0,.69.16.8,1.03.8h2.92Z"/>
      <path class="cls-3" d="M149.77,211.14l-1.08-1.7c.74-.07,1.45-.18,1.98-.3,2.94-.67,5.84-2.85,5.84-6.83,0-3.47-2.23-6.35-6.14-6.67-.3,2.14-.74,4.48-1.38,6.62-1.4,4.74-3.22,7.15-5.36,7.15s-4.09-2.35-4.09-6.14c0-4.99,4.44-9.36,10.05-9.36s8.81,3.79,8.81,8.46-3.17,8.05-8.62,8.76ZM143.7,207.3c1.08,0,2.3-1.54,3.47-5.43.57-1.91,1.03-4.09,1.29-6.21-4.42.55-7.13,4.32-7.13,7.45,0,2.9,1.33,4.19,2.37,4.19Z"/>
      <path class="cls-3" d="M169.35,198.08h4.39v1.56h-4.39v1.68c1.03.8,3.66,3.06,4.32,3.66l-.99,1.4c-.69-.76-2.16-2.23-3.33-3.31v9.06h-1.66v-9.91c-1.2,2.62-2.81,5.22-4.37,6.78-.21-.46-.64-1.17-.94-1.59,1.84-1.75,3.84-4.92,4.97-7.77h-4.46v-1.56h4.81v-3.89c-1.49.28-3.01.51-4.44.71-.07-.41-.32-.99-.53-1.36,3.36-.51,7.36-1.29,9.5-2.23l1.26,1.31c-1.15.46-2.6.87-4.14,1.22v4.23ZM176.94,206.49h-1.66v-12.58h1.66v12.58ZM182.59,191.64v18.26c0,1.17-.32,1.7-1.03,2-.76.25-2.05.3-4.14.3-.09-.46-.34-1.24-.62-1.72,1.61.05,3.06.05,3.5.02.41,0,.6-.14.6-.57v-18.28h1.7Z"/>
      <path class="cls-3" d="M201.11,197.5c1.66,2.67,4.32,5.17,6.94,6.44-.37.3-.92.94-1.17,1.36-.76-.41-1.52-.92-2.25-1.49v6.14h3.08v1.54h-20.76v-1.54h3.17v-6.05c-.74.64-1.52,1.2-2.3,1.7-.25-.34-.92-.99-1.31-1.29,2.71-1.54,5.17-3.98,6.76-6.81h-5.73v-1.52h5.73c-.51-1.17-1.54-2.85-2.48-4.07l1.45-.62c1.06,1.29,2.16,2.99,2.64,4.16l-1.06.53h7.04l-1.22-.44c.94-1.17,2.16-3.06,2.81-4.39l1.77.55c-.92,1.47-2.07,3.17-3.04,4.28h5.96v1.52h-6.02ZM204.19,203.46c-1.91-1.61-3.66-3.73-4.88-5.96h-4.07c-1.2,2.28-2.81,4.3-4.62,5.96h13.57ZM194.4,204.93h-2.74v5.01h2.74v-5.01ZM198.72,204.93h-2.76v5.01h2.76v-5.01ZM203.04,209.94v-5.01h-2.78v5.01h2.78Z"/>
    </g>
    <g>
      <path class="cls-3" d="M47.58,327.23c2.24,7.04,6.4,12.83,12.58,15.36-.58.54-1.38,1.54-1.79,2.24-6.14-2.91-10.21-8.58-12.73-15.84-1.54,6.14-4.99,12.29-12.77,15.84-.35-.64-1.12-1.47-1.79-1.95,7.94-3.46,11.14-9.6,12.45-15.65h-11.81v-2.43h12.19c.48-3.36.45-6.56.48-9.09h2.56c-.03,2.56-.06,5.73-.51,9.09h13.21v2.43h-12.06Z"/>
      <path class="cls-3" d="M93.56,334.46h-13.12v7.1c0,1.7-.51,2.4-1.7,2.78-1.18.38-3.23.45-6.59.42-.19-.67-.64-1.73-1.02-2.37,2.69.1,5.18.06,5.92.03.7,0,.99-.22.99-.9v-7.07h-13.15v-2.34h13.15v-5.18h-11.01v-2.27h11.01v-4.93c-3.52.38-7.14.61-10.43.77-.1-.64-.38-1.57-.61-2.11,7.55-.35,16.83-1.18,21.63-2.69l1.79,1.89c-2.72.83-6.21,1.44-9.98,1.89v5.18h11.33v2.27h-11.33v5.18h13.12v2.34Z"/>
      <path class="cls-3" d="M113.85,343.42l-1.5-2.37c1.02-.1,2.02-.26,2.75-.42,4.1-.93,8.13-3.97,8.13-9.5,0-4.83-3.1-8.83-8.54-9.28-.42,2.98-1.02,6.24-1.92,9.22-1.95,6.59-4.48,9.95-7.46,9.95s-5.7-3.26-5.7-8.54c0-6.94,6.18-13.02,13.98-13.02s12.26,5.28,12.26,11.78-4.42,11.2-12,12.19ZM105.4,338.07c1.5,0,3.2-2.14,4.83-7.55.8-2.66,1.44-5.7,1.79-8.64-6.14.77-9.92,6.02-9.92,10.37,0,4.03,1.86,5.82,3.3,5.82Z"/>
      <path class="cls-3" d="M141.08,325.24h6.11v2.18h-6.11v2.34c1.44,1.12,5.09,4.26,6.02,5.09l-1.38,1.95c-.96-1.06-3.01-3.1-4.64-4.61v12.61h-2.3v-13.79c-1.66,3.65-3.9,7.26-6.08,9.44-.29-.64-.9-1.63-1.31-2.21,2.56-2.43,5.34-6.85,6.91-10.82h-6.21v-2.18h6.69v-5.41c-2.08.38-4.19.7-6.18.99-.1-.58-.45-1.38-.74-1.89,4.67-.7,10.24-1.79,13.22-3.1l1.76,1.82c-1.6.64-3.62,1.22-5.76,1.7v5.89ZM151.64,336.95h-2.3v-17.5h2.3v17.5ZM159.51,316.28v25.41c0,1.63-.45,2.37-1.44,2.78-1.06.35-2.85.42-5.76.42-.13-.64-.48-1.73-.86-2.4,2.24.06,4.26.06,4.86.03.58,0,.83-.19.83-.8v-25.44h2.37Z"/>
      <path class="cls-3" d="M185.27,324.44c2.3,3.71,6.02,7.2,9.66,8.96-.51.42-1.28,1.31-1.63,1.89-1.06-.58-2.11-1.28-3.14-2.08v8.54h4.29v2.14h-28.89v-2.14h4.42v-8.42c-1.02.9-2.11,1.66-3.2,2.37-.35-.48-1.28-1.38-1.82-1.79,3.78-2.14,7.2-5.54,9.41-9.47h-7.97v-2.11h7.97c-.7-1.63-2.14-3.97-3.46-5.66l2.02-.86c1.47,1.79,3.01,4.16,3.68,5.79l-1.47.74h9.79l-1.7-.61c1.31-1.63,3.01-4.26,3.9-6.11l2.46.77c-1.28,2.05-2.88,4.42-4.22,5.95h8.29v2.11h-8.38ZM189.56,332.73c-2.66-2.24-5.09-5.18-6.78-8.29h-5.66c-1.66,3.17-3.9,5.98-6.43,8.29h18.88ZM175.93,334.78h-3.81v6.98h3.81v-6.98ZM181.94,334.78h-3.84v6.98h3.84v-6.98ZM187.96,341.75v-6.98h-3.87v6.98h3.87Z"/>
    </g>
  </g>
</svg>