<?xml version="1.0" encoding="UTF-8"?>
<svg id="_レイヤー_2" data-name="レイヤー 2" xmlns="http://www.w3.org/2000/svg" xmlns:xlink="http://www.w3.org/1999/xlink" viewBox="0 0 226.13 395.75">
  <defs>
    <style>
      .cls-1 {
        fill: url(#_名称未設定グラデーション_45-11);
      }

      .cls-2 {
        fill: url(#_名称未設定グラデーション_45-8);
      }

      .cls-3 {
        fill: url(#_名称未設定グラデーション_45-5);
      }

      .cls-4 {
        fill: url(#_名称未設定グラデーション_45-16);
      }

      .cls-5 {
        fill: url(#_名称未設定グラデーション_45-12);
      }

      .cls-6 {
        fill: url(#_名称未設定グラデーション_45-10);
      }

      .cls-7 {
        fill: #fff;
      }

      .cls-8 {
        fill: url(#_名称未設定グラデーション_45);
      }

      .cls-9 {
        fill: url(#_名称未設定グラデーション_45-6);
      }

      .cls-10 {
        fill: url(#_名称未設定グラデーション_45-9);
      }

      .cls-11 {
        fill: url(#_名称未設定グラデーション_45-3);
      }

      .cls-12 {
        fill: url(#_名称未設定グラデーション_45-4);
      }

      .cls-13 {
        fill: url(#_名称未設定グラデーション_45-7);
      }

      .cls-14 {
        fill: url(#_名称未設定グラデーション_45-2);
      }

      .cls-15 {
        fill: url(#_名称未設定グラデーション_45-13);
      }

      .cls-16 {
        fill: url(#_名称未設定グラデーション_45-14);
      }

      .cls-17 {
        fill: url(#_名称未設定グラデーション_45-15);
      }
    </style>
    <linearGradient id="_名称未設定グラデーション_45" data-name="名称未設定グラデーション 45" x1="-5.2" y1="317.81" x2="231.45" y2="340.69" gradientUnits="userSpaceOnUse">
      <stop offset="0" stop-color="#4fac00"/>
      <stop offset="1" stop-color="#5af300"/>
    </linearGradient>
    <linearGradient id="_名称未設定グラデーション_45-2" data-name="名称未設定グラデーション 45" x1="40.06" y1="47.37" x2="179.72" y2="214.97" xlink:href="#_名称未設定グラデーション_45"/>
    <linearGradient id="_名称未設定グラデーション_45-3" data-name="名称未設定グラデーション 45" x1="58.23" y1="32.23" x2="197.9" y2="199.83" xlink:href="#_名称未設定グラデーション_45"/>
    <linearGradient id="_名称未設定グラデーション_45-4" data-name="名称未設定グラデーション 45" x1="79.44" y1="14.55" x2="219.11" y2="182.15" xlink:href="#_名称未設定グラデーション_45"/>
    <linearGradient id="_名称未設定グラデーション_45-5" data-name="名称未設定グラデーション 45" x1="99.2" y1="-1.91" x2="238.86" y2="165.69" xlink:href="#_名称未設定グラデーション_45"/>
    <linearGradient id="_名称未設定グラデーション_45-6" data-name="名称未設定グラデーション 45" x1="12.24" y1="70.55" x2="151.9" y2="238.15" xlink:href="#_名称未設定グラデーション_45"/>
    <linearGradient id="_名称未設定グラデーション_45-7" data-name="名称未設定グラデーション 45" x1="34.27" y1="52.19" x2="173.93" y2="219.79" xlink:href="#_名称未設定グラデーション_45"/>
    <linearGradient id="_名称未設定グラデーション_45-8" data-name="名称未設定グラデーション 45" x1="52.14" y1="37.3" x2="191.81" y2="204.9" xlink:href="#_名称未設定グラデーション_45"/>
    <linearGradient id="_名称未設定グラデーション_45-9" data-name="名称未設定グラデーション 45" x1="72.39" y1="20.43" x2="212.05" y2="188.03" xlink:href="#_名称未設定グラデーション_45"/>
    <linearGradient id="_名称未設定グラデーション_45-10" data-name="名称未設定グラデーション 45" x1="-20.13" y1="97.53" x2="119.53" y2="265.13" xlink:href="#_名称未設定グラデーション_45"/>
    <linearGradient id="_名称未設定グラデーション_45-11" data-name="名称未設定グラデーション 45" x1="-3.01" y1="83.25" x2="136.66" y2="250.85" xlink:href="#_名称未設定グラデーション_45"/>
    <linearGradient id="_名称未設定グラデーション_45-12" data-name="名称未設定グラデーション 45" x1="16.99" y1="66.59" x2="156.66" y2="234.19" xlink:href="#_名称未設定グラデーション_45"/>
    <linearGradient id="_名称未設定グラデーション_45-13" data-name="名称未設定グラデーション 45" x1="36.36" y1="50.45" x2="176.03" y2="218.05" xlink:href="#_名称未設定グラデーション_45"/>
    <linearGradient id="_名称未設定グラデーション_45-14" data-name="名称未設定グラデーション 45" x1="50.96" y1="38.28" x2="190.63" y2="205.88" xlink:href="#_名称未設定グラデーション_45"/>
    <linearGradient id="_名称未設定グラデーション_45-15" data-name="名称未設定グラデーション 45" x1="58" y1="32.41" x2="197.67" y2="200.01" xlink:href="#_名称未設定グラデーション_45"/>
    <linearGradient id="_名称未設定グラデーション_45-16" data-name="名称未設定グラデーション 45" x1="0" y1="131.5" x2="226" y2="131.5" xlink:href="#_名称未設定グラデーション_45"/>
  </defs>
  <g id="_レイヤー_2-2" data-name="レイヤー 2">
    <rect class="cls-8" x=".13" y="262.75" width="226" height="133"/>
    <g>
      <path class="cls-7" d="M55,318.98v24.77h-2.46v-1.63h-17.05v1.79h-2.37v-24.93h8.03c.48-1.41.99-3.14,1.25-4.38l2.72.35c-.48,1.38-1.06,2.82-1.6,4.03h11.49ZM35.48,321.25v4.77h17.05v-4.77h-17.05ZM35.48,328.26v4.64h17.05v-4.64h-17.05ZM52.53,339.87v-4.74h-17.05v4.74h17.05Z"/>
      <path class="cls-7" d="M74.68,334.66c-.83-.93-2.59-2.72-4.03-4.06v13.25h-2.34v-12.42c-1.6,1.6-3.26,2.94-4.9,4-.26-.61-.86-1.7-1.25-2.14,3.81-2.21,7.81-6.24,10.02-10.5h-8.9v-2.18h5.02v-5.95h2.34v5.95h2.78l.42-.1,1.34.9c-.99,2.46-2.46,4.83-4.16,6.98,1.5,1.18,4.32,3.65,5.12,4.35l-1.47,1.92ZM92.31,340.61v2.34h-17.92v-2.34h8.1v-13.28h-6.85v-2.3h6.85v-10.14h2.37v10.14h6.82v2.3h-6.82v13.28h7.46Z"/>
      <path class="cls-7" d="M112.05,342.4l-1.5-2.37c1.02-.1,2.02-.26,2.75-.42,4.1-.93,8.13-3.97,8.13-9.5,0-4.83-3.1-8.83-8.54-9.28-.42,2.98-1.02,6.24-1.92,9.22-1.95,6.59-4.48,9.95-7.46,9.95s-5.7-3.26-5.7-8.54c0-6.94,6.18-13.02,13.98-13.02s12.26,5.28,12.26,11.78-4.42,11.2-12,12.19ZM103.61,337.06c1.5,0,3.2-2.14,4.83-7.55.8-2.66,1.44-5.7,1.79-8.64-6.14.77-9.92,6.02-9.92,10.37,0,4.03,1.86,5.82,3.3,5.82Z"/>
      <path class="cls-7" d="M139.29,324.23h6.11v2.18h-6.11v2.34c1.44,1.12,5.09,4.26,6.02,5.09l-1.38,1.95c-.96-1.06-3.01-3.1-4.64-4.61v12.61h-2.3v-13.79c-1.66,3.65-3.9,7.26-6.08,9.44-.29-.64-.9-1.63-1.31-2.21,2.56-2.43,5.34-6.85,6.91-10.82h-6.21v-2.18h6.69v-5.41c-2.08.38-4.19.7-6.18.99-.1-.58-.45-1.38-.74-1.89,4.67-.7,10.24-1.79,13.22-3.1l1.76,1.82c-1.6.64-3.62,1.22-5.76,1.7v5.89ZM149.84,335.94h-2.3v-17.5h2.3v17.5ZM157.72,315.27v25.41c0,1.63-.45,2.37-1.44,2.78-1.06.35-2.85.42-5.76.42-.13-.64-.48-1.73-.86-2.4,2.24.06,4.26.06,4.86.03.58,0,.83-.19.83-.8v-25.44h2.37Z"/>
      <path class="cls-7" d="M183.48,323.43c2.3,3.71,6.02,7.2,9.66,8.96-.51.42-1.28,1.31-1.63,1.89-1.06-.58-2.11-1.28-3.14-2.08v8.54h4.29v2.14h-28.89v-2.14h4.42v-8.42c-1.02.9-2.11,1.66-3.2,2.37-.35-.48-1.28-1.38-1.82-1.79,3.78-2.14,7.2-5.54,9.41-9.47h-7.97v-2.11h7.97c-.7-1.63-2.14-3.97-3.46-5.66l2.02-.86c1.47,1.79,3.01,4.16,3.68,5.79l-1.47.74h9.79l-1.7-.61c1.31-1.63,3.01-4.26,3.9-6.11l2.46.77c-1.28,2.05-2.88,4.42-4.22,5.95h8.29v2.11h-8.38ZM187.76,331.71c-2.66-2.24-5.09-5.18-6.78-8.29h-5.66c-1.66,3.17-3.9,5.98-6.43,8.29h18.88ZM174.13,333.76h-3.81v6.98h3.81v-6.98ZM180.15,333.76h-3.84v6.98h3.84v-6.98ZM186.16,340.74v-6.98h-3.87v6.98h3.87Z"/>
    </g>
    <g>
      <path class="cls-14" d="M55.32,81.07c0,2.43,2.5,4.13,7.62,4.13,4.42,0,8.54-.48,10.94-1.28l.03,2.75c-2.3.64-6.37,1.12-10.91,1.12-6.5,0-10.27-2.14-10.27-6.18,0-1.63.38-3.14.67-4.45l2.59.26c-.42,1.28-.67,2.46-.67,3.65ZM63.16,64.94c3.07,0,6.34-.22,8.64-.45v2.62c-2.18.16-5.66.38-8.64.38-3.2,0-5.92-.16-8.45-.35v-2.62c2.3.29,5.25.42,8.45.42Z"/>
      <path class="cls-11" d="M90.04,61.58l3.01.1c-.16.8-.42,2.59-.64,4.83.06-.03.13-.03.19-.06l.93,1.12c-.42.58-.96,1.44-1.44,2.24-.06.61-.1,1.22-.16,1.86,2.5-2.3,6.62-5.41,9.86-5.41,2.98,0,4.45,1.7,4.45,4.29,0,3.2-1.18,8.7-1.18,11.97,0,1.06.51,1.95,1.66,1.95,1.54,0,3.2-.93,4.83-2.66l.42,2.75c-1.7,1.7-3.71,2.66-5.89,2.66s-3.55-1.38-3.55-4.03c0-3.55,1.22-8.8,1.22-11.94,0-1.86-.96-2.62-2.59-2.62-2.59,0-6.46,3.01-9.41,6.14-.06,1.34-.1,2.62-.1,3.78,0,2.91-.03,4.86.13,7.71.03.58.1,1.38.16,1.95h-2.78c.06-.58.1-1.38.1-1.89.03-3.07.03-4.7.1-8.19,0-.32.03-.77.03-1.28-1.57,2.37-3.68,5.41-5.22,7.58l-1.63-2.21c1.79-2.24,5.5-7.23,7.1-9.73.06-1.06.16-2.14.22-3.17-1.44.19-4.26.58-6.27.86l-.26-2.62c.7.03,1.31,0,2.08-.03,1.06-.06,2.94-.26,4.61-.54.1-1.5.16-2.69.16-3.04,0-.7,0-1.57-.13-2.37Z"/>
      <path class="cls-12" d="M127.03,64.81c-.13.7-.32,1.5-.48,2.37,2.08-.26,4.19-.64,6.14-1.12v2.5c-2.08.48-4.42.83-6.66,1.09-.32,1.41-.64,2.88-1.02,4.29-1.15,4.54-3.33,11.17-4.99,14.66l-2.82-.96c1.92-3.3,4.19-9.79,5.38-14.3.29-1.06.58-2.27.83-3.42-1.06.06-2.05.1-2.94.1-1.41,0-2.56-.06-3.71-.13l-.1-2.5c1.54.19,2.69.22,3.84.22,1.06,0,2.21-.06,3.46-.16.22-1.12.38-2.14.48-2.78.13-.9.16-1.98.1-2.62l3.07.26c-.19.67-.45,1.89-.58,2.53ZM130.84,82.67c0,1.5.83,2.98,5.41,2.98,2.08,0,4.29-.22,6.24-.64l-.1,2.59c-1.73.26-3.84.48-6.18.48-5.06,0-7.81-1.57-7.81-4.74,0-1.22.19-2.43.48-3.78l2.4.22c-.29,1.06-.45,2.05-.45,2.88ZM136.47,71.72c1.89,0,3.81.1,5.54.29l-.06,2.43c-1.63-.22-3.52-.38-5.38-.38-2.02,0-3.97.13-5.95.35v-2.4c1.7-.16,3.81-.29,5.86-.29ZM141.17,67.66l-1.73.77c-.64-1.31-1.73-3.23-2.59-4.45l1.7-.74c.83,1.15,1.98,3.1,2.62,4.42ZM144.79,66.35l-1.73.77c-.7-1.41-1.76-3.23-2.66-4.45l1.66-.74c.86,1.22,2.11,3.2,2.72,4.42Z"/>
      <path class="cls-3" d="M155.61,64.59c-1.02,4.64-2.11,11.65-.9,16.89.45-1.34,1.12-3.3,1.73-4.9l1.38.83c-.77,2.24-1.73,5.5-2.08,7.07-.13.48-.19,1.09-.16,1.44.03.32.06.77.1,1.09l-2.18.26c-.64-1.95-1.7-6.11-1.7-10.14,0-5.18.83-10.11,1.22-12.77.13-.74.16-1.57.16-2.14l2.98.29c-.16.61-.38,1.47-.54,2.08ZM172.25,63.92c-.03.7,0,2.85.03,4.83,1.89-.16,3.71-.38,5.22-.74v2.62c-1.47.22-3.26.42-5.18.54v1.12c0,7.36,0,12.58-6.78,16.57l-2.34-1.82c1.02-.42,2.34-1.22,3.1-1.98,3.42-3.01,3.62-6.62,3.62-12.77v-.99c-1.38.06-2.75.1-4.06.1-1.54,0-3.81-.1-5.18-.19v-2.56c1.38.22,3.42.35,5.15.35,1.31,0,2.69-.03,4.03-.1-.03-2.02-.13-4.16-.19-4.96-.06-.74-.19-1.41-.29-1.92h2.98c-.06.54-.1,1.18-.1,1.89Z"/>
      <path class="cls-9" d="M71.51,130.64c-.99,3.58-2.59,6.34-4.74,8.45,3.52,1.44,6.75,3.01,8.99,4.42l-1.73,1.98c-2.21-1.5-5.57-3.17-9.28-4.74-3.39,2.43-7.87,3.84-13.47,4.74-.22-.54-.96-1.63-1.44-2.14,5.12-.64,9.22-1.73,12.35-3.62-2.11-.83-4.26-1.6-6.27-2.21-.29.48-.54.93-.8,1.34l-2.43-.64c1.22-2.02,2.75-4.77,4.22-7.58h-7.81v-2.24h8.99c.9-1.82,1.79-3.58,2.53-5.15l2.43.54c-.67,1.44-1.47,3.01-2.27,4.61h16.51v2.24h-5.79ZM52.44,126.41h-2.4v-6.82h11.84v-3.39h2.46v3.39h12.16v6.82h-2.46v-4.61h-21.6v4.61ZM59.64,130.64c-.9,1.73-1.82,3.46-2.69,4.99,2.37.7,4.9,1.57,7.39,2.5,2.11-1.86,3.58-4.29,4.45-7.49h-9.15Z"/>
      <path class="cls-13" d="M101.11,121.2c-2.18,1.92-6.78,5.57-9.15,7.55-1.92,1.63-1.95,2.14.1,3.87,2.91,2.37,8.58,6.94,11.97,10.34l-2.27,2.11c-.67-.77-1.41-1.57-2.21-2.34-2.24-2.3-7.1-6.46-10.08-8.93-3.04-2.53-2.66-3.9.22-6.34,2.4-2.02,7.26-5.86,9.44-8.06.64-.64,1.44-1.54,1.82-2.14l2.37,2.11c-.67.54-1.66,1.38-2.21,1.82Z"/>
      <path class="cls-2" d="M127.58,122.54c1.66-.26,3.39-.64,5.02-1.18l.06,2.4c-1.7.48-3.71.9-5.82,1.18-1.57,4.51-4.42,10.05-6.98,13.5l-2.46-1.28c2.66-3.1,5.38-8.22,6.85-11.97-.96.06-1.92.1-2.85.1-1.18,0-2.53-.03-3.74-.1l-.16-2.4c1.18.16,2.56.22,3.9.22,1.15,0,2.37-.06,3.62-.16.48-1.79.93-3.81.99-5.54l2.82.26c-.29,1.15-.74,3.1-1.25,4.96ZM136.34,130.92c.03,1.18.16,3.26.22,5.25,2.75.99,4.99,2.56,6.66,3.97l-1.38,2.18c-1.38-1.22-3.1-2.66-5.18-3.68.03.51.03.96.03,1.34,0,2.56-1.63,4.64-5.6,4.64-3.52,0-6.4-1.44-6.4-4.61,0-2.94,2.78-4.8,6.4-4.8,1.09,0,2.14.1,3.14.32-.13-2.62-.29-5.79-.35-8.06h2.5c-.06,1.31-.06,2.3-.03,3.46ZM130.78,142.32c2.66,0,3.55-1.41,3.55-3.17,0-.42,0-.9-.03-1.44-1.02-.32-2.14-.48-3.3-.48-2.34,0-3.94,1.09-3.94,2.56s1.22,2.53,3.71,2.53ZM135.45,123.92l1.31-1.95c2.3,1.02,5.95,3.1,7.46,4.26l-1.44,2.11c-1.73-1.47-5.18-3.46-7.33-4.42Z"/>
      <path class="cls-10" d="M157.88,119.53c1.66,0,9.28-.26,10.98-.42.96-.06,1.41-.16,1.73-.26l1.47,1.86c-.58.42-1.22.83-1.79,1.31-1.6,1.22-5.95,4.93-8.45,7.01,1.47-.51,3.01-.67,4.45-.67,5.31,0,9.12,3.2,9.12,7.52,0,5.15-4.22,8.48-11.01,8.48-4.35,0-7.01-1.89-7.01-4.54,0-2.21,1.95-4.16,4.93-4.16,4,0,6.14,2.62,6.53,5.66,2.56-.99,4-2.85,4-5.47,0-3.14-3.01-5.5-7.17-5.5-5.34,0-8.19,2.27-12.26,6.4l-1.82-1.89c2.66-2.18,6.75-5.6,8.61-7.17,1.79-1.47,5.79-4.83,7.42-6.27-1.7.06-8.1.35-9.79.45-.7.03-1.44.1-2.11.19l-.1-2.66c.74.1,1.63.13,2.27.13ZM163.96,142.12c.93,0,1.79-.06,2.59-.19-.26-2.53-1.86-4.35-4.29-4.35-1.44,0-2.56.93-2.56,2.05,0,1.54,1.76,2.5,4.26,2.5Z"/>
      <path class="cls-6" d="M65.46,176.84h-3.94v21.18c0,1.7-.42,2.56-1.63,2.91-1.28.45-3.49.45-6.62.45-.16-.67-.64-1.86-1.02-2.53,2.56.13,5.18.1,5.92.06.7-.03.93-.26.93-.93v-21.15h-21.95v-2.37h28.32v2.37ZM42.71,193.39v2.56h-2.3v-14.43h12.99v11.87h-10.69ZM42.71,183.82v7.3h8.35v-7.3h-8.35Z"/>
      <path class="cls-1" d="M81.5,174.45c1.66,2.21,3.49,5.15,4.16,7.1l-2.02.9c-.19-.54-.48-1.18-.83-1.89-4.48.26-9.09.48-12.35.67l-.22-2.24c.74-.03,1.54-.06,2.43-.1,1.09-2.02,2.27-4.74,2.94-6.69l2.4.58c-.86,1.95-1.89,4.19-2.88,6.02l6.56-.29c-.67-1.15-1.41-2.3-2.14-3.3l1.95-.77ZM83.48,198.7c0,1.18-.22,1.86-1.09,2.24-.9.35-2.27.38-4.29.38-.13-.61-.45-1.57-.77-2.14,1.5.06,2.85.03,3.3,0,.42,0,.51-.1.51-.51v-3.78h-6.75v6.5h-2.21v-17.85h11.3v15.17ZM74.39,185.52v2.75h6.75v-2.75h-6.75ZM81.14,193.07v-2.94h-6.75v2.94h6.75ZM90.33,186.16c-3.04,0-3.84-.7-3.84-3.33v-10.56h2.34v5.34c2.72-.9,5.57-2.05,7.39-3.01l1.6,1.73c-2.53,1.18-5.92,2.34-8.99,3.23v3.23c0,1.02.26,1.22,1.7,1.22h5.09c1.22,0,1.44-.51,1.57-3.68.51.38,1.47.77,2.18.93-.29,3.87-1.02,4.9-3.55,4.9h-5.47ZM95.86,199.05c1.34,0,1.57-.64,1.73-4.22.54.38,1.47.77,2.14.9-.32,4.29-1.02,5.41-3.68,5.41h-5.7c-3.04,0-3.87-.7-3.87-3.33v-10.75h2.34v5.06c2.91-.93,5.95-2.18,7.78-3.36l1.57,1.79c-2.46,1.41-6.11,2.62-9.34,3.55v3.71c0,1.06.29,1.25,1.79,1.25h5.25Z"/>
      <path class="cls-5" d="M103.45,186.44c.86-2.11,1.44-5.6,1.66-8.19l1.79.26c-.16,2.62-.77,6.24-1.6,8.58l-1.86-.64ZM108.06,172.21h2.37v29.21h-2.37v-29.21ZM112.31,177.32c.96,1.73,1.95,4,2.34,5.34l-1.79.86c-.35-1.38-1.31-3.68-2.21-5.44l1.66-.77ZM132.69,198.06v2.27h-19.52v-2.27h9.15v-8h-6.78v-2.21h6.78v-6.62h-4.67c-.64,1.92-1.38,3.58-2.24,4.96-.48-.32-1.54-.83-2.11-1.09,1.86-2.78,3.14-7.07,3.87-11.42l2.3.38c-.32,1.66-.7,3.33-1.15,4.9h4v-6.62h2.37v6.62h7.23v2.27h-7.23v6.62h6.53v2.21h-6.53v8h8Z"/>
      <path class="cls-15" d="M149.82,176.08c-.1.83-.26,1.95-.45,3.3,2.46,0,4.64-.13,6.5-.42l-.06,2.4c-2.05.19-3.9.29-6.5.29h-.22c-.22,1.89-.48,3.9-.7,5.79h.61c2.18,0,4.42-.1,6.66-.42l-.06,2.43c-2.11.22-4.1.32-6.27.32h-1.15c-.13,1.28-.19,2.4-.19,3.17,0,3.1,1.73,5.02,5.38,5.02,4.86,0,7.97-2.14,7.97-5.44,0-2.14-1.15-4.54-3.49-6.53l2.82-.58c2.21,2.43,3.26,4.64,3.26,7.39,0,4.77-4.22,7.65-10.56,7.65-4.35,0-7.84-1.89-7.84-7.14,0-.9.1-2.18.26-3.68-2.4-.19-4.74-.54-6.69-1.15l.13-2.46c2.11.74,4.54,1.12,6.82,1.31.19-1.89.45-3.9.7-5.79-2.34-.19-4.86-.61-6.88-1.12l.13-2.34c2.02.64,4.64,1.02,7.01,1.18.16-1.28.29-2.43.35-3.36.1-1.09.1-1.66.03-2.27l2.88.19c-.22.86-.32,1.54-.42,2.24Z"/>
      <path class="cls-16" d="M172.7,197.2c0-1.34.96-2.27,2.11-2.27s2.11.93,2.11,2.27-.93,2.21-2.11,2.21-2.11-.9-2.11-2.21ZM173.43,178.35l-.1-3.33h2.98l-.1,3.33-.38,13.57h-2.02l-.38-13.57Z"/>
      <path class="cls-17" d="M184.63,197.2c0-1.34.96-2.27,2.11-2.27s2.11.93,2.11,2.27-.93,2.21-2.11,2.21-2.11-.9-2.11-2.21ZM185.37,178.35l-.1-3.33h2.98l-.1,3.33-.38,13.57h-2.02l-.38-13.57Z"/>
    </g>
    <path class="cls-4" d="M226,0h-12v3h12V0h0ZM202,0h-12v3h12V0h0ZM178,0h-12v3h12V0h0ZM154,0h-12v3h12V0h0ZM130,0h-12v3h12V0h0ZM106,0h-12v3h12V0h0ZM82,0h-12v3h12V0h0ZM58,0h-12v3h12V0h0ZM34,0h-12v3h12V0h0ZM10,0H0v3h10V0h0ZM3,14H0v12h3v-12h0ZM3,38H0v12h3v-12h0ZM3,62H0v12h3v-12h0ZM3,86H0v12h3v-12h0ZM3,110H0v12h3v-12h0ZM3,134H0v12h3v-12h0ZM3,158H0v12h3v-12h0ZM3,182H0v12h3v-12h0ZM3,206H0v12h3v-12h0ZM3,230H0v12h3v-12h0ZM3,254H0v9h3v-3h0v-6h0ZM27,260h-12v3h12v-3h0ZM51,260h-12v3h12v-3h0ZM75,260h-12v3h12v-3h0ZM99,260h-12v3h12v-3h0ZM123,260h-12v3h12v-3h0ZM147,260h-12v3h12v-3h0ZM171,260h-12v3h12v-3h0ZM195,260h-12v3h12v-3h0ZM219,260h-12v3h12v-3h0ZM226,246h-3v12h3v-12h0ZM226,222h-3v12h3v-12h0ZM226,198h-3v12h3v-12h0ZM226,174h-3v12h3v-12h0ZM226,150h-3v12h3v-12h0ZM226,126h-3v12h3v-12h0ZM226,102h-3v12h3v-12h0ZM226,78h-3v12h3v-12h0ZM226,54h-3v12h3v-12h0ZM226,30h-3v12h3v-12h0ZM226,6h-3v12h3V6h0Z"/>
  </g>
</svg>