<?xml version="1.0" encoding="UTF-8"?>
<svg id="_レイヤー_2" data-name="レイヤー 2" xmlns="http://www.w3.org/2000/svg" viewBox="0 0 98.86 92.99">
  <defs>
    <style>
      .cls-1 {
        fill: #fff;
      }

      .cls-2 {
        fill: #515266;
      }
    </style>
  </defs>
  <g id="_レイヤー_2-2" data-name="レイヤー 2">
    <g>
      <g>
        <path class="cls-2" d="M88.64,73.04h-7.92s-.02,0-.02,0-.02,0-.02,0H20.95s-.04.01-.05.01c-.25,0-.49.04-.72.14l-18.42,7.69c-.76.32-1.25,1.06-1.25,1.88s.49,1.57,1.25,1.88l18.39,7.68c.25.11.52.17.81.17h67.7c2.61,0,5.05-1.02,6.86-2.85,1.85-1.83,2.87-4.27,2.87-6.88,0-5.36-4.36-9.73-9.73-9.73ZM22.99,77.12h55.67v11.3H22.99v-11.3ZM18.91,78.14v9.25l-11.08-4.63,11.08-4.63ZM92.61,86.76c-1.05,1.07-2.47,1.66-3.97,1.66h-5.9v-11.3h5.9c3.11,0,5.65,2.53,5.65,5.65,0,1.51-.59,2.92-1.67,3.99Z"/>
        <path class="cls-1" d="M88.64,92.99H20.95c-.34,0-.68-.07-1.01-.21l-18.38-7.67c-.95-.39-1.56-1.31-1.56-2.34s.61-1.94,1.56-2.34l18.42-7.69c.25-.1.52-.16.84-.18h.13s67.7-.01,67.7-.01c5.64,0,10.22,4.59,10.22,10.22,0,2.74-1.07,5.31-3.02,7.23-1.9,1.93-4.46,2.99-7.2,2.99ZM21.01,73.54h-.1c-.22.02-.39.05-.54.11l-18.42,7.69c-.58.24-.95.8-.95,1.43s.37,1.19.95,1.43l18.39,7.68c.21.09.41.13.62.13h67.7c2.47,0,4.78-.96,6.5-2.7,1.76-1.74,2.73-4.05,2.73-6.53,0-5.09-4.14-9.23-9.23-9.23H21.01ZM88.64,88.91h-6.4v-12.29h6.4c3.39,0,6.14,2.76,6.14,6.14,0,1.64-.65,3.18-1.82,4.34-1.15,1.16-2.68,1.8-4.32,1.8ZM83.23,87.92h5.41c1.37,0,2.66-.54,3.62-1.51h0c.98-.98,1.53-2.27,1.53-3.65,0-2.84-2.31-5.15-5.15-5.15h-5.41v10.31ZM79.15,88.91H22.5v-12.29h56.66v12.29ZM23.49,87.92h54.68v-10.31H23.49v10.31ZM19.4,88.13l-12.86-5.37,12.86-5.37v10.74ZM9.11,82.77l9.3,3.88v-7.77l-9.3,3.88Z"/>
      </g>
      <g>
        <path class="cls-2" d="M83.93,29.15c.37-.48.51-1.1.37-1.69-.87-3.89-2.42-7.61-4.6-11.04-.32-.51-.86-.85-1.46-.93-.6-.08-1.21.12-1.65.53-1.5,1.39-3.16,2.54-4.79,3.33-1.75-2.43-3.89-4.58-6.32-6.32.79-1.62,1.93-3.24,3.35-4.77.41-.44.61-1.05.53-1.65-.08-.6-.42-1.14-.93-1.46-3.43-2.18-7.15-3.72-11.04-4.6-.6-.13-1.21,0-1.69.38-.48.37-.77.94-.79,1.55-.07,2.04-.42,4.03-1.02,5.76-2.96-.48-5.97-.48-8.93,0-.6-1.72-.95-3.72-1.02-5.76-.02-.61-.31-1.17-.79-1.55-.48-.37-1.11-.51-1.69-.38-3.89.88-7.61,2.42-11.04,4.6-.51.32-.85.86-.93,1.46-.08.6.12,1.21.53,1.65,1.39,1.5,2.54,3.16,3.33,4.79-2.43,1.74-4.57,3.89-6.31,6.31-1.65-.79-3.32-1.95-4.81-3.34-.44-.42-1.05-.61-1.66-.53-.61.08-1.14.43-1.47.94-2.16,3.46-3.69,7.17-4.56,11.03-.13.59,0,1.21.37,1.69.37.48.93.77,1.54.79,2.05.08,4.04.43,5.76,1.02-.24,1.48-.36,2.97-.36,4.46s.12,2.98.36,4.46c-1.72.59-3.71.95-5.76,1.02-.61.02-1.17.31-1.54.79-.37.48-.51,1.1-.37,1.69.87,3.86,2.4,7.57,4.56,11.03.32.52.86.86,1.47.94.61.08,1.21-.12,1.66-.53,1.49-1.39,3.15-2.55,4.81-3.34,1.74,2.43,3.88,4.58,6.32,6.32-.79,1.62-1.94,3.28-3.34,4.78-.41.44-.61,1.05-.53,1.65.08.6.42,1.14.93,1.46,3.44,2.18,7.15,3.72,11.04,4.6.6.14,1.21,0,1.69-.38.48-.37.77-.94.79-1.55.07-2.04.42-4.03,1.02-5.76,2.96.48,5.97.48,8.93,0,.6,1.72.95,3.72,1.02,5.76.02.61.31,1.17.79,1.55.36.28.8.43,1.25.43.15,0,.3-.02.45-.05,3.89-.88,7.6-2.42,11.04-4.6.51-.33.86-.86.93-1.47.08-.6-.12-1.21-.54-1.65-1.39-1.48-2.54-3.13-3.34-4.76,2.43-1.74,4.57-3.88,6.32-6.32,1.63.79,3.29,1.94,4.79,3.33.44.41,1.05.6,1.65.53.6-.08,1.14-.42,1.46-.93,2.18-3.44,3.73-7.15,4.6-11.04.13-.59,0-1.21-.37-1.69-.37-.48-.93-.77-1.54-.79-2.06-.08-4.05-.43-5.76-1.02.24-1.48.36-2.98.36-4.46s-.12-2.98-.36-4.46c1.71-.59,3.7-.94,5.76-1.02.61-.02,1.17-.31,1.54-.79ZM73.44,27.86c-.86.41-1.33,1.36-1.12,2.29.39,1.74.59,3.51.59,5.27s-.2,3.53-.59,5.27c-.21.93.25,1.88,1.12,2.29,1.84.87,3.98,1.48,6.29,1.78-.58,1.88-1.34,3.7-2.28,5.45-1.84-1.4-3.79-2.48-5.72-3.17-.9-.31-1.9.03-2.41.84-1.88,3.01-4.45,5.57-7.44,7.43-.82.51-1.17,1.51-.84,2.42.69,1.94,1.78,3.88,3.18,5.7-1.75.93-3.56,1.69-5.43,2.27-.3-2.29-.91-4.42-1.79-6.28-.34-.72-1.07-1.17-1.84-1.17-.15,0-.3.02-.45.05-3.48.79-7.06.79-10.54,0-.92-.22-1.88.25-2.29,1.12-.88,1.86-1.49,4-1.79,6.28-1.87-.58-3.69-1.34-5.44-2.28,1.42-1.85,2.5-3.79,3.18-5.72.32-.9-.04-1.9-.85-2.41-3-1.86-5.57-4.43-7.42-7.42-.5-.81-1.5-1.16-2.41-.85-1.96.69-3.91,1.77-5.74,3.17-.93-1.76-1.68-3.58-2.26-5.44,2.29-.31,4.43-.91,6.28-1.78.87-.41,1.33-1.36,1.12-2.3-.39-1.74-.59-3.51-.59-5.27s.2-3.53.59-5.27c.21-.93-.25-1.89-1.12-2.3-1.85-.87-3.99-1.47-6.28-1.78.57-1.86,1.33-3.68,2.26-5.44,1.83,1.4,3.79,2.48,5.74,3.17.9.31,1.91-.03,2.41-.85,1.85-2.99,4.41-5.55,7.41-7.43.81-.51,1.16-1.51.84-2.41-.68-1.93-1.76-3.88-3.16-5.72,1.75-.94,3.57-1.7,5.44-2.28.3,2.29.91,4.42,1.79,6.28.41.86,1.36,1.32,2.29,1.12,3.48-.79,7.06-.79,10.54,0,.94.21,1.88-.25,2.29-1.12.88-1.86,1.49-4,1.79-6.28,1.87.58,3.69,1.34,5.44,2.27-1.41,1.84-2.5,3.78-3.19,5.7-.32.91.03,1.91.84,2.42,2.99,1.85,5.56,4.42,7.44,7.43.51.81,1.5,1.16,2.41.84,1.94-.68,3.88-1.76,5.72-3.17.94,1.75,1.7,3.58,2.28,5.45-2.3.31-4.44.91-6.29,1.78Z"/>
        <path class="cls-1" d="M41.91,70.86c-.19,0-.37-.02-.56-.06-3.94-.89-7.71-2.46-11.19-4.66-.64-.4-1.06-1.06-1.16-1.81-.1-.75.14-1.5.66-2.05,1.26-1.35,2.31-2.83,3.07-4.29-2.23-1.65-4.2-3.61-5.84-5.84-1.49.77-2.98,1.82-4.31,3.07-.55.52-1.3.76-2.06.66-.76-.1-1.42-.53-1.82-1.17-2.19-3.51-3.75-7.27-4.62-11.18-.17-.74,0-1.5.47-2.1.46-.6,1.16-.96,1.91-.99,1.84-.07,3.64-.37,5.23-.87-.2-1.37-.3-2.75-.3-4.12s.1-2.75.3-4.12c-1.59-.5-3.39-.8-5.23-.87-.76-.03-1.45-.39-1.91-.99-.46-.6-.63-1.36-.46-2.1.88-3.91,2.44-7.67,4.62-11.18.41-.65,1.07-1.07,1.82-1.17.76-.09,1.51.15,2.06.66,1.33,1.25,2.82,2.3,4.31,3.07,1.64-2.23,3.6-4.19,5.83-5.84-.76-1.47-1.81-2.95-3.06-4.3-.52-.55-.75-1.3-.66-2.05.1-.75.52-1.41,1.16-1.81,3.48-2.21,7.25-3.78,11.2-4.67.74-.17,1.51,0,2.11.47.6.46.96,1.17.98,1.92.06,1.83.36,3.63.86,5.22,2.74-.4,5.51-.4,8.25,0,.5-1.59.8-3.38.86-5.22.02-.75.38-1.46.98-1.92.6-.46,1.37-.63,2.11-.47,3.95.89,7.72,2.46,11.2,4.67.64.4,1.06,1.06,1.16,1.81.1.75-.14,1.5-.66,2.05-1.29,1.39-2.32,2.82-3.08,4.28,2.23,1.64,4.19,3.6,5.84,5.84,1.47-.76,2.95-1.81,4.3-3.06.55-.51,1.32-.76,2.05-.66.75.1,1.41.52,1.81,1.16,2.21,3.48,3.78,7.25,4.66,11.2.17.74,0,1.5-.46,2.1h0c-.46.6-1.16.96-1.91.99-1.84.07-3.64.37-5.23.87.2,1.37.3,2.75.3,4.12s-.1,2.76-.3,4.12c1.59.5,3.38.8,5.23.87.76.03,1.45.39,1.91.99.46.6.63,1.36.46,2.1-.89,3.95-2.46,7.71-4.66,11.2-.4.64-1.07,1.06-1.82,1.16-.76.09-1.5-.15-2.05-.66-1.34-1.25-2.82-2.3-4.3-3.06-1.65,2.23-3.62,4.2-5.84,5.84.77,1.48,1.83,2.95,3.07,4.27.52.55.76,1.3.67,2.05-.09.75-.52,1.42-1.16,1.82-3.48,2.21-7.25,3.78-11.19,4.67-.7.16-1.51,0-2.11-.47-.6-.47-.96-1.17-.98-1.92-.06-1.83-.36-3.63-.86-5.22-2.74.4-5.51.4-8.25,0-.5,1.59-.8,3.39-.86,5.22-.02.76-.38,1.46-.98,1.92-.45.35-.99.53-1.55.53ZM27.2,50.87l.24.34c1.71,2.4,3.8,4.49,6.2,6.2l.34.24-.18.38c-.81,1.67-1.99,3.37-3.42,4.9-.31.34-.46.79-.4,1.25.06.46.32.86.71,1.11,3.39,2.15,7.05,3.67,10.88,4.54.45.1.92,0,1.28-.29.37-.28.58-.71.6-1.17.07-2.08.43-4.13,1.05-5.9l.14-.39.41.07c2.91.47,5.86.47,8.77,0l.41-.07.14.39c.62,1.78.98,3.82,1.05,5.9.01.46.23.89.6,1.17.36.28.85.38,1.28.29,3.84-.86,7.5-2.39,10.88-4.54.39-.25.65-.65.71-1.11.06-.46-.09-.92-.41-1.25-1.42-1.5-2.6-3.19-3.43-4.89l-.18-.38.34-.24c2.39-1.71,4.48-3.8,6.21-6.2l.24-.34.38.18c1.68.81,3.38,1.99,4.91,3.41.33.31.79.46,1.25.4.45-.06.86-.32,1.1-.7,2.15-3.39,3.67-7.05,4.54-10.89.1-.45,0-.92-.28-1.28-.28-.37-.7-.59-1.17-.6-2.09-.08-4.14-.44-5.9-1.05l-.39-.14.07-.41c.24-1.45.36-2.92.36-4.38s-.12-2.93-.36-4.38l-.07-.41.39-.14c1.77-.61,3.81-.97,5.9-1.05.46-.02.89-.24,1.17-.6h0c.28-.37.38-.83.28-1.28-.86-3.84-2.39-7.5-4.53-10.89-.25-.39-.65-.65-1.11-.71-.45-.06-.92.09-1.25.4-1.53,1.42-3.23,2.6-4.91,3.41l-.38.18-.24-.34c-1.72-2.4-3.81-4.49-6.21-6.2l-.34-.24.18-.38c.82-1.67,1.97-3.32,3.43-4.89.31-.34.46-.79.4-1.25-.06-.46-.32-.86-.71-1.11-3.38-2.14-7.04-3.67-10.88-4.54-.45-.1-.92,0-1.28.29-.37.28-.59.71-.6,1.17-.07,2.09-.43,4.13-1.05,5.9l-.14.39-.41-.07c-2.91-.47-5.86-.47-8.77,0l-.41.07-.14-.39c-.62-1.78-.98-3.82-1.05-5.9-.01-.46-.23-.89-.6-1.17-.36-.28-.84-.39-1.28-.29-3.84.86-7.5,2.39-10.88,4.54-.39.25-.65.65-.71,1.11-.06.45.09.91.4,1.25,1.42,1.53,2.6,3.23,3.41,4.91l.18.37-.34.24c-2.4,1.72-4.48,3.81-6.19,6.2l-.24.34-.38-.18c-1.71-.82-3.41-2.01-4.93-3.42-.33-.31-.79-.46-1.26-.4-.45.06-.86.32-1.11.71-2.13,3.41-3.64,7.07-4.5,10.88-.1.45,0,.92.28,1.28.28.37.7.58,1.17.6,2.09.08,4.13.44,5.9,1.05l.39.14-.07.41c-.24,1.45-.36,2.93-.36,4.38s.12,2.93.36,4.38l.07.41-.39.14c-1.77.61-3.82.97-5.9,1.05-.46.02-.89.24-1.17.6-.28.37-.39.83-.28,1.28.85,3.8,2.37,7.46,4.5,10.88.25.39.65.65,1.11.71.46.06.92-.09,1.25-.4,1.52-1.42,3.23-2.61,4.93-3.43l.37-.18ZM40.49,66.37l-.56-.17c-1.9-.59-3.76-1.36-5.53-2.31l-.51-.27.35-.46c1.39-1.82,2.44-3.7,3.1-5.58.24-.68-.03-1.45-.64-1.82-3.06-1.9-5.68-4.52-7.58-7.58-.38-.62-1.13-.88-1.83-.64-1.9.67-3.79,1.71-5.6,3.09l-.46.35-.27-.52c-.94-1.78-1.71-3.64-2.29-5.53l-.17-.56.58-.08c2.27-.3,4.33-.89,6.14-1.74.65-.31,1.01-1.04.85-1.74-.4-1.77-.61-3.58-.61-5.38s.2-3.61.61-5.38c.16-.7-.2-1.43-.85-1.74-1.81-.85-3.87-1.44-6.14-1.74l-.58-.08.17-.56c.58-1.89,1.35-3.75,2.29-5.53l.27-.52.46.35c1.81,1.38,3.7,2.42,5.6,3.09.68.24,1.45-.03,1.82-.64,1.89-3.05,4.51-5.67,7.57-7.59.62-.39.88-1.14.64-1.82-.66-1.89-1.7-3.77-3.09-5.58l-.35-.46.51-.27c1.77-.95,3.63-1.73,5.53-2.31l.56-.17.08.58c.3,2.26.89,4.32,1.75,6.14.31.65,1.02,1,1.74.84,3.57-.81,7.19-.81,10.76,0,.71.16,1.42-.19,1.74-.85.86-1.81,1.45-3.88,1.75-6.14l.08-.58.56.17c1.89.58,3.75,1.36,5.53,2.31l.51.27-.35.46c-1.39,1.82-2.44,3.69-3.11,5.56-.24.68.03,1.45.64,1.83,3.05,1.89,5.68,4.52,7.6,7.59.39.62,1.13.88,1.82.64,1.89-.66,3.76-1.7,5.58-3.09l.46-.35.27.51c.95,1.78,1.73,3.64,2.31,5.54l.17.56-.58.08c-2.27.3-4.34.89-6.14,1.74h0c-.66.31-1.01,1.03-.84,1.74.4,1.77.61,3.58.61,5.38s-.2,3.61-.61,5.38c-.16.71.19,1.42.84,1.74,1.8.85,3.87,1.44,6.14,1.74l.58.08-.17.56c-.58,1.9-1.36,3.76-2.31,5.54l-.27.51-.46-.35c-1.82-1.39-3.7-2.43-5.58-3.09-.69-.24-1.44.02-1.82.64-1.92,3.07-4.54,5.69-7.6,7.58-.61.38-.88,1.15-.64,1.83.68,1.9,1.72,3.77,3.1,5.57l.36.46-.52.28c-1.77.95-3.63,1.72-5.52,2.31l-.56.17-.08-.58c-.3-2.26-.89-4.32-1.75-6.14-.31-.64-1.08-1-1.73-.85-3.57.81-7.19.81-10.76,0-.69-.16-1.43.19-1.74.85-.86,1.82-1.45,3.88-1.74,6.14l-.08.58ZM55.15,57.78c.97,0,1.87.57,2.29,1.45.83,1.75,1.41,3.72,1.75,5.85,1.46-.48,2.9-1.08,4.28-1.79-1.27-1.73-2.24-3.54-2.9-5.36-.4-1.12.04-2.38,1.05-3.01,2.93-1.81,5.44-4.33,7.28-7.27.64-1.01,1.86-1.44,2.99-1.05,1.82.64,3.63,1.61,5.39,2.89.71-1.39,1.31-2.83,1.8-4.3-2.15-.34-4.11-.92-5.85-1.74-1.08-.51-1.65-1.68-1.39-2.85.39-1.7.58-3.44.58-5.16s-.2-3.46-.58-5.16c-.26-1.17.31-2.34,1.39-2.85h0c1.74-.82,3.7-1.41,5.85-1.74-.48-1.47-1.09-2.91-1.8-4.3-1.76,1.28-3.57,2.25-5.39,2.89-1.13.39-2.36-.04-2.99-1.05-1.84-2.94-4.35-5.46-7.28-7.27-1.01-.62-1.45-1.89-1.05-3.01.65-1.81,1.62-3.61,2.91-5.36-1.39-.71-2.83-1.31-4.29-1.79-.33,2.13-.92,4.1-1.75,5.85-.51,1.08-1.68,1.65-2.85,1.39-3.43-.78-6.9-.78-10.32,0-1.17.26-2.34-.31-2.85-1.39-.83-1.75-1.42-3.71-1.75-5.85-1.47.48-2.91,1.09-4.29,1.8,1.28,1.75,2.25,3.56,2.89,5.39.4,1.13-.04,2.36-1.05,2.99-2.94,1.83-5.44,4.35-7.25,7.27-.61,1-1.88,1.44-2.99,1.06-1.84-.65-3.66-1.62-5.41-2.89-.7,1.39-1.3,2.83-1.78,4.29,2.14.34,4.1.92,5.85,1.74,1.07.5,1.65,1.7,1.39,2.85-.39,1.7-.58,3.44-.58,5.16s.2,3.46.58,5.16c.26,1.15-.33,2.35-1.39,2.85-1.74.82-3.7,1.4-5.84,1.74.48,1.46,1.08,2.9,1.78,4.29,1.75-1.27,3.56-2.24,5.4-2.89,1.14-.39,2.37.04,3,1.06,1.81,2.93,4.33,5.44,7.26,7.26,1,.62,1.45,1.88,1.05,2.99-.64,1.82-1.61,3.63-2.9,5.39,1.39.71,2.83,1.31,4.29,1.8.33-2.13.92-4.1,1.75-5.85.51-1.07,1.71-1.66,2.85-1.39,3.42.77,6.9.77,10.32,0,.18-.04.37-.06.56-.06Z"/>
      </g>
      <g>
        <path class="cls-2" d="M49.43,20.66c-8.14,0-14.76,6.62-14.76,14.77s6.62,14.77,14.76,14.77,14.76-6.62,14.76-14.77-6.62-14.77-14.76-14.77ZM49.43,46.12c-5.89,0-10.69-4.79-10.69-10.69s4.79-10.69,10.69-10.69,10.69,4.79,10.69,10.69-4.79,10.69-10.69,10.69Z"/>
        <path class="cls-1" d="M49.43,50.69c-8.41,0-15.26-6.85-15.26-15.26s6.85-15.26,15.26-15.26,15.26,6.85,15.26,15.26-6.85,15.26-15.26,15.26ZM49.43,21.16c-7.87,0-14.27,6.4-14.27,14.27s6.4,14.27,14.27,14.27,14.27-6.4,14.27-14.27-6.4-14.27-14.27-14.27ZM49.43,46.61c-6.17,0-11.18-5.02-11.18-11.18s5.02-11.18,11.18-11.18,11.18,5.02,11.18,11.18-5.02,11.18-11.18,11.18ZM49.43,25.23c-5.62,0-10.19,4.57-10.19,10.19s4.57,10.19,10.19,10.19,10.19-4.57,10.19-10.19-4.57-10.19-10.19-10.19Z"/>
      </g>
    </g>
  </g>
</svg>