<?xml version="1.0" encoding="UTF-8"?>
<svg id="_レイヤー_2" data-name="レイヤー 2" xmlns="http://www.w3.org/2000/svg" viewBox="0 0 128.17 93">
  <defs>
    <style>
      .cls-1 {
        fill: #515266;
      }
    </style>
  </defs>
  <g id="_レイヤー_2-2" data-name="レイヤー 2">
    <path class="cls-1" d="M114.09,7.9c-5.84-7.64-10.83-10.85-19.08-4.57l-5.94,4.52c-1.43,1.08-6.66,1.44-11.73,1.8-.39.03-.79.06-1.18.08l-1.57-.66c-6.13-2.61-8.92-3.8-16-3.22-1.43.13-3.03.3-4.72.47-4.6.49-12.72,1.33-15.57,1.01-.09-.13-.19-.26-.32-.37l-4.47-3.49C25.36-2.92,20.32.22,14.37,7.79l-9.28,11.84C2.19,23.32-.42,27.28.06,31.28c.35,2.8,2.06,5.32,3.74,6.63l6.38,5c1.31,1.04,2.21,2.12,2.85,3.34l-2.76,2.91c-2.01,2.11-2.59,5.24-1.55,8.17,1.01,2.85,3.44,5.15,6.33,6.01.83.24,1.67.36,2.49.36.4,0,.79-.06,1.18-.11-.11,1.19.03,2.44.45,3.65,1.02,2.84,3.44,5.14,6.33,6.01.83.24,1.67.36,2.5.36.4,0,.79-.06,1.17-.11-.11,1.19.03,2.44.45,3.66,1.02,2.84,3.44,5.13,6.34,6,.83.25,1.66.36,2.49.36.5,0,1.01-.05,1.5-.14.08.59.2,1.18.42,1.75.93,2.56,3.13,4.65,5.73,5.44.79.24,1.58.36,2.36.36,1.9,0,3.69-.71,4.95-2.06h0s.74-.78.74-.78l5.08,3.97c.59.46,2.04.93,3.54.93,1.11,0,2.26-.26,3.35-.78,2.46-1.17,4.34-3.56,4.88-6.21.06-.3.1-.61.13-.92.55.12,1.09.19,1.66.19,1.21,0,2.44-.27,3.63-.82,2.74-1.28,4.8-3.91,5.38-6.86.13-.65.17-1.3.15-1.94.77.25,1.58.38,2.4.38,1.21,0,2.45-.27,3.64-.81,2.73-1.27,4.79-3.91,5.38-6.86.1-.51.14-1.02.15-1.53,1.08.55,2.29.85,3.52.85s2.45-.27,3.63-.81c2.73-1.27,4.8-3.9,5.38-6.86.5-2.59-.17-5.13-1.76-6.93,4.68-2.05,9.81-4.97,14.07-10.4l4.2-3.21c3.39-2.58,5.14-5.07,5.52-7.85.5-3.77-1.58-7.42-4.87-11.73l-9.13-11.97ZM17.01,9.86c5.81-7.41,8.78-8.18,14.44-3.76l3.1,2.43-23.91,30.48-4.41-3.44c-1.3-1.02-2.62-2.84-2.84-4.69-.28-2.25.98-4.91,4.34-9.18l9.28-11.83ZM11.88,56.2c-.62-1.74-.31-3.55.82-4.74l5.61-5.91c.57-.59,2.38-1,4.17-.47,1.89.56,3.46,2.06,4.12,3.92.62,1.75.31,3.57-.81,4.74h0s-5.63,5.92-5.63,5.92c-.55.59-2.37.99-4.15.47-1.89-.56-3.47-2.06-4.13-3.92ZM22.33,66.13c-.61-1.75-.3-3.58.81-4.76l5.07-5.32c1.13-1.18,2.92-1.58,4.71-1.05,1.89.55,3.46,2.05,4.13,3.91.62,1.75.3,3.56-.81,4.75l-5.06,5.32c-1.13,1.18-2.93,1.59-4.72,1.06-1.88-.56-3.46-2.07-4.13-3.91ZM32.78,76.04c-.61-1.76-.3-3.57.82-4.75l5.06-5.32h0c1.13-1.19,2.93-1.59,4.72-1.06,1.87.55,3.46,2.06,4.12,3.91.62,1.75.31,3.57-.81,4.75l-5.08,5.33c-1.12,1.17-2.92,1.57-4.69,1.05-1.88-.56-3.47-2.06-4.14-3.91h0ZM43.52,83.99c-.25-.67-.3-1.34-.24-1.97l.77-.81s0,0,0,0h0s4.66-4.9,4.66-4.9c.63-.1,1.29-.08,1.99.13,1.61.5,2.98,1.8,3.57,3.39.53,1.47.29,2.98-.6,3.94l-2.69,2.81c-.91.96-2.4,1.28-3.91.81-1.62-.49-2.99-1.79-3.57-3.38h0s0,0,0,0ZM99.27,63.8c-1.69.79-3.53.65-4.18.15l-12.99-10.16c-.73-.57-1.78-.44-2.35.29-.57.73-.45,1.79.29,2.36l8.54,6.69c1.29,1.01,1.86,2.75,1.51,4.57-.39,1.93-1.73,3.64-3.5,4.48-1.7.78-3.54.65-4.82-.36l-8.55-6.69c-.73-.57-1.78-.44-2.35.29-.57.73-.44,1.79.29,2.35l5.88,4.61c1.28,1.01,1.85,2.75,1.5,4.57-.38,1.92-1.72,3.64-3.5,4.47-1.7.78-3.54.65-4.82-.36h0l-5.85-4.59c-.73-.57-1.79-.44-2.36.29-.57.73-.44,1.78.29,2.35l5.41,4.23c.16.63.2,1.29.06,1.99-.35,1.66-1.5,3.14-3.03,3.87-1.42.67-2.94.59-3.99-.23l-4.26-3.33c1.49-1.87,1.87-4.48.97-6.97-.95-2.56-3.14-4.64-5.73-5.44-.3-.09-.6-.15-.91-.21.53-1.66.5-3.52-.13-5.32-1.02-2.84-3.44-5.14-6.32-6-1.24-.37-2.49-.44-3.67-.28.1-1.18-.03-2.43-.46-3.63-1.01-2.86-3.44-5.16-6.33-6.01-1.23-.37-2.47-.45-3.66-.28.11-1.18-.03-2.42-.46-3.63-1-2.86-3.43-5.15-6.33-6.01-2.95-.88-5.98-.16-7.99,1.85-.59-.91-1.32-1.78-2.21-2.59l24.01-30.6c2.61.48,7.74.09,16.99-.87,1.67-.17,3.27-.34,4.66-.47,4.68-.39,7,0,10.46,1.34-1.13.22-2.23.47-3.22.82l-15.16,5.48c-.66.1-1.28.18-1.83.26-3.78.52-6.06.83-7.26,3.86-.85,2.18-.21,4.9,1.69,7.08,3.15,3.64,8.58,4.98,14.34,3.63l8.56-1.09c3.49-.46,6.5,1.97,9.41,4.3l25.39,19.9c1.29,1,1.86,2.76,1.51,4.57-.39,1.94-1.73,3.65-3.51,4.47h0ZM101.45,50.63h0s-23.47-18.38-23.47-18.38c-3.13-2.52-7.04-5.63-11.94-5.01l-8.72,1.13c-6.96,1.62-10.35-1.53-11.22-2.53-1.06-1.23-1.49-2.66-1.09-3.66.43-1.08.86-1.24,4.59-1.76.62-.08,1.29-.18,2.04-.29.11-.03.22-.04.32-.09l15.32-5.53c2.76-.99,6.59-1.26,10.31-1.51,4.91-.34,9.96-.7,13.59-2.69l23.86,31.1c-4.11,4.85-8.94,7.33-13.58,9.23M120.54,36.78l-3.05,2.33-23.58-30.72,3.13-2.38c5.72-4.36,8.68-3.54,14.38,3.94l9.13,11.95c3.3,4.33,4.52,7.01,4.22,9.25-.25,1.85-1.6,3.64-4.23,5.64h0Z"/>
  </g>
</svg>