<?xml version="1.0" encoding="UTF-8"?>
<svg id="_レイヤー_2" data-name="レイヤー 2" xmlns="http://www.w3.org/2000/svg" viewBox="0 0 72.24 91.87">
  <defs>
    <style>
      .cls-1 {
        fill: #515266;
      }
    </style>
  </defs>
  <g id="_レイヤー_2-2" data-name="レイヤー 2">
    <g id="g165">
      <g id="g167">
        <g id="g169">
          <g id="g175">
            <path class="cls-1" d="M36.12,56.18c-10.6,0-19.23-8.61-19.23-19.18v-9.75c0-.69.56-1.25,1.25-1.25h35.95c.69,0,1.25.56,1.25,1.25v9.75c0,10.58-8.62,19.18-19.22,19.18ZM19.39,28.5v8.5c0,9.2,7.5,16.68,16.73,16.68s16.72-7.48,16.72-16.68v-8.5H19.39Z"/>
          </g>
          <g id="g179">
            <path class="cls-1" d="M70.99,91.87H1.25c-.69,0-1.25-.56-1.25-1.25v-10.03c0-16.29,16.04-19.62,25.62-21.62.81-.17,1.58-.33,2.29-.49v-4.97c0-.69.56-1.25,1.25-1.25s1.25.56,1.25,1.25v5.97c0,.58-.4,1.08-.96,1.22-.99.24-2.11.47-3.32.72-9.41,1.96-23.63,4.91-23.63,19.17v8.78h67.24v-8.78c0-14.26-14.22-17.21-23.63-19.17-1.21-.25-2.33-.48-3.32-.72-.56-.13-.96-.64-.96-1.22v-5.97c0-.69.56-1.25,1.25-1.25s1.25.56,1.25,1.25v4.97c.71.16,1.48.32,2.29.49,9.58,1.99,25.62,5.33,25.62,21.62v10.03c0,.69-.56,1.25-1.25,1.25Z"/>
          </g>
          <g id="g183">
            <path class="cls-1" d="M56.99,37.68h-2.9c-.69,0-1.25-.56-1.25-1.25s.56-1.25,1.25-1.25h2.9c1.85,0,3.35-1.5,3.35-3.34s-1.5-3.34-3.35-3.34h-2.9c-.69,0-1.25-.56-1.25-1.25s.56-1.25,1.25-1.25h2.9c3.22,0,5.85,2.62,5.85,5.84s-2.62,5.84-5.85,5.84Z"/>
          </g>
          <g id="g187">
            <path class="cls-1" d="M18.14,37.68h-2.9c-3.22,0-5.85-2.62-5.85-5.84s2.62-5.84,5.85-5.84h2.9c.69,0,1.25.56,1.25,1.25s-.56,1.25-1.25,1.25h-2.9c-1.85,0-3.35,1.5-3.35,3.34s1.5,3.34,3.35,3.34h2.9c.69,0,1.25.56,1.25,1.25s-.56,1.25-1.25,1.25Z"/>
          </g>
          <g id="g191">
            <path class="cls-1" d="M36.12,67.68c-4.53,0-8.22-3.68-8.22-8.2,0-.69.56-1.25,1.25-1.25s1.25.56,1.25,1.25c0,3.14,2.56,5.7,5.72,5.7s5.71-2.56,5.71-5.7c0-.69.56-1.25,1.25-1.25s1.25.56,1.25,1.25c0,4.52-3.68,8.2-8.21,8.2Z"/>
          </g>
          <g id="g195">
            <path class="cls-1" d="M40.49,13.41h-8.75c-.61,0-1.13-.44-1.23-1.04l-1.83-10.91c-.06-.36.04-.73.28-1.01.24-.28.59-.44.95-.44h12.41c.37,0,.72.16.95.44.24.28.34.65.28,1.01l-1.83,10.91c-.1.6-.62,1.04-1.23,1.04ZM32.8,10.91h6.63l1.41-8.41h-9.46l1.41,8.41Z"/>
          </g>
          <g id="g199">
            <path class="cls-1" d="M56.99,28.5H15.25c-.69,0-1.25-.56-1.25-1.25v-3.1c0-9.79,6.6-18.52,16.06-21.23.67-.19,1.36.19,1.55.86.19.66-.19,1.36-.86,1.55-8.39,2.4-14.24,10.14-14.24,18.82v1.85h39.24v-1.85c0-8.68-5.86-16.42-14.25-18.82-.66-.19-1.05-.88-.86-1.55.19-.66.88-1.05,1.55-.86,9.45,2.71,16.06,11.44,16.06,21.23v3.1c0,.69-.56,1.25-1.25,1.25Z"/>
          </g>
          <g id="g203">
            <path class="cls-1" d="M12.21,91.87c-.69,0-1.25-.56-1.25-1.25v-26.38c0-.69.56-1.25,1.25-1.25s1.25.56,1.25,1.25v26.38c0,.69-.56,1.25-1.25,1.25Z"/>
          </g>
          <g id="g207">
            <path class="cls-1" d="M60.04,91.87c-.69,0-1.25-.56-1.25-1.25v-26.38c0-.69.56-1.25,1.25-1.25s1.25.56,1.25,1.25v26.38c0,.69-.56,1.25-1.25,1.25Z"/>
          </g>
          <g id="g211">
            <path class="cls-1" d="M50.84,78.79h-29.44c-.69,0-1.25-.56-1.25-1.25v-16.36c0-.69.56-1.25,1.25-1.25s1.25.56,1.25,1.25v15.11h26.94v-15.11c0-.69.56-1.25,1.25-1.25s1.25.56,1.25,1.25v16.36c0,.69-.56,1.25-1.25,1.25Z"/>
          </g>
          <g id="g215">
            <path class="cls-1" d="M42.77,20.95h-13.31c-.69,0-1.25-.56-1.25-1.25s.56-1.25,1.25-1.25h13.31c.69,0,1.25.56,1.25,1.25s-.56,1.25-1.25,1.25Z"/>
          </g>
        </g>
      </g>
    </g>
  </g>
</svg>