<?xml version="1.0" encoding="UTF-8"?>
<svg id="_レイヤー_2" data-name="レイヤー 2" xmlns="http://www.w3.org/2000/svg" viewBox="0 0 148.46 94.5">
  <defs>
    <style>
      .cls-1 {
        fill: #fff;
      }

      .cls-2 {
        fill: #515266;
      }
    </style>
  </defs>
  <g id="_レイヤー_2-2" data-name="レイヤー 2">
    <g>
      <g>
        <path class="cls-2" d="M33.29,71.45c-4.02,0-7.3,3.27-7.3,7.3s3.27,7.3,7.3,7.3,7.3-3.27,7.3-7.3-3.27-7.3-7.3-7.3ZM33.29,81.37c-1.45,0-2.63-1.18-2.63-2.63s1.18-2.63,2.63-2.63,2.63,1.18,2.63,2.63c0,1.45-1.18,2.63-2.63,2.63Z"/>
        <path class="cls-1" d="M33.29,86.79c-4.44,0-8.05-3.61-8.05-8.05s3.61-8.05,8.05-8.05,8.05,3.61,8.05,8.05-3.61,8.05-8.05,8.05ZM33.29,72.2c-3.61,0-6.55,2.94-6.55,6.55s2.94,6.55,6.55,6.55,6.55-2.94,6.55-6.55-2.94-6.55-6.55-6.55ZM33.29,82.12c-1.86,0-3.38-1.51-3.38-3.38s1.52-3.38,3.38-3.38,3.38,1.51,3.38,3.38c0,1.86-1.52,3.38-3.38,3.38ZM33.29,76.87c-1.04,0-1.88.84-1.88,1.88s.84,1.88,1.88,1.88,1.88-.84,1.88-1.88c0-1.03-.84-1.88-1.88-1.88Z"/>
      </g>
      <g>
        <path class="cls-2" d="M145.37,70.24h-2.25v-29.69c0-.15-.02-.29-.04-.44-.01-.06-.03-.11-.04-.16-.02-.09-.05-.17-.08-.25-.02-.06-.05-.11-.08-.17-.04-.07-.07-.14-.11-.21-.03-.06-.07-.11-.11-.16-.02-.03-.04-.07-.07-.1l-24.73-29.67V3.08c0-1.29-1.05-2.33-2.34-2.33H7.67c-1.29,0-2.34,1.05-2.34,2.33v67.16h-2.25c-1.29,0-2.34,1.04-2.34,2.33v9.43c0,1.29,1.05,2.34,2.34,2.34h16.3c2.22,5.51,7.62,9.4,13.91,9.4s11.69-3.9,13.91-9.4h54.06c2.22,5.51,7.62,9.4,13.91,9.4s11.68-3.9,13.91-9.4h16.3c1.29,0,2.34-1.05,2.34-2.34v-9.43c0-1.29-1.05-2.33-2.34-2.33ZM135.81,38.21h-37.85V12.56h16.47l21.38,25.65ZM113.18,7.89h-15.23v-2.47h15.23v2.47ZM93.28,5.42v35.13h0v15.93c0,1.29,1.05,2.33,2.34,2.33s2.34-1.04,2.34-2.33v-13.59h40.5v7.64h-4.77c-3.35,0-6.07,2.72-6.07,6.07v2.57c0,3.35,2.72,6.07,6.07,6.07h4.77v5.01h-10.94c-.23-.33-.47-.64-.72-.94-.05-.06-.1-.13-.16-.19-.56-.66-1.17-1.27-1.83-1.83-.07-.06-.15-.12-.22-.19-.32-.26-.64-.5-.98-.73-.08-.06-.17-.11-.25-.17-.28-.18-.56-.35-.84-.51-.11-.06-.21-.12-.32-.18-.33-.18-.68-.34-1.02-.49-.14-.06-.28-.12-.42-.17-.32-.13-.65-.25-.98-.36-.13-.04-.26-.08-.4-.12-.32-.09-.65-.18-.98-.25-.12-.03-.24-.06-.37-.08-.4-.08-.81-.14-1.23-.19-.1-.01-.2-.02-.3-.03-.45-.04-.9-.07-1.35-.07h0c-.46,0-.91.03-1.36.07-.1,0-.2.02-.3.03-.41.05-.82.11-1.22.19-.12.02-.25.05-.37.08-.33.07-.65.16-.97.25-.14.04-.27.08-.41.12-.33.11-.65.23-.97.35-.14.06-.29.12-.43.18-.34.15-.68.31-1.01.49-.11.06-.22.13-.33.19-.28.16-.55.32-.82.5-.09.06-.19.12-.28.18-.33.23-.65.47-.96.72-.08.07-.17.14-.25.21-.32.27-.63.55-.93.84,0,0-.01.01-.02.02-.3.3-.58.61-.85.93-.06.08-.13.15-.19.23-.24.3-.48.61-.7.93h-57.17c-.22-.32-.46-.63-.7-.93-.06-.07-.12-.15-.18-.22-.28-.33-.56-.65-.86-.95,0,0,0,0,0,0-.3-.3-.62-.58-.94-.85-.08-.07-.16-.13-.24-.2-.31-.25-.63-.5-.97-.72-.09-.06-.18-.12-.27-.18-.27-.18-.54-.34-.83-.5-.11-.06-.22-.13-.33-.19-.33-.18-.67-.34-1.02-.49-.14-.06-.28-.12-.42-.18-.32-.13-.64-.25-.97-.36-.13-.04-.27-.08-.4-.12-.32-.09-.65-.18-.98-.25-.12-.03-.24-.06-.37-.08-.4-.08-.81-.14-1.23-.19-.1-.01-.2-.02-.3-.03-.45-.04-.9-.07-1.36-.07s-.91.03-1.36.07c-.1,0-.2.02-.3.03-.41.05-.82.11-1.23.19-.12.02-.25.05-.37.08-.33.07-.65.16-.98.25-.13.04-.27.08-.4.12-.33.11-.65.23-.97.36-.14.06-.28.12-.42.18-.34.15-.68.31-1.02.49-.11.06-.22.12-.33.19-.28.16-.55.32-.82.5-.09.06-.18.12-.27.18-.33.23-.65.47-.96.72-.08.07-.16.13-.24.2-.32.27-.64.55-.94.85,0,0,0,0,0,0-.3.3-.58.62-.85.94-.06.07-.13.15-.19.22-.24.3-.48.61-.7.93h-10.94v-10.03h54.25c1.29,0,2.34-1.05,2.34-2.33s-1.05-2.34-2.34-2.34H10v-12.66h74.64c1.29,0,2.34-1.05,2.34-2.33V10.23c0-1.29-1.05-2.34-2.34-2.34H10v-2.47h83.28ZM138.46,55.19v5.37h-4.77c-.77,0-1.4-.63-1.4-1.4v-2.57c0-.77.63-1.4,1.4-1.4h0s4.77,0,4.77,0ZM10,12.56h38.18l-12.29,12.29c-.91.91-.91,2.39,0,3.3.46.46,1.05.68,1.65.68s1.19-.23,1.65-.68l15.59-15.59h27.52v25.65h-24.72l10.72-10.72c.91-.91.91-2.39,0-3.3-.91-.91-2.39-.91-3.3,0l-14.03,14.03H10V12.56ZM18.32,79.67H5.42v-4.76h13.37c-.05.17-.08.35-.12.52-.03.13-.07.26-.09.4-.08.4-.14.81-.19,1.22-.01.12-.03.24-.04.37-.04.44-.07.89-.07,1.33h0c0,.31.01.62.03.93ZM33.29,89.08c-4.77,0-8.79-3.26-9.97-7.66,0,0,0,0,0,0-.12-.43-.2-.87-.26-1.29,0-.03,0-.05-.01-.08-.06-.43-.09-.87-.09-1.29s.03-.82.08-1.22c.01-.09.03-.18.04-.28.05-.32.11-.64.19-.96.02-.09.04-.17.07-.26.1-.35.21-.7.34-1.04.01-.04.03-.07.04-.11.16-.39.34-.77.55-1.14.02-.04.04-.07.06-.1.19-.33.4-.64.62-.95.06-.08.12-.17.19-.25.23-.3.48-.58.74-.85.03-.03.05-.06.08-.09.29-.3.61-.57.93-.83.07-.05.14-.1.2-.15.28-.21.56-.4.86-.58.07-.04.14-.09.21-.13.73-.42,1.5-.75,2.31-.98.09-.02.17-.04.26-.07.32-.08.65-.15.98-.2.11-.02.21-.04.32-.05.42-.05.84-.09,1.26-.09s.85.03,1.26.09c.11.01.21.03.32.05.33.05.66.12.98.2.09.02.18.04.26.07.81.23,1.59.56,2.31.98.07.04.14.09.21.13.3.18.58.37.86.58.07.05.14.1.2.15.33.26.64.53.93.83.03.03.05.06.08.09.26.27.5.55.73.85.06.08.13.17.19.25.22.3.43.62.62.95.02.04.05.07.07.11.2.37.38.74.54,1.13.02.04.03.09.05.13.13.33.24.67.34,1.02.03.09.05.18.07.28.08.31.13.62.18.94.01.1.03.2.05.3.05.39.08.79.08,1.19,0,0,0,.02,0,.03,0,0,0,.01,0,.02,0,.41-.03.84-.09,1.26,0,.03-.01.06-.01.1-.06.42-.14.85-.26,1.28,0,0,0,0,0,0-1.18,4.41-5.2,7.67-9.97,7.67ZM48.26,79.67c.02-.31.03-.62.03-.93h0c0-.45-.03-.89-.07-1.34-.01-.12-.02-.24-.04-.36-.05-.41-.11-.82-.19-1.22-.03-.13-.06-.26-.09-.39-.04-.17-.07-.35-.12-.52h52.87c-.05.17-.08.35-.12.52-.03.13-.06.26-.09.39-.08.41-.14.82-.19,1.23-.01.12-.02.24-.03.35-.04.45-.07.89-.07,1.34,0,.31.01.62.03.93h-51.93ZM115.17,89.08c-4.77,0-8.79-3.26-9.97-7.66,0,0,0,0,0,0-.11-.43-.2-.86-.26-1.29,0-.03,0-.06-.01-.09-.06-.43-.09-.86-.09-1.29,0,0,0,0,0,0,0-.41.03-.81.08-1.22.01-.1.03-.19.04-.29.05-.32.11-.64.18-.95.02-.09.04-.18.07-.27.1-.35.21-.69.34-1.03.02-.04.03-.08.05-.12.16-.39.34-.77.54-1.13.02-.04.04-.07.06-.1.19-.33.4-.65.62-.95.06-.08.12-.17.19-.25.23-.3.48-.59.74-.85.03-.03.05-.06.08-.09.29-.3.61-.57.93-.83.07-.05.14-.1.2-.15.28-.21.56-.4.86-.58.07-.04.14-.09.21-.13.73-.42,1.5-.75,2.31-.98.09-.02.17-.04.26-.07.32-.08.65-.15.98-.2.11-.02.21-.04.32-.05.42-.05.84-.09,1.26-.09s.85.03,1.26.09c.11.01.21.03.32.05.33.05.66.12.98.2.09.02.18.04.26.07.81.23,1.59.56,2.31.98.07.04.15.09.22.13.29.18.57.37.85.58.07.05.14.1.21.16.32.26.63.53.93.82.04.04.07.07.1.11.25.26.49.54.71.83.07.09.14.18.2.27.21.29.41.59.59.91.03.05.06.1.09.15.2.36.37.73.53,1.11.02.06.04.12.07.19.12.31.23.63.32.96.03.11.06.21.08.32.07.29.13.58.17.88.02.12.04.23.05.35.04.35.06.7.07,1.06,0,.05,0,.09,0,.14,0,.04,0,.07,0,.1,0,.38-.03.77-.08,1.16,0,.05-.02.1-.02.15-.06.41-.14.82-.25,1.23-1.17,4.42-5.19,7.69-9.98,7.69ZM143.04,79.67h-12.9c.02-.31.03-.62.03-.93,0-.46-.03-.92-.07-1.38,0-.1-.02-.19-.03-.29-.05-.43-.11-.85-.2-1.28-.02-.1-.05-.21-.07-.31-.04-.19-.08-.39-.13-.58h13.37v4.76Z"/>
        <path class="cls-1" d="M115.17,94.5c-6.28,0-11.88-3.67-14.41-9.4h-53.07c-2.53,5.73-8.13,9.4-14.41,9.4s-11.88-3.67-14.41-9.4H3.09c-1.7,0-3.09-1.38-3.09-3.09v-9.43c0-1.7,1.38-3.08,3.09-3.08h1.5V3.08c0-1.7,1.38-3.08,3.08-3.08h107.85c1.7,0,3.09,1.38,3.09,3.08v6.03l24.65,29.59c.05.07.1.14.15.21.06.09.11.19.15.28.05.1.08.16.11.23.04.11.07.22.1.34.03.09.04.15.05.21.04.18.06.38.06.58v28.94h1.5c1.7,0,3.09,1.38,3.09,3.08v9.43c0,1.7-1.38,3.09-3.09,3.09h-15.8c-2.53,5.73-8.13,9.4-14.4,9.4ZM46.69,83.6h55.07l.19.47c2.19,5.43,7.38,8.94,13.21,8.94s11.02-3.51,13.21-8.94l.19-.47h16.8c.87,0,1.59-.71,1.59-1.59v-9.43c0-.87-.71-1.58-1.59-1.58h-3v-30.44c0-.1-.01-.2-.03-.3l-.03-.11c-.02-.06-.03-.12-.05-.17l-.06-.12s-.05-.1-.08-.14c-.02-.03-.05-.07-.08-.11l-.06-.09-24.9-29.86V3.08c0-.87-.71-1.58-1.59-1.58H7.67c-.87,0-1.58.71-1.58,1.58v67.91h-3c-.87,0-1.59.71-1.59,1.58v9.43c0,.87.71,1.59,1.59,1.59h16.8l.19.47c2.19,5.43,7.38,8.94,13.21,8.94s11.02-3.51,13.21-8.94l.19-.47ZM115.17,89.83c-5,0-9.4-3.38-10.7-8.22l-.02-.1c-.12-.46-.2-.87-.26-1.29-.08-.57-.11-1.03-.11-1.48,0-.41.03-.84.08-1.31,0-.07.02-.14.03-.21.07-.44.13-.78.21-1.11l.07-.29c.1-.37.22-.74.36-1.1l.05-.14c.17-.41.36-.82.58-1.21l.05-.09c.21-.36.42-.69.68-1.04l.2-.26c.25-.32.51-.63.79-.92l.08-.09c.3-.31.63-.6,1-.89l.15-.11c.37-.28.67-.48.99-.68l.23-.14c.78-.45,1.61-.8,2.48-1.05l.2-.05c.43-.11.78-.18,1.13-.24l.34-.05c.99-.12,1.73-.12,2.71,0l.34.05c.36.06.71.13,1.05.22l.28.07c.87.25,1.7.6,2.48,1.05l.18.11c.37.23.68.43.97.65l.23.17c.36.29.69.58.99.88l.08.09c.29.31.55.6.79.91.07.09.15.19.22.29.23.31.44.64.63.97l.1.16c.21.38.4.78.57,1.19l.05.14c.15.4.27.74.36,1.09.03.11.06.23.09.34.08.31.13.62.18.94l.02.12c.01.08.03.17.04.26.04.38.07.75.07,1.13v.18s0,.08,0,.08c0,.43-.03.85-.09,1.25l-.02.11c-.08.52-.16.95-.27,1.37-1.29,4.86-5.69,8.25-10.7,8.25ZM105.94,81.28c1.17,4.17,4.94,7.05,9.23,7.05s8.14-2.93,9.25-7.13c.1-.36.17-.74.23-1.15l.77-.04-.74-.1c.04-.35.07-.71.07-1.07v-.1s0-.13,0-.13c0-.32-.02-.65-.06-.98l-.05-.33c-.04-.27-.09-.54-.16-.81l-.08-.3c-.08-.3-.18-.6-.29-.89l-.04-.1c-.17-.42-.33-.77-.52-1.1l-.08-.13c-.17-.29-.35-.57-.55-.84-.06-.08-.12-.17-.19-.25-.21-.27-.43-.53-.66-.77l-.07-.08c-.28-.29-.56-.54-.88-.79l-.2-.15c-.25-.19-.52-.37-.79-.54l-.2-.12c-.68-.39-1.4-.69-2.15-.91l-.15-.04c-.39-.1-.7-.16-1-.21l-.29-.05c-.87-.11-1.48-.11-2.35,0l-.3.05c-.3.05-.61.11-.91.19l-.25.06c-.75.21-1.47.52-2.14.91l-.12.07c-.36.22-.62.4-.88.59l-.19.14c-.32.26-.61.51-.87.77l-.07.08c-.24.25-.47.52-.68.79l-.17.23c-.2.28-.4.57-.57.88l-.06.1c-.18.33-.35.68-.5,1.04l-.74-.16.7.27c-.12.31-.23.63-.31.95l-.06.25c-.07.29-.13.59-.17.88l-.04.26c-.05.41-.07.78-.07,1.13,0,.38.03.78.08,1.19.07.49.15.9.25,1.28l.02.07ZM33.29,89.83c-5,0-9.4-3.38-10.69-8.22l-.02-.07c-.11-.44-.2-.88-.26-1.33-.08-.56-.11-1.02-.11-1.47,0-.41.03-.84.08-1.31l.03-.2c.07-.44.13-.79.22-1.13l.07-.28c.1-.38.23-.75.37-1.12l.04-.12c.17-.42.37-.83.58-1.22l.05-.09c.22-.37.44-.71.67-1.04l.2-.27c.25-.32.51-.63.79-.92l.08-.09c.3-.3.64-.6,1-.89l.15-.11c.36-.27.67-.48.99-.68l.23-.14c.78-.45,1.62-.8,2.48-1.05l.2-.05c.42-.11.77-.18,1.13-.24l.34-.05c.99-.12,1.73-.12,2.71,0l.34.05c.36.06.71.13,1.05.22l.28.07c.87.25,1.7.6,2.48,1.05l.16.1c.38.23.69.44.99.67l.22.16c.37.29.7.59,1,.89l.08.08c.29.3.55.61.8.93.07.09.13.18.2.27.24.32.46.66.66,1.02l.07.12c.21.38.41.79.58,1.21l.04.11c.15.4.27.76.37,1.13l.08.29c.08.33.15.67.2,1.01.03.17.04.24.05.32.05.45.08.86.08,1.27,0,.49-.03.95-.09,1.41l-.02.1c-.07.48-.16.94-.28,1.37-1.3,4.85-5.7,8.23-10.7,8.23ZM24.06,81.28c1.14,4.15,4.93,7.05,9.23,7.05s8.13-2.92,9.25-7.11c.1-.38.18-.79.24-1.2.07-.49.09-.88.09-1.26,0-.39-.02-.75-.07-1.14l-.04-.27c-.04-.29-.1-.58-.17-.87l-.07-.26c-.09-.32-.19-.63-.31-.94l.65-.4-.7.28c-.15-.37-.32-.72-.5-1.05l-.06-.1c-.17-.31-.37-.6-.57-.88l-.17-.23c-.22-.28-.44-.54-.68-.79l-.08-.09c-.26-.26-.54-.51-.86-.77l-.19-.14c-.25-.19-.52-.37-.79-.54l-.2-.12c-.68-.39-1.4-.69-2.15-.91l-.15-.04c-.39-.1-.7-.16-1-.21l-.29-.05c-.87-.11-1.48-.11-2.35,0l-.3.05c-.3.05-.61.11-.91.19l-.24.06c-.75.21-1.47.52-2.15.91l-.12.07c-.35.21-.61.39-.87.59l-.19.14c-.32.25-.61.51-.87.77l-.61-.44.54.52c-.24.25-.47.52-.68.79l-.17.23c-.2.28-.4.57-.57.88l-.06.09c-.19.34-.36.69-.51,1.06l-.74-.17.7.27c-.12.32-.23.64-.32.97l-.06.24c-.07.3-.13.59-.17.89l-.04.25c-.05.41-.07.78-.07,1.14,0,.38.03.78.08,1.19.07.49.15.89.25,1.28l.02.06ZM143.79,80.42h-14.45l.05-.8c.02-.29.03-.59.03-.88,0-.44-.03-.87-.07-1.31l-.03-.28c-.05-.41-.1-.81-.19-1.21l-.1-.43c-.03-.14-.06-.28-.1-.42l-.25-.94h15.1v6.26ZM130.92,78.92h11.37v-3.26h-11.68c.09.44.15.89.2,1.33l.03.31c.05.54.07,1,.07,1.44,0,.06,0,.12,0,.18ZM101,80.42h-53.53l.05-.8c.02-.29.03-.59.03-.88,0-.42-.03-.85-.06-1.27l-.03-.34c-.04-.39-.1-.78-.18-1.16l-.12-.53c-.02-.11-.05-.23-.08-.34l-.25-.94h54.83l-.25.94c-.03.11-.05.22-.08.33l-.12.54c-.08.39-.13.77-.18,1.16l-.03.33c-.04.43-.07.85-.07,1.28,0,.29.01.58.03.88l.05.8ZM49.04,78.92h50.37c0-.06,0-.12,0-.18,0-.47.03-.94.07-1.41l.04-.37c.05-.43.11-.86.2-1.29,0,0,0-.01,0-.02h-50.99v.02c.09.42.15.85.2,1.28l.04.38c.04.47.07.93.07,1.4,0,.06,0,.12,0,.18ZM19.12,80.42H4.67v-6.26h15.09l-.25.94c-.03.11-.05.22-.08.33l-.07.32c-.02.07-.04.15-.05.22-.08.38-.13.77-.18,1.16l-.03.35c-.04.42-.06.84-.06,1.27,0,.29.01.58.03.88l.05.8ZM6.17,78.92h11.37c0-.06,0-.12,0-.18,0-.47.03-.94.07-1.4l.04-.38c.05-.43.11-.86.2-1.28,0,0,0-.01,0-.02H6.17v3.26ZM139.21,70.99h-12.08l-.22-.32c-.21-.31-.44-.61-.68-.9l-.11-.13c-.57-.68-1.15-1.26-1.78-1.79l-.21-.18c-.3-.24-.61-.47-.93-.69l-.24-.16c-.26-.17-.53-.33-.8-.49l-.3-.17c-.32-.17-.64-.32-.97-.47-.13-.06-.26-.11-.39-.16-.31-.12-.62-.24-.93-.34-.12-.04-.25-.08-.38-.11-.31-.09-.62-.17-.93-.24l-.35-.08c-.38-.07-.77-.13-1.16-.18l-.29-.03c-.85-.08-1.72-.08-2.57,0l-.29.03c-.39.04-.78.1-1.16.18l-.35.08c-.31.07-.62.15-.92.24-.15.04-.27.08-.39.12-.31.1-.62.21-.92.34-.14.05-.27.11-.4.17-.33.14-.65.3-.96.46l-.32.18c-.26.15-.52.31-.78.47l-.26.17c-.31.21-.62.44-.91.68l-.23.2c-.3.26-.6.52-.88.8-.3.3-.56.6-.82.9l-.18.21c-.23.29-.46.58-.67.88l-.22.32h-57.96l-.22-.32c-.21-.31-.44-.6-.67-.88l-.15-.17c-.29-.34-.56-.65-.85-.93-.29-.29-.59-.55-.89-.81l-.23-.19c-.3-.24-.6-.47-.92-.69l-.26-.17c-.25-.17-.52-.32-.78-.47l-.31-.18c-.31-.17-.63-.32-.96-.46-.13-.06-.27-.11-.4-.17-.3-.12-.61-.24-.92-.34-.12-.04-.24-.07-.35-.11-.33-.1-.64-.18-.95-.25l-.35-.08c-.38-.07-.77-.13-1.16-.18l-.28-.03c-.85-.08-1.72-.08-2.58,0l-.29.03c-.39.04-.78.1-1.16.18l-.35.08c-.31.07-.62.15-.93.24l-.38.12c-.31.1-.62.22-.93.34-.13.05-.27.11-.4.17-.33.14-.65.3-.96.47l-.31.18c-.27.15-.53.31-.78.48l-.26.17c-.31.21-.62.44-.91.68l-.2.17c-.33.28-.63.55-.92.83-.29.29-.56.59-.82.9l-.18.21c-.23.28-.46.58-.67.88l-.22.32h-12.08v-11.53h55c.87,0,1.59-.71,1.59-1.58s-.71-1.59-1.59-1.59H9.25v-14.16h75.39c.87,0,1.59-.71,1.59-1.58V10.23c0-.87-.71-1.59-1.59-1.59H9.25v-3.97h84.78v51.81c0,.87.71,1.58,1.58,1.58s1.58-.71,1.58-1.58v-14.34h42v9.14h-5.52c-2.93,0-5.32,2.39-5.32,5.32v2.57c0,2.93,2.39,5.32,5.32,5.32h5.52v6.51ZM127.91,69.49h9.8v-3.51h-4.02c-3.76,0-6.82-3.06-6.82-6.82v-2.57c0-3.76,3.06-6.82,6.82-6.82h4.02v-6.14h-39v12.84c0,1.7-1.38,3.08-3.08,3.08s-3.08-1.38-3.08-3.08V6.17H10.75v.97h73.89c1.7,0,3.09,1.38,3.09,3.09v30.32c0,1.7-1.38,3.08-3.09,3.08H10.75v11.16h53.5c1.7,0,3.09,1.38,3.09,3.09s-1.38,3.08-3.09,3.08H10.75v8.53h9.8c.16-.22.33-.44.5-.65l.2-.24c.29-.34.58-.67.9-.98.32-.32.65-.62.99-.9l.25-.21c.33-.27.66-.52,1.01-.76l.28-.18c.28-.19.57-.36.87-.53l.34-.19c.35-.19.71-.36,1.07-.52.15-.06.29-.12.44-.19.34-.14.68-.26,1.02-.38.13-.04.25-.08.38-.12.38-.11.72-.2,1.07-.28l.39-.08c.43-.08.86-.15,1.29-.2l.22-.02c1.13-.1,2-.09,2.95,0l.31.03c.44.05.87.11,1.29.2l.29.06c.44.1.78.19,1.12.29.16.05.29.09.42.13.34.11.68.24,1.02.37.15.06.3.12.44.19.36.16.72.33,1.06.51l.35.2c.29.17.58.34.86.53l.28.19c.35.24.69.49,1.01.76l.25.21c.34.29.67.58.98.9.32.32.62.65.91,1l.19.23c.17.21.34.43.51.65h56.4c.16-.22.33-.44.5-.65l.2-.24c.28-.34.58-.67.89-.98.33-.33.66-.62.99-.91l.26-.21c.33-.27.66-.52,1.01-.75l.29-.19c.28-.18.57-.36.86-.52l.35-.2c.35-.19.7-.35,1.06-.51.15-.07.3-.13.45-.19.33-.13.67-.26,1.01-.37.13-.04.27-.08.4-.12.37-.11.71-.19,1.05-.27l.39-.08c.42-.08.85-.15,1.29-.2l.22-.02c1.14-.1,2-.09,2.95,0l.31.03c.44.05.86.11,1.29.2l.3.07c.43.1.77.18,1.11.28.14.04.28.08.42.13.35.11.69.24,1.03.38.15.06.29.12.44.18.36.16.72.33,1.07.52.08.04.15.08.23.13l.1.06c.3.17.6.35.89.54l.27.17c.35.24.69.5,1.03.77l.2.17c.73.61,1.37,1.26,1.95,1.95l.16.2c.18.22.35.44.52.67ZM139.21,61.31h-5.52c-1.19,0-2.15-.96-2.15-2.15v-2.57c0-1.19.96-2.15,2.15-2.15h5.52s0,6.87,0,6.87ZM133.68,55.94c-.36,0-.65.29-.65.65v2.57c0,.36.29.65.65.65h4.02v-3.87h-4.02ZM137.41,38.96h-40.2V11.81h17.57l22.63,27.15ZM98.7,37.46h35.5l-20.13-24.15h-15.37v24.15ZM83.06,38.96h-27.28l12-12c.3-.3.46-.7.46-1.12s-.17-.82-.46-1.12c-.62-.62-1.62-.62-2.24,0l-14.25,14.25H9.25V11.81h40.74l-13.57,13.57c-.62.62-.62,1.62,0,2.24.6.6,1.64.6,2.24,0l15.81-15.81h28.58v27.15ZM59.4,37.46h22.16V13.31h-26.46l-15.37,15.37c-1.16,1.17-3.2,1.17-4.36,0-1.2-1.2-1.2-3.16,0-4.36l11.01-11.01H10.75v24.15h39.92l13.81-13.81c1.2-1.2,3.16-1.2,4.36,0,.58.58.9,1.36.9,2.18s-.32,1.6-.9,2.18l-9.44,9.44ZM113.93,8.64h-16.73v-3.97h16.73v3.97ZM98.7,7.14h13.73v-.97h-13.73v.97Z"/>
      </g>
      <g>
        <path class="cls-2" d="M115.17,71.45c-4.02,0-7.3,3.27-7.3,7.3s3.27,7.3,7.3,7.3,7.3-3.27,7.3-7.3-3.27-7.3-7.3-7.3ZM115.17,81.37c-1.45,0-2.63-1.18-2.63-2.63s1.18-2.63,2.63-2.63,2.63,1.18,2.63,2.63-1.18,2.63-2.63,2.63Z"/>
        <path class="cls-1" d="M115.17,86.79c-4.44,0-8.05-3.61-8.05-8.05s3.61-8.05,8.05-8.05,8.05,3.61,8.05,8.05-3.61,8.05-8.05,8.05ZM115.17,72.2c-3.61,0-6.55,2.94-6.55,6.55s2.94,6.55,6.55,6.55,6.55-2.94,6.55-6.55-2.94-6.55-6.55-6.55ZM115.17,82.12c-1.86,0-3.38-1.51-3.38-3.38s1.52-3.38,3.38-3.38,3.38,1.51,3.38,3.38-1.51,3.38-3.38,3.38ZM115.17,76.87c-1.04,0-1.88.84-1.88,1.88s.84,1.88,1.88,1.88,1.88-.84,1.88-1.88-.84-1.88-1.88-1.88Z"/>
      </g>
      <g>
        <path class="cls-2" d="M27.52,19.55l-10.37,10.37c-.91.91-.91,2.39,0,3.3.46.46,1.05.68,1.65.68s1.19-.23,1.65-.68l10.37-10.37c.91-.91.91-2.39,0-3.3s-2.39-.91-3.3,0Z"/>
        <path class="cls-1" d="M18.79,34.66c-.82,0-1.6-.32-2.18-.9-.58-.58-.9-1.36-.9-2.18s.32-1.6.9-2.18l10.37-10.37c1.2-1.2,3.16-1.2,4.36,0,1.2,1.2,1.2,3.16,0,4.36l-10.37,10.37c-.58.58-1.36.9-2.18.9ZM29.17,19.61c-.42,0-.82.16-1.12.46l-10.37,10.37c-.62.62-.62,1.62,0,2.24.6.6,1.64.6,2.24,0l10.37-10.37c.62-.62.62-1.62,0-2.24-.3-.3-.7-.46-1.12-.46Z"/>
      </g>
    </g>
  </g>
</svg>