<?xml version="1.0" encoding="UTF-8"?>
<svg id="_レイヤー_2" data-name="レイヤー 2" xmlns="http://www.w3.org/2000/svg" viewBox="0 0 97.35 93">
  <defs>
    <style>
      .cls-1 {
        fill: #515266;
      }
    </style>
  </defs>
  <g id="_レイヤー_2-2" data-name="レイヤー 2">
    <g id="_3" data-name="3">
      <path class="cls-1" d="M88.1,27.32c-.32,0-.63-.11-.89-.33-.8-.68-1.83-1.06-2.91-1.06-.76,0-1.37-.61-1.37-1.37s.61-1.37,1.37-1.37c2.47,0,4.48-2,4.48-4.46,0-.76.61-1.37,1.37-1.37s1.37.61,1.37,1.37c0,2.46,2,4.46,4.46,4.46.76,0,1.37.61,1.37,1.37s-.61,1.37-1.37,1.37c-.97,0-1.92.32-2.68.89-.6.46-1.46.34-1.92-.27-.46-.6-.34-1.46.27-1.92.04-.03.07-.05.11-.08-.62-.45-1.16-.99-1.6-1.61-.45.61-.99,1.16-1.6,1.6.15.11.3.23.45.35.57.49.64,1.36.15,1.93-.27.32-.66.48-1.04.48Z"/>
      <path class="cls-1" d="M84.28,74.13h-10.34c-.76,0-1.37-.61-1.37-1.37s.61-1.37,1.37-1.37h10.34c1.01,0,1.83-.81,1.83-1.81s-.82-1.83-1.83-1.83H15.71c-1,0-1.81.82-1.81,1.83s.81,1.81,1.81,1.81h53.26c.76,0,1.37.61,1.37,1.37s-.61,1.37-1.37,1.37H15.71c-2.51,0-4.55-2.04-4.55-4.55s2.04-4.57,4.55-4.57h68.57c2.52,0,4.57,2.05,4.57,4.57s-2.05,4.55-4.57,4.55Z"/>
      <path class="cls-1" d="M53.66,85.18h-6.58c-.76,0-1.37-.61-1.37-1.37v-11.12c0-.76.61-1.37,1.37-1.37h6.58c.76,0,1.37.61,1.37,1.37v11.12c0,.76-.61,1.37-1.37,1.37ZM48.45,82.44h3.84v-8.38h-3.84v8.38Z"/>
      <path class="cls-1" d="M5.02,56.11c-.76,0-1.37-.61-1.37-1.37v-7.31c0-.76.61-1.37,1.37-1.37s1.37.61,1.37,1.37v7.31c0,.76-.61,1.37-1.37,1.37Z"/>
      <path class="cls-1" d="M8.68,52.46H1.37c-.76,0-1.37-.61-1.37-1.37s.61-1.37,1.37-1.37h7.31c.76,0,1.37.61,1.37,1.37s-.61,1.37-1.37,1.37Z"/>
      <path class="cls-1" d="M86.24,8.17c-.28,0-.56-.08-.8-.26-.61-.44-.75-1.3-.31-1.91l3.91-5.43c.44-.61,1.3-.75,1.91-.31.61.44.75,1.3.31,1.91l-3.91,5.43c-.27.37-.69.57-1.11.57Z"/>
      <path class="cls-1" d="M81.65,14.53c-.28,0-.56-.08-.8-.26-.61-.45-.75-1.3-.3-1.91l1.99-2.74c.44-.61,1.3-.75,1.91-.3.61.45.75,1.3.3,1.91l-1.99,2.74c-.27.37-.69.56-1.11.56Z"/>
      <path class="cls-1" d="M76.87,11.82c-.76,0-1.37-.61-1.37-1.37v-6.33c0-.76.61-1.37,1.37-1.37s1.37.61,1.37,1.37v6.33c0,.76-.61,1.37-1.37,1.37Z"/>
      <path class="cls-1" d="M15.49,8.1c-.43,0-.84-.2-1.11-.57l-3.86-5.35c-.44-.61-.3-1.47.31-1.91.62-.44,1.47-.3,1.91.31l3.86,5.35c.44.61.3,1.47-.31,1.91-.24.18-.52.26-.8.26Z"/>
      <path class="cls-1" d="M20.14,14.53c-.42,0-.84-.2-1.11-.56l-1.61-2.21c-.45-.61-.31-1.47.3-1.91.61-.45,1.47-.31,1.91.3l1.61,2.21c.45.61.31,1.47-.3,1.91-.24.18-.52.26-.8.26Z"/>
      <path class="cls-1" d="M24.93,11.82c-.76,0-1.37-.61-1.37-1.37v-6.33c0-.76.61-1.37,1.37-1.37s1.37.61,1.37,1.37v6.33c0,.76-.61,1.37-1.37,1.37Z"/>
      <path class="cls-1" d="M62.42,93h-24.83c-.76,0-1.37-.61-1.37-1.37v-1.32c0-4.38,3.57-7.95,7.95-7.95h11.68c4.38,0,7.95,3.57,7.95,7.95v1.32c0,.76-.62,1.37-1.37,1.37ZM38.96,90.26h22.09c-.03-2.85-2.35-5.15-5.21-5.15h-11.68c-2.85,0-5.18,2.31-5.21,5.15Z"/>
      <path class="cls-1" d="M20.26,32.52c-.08,0-.15,0-.23-.02-.75-.13-1.25-.83-1.12-1.58l2.3-13.54c.11-.66.68-1.14,1.35-1.14h26.31c.76,0,1.37.61,1.37,1.37s-.61,1.37-1.37,1.37h-25.15l-2.11,12.4c-.11.67-.69,1.14-1.35,1.14Z"/>
      <path class="cls-1" d="M85.8,67.9H14.21c-.4,0-.79-.18-1.05-.49-.26-.31-.37-.72-.3-1.11l5.06-29.69c.13-.75.84-1.25,1.58-1.12.75.13,1.25.83,1.12,1.58l-4.79,28.09h68.34l-7.88-46.17h-22.65c-.76,0-1.37-.61-1.37-1.37s.61-1.37,1.37-1.37h23.81c.67,0,1.24.48,1.35,1.14l8.35,48.91c.07.4-.04.81-.3,1.11-.26.31-.64.49-1.05.49Z"/>
      <path class="cls-1" d="M38.44,67.82s-.04,0-.06,0c-.76-.03-1.34-.67-1.31-1.43l2.19-48.76c.03-.76.66-1.37,1.43-1.31.76.03,1.34.67,1.31,1.43l-2.19,48.77c-.03.73-.64,1.31-1.37,1.31Z"/>
      <path class="cls-1" d="M81.65,43.66H18.36c-.76,0-1.37-.61-1.37-1.37s.61-1.37,1.37-1.37h63.3c.76,0,1.37.61,1.37,1.37s-.61,1.37-1.37,1.37Z"/>
      <path class="cls-1" d="M61.57,67.82c-.73,0-1.33-.57-1.37-1.31l-2.19-48.76c-.03-.76.55-1.4,1.31-1.43.68-.07,1.4.55,1.43,1.31l2.19,48.76c.03.76-.55,1.4-1.31,1.43-.02,0-.04,0-.06,0Z"/>
    </g>
  </g>
</svg>