<?xml version="1.0" encoding="UTF-8"?>
<svg id="_レイヤー_2" data-name="レイヤー 2" xmlns="http://www.w3.org/2000/svg" viewBox="0 0 89.4 93">
  <defs>
    <style>
      .cls-1 {
        fill: #515266;
      }
    </style>
  </defs>
  <g id="_レイヤー_2-2" data-name="レイヤー 2">
    <g>
      <path class="cls-1" d="M61.26,67.79c-.82,0-1.48-.66-1.48-1.48,0-.46.22-.9.58-1.18,6.45-4.93,10.15-12.41,10.15-20.52,0-14.23-11.58-25.81-25.81-25.81s-25.81,11.57-25.81,25.8c0,8.11,3.7,15.59,10.15,20.52.65.5.78,1.43.28,2.08s-1.43.78-2.08.28c-3.45-2.64-6.27-6.03-8.24-9.91-7.16-14.19-1.46-31.5,12.73-38.66,14.19-7.16,31.5-1.46,38.66,12.73,2.03,4.02,3.09,8.46,3.09,12.97.01,4.5-1.04,8.95-3.08,12.96-1.97,3.88-4.78,7.27-8.24,9.91-.26.2-.57.31-.9.31Z"/>
      <path class="cls-1" d="M44.7,10.24c-.82,0-1.48-.66-1.48-1.48V1.48c0-.82.66-1.48,1.48-1.48s1.48.66,1.48,1.48v7.28c0,.82-.66,1.48-1.48,1.48h0Z"/>
      <path class="cls-1" d="M26.73,15.06c-.53,0-1.02-.28-1.29-.74l-3.64-6.3c-.41-.71-.17-1.62.54-2.03s1.62-.17,2.03.54l3.64,6.3c.41.71.17,1.62-.54,2.03-.22.13-.48.2-.74.2Z"/>
      <path class="cls-1" d="M13.58,28.21c-.26,0-.52-.07-.74-.2l-6.3-3.64c-.71-.41-.95-1.32-.54-2.03s1.32-.95,2.03-.54l6.3,3.64c.71.41.95,1.32.54,2.03-.26.46-.76.74-1.29.74Z"/>
      <path class="cls-1" d="M8.76,46.18H1.48c-.82,0-1.48-.66-1.48-1.48s.66-1.48,1.48-1.48h7.28c.82,0,1.48.66,1.48,1.48s-.66,1.48-1.48,1.48h0Z"/>
      <path class="cls-1" d="M87.92,46.18h-7.28c-.82,0-1.48-.66-1.48-1.48s.66-1.48,1.48-1.48h7.28c.82,0,1.48.66,1.48,1.48s-.66,1.48-1.48,1.48Z"/>
      <path class="cls-1" d="M75.82,28.21c-.82,0-1.48-.66-1.48-1.48,0-.53.28-1.02.74-1.29l6.3-3.64c.71-.41,1.62-.17,2.03.54s.17,1.62-.54,2.03h0l-6.31,3.64c-.22.13-.48.2-.74.2Z"/>
      <path class="cls-1" d="M62.66,15.06c-.82,0-1.48-.67-1.48-1.48,0-.26.07-.51.2-.74l3.64-6.3c.41-.71,1.32-.95,2.03-.54s.95,1.32.54,2.03h0l-3.64,6.3c-.27.46-.76.74-1.29.74Z"/>
      <path class="cls-1" d="M44.7,93c-.53,0-1.02-.28-1.29-.74l-8.63-15.03c-.41-.71-.17-1.62.54-2.03.23-.13.48-.2.74-.2h17.26c.82,0,1.48.66,1.48,1.48,0,.26-.07.52-.2.74l-8.63,15.03c-.27.46-.76.74-1.29.74ZM38.63,77.97l6.07,10.57,6.07-10.57h-12.14Z"/>
      <path class="cls-1" d="M48.15,77.97h-6.9c-.82,0-1.48-.66-1.48-1.48v-25.65c0-.82.66-1.48,1.48-1.48,0,0,0,0,0,0l6.9.04c.82,0,1.47.67,1.47,1.48v25.61c0,.82-.66,1.48-1.48,1.48ZM42.73,75.01h3.94v-22.65l-3.94-.02v22.67Z"/>
      <path class="cls-1" d="M87.92,67.79h-39.76c-.82,0-1.48-.66-1.48-1.48s.66-1.48,1.48-1.48h39.76c.82,0,1.48.66,1.48,1.48s-.66,1.48-1.48,1.48Z"/>
      <path class="cls-1" d="M41.25,67.79H1.48c-.82,0-1.48-.66-1.48-1.48s.66-1.48,1.48-1.48h39.76c.82,0,1.48.66,1.48,1.48s-.66,1.48-1.48,1.48h0Z"/>
    </g>
  </g>
</svg>