<?xml version="1.0" encoding="UTF-8"?>
<svg id="_レイヤー_2" data-name="レイヤー 2" xmlns="http://www.w3.org/2000/svg" viewBox="0 0 114.46 93">
  <defs>
    <style>
      .cls-1 {
        fill: #515266;
      }
    </style>
  </defs>
  <g id="_レイヤー_2-2" data-name="レイヤー 2">
    <g>
      <path class="cls-1" d="M112.67,0H1.79C.8,0,0,.8,0,1.79v17.88c0,.99.8,1.79,1.79,1.79h35.77v7.15h-12.81c-.86-.02-1.62.58-1.79,1.43l-11.52,55.44c-.11.52.02,1.07.36,1.48.34.42.85.66,1.4.66h8.26v3.58c0,.99.8,1.79,1.79,1.79s1.79-.8,1.79-1.79v-3.58h66.17v3.58c0,.99.8,1.79,1.79,1.79s1.79-.8,1.79-1.79v-3.58h6.47c.54,0,1.05-.24,1.39-.66.34-.42.47-.96.36-1.48l-11.55-55.44c-.17-.85-.93-1.45-1.79-1.43h-12.77v-7.15h35.77c.99,0,1.79-.8,1.79-1.79V1.79c0-.99-.8-1.79-1.79-1.79ZM99.06,84.06H15.4l10.73-51.87h62.06l10.87,51.87ZM73.33,28.62h-32.19v-7.15h32.19v7.15ZM110.88,17.88H3.58V3.58h107.31v14.31Z"/>
      <path class="cls-1" d="M57.23,36.66c-11.85,0-21.46,9.61-21.46,21.46s9.61,21.46,21.46,21.46,21.46-9.61,21.46-21.46-9.61-21.46-21.46-21.46ZM57.23,76.01c-9.88,0-17.88-8.01-17.88-17.88s8.01-17.88,17.88-17.88,17.88,8.01,17.88,17.88-8.01,17.88-17.88,17.88Z"/>
      <path class="cls-1" d="M57.23,42.92c-.99,0-1.79.8-1.79,1.79v14.31c0,.99.8,1.79,1.79,1.79s1.79-.8,1.79-1.79v-14.31c0-.99-.8-1.79-1.79-1.79Z"/>
    </g>
  </g>
</svg>