<?xml version="1.0" encoding="UTF-8"?>
<svg id="_レイヤー_2" data-name="レイヤー 2" xmlns="http://www.w3.org/2000/svg" viewBox="0 0 93 93">
  <defs>
    <style>
      .cls-1 {
        fill: #515266;
      }
    </style>
  </defs>
  <g id="_レイヤー_2-2" data-name="レイヤー 2">
    <path class="cls-1" d="M.57,43.7l16.01,16.01c.37.37.87.57,1.37.57.3,0,.6-.07.88-.21,6.04-3.08,11.66-6.76,16.82-10.95l41.1,41.1c1.86,1.86,4.29,2.78,6.73,2.78s4.88-.93,6.73-2.78c3.71-3.71,3.71-9.75,0-13.47l-41.1-41.1c4.2-5.16,7.88-10.78,10.95-16.82.38-.75.24-1.66-.36-2.25L43.7.57c-.6-.59-1.5-.74-2.25-.36-6.04,3.08-11.66,6.76-16.82,10.95l-4.53-4.53c-.48-.49-1.19-.68-1.86-.51l-8.51,2.22c-.68.18-1.21.71-1.39,1.39l-2.22,8.51c-.17.67.02,1.37.51,1.86l4.53,4.53C6.97,29.79,3.29,35.41.21,41.45c-.38.75-.24,1.66.36,2.25ZM87.48,79.49c2.2,2.2,2.2,5.78,0,7.99-2.2,2.2-5.78,2.21-7.99,0l-40.88-40.88c2.82-2.5,5.49-5.16,7.99-7.99l40.88,40.88ZM10.16,18.15l1.65-6.33,6.33-1.65,3.52,3.52c-2.82,2.5-5.49,5.16-7.99,7.99l-3.52-3.52ZM41.96,4.31l14.01,14.01c-8.53,16.15-21.51,29.12-37.65,37.65l-14.01-14.01C12.84,25.82,25.82,12.85,41.96,4.31Z"/>
  </g>
</svg>