<?xml version="1.0" encoding="UTF-8"?>
<svg id="_レイヤー_2" data-name="レイヤー 2" xmlns="http://www.w3.org/2000/svg" viewBox="0 0 95.3 95.98">
  <defs>
    <style>
      .cls-1 {
        fill: #fff;
      }

      .cls-2 {
        fill: #515266;
      }
    </style>
  </defs>
  <g id="_レイヤー_2-2" data-name="レイヤー 2">
    <g>
      <g>
        <path class="cls-2" d="M67.94,45.96c0-.93.76-1.69,1.69-1.69h6.76c.93,0,1.69.76,1.69,1.69v3.82l15.24-8.89-15.24-8.89v3.82c0,.93-.76,1.69-1.69,1.69h-10.14c-2.8,0-5.07,2.27-5.07,5.07v52.4h6.76v-49.02Z"/>
        <path class="cls-1" d="M68.94,95.98h-8.76v-53.4c0-3.34,2.73-6.07,6.07-6.07h10.14c.38,0,.69-.31.69-.69v-5.56l18.22,10.63-18.22,10.63v-5.56c0-.38-.31-.69-.69-.69h-6.76c-.38,0-.69.31-.69.69v50.02ZM62.18,93.98h4.76v-48.02c0-1.48,1.21-2.69,2.69-2.69h6.76c1.48,0,2.69,1.21,2.69,2.69v2.08l12.26-7.15-12.26-7.15v2.08c0,1.48-1.21,2.69-2.69,2.69h-10.14c-2.24,0-4.07,1.83-4.07,4.07v51.4Z"/>
      </g>
      <g>
        <path class="cls-2" d="M44.27,18.91v76.07h6.76V18.91c0-.93.76-1.69,1.69-1.69h3.82L47.65,1.98l-8.89,15.24h3.82c.93,0,1.69.76,1.69,1.69h0Z"/>
        <path class="cls-1" d="M52.03,95.98h-8.76V18.91c0-.38-.31-.69-.69-.69h-5.56L47.65,0l10.63,18.22h-5.56c-.38,0-.69.31-.69.69v77.07ZM45.27,93.98h4.76V18.91c0-1.48,1.21-2.69,2.69-2.69h2.08l-7.15-12.26-7.15,12.26h2.08c1.48,0,2.69,1.21,2.69,2.69v75.07Z"/>
      </g>
      <g>
        <path class="cls-2" d="M17.22,73.01c0-.93.76-1.69,1.69-1.69h6.76c.93,0,1.69.76,1.69,1.69v21.98h6.76v-25.36c0-2.8-2.27-5.07-5.07-5.07h-10.14c-.93,0-1.69-.76-1.69-1.69v-3.82l-15.24,8.89,15.24,8.89v-3.82Z"/>
        <path class="cls-1" d="M35.13,95.98h-8.76v-22.98c0-.38-.31-.69-.69-.69h-6.76c-.38,0-.69.31-.69.69v5.56L0,67.94l18.22-10.63v5.56c0,.38.31.69.69.69h10.14c3.34,0,6.07,2.73,6.07,6.07v26.36ZM28.37,93.98h4.76v-24.36c0-2.24-1.83-4.07-4.07-4.07h-10.14c-1.48,0-2.69-1.21-2.69-2.69v-2.08l-12.26,7.15,12.26,7.15v-2.08c0-1.48,1.21-2.69,2.69-2.69h6.76c1.48,0,2.69,1.21,2.69,2.69v20.98Z"/>
      </g>
    </g>
  </g>
</svg>