<?xml version="1.0" encoding="UTF-8"?>
<svg id="_レイヤー_2" data-name="レイヤー 2" xmlns="http://www.w3.org/2000/svg" viewBox="0 0 883 312.94">
  <defs>
    <style>
      .cls-1 {
        fill: #504e62;
      }

      .cls-2 {
        fill: #fccd4d;
      }

      .cls-3 {
        fill: #eee;
      }
    </style>
  </defs>
  <g id="_レイヤー_2-2" data-name="レイヤー 2">
    <g>
      <rect class="cls-1" y="219.94" width="883" height="93" rx="8.85" ry="8.85"/>
      <g>
        <path class="cls-2" d="M243.89,245.67c4.64,6.63,11.75,12.75,18.52,15.92-1.3,1.3-2.43,2.95-3.38,4.51-2.73-1.6-5.55-3.6-8.2-5.81v3.6h-18.39v-3.47c-2.47,2.12-5.2,4.08-8.02,5.77-.65-1.21-2.12-3.04-3.25-4.12,7.33-4.03,14.31-11.01,17.56-16.39h5.16ZM252.3,267.78l4.12,1.21c-2.12,5.33-5.25,12.06-7.94,17.56l-5.46-1.52c1.91-3.73,4.12-8.37,5.81-12.14h-22.29v-4.86h24.85l.91-.26ZM249.44,259.11c-3.17-2.78-5.98-5.72-7.89-8.41-1.86,2.69-4.51,5.64-7.63,8.41h15.52Z"/>
        <path class="cls-2" d="M284.47,253.69c2.12-.39,4.16-.87,5.85-1.39l.17,5.03c-1.99.52-4.68,1.08-7.59,1.52-2.08,6.07-5.77,13.66-9.28,18.56l-5.25-2.69c3.43-4.25,6.94-10.62,8.85-15.31-.78.04-1.52.04-2.26.04-1.78,0-3.56-.04-5.42-.17l-.39-5.03c1.86.22,4.16.3,5.77.3,1.3,0,2.6-.04,3.95-.17.61-2.39,1.08-4.99,1.17-7.24l5.98.61c-.35,1.39-.91,3.6-1.56,5.94ZM296.18,266.79c.04,1.26.17,3.34.26,5.51,3.73,1.39,6.76,3.56,8.98,5.55l-2.91,4.64c-1.52-1.39-3.47-3.21-5.85-4.64v.43c0,4.03-2.21,7.16-8.37,7.16-5.38,0-9.63-2.39-9.63-7.16,0-4.25,3.56-7.5,9.58-7.5,1.04,0,1.99.09,2.99.17-.17-3.21-.39-7.07-.48-9.71h5.42c-.13,1.82-.04,3.64,0,5.55ZM287.51,280.45c2.99,0,3.9-1.65,3.9-4.03v-.87c-1.13-.26-2.3-.43-3.51-.43-2.52,0-4.12,1.13-4.12,2.65,0,1.6,1.34,2.69,3.73,2.69ZM293.23,257.37l2.78-4.29c3.12,1.34,8.5,4.29,10.71,5.9l-3.08,4.55c-2.52-1.99-7.46-4.81-10.41-6.16Z"/>
        <path class="cls-2" d="M324.19,266.61c3.95-2.86,8.24-4.12,12.79-4.12,7.59,0,12.01,4.68,12.01,9.93,0,7.89-6.24,13.96-24.28,12.45l-1.65-5.68c13.01,1.78,19.9-1.39,19.9-6.9,0-2.82-2.69-4.9-6.46-4.9-4.9,0-9.32,1.82-12.06,5.12-.78.95-1.21,1.65-1.6,2.52l-4.99-1.26c.87-4.25,1.86-12.75,2.17-18.13l5.81.82c-.56,2.39-1.34,7.68-1.65,10.15ZM342.92,251.13l-1.3,5.29c-4.38-.56-14.05-2.6-17.43-3.47l1.39-5.2c4.12,1.3,13.57,2.95,17.35,3.38Z"/>
        <path class="cls-2" d="M382.25,250.65c-.04.43-.04,1.08-.04,1.78,3.56-.17,7.16-.52,10.97-1.17l-.04,4.99c-2.86.35-6.81.74-11.01.95v4.47c4.38-.22,8.07-.56,11.58-1.04l-.04,5.12c-3.9.43-7.29.74-11.45.87.09,1.65.17,3.43.3,5.16,5.46,1.56,9.63,4.47,12.14,6.55l-3.12,4.86c-2.34-2.17-5.29-4.47-8.76-6.03.04.61.04,1.13.04,1.6,0,3.69-2.82,6.55-8.54,6.55-6.94,0-10.58-2.65-10.58-7.24s4.03-7.46,10.71-7.46c.91,0,1.82.04,2.69.13-.09-1.34-.13-2.73-.17-4.03h-2.26c-2.52,0-7.46-.22-10.32-.56l-.04-5.12c2.82.52,8.15.82,10.45.82h2.08c0-1.43,0-2.99.04-4.47h-1.6c-2.73,0-7.76-.39-10.62-.78l-.13-4.94c3.12.52,8.07.95,10.71.95h1.69v-2.04c0-.82-.09-2.17-.26-2.99h5.85c-.13.87-.22,1.95-.26,3.08ZM373.49,280.4c2.3,0,3.82-.65,3.82-3.17,0-.48,0-1.08-.04-1.86-1.17-.17-2.34-.3-3.56-.3-3.08,0-4.77,1.21-4.77,2.69,0,1.65,1.56,2.65,4.55,2.65Z"/>
        <path class="cls-2" d="M420.45,252.65c-.09.48-.22,1.04-.35,1.6,2.43-.35,4.9-.82,7.29-1.39v5.42c-2.6.61-5.55,1.08-8.46,1.43-.39,1.86-.82,3.82-1.3,5.59-1.6,6.07-4.47,14.92-6.9,20.08l-6.03-2.04c2.6-4.38,5.9-13.44,7.5-19.51.3-1.17.61-2.43.91-3.64-1,.04-1.95.09-2.86.09-2.12,0-3.73-.09-5.25-.17l-.13-5.42c2.21.26,3.64.35,5.46.35,1.26,0,2.56-.04,3.9-.13.17-.95.3-1.78.39-2.47.17-1.6.26-3.38.13-4.42l6.64.52c-.35,1.21-.78,3.17-.95,4.12ZM425.7,276.15c0,1.91,1.3,3.34,5.94,3.34,2.91,0,5.9-.3,9.02-.87l-.22,5.51c-2.47.35-5.38.65-8.85.65-7.29,0-11.23-2.52-11.23-6.9,0-2.04.39-4.12.74-5.81l5.2.48c-.35,1.26-.61,2.65-.61,3.6ZM432.29,261.23c2.47,0,5.07.13,7.63.39l-.13,5.2c-2.17-.26-4.81-.56-7.46-.56-2.99,0-5.64.13-8.37.48v-5.07c2.43-.26,5.51-.43,8.33-.43ZM438.71,255.73l-3.47,1.52c-.87-1.78-2.21-4.38-3.38-6.03l3.43-1.43c1.08,1.6,2.65,4.34,3.43,5.94ZM443.91,253.73l-3.43,1.47c-.91-1.82-2.3-4.34-3.51-5.98l3.43-1.39c1.17,1.6,2.78,4.38,3.51,5.9Z"/>
        <path class="cls-2" d="M456.31,263.23v23.2h-5.12v-38.86h16.61v15.65h-11.49ZM456.31,251.3v2.3h6.68v-2.3h-6.68ZM462.98,259.54v-2.47h-6.68v2.47h6.68ZM487.79,280.32c0,2.78-.56,4.29-2.3,5.12-1.69.87-4.21,1-7.94,1-.13-1.08-.61-2.69-1.13-4.03h-10.75v2.21h-4.68v-18.73h2.12v-.04l14.57.04v15.35c1.69.04,3.3.04,3.86,0,.78,0,1.04-.26,1.04-.95v-16.96h-11.8v-15.74h17v32.74ZM472.83,269.65h-7.16v2.6h7.16v-2.6ZM472.83,278.62v-2.69h-7.16v2.69h7.16ZM475.69,251.3v2.3h6.9v-2.3h-6.9ZM482.58,259.63v-2.56h-6.9v2.56h6.9Z"/>
        <path class="cls-2" d="M504.87,253.3c-.56,2.91-2.08,11.58-2.08,15.92,0,.82.04,1.95.17,2.82.65-1.47,1.34-2.99,1.95-4.42l2.69,2.12c-1.21,3.6-2.65,8.33-3.12,10.62-.13.65-.22,1.6-.22,2.04,0,.48.04,1.17.09,1.78l-5.03.35c-.87-2.99-1.69-8.28-1.69-14.18,0-6.5,1.34-13.83,1.82-17.17.13-1.21.39-2.86.43-4.25l6.07.52c-.35.91-.91,3.08-1.08,3.86ZM515.58,274.5c0,1.91,1.65,3.08,6.07,3.08,3.86,0,7.07-.35,10.88-1.13l.09,5.85c-2.82.52-6.29.82-11.19.82-7.46,0-11.06-2.65-11.06-7.11,0-1.69.26-3.43.74-5.64l4.99.48c-.35,1.43-.52,2.47-.52,3.64ZM531.28,252.3v5.59c-5.33.48-13.18.52-18.65,0v-5.55c5.33.74,13.96.52,18.65-.04Z"/>
        <path class="cls-2" d="M562.71,245.97c4.64,6.63,11.67,12.14,18.56,14.92-1.26,1.34-2.43,3.04-3.34,4.64-2.21-1.13-4.47-2.56-6.64-4.12v2.99h-21.6v-3.04c-2.12,1.56-4.42,2.99-6.72,4.25-.69-1.26-2.12-3.12-3.25-4.21,7.46-3.6,14.4-10.15,17.65-15.44h5.33ZM546.84,268.69h27.49v17.78h-5.29v-1.6h-17.13v1.6h-5.07v-17.78ZM569.17,259.85c-3.6-2.82-6.81-5.94-8.89-8.8-2.04,2.91-5.07,5.98-8.63,8.8h17.52ZM551.91,273.25v7.07h17.13v-7.07h-17.13Z"/>
        <path class="cls-2" d="M607.63,263.27c-4.77,0-9.06,1.47-11.28,2.12-1.26.35-2.95,1.04-4.21,1.52l-1.65-6.2c1.47-.13,3.34-.43,4.77-.74,3.17-.74,8.02-1.99,13.1-1.99,6.85,0,11.67,3.9,11.67,10.71,0,9.28-8.59,15.05-20.64,16.7l-3.12-5.38c10.75-1.21,17.69-4.77,17.69-11.54,0-2.86-2.25-5.2-6.33-5.2ZM616.39,249.61l-.87,5.33c-5.07-.35-14.48-1.21-19.47-2.08l.87-5.2c5.03,1.08,14.87,1.91,19.47,1.95Z"/>
        <path class="cls-2" d="M633.86,279.1c0-2.39,1.69-4.16,3.95-4.16s3.99,1.78,3.99,4.16-1.73,4.16-3.99,4.16-3.95-1.82-3.95-4.16ZM634.81,255.73l-.22-6.03h6.42l-.22,6.03-.91,16h-4.16l-.91-16Z"/>
        <path class="cls-2" d="M652.07,279.1c0-2.39,1.69-4.16,3.95-4.16s3.99,1.78,3.99,4.16-1.73,4.16-3.99,4.16-3.95-1.82-3.95-4.16ZM653.03,255.73l-.22-6.03h6.42l-.22,6.03-.91,16h-4.16l-.91-16Z"/>
      </g>
      <g>
        <circle class="cls-3" cx="850.25" cy="234.5" r="4.5"/>
        <circle class="cls-3" cx="32.75" cy="234.5" r="4.5"/>
      </g>
    </g>
    <g>
      <rect class="cls-1" x="848" y="0" width="5" height="220.15"/>
      <rect class="cls-1" x="30" y="0" width="5" height="220.15"/>
    </g>
  </g>
</svg>