<?xml version="1.0" encoding="UTF-8"?>
<svg id="_レイヤー_2" data-name="レイヤー 2" xmlns="http://www.w3.org/2000/svg" viewBox="0 0 105.38 108.61">
  <defs>
    <style>
      .cls-1 {
        opacity: .25;
      }

      .cls-2 {
        fill: #515266;
        fill-rule: evenodd;
      }
    </style>
  </defs>
  <g id="_レイヤー_2-2" data-name="レイヤー 2">
    <g class="cls-1">
      <path class="cls-2" d="M58.39,7.44c-5.84-4.74-13.45-6.29-19.3-7.44-2.73,1.1-5.67-.02-8.35.54-9.32,1.94-19.18,7.05-25.24,15.54-.48.67-.63,1.69-1.25,2.72-.32.54-1.23,1.29-1.48,1.81-.66,1.39-.82,3.63-1.46,5.37C-.46,30.83-.11,35.68.48,40.46c.11.87-.08,1.82.09,2.68.38,1.96,1.65,3.71,2.38,5.67.56,1.53.48,2.83,1.31,4.11.74,1.14,1.87,2,2.72,3.18.63.88,1.04,2.08,1.7,2.95,3.52,4.68,8.28,6.51,13.1,8.88,3.32,1.63,7.27,3.62,10.36,4.07,1.87.27,4.05-.01,5.67,1.48,6.07-1.16,11.71,3.28,17.35,7.73-.63,1.04-.5,2.14-1.43,3.15,1.23,1.1,1.54,2.27,1.93,3.86,2.38.67,4.11,1.45,6.69,1.71.69,2.06-.31,4.36,1.17,5.88.98.99,3.28.53,4.47,1.68,1.75,1.71.42,3.67,2.85,5.27,2.87-.73,5.68,1.88,4.96,4.84.56-.19,1.07.2,1.56.86,1.91-1.3,3.94.35,5.4-.77.52.34.13.6.52.93.7-.71,1.42-.37,2.41-.41,4.45-3.71,9.04-1.52,12.98-4.78.47-.31.87.28,1.34-.04,1.11-1.32,1.13-3.17,1.57-4.92.88-3.54,2.32-6.99,3.62-10.25-.65-1.48.08-2.86.19-4.29l-.68-.79c.02-1.24,1.15-2.38.43-3.68-1.65-.39-3.36-.04-4.99-.69-.51-2.41-.43-4.78-1.51-7.24-1.89-.47-3.35,1.45-5.38.47-.61-2.12-1.11-4.24-1.29-6.33-1.73,0-3.54,1.02-5.15-.55,1.16-1.07-.41-2.7-.81-2.88,0-1.58,1.09-3.08.07-4.74-.78.25-1.07,1.18-1.97.59-.14-.31.38-.56-.22-.91-1.21.88-3.02,1.27-4.2.56-1.27-.76-4.72-5.69-5.1-6.92-1.76-5.74.21-14.52-1.46-19.4-1.15-1.14-.72-2.75-1.15-4.24-.27-.92-.91-1.59-1.43-2.63-.95-1.89-1.5-4.09-2.35-5.97-2.14-4.71-6.45-8.42-9.81-11.15ZM104.03,80.41c-.32.33-.62.3-.88-.07.32-.33.62-.3.88.07ZM49.38,8.81c-1.29.08-2.47-1.26-3.74-1.48.74-.6,2.63.46,3.74,1.48ZM39.42,3.29c-.35.02-.68-.16-1.04.07-.18-.54.81-.47,1.04-.07ZM41.19,5.36c-.58.43-1.1.12-1.61-.27.58-.43,1.1-.12,1.61.27ZM34,4.35c-.1,1.16-1.27-.16-1.79.16.07-.75,1.27.11,1.79-.16ZM28.85,5.73c-.07.8-1.35.95-1.84.75.06-.65,1.31-.44,1.84-.75ZM14.85,10.28c.03.76-1.12.57-1.59,1.36-.56-.14,1.19-1.14,1.59-1.36ZM18.46,9.67c-5.75,4.28-10.79,10.29-12.38,16.09-.78-5.45,5.82-13.64,12.38-16.09ZM2.17,35.99c.46-.19.06.78.36,1.07-.72.17-.1-.78-.36-1.07ZM62.65,78.38c-.99,2.19-2.1,5.81-4.84,6.89-1.33-2.94,2.26-4.78,4.84-6.89ZM64.62,83.57c-.39-1.17-.98-2.35-1.65-3.54.3-.62.42-1.25,1.18-1.84.67,1.83,1.13,3.65.47,5.38ZM65.64,81.87c-.68-.6-.04-1.09-.61-1.68.58,0,1.22,1.27.61,1.68ZM62.42,81.32c.21.51.1,1,.47,1.52-.56.04-1.45-1.19-.47-1.52ZM62.83,85.66l-1.11.95c-.61-.74-.52-1.42-1.31-2.18.01-.49.67-.94.7-1.43,1.28.35.96,1.85,1.72,2.66ZM63.55,87.79c-.27-.42.56-.75.39-1.16.49-.14.08.88-.39,1.16ZM59.72,85.56c.13.21-.18.38-.34.57-.13-.21.18-.38.34-.57ZM59.42,87.47c-.17-.46.57-.85.25-1.32.52-.39.95.56,1.41,1-.6.72-1.09.04-1.66.32ZM66.56,94.85c-.64-.06-1.25-.46-1.9-.3-.45-1.67-.83-3.33-.95-4.97,2.12-3.64,3.34-7.45,5.61-11.13,2.46-3.99,4.5-8.4,7.63-12.31-.02-.4.02-.79.09-1.18,1.35-.36,1.84-2.73,3.54-1.65-1.76,3.84-4.21,7.65-5.61,11.13-.4.74-.68-.18-1.07.36-.15,1.27-.23,3.47-2.07,3.7.13.84.07,2.32-1.09,2.58-.57.93-.11,2.62-1.57,2.99.02,3.36-4.05,6.41-4.02,9.77,1.16.41,1.45-1.34,1.93-1.93.43.68.56,1.33.88,2-.96-.42-.79.24-1.41.93ZM66.55,79.72c-.25-.62-2.78-2.69-.9-3.63,1,1.26.84,2.44.9,3.63ZM67.5,78.9l-.27-.32c.16-.09.1-.19.02-.3.25-.33.85.52.25.61ZM68.85,75c-.14.88.43,1.81-.5,2.63-.76-.33-1.28-1.73-1.88-2.52.24-.23.67-.44.5-.7.92.34.86,1.5,1.88.59ZM66.99,74.12c-.75-.98.79-.96,1.32-1.68.24,1.17-.96.99-1.32,1.68ZM14.44,42.62c5.04.15,10.11-.37,15.14-.41.21.13.41.26.62.4.11.07.3-.02.26-.17,0-.02-.05-.12-.09-.23.63,0,1.26.01,1.89.04.41.24.82.48,1.23.71.28.16.53-.15.36-.41-.05-.08-.09-.16-.14-.24.36.02.72.06,1.07.09.19.12.37.24.57.36.23.13.47-.04.48-.25,1.17.14,2.34.33,3.5.59.84.89,1.46,2.04,1.97,3.16.41.92.8,2,.69,3.02-.04.33-.16.53-.33.64-5.67-2.93-11.85-3.89-18.11-5.01-1.93-.58-3.87-1.17-5.8-1.8-.07-.02-.12.09-.04.12,1.92.55,3.84,1.1,5.76,1.67-2.42-.43-4.84-.88-7.26-1.48-.01,0-.02.01,0,.02,3.61,1.12,7.29,1.83,10.93,2.6,4.07,1.29,8.09,2.74,11.95,4.53,2.34,1.96,5.1,4.71,6.36,7.35-.14-.11-.28-.23-.43-.34-.06-.05-.14.05-.09.1.13.12.41.44.77.82.18.45.31.89.38,1.33-.07-.06-.14-.11-.21-.18-.14-.13-.35.04-.23.2.15.2.32.39.5.56.02.62-.1,1.21-.37,1.76,0,0,0,0-.01,0-.01,0-.02.01,0,.02,0,0,0,0,.01,0-.16.33-.39.64-.67.94-.46-.1-.89-.22-1.27-.33-9.81-2.89-16.17-11.8-24.79-16.57-.7-.57-1.42-1.11-2.16-1.58.05,0,.08-.08.02-.1-.15-.06-.3-.1-.45-.15-.43-.26-.87-.48-1.32-.68-.01,0-.03-.01-.04-.02,0,0,0,0,0,0-.35-.15-.69-.31-1.04-.42.14-.02.27-.04.41-.06.05-.01.08-.05.11-.07.37.03.74.06,1.11.12.07.01.08-.1,0-.11-.34-.06-.68-.09-1.02-.13.06-.16-.01-.36-.21-.39ZM44.62,29.61c.02-.08.04-.17.06-.25-.09,2.15-.23,4.31-.33,6.46-.02,0-.03-.02-.05-.02.08-2.27.22-4.4.32-6.19ZM73.32,68.97c-.12.73-.69,1.43-1.2,2.13-.13-.71.58-1.95,1.2-2.13ZM71.69,68.99c.22-.82,1.7-1.55,2.41-2.33-.22.82-1.7,1.55-2.41,2.33ZM16.45,46.3c.21-.07.29-.41.02-.49-.41-.11-.81-.26-1.2-.42-.4-.24-1.62-.93-2.51-1.45-.08-.05-.15-.11-.22-.16.37.03.75.07,1.12.12,1.07.31,2.08.85,3.04,1.51-.06.14-.05.31.1.4.94.61,2.74,2.07,5.04,3.9.41.5.83,1,1.25,1.49-.03.03-.03.07-.05.11-2.18-1.7-4.37-3.38-6.59-5.02ZM25.35,52.49c5.92,4.61,13.49,10.01,18.98,11.32-.04.04-.06.08-.06.12-5.19-.56-12.18-5.47-16.75-9.32-.73-.71-1.46-1.42-2.17-2.12ZM36.87,48.61c1.53.55,3.04,1.19,4.5,1.96-.03.02-.05.06-.01.1.29.31.58.6.87.91-1.15-.57-2.31-1.09-3.49-1.59-.7-.54-1.34-1.01-1.88-1.39ZM38.03,49.7c-3.4-1.38-6.9-2.49-10.43-3.56,2.96.63,5.89,1.3,8.72,2.27,0,0,0,.01,0,.02.46.32,1.05.75,1.7,1.27ZM43.19,42.3c.09.05.18.06.27.04,0,.13,0,.26,0,.39-.01-.02,0-.05-.02-.07-.09-.12-.16-.24-.25-.36ZM45.47,44.51c.03-.12,0-.25-.05-.35-.01-.16-.03-.33-.04-.49-.43-5.38.08-10.78.21-16.17.23,1.27.53,2.54.91,3.79.46,5.82,3.02,11.54,5.44,16.72,1.07,2.29,2.26,4.55,3.54,6.76-.06.56-.2,1.09-.46,1.59-.32.36-.71.68-1.13.97-1.77-.02-3.23-.46-4.42-1.25-.27-.26-.54-.51-.79-.78-.08-.12-.16-.24-.24-.37-.31-.61-.6-1.23-.88-1.83-.56-1.22-1.09-2.54-1.52-3.91-.3-1.53-.46-3.1-.59-4.61,0-.03,0-.05.01-.08ZM62.85,63.22c-.05.07-.06.17.01.25.31.38.63.75.94,1.11.08.11.16.23.24.34-.46-.39-.94-.76-1.44-1.11-1.53-1.92-2.98-3.92-4.33-5.98,0,0,0,0,0,0,.12-.06.06-.24-.07-.22-.03,0-.05,0-.08.01-.21-.32-.4-.64-.6-.96,0-.17,0-.34-.02-.51.34.21.69.38,1.05.53.4.68.85,1.34,1.32,1.99.95,1.54,1.93,3.06,2.96,4.56ZM50.32,59.7c-.19-.13-.37-.27-.55-.42-.02-.04-.04-.08-.05-.12.19.2.39.39.6.54,0,0,0,0,0,0ZM46.35,54.48c.08.05.15.09.23.14.02.01.04,0,.06,0,.06.1.11.21.17.3.2.38.43.74.67,1.09-.16-.14-.33-.27-.51-.39-.21-.38-.42-.77-.61-1.15ZM46.12,53.57c.03.06.05.13.08.19-.09-.06-.19-.11-.28-.17-.15-.31-.28-.63-.4-.94.18.32.4.62.61.93ZM45.87,50.23s-.04-.09-.06-.13c-.09-.38-.18-.76-.26-1.16.07.27.14.54.22.81.03.16.06.33.1.49ZM43.21,44.53c0,.09,0,.19,0,.28-.35-.3-.69-.61-1.04-.9.12.04.24.08.35.12.23.18.47.33.7.5ZM44.66,52.86c-.58-.33-1.17-.64-1.76-.94-.43-.41-.86-.82-1.3-1.23.99.54,1.96,1.14,2.92,1.81.04.12.09.24.14.36ZM44.99,53.68c.06.13.12.26.18.39-.26-.25-.53-.5-.8-.76.21.12.41.25.62.37ZM50.46,39.13c-1.23-2.63-2.4-5.3-3.26-8.07,0-.02,0-.03,0-.05-.1-.91-.25-1.8-.42-2.68.24.1.49.22.75.35,2.13,8.93,5.32,17.29,9.57,25.14-.83-.99-1.46-2.21-1.96-3.47-.02-.06-.13-.04-.13.02.02.9.26,1.74.65,2.5-.11.03-.21.1-.25.21-.75-1.31-1.47-2.64-2.16-3.98-2.51-4.91-5.09-10.4-6.13-16.01.81,2.18,1.85,4.27,3.13,6.16.08.12.27-.01.21-.13ZM52.1,32.13c.12.13.3-.04.2-.17-.13-.17-.25-.34-.37-.51,1.99,1.44,4.16,3.21,6.22,5.16,3.88,4.5,6.72,9.41,6,14.66-.09.08-.15.2-.09.33.01.03.02.06.03.09-.06.36-.14.72-.24,1.08-.06-.04-.12-.1-.18-.13-.01,0-.01.01-.02.01-.02,0-.02,0-.03.01-.01.01-.02.01-.02.03,0,0-.02.01-.02.02.04.14.11.27.18.4-.25.82-.59,1.66-1.03,2.49-.06.03-.12.07-.18.11-.69.11-1.39.14-2.1.11-.32-.06-.63-.14-.91-.24-.36-.19-.69-.41-.98-.7-.03-.14-.06-.28-.11-.4-.03-.08-.13-.1-.21-.08-.72-1.28-1.4-2.58-2.07-3.89.01,0,.03.02.04,0,.06-.05-.02-.14-.08-.09,0,0,0,0,0,.01-3.46-6.84-6.21-14.03-8.4-21.64.88.46,1.89,1.07,2.98,1.8.44.51.89,1.03,1.38,1.53ZM50.38,29.23c.07.05.13.11.2.16.16.1.31.04.4-.08,1.16,1.31,2.42,2.56,3.7,3.76-1.19-.96-2.35-1.84-3.44-2.59-.3-.42-.58-.83-.86-1.25ZM67.19,49.76s-.04.04-.04.07c-.12.56-.25,1.11-.41,1.63-.1-.38-.2-.77-.3-1.15.23.03.48-.15.42-.41-.14-.58-.26-1.14-.43-1.69.14.1.28.18.42.25.14.44.26.87.34,1.3ZM64.5,54.07s0,0,0,0c0,.01-.02.03-.03.04,0-.01.02-.03.03-.04ZM65,54.58s.06,0,.09-.02c-.05.05-.1.1-.15.14.02-.04.04-.09.06-.13ZM65.28,54.28c-.05-.46-.14-.91-.24-1.35.01-.04.03-.07.05-.11.18.22.36.43.55.65.06.07.13.1.2.1-.17.28-.36.55-.57.79,0-.03.02-.05.02-.08ZM65.3,52.15c.02-.05.03-.11.04-.16.02.09.04.19.06.28-.03-.04-.07-.08-.1-.12ZM65.99,51.93c.09.11.18.21.27.32.05.06.11.08.17.1-.09.23-.19.45-.29.67-.04-.36-.09-.72-.15-1.08ZM65.62,50.44c.01-.13,0-.26,0-.39.06.2.13.4.18.61-.06-.07-.13-.15-.19-.22ZM65.5,48.05c-.03-.17-.07-.34-.11-.51.07.17.15.33.21.5-.03,0-.07,0-.1,0ZM65.73,46.46c-.18-.2-.47-.11-.59.07-.51-1.71-1.38-3.44-2.49-5.15,1.55,1.9,2.84,3.83,3.67,5.68-.2-.2-.4-.4-.59-.6ZM49.51,27.51c-.21-.18-.41-.37-.61-.54-.18-.29-.35-.59-.53-.89.24.31.49.61.74.92.13.17.26.35.4.52ZM57.42,55.01c.15.13.31.25.47.36-.15-.05-.29-.11-.44-.17,0-.06-.02-.13-.03-.19ZM56.4,56.29c-.12.35-.27.67-.49.95-.03-.02-.06-.03-.09-.02-.02,0-.04,0-.06,0,.2-.35.37-.72.46-1.14,0-.02.01-.04.02-.05.05.09.1.17.16.26ZM55.55,57.6s-.07.08-.11.11c.02-.03.03-.06.06-.09.02,0,.04-.01.05-.02ZM46.34,24.05l-.03-.03s-.07-.07-.1-.1c0-.05,0-.1-.01-.15.05.1.1.19.14.29ZM47.36,26.1c.14.17.28.34.42.51.64,1.02,1.33,2,2.08,2.95-.83-.53-1.59-.98-2.27-1.31-.17-.61-.35-1.22-.52-1.84-.01-.05-.09-.04-.08.01.13.58.27,1.16.4,1.73-.21-.1-.42-.2-.61-.28-.04-.02-.07,0-.1,0-.01-.07-.03-.15-.04-.22,0-.05,0-.11,0-.16.05-.06.1-.14.09-.25-.07-.82-.2-1.6-.38-2.38.33.41.66.83,1,1.24ZM43.46,43.52s-.04-.03-.07-.04c-.22-.08-.44-.14-.66-.22.01-.09,0-.19-.07-.27.06.06.12.11.18.17,0,0,0,0,0,0h0s.05.05.08.07c.21.19.44.04.53-.18,0,.15,0,.31,0,.46ZM39.93,41.67c.34.35.69.7,1.05,1.04-.16-.04-.32-.08-.49-.13-.01-.05-.01-.1-.05-.14-.3-.35-.58-.71-.87-1.07.12.1.23.2.35.3ZM37.46,41.28c-.04-.05-.08-.1-.11-.16.08.06.16.12.24.18-.04,0-.08-.01-.13-.02ZM41.18,43.59c.34.3.68.62,1.02.92.21.18.59.62,1,1.05,0,.39.03.78.06,1.17-.56-.5-1.13-.99-1.73-1.44-.09-.07-.17,0-.19.08-.35-.73-.78-1.43-1.27-2.07.37.09.74.18,1.11.29ZM41.43,45.56c.65.56,1.25,1.24,1.89,1.86.05.4.1.81.17,1.21-.17-.18-.3-.33-.37-.4-.37-.37-.74-.74-1.11-1.1-.15-.54-.35-1.06-.59-1.58ZM43.63,49.32c.05.24.09.47.15.71-.36-.31-.72-.6-1.11-.83-.03-.02-.08.01-.06.05.38.65.89,1.23,1.42,1.79.03.12.07.23.11.35-.75-.48-1.5-.94-2.27-1.34.63-.58.45-1.69.24-2.5.47.62.97,1.22,1.5,1.79ZM43.24,52.64c.83.87,1.67,1.73,2.51,2.59.34.63.72,1.24,1.13,1.82-.78-.87-1.54-1.74-2.54-2.38-.13-.08-.24.1-.13.19.91.74,1.65,1.67,2.39,2.58.73.88,1.58,1.59,2.35,2.41-.1.19-.21.37-.31.55-.47-.18-1.23-.93-1.46-1.12-.32-.26-.65-.52-.98-.78-1.05-2.68-3.81-5.48-6.3-7.57,1.13.54,2.25,1.11,3.35,1.71ZM48.45,60.71c-.15.23-.31.43-.46.64-.04-.03-.1-.07-.13-.09-.42-.33-.84-.65-1.25-.99-.02-.34-.08-.68-.18-1.02.69.69,1.47,1.35,2.01,1.47ZM47.24,61.34c.16.13.31.26.47.38-.3.36-.6.68-.91.96-.06-.04-.13-.08-.17-.11-.14-.08-.29-.14-.43-.21.25-.49.39-1.01.42-1.54.21.17.42.34.62.51ZM46.57,62.87c-.19.15-.38.29-.57.42-.13-.02-.26-.03-.39-.05.21-.24.37-.48.52-.73.14.13.29.26.45.37ZM47.59,63.17c.22-.24.44-.48.65-.72.06-.08.11-.14.16-.21.04.02.06.01.08.02,0,0,.01,0,.02.02-.03.09-.05.18-.08.26-.3.22-.65.5-1.04.8.07-.06.14-.12.2-.17ZM56.87,59.37c.17-.13.15-.34.04-.49.14-.2.26-.41.35-.65.1-.04.19-.08.29-.12.83,1.28,1.69,2.53,2.59,3.76-1.1-.88-2.26-1.68-3.48-2.37.07-.05.14-.08.21-.14ZM67.32,68.02c.3.23.61.45.93.67-.09.06-.18.12-.27.17-.22-.28-.45-.56-.66-.84ZM45.99,21.13c-.33-.91-.61-1.85-.84-2.83.49,1.54,1.13,2.97,1.87,4.33-.35-.49-.7-.98-1.03-1.5ZM45.28,21.76c.1.25.22.49.32.73,0,0,0,0,0,0-.12.49-.19.98-.27,1.47-.1.06-.17.17-.13.33.02.06.03.13.05.19-.03.2-.05.4-.07.6.03-1.18.05-2.36.04-3.54.02.08.05.15.07.22ZM45.36,26.11c.04.27.09.53.13.8-.32,3.79-.9,10.61-.47,17.01-.01,0-.02,0-.03-.01-.02-.35-.04-.7-.04-1.04,0-.07-.04-.1-.09-.12-.19-4.05.01-7.99.08-10.63.04-1.51.1-3.01.16-4.52.09-.49.18-.99.26-1.49ZM41.14,40.54c-.07-.07-.14-.13-.21-.19.02-.01.03-.04,0-.05.03,0,.05.01.08.02.04.07.09.15.13.23ZM40.85,40.27s0,0,0,0c0,0,0,0,.01,0,0,0,0,0-.01,0ZM39.54,40.11c.18.23.35.47.53.7-.37-.3-.73-.62-1.1-.92.18.02.35.06.53.09.01.04,0,.09.04.13ZM38.32,40.96c-.58-.42-1.15-.83-1.73-1.25.29,0,.58,0,.87.03.28.41.56.83.87,1.22ZM35.48,39.76c.39.49.75,1,1.12,1.51-.78-.49-1.55-1-2.33-1.5.4-.03.8-.04,1.19-.05,0,.02,0,.03.02.05ZM36.21,41.8c-.3-.03-.6-.07-.9-.09-.22-.3-.45-.6-.67-.91.52.34,1.04.67,1.56,1ZM34.26,41.34c-.66-.44-1.31-.91-1.94-1.4,0,0-.01,0-.02,0,.29-.03.57-.06.86-.08.38.49.75.99,1.11,1.49ZM33.53,41.58c-.09,0-.17,0-.26,0-.05-.1-.11-.19-.16-.29.14.1.28.2.42.3ZM31.92,40.39c.22.38.43.77.63,1.15-.22,0-.43-.02-.65-.02-.7-.38-1.4-.76-2.1-1.12-.13-.07-.36.01-.31.19.04.1.2.57.27.93-.23,0-.47.01-.71.02-.51-.3-1.03-.61-1.53-.93,1.44-.22,2.93-.45,4.42-.62-.09.11-.12.28-.03.41ZM30.97,41.51c-.28,0-.56,0-.85,0-.07-.3-.06-.52.23-.36.21.12.41.24.62.36ZM27.21,40.65c.44.32.89.61,1.34.9-3.75.12-7.53.48-11.29.64,2.63-.2,5.58-.97,7.67-1.23.74-.09,1.5-.2,2.28-.32ZM56.1,59.87c.69.38,1.36.8,2,1.24-.69-.39-1.37-.8-2.04-1.21.01,0,.03-.02.04-.03ZM71.44,72.24c.03.7-.6,1.34-1.05,2-.24-.04-.48-.21-.7-.5.86-.18.85-.92,1.75-1.5ZM71.57,53.41c1.18.69,1.16,2.56,2.08,3.72-1.33-.7-1.09-2.56-2.08-3.72ZM82.54,63.01c.2,1.1,1.04,2.26.63,3.31-1.2-1.18-2-2.33-.63-3.31ZM89.76,75c-.39-1.56-2.25-3.24-.68-4.65.82,1.02,1.38,3.26.68,4.65ZM81.26,69.89c-.95-1.11-1.21-2.17-1.38-3.22.66-.34.41-.76.98-1.11.9,1.51,2.44,1.55,2.92,2.45-.4.71-.89,1.41-1.5,2.11-.15-.46.08-.88-.34-1.36-.55-.22-.16.86-.68,1.13ZM80.44,70.86c.38-.44.65.47,1.02.23.13.55-.21,1.07-.57,1.59-.36-.62-.04-1.19-.45-1.82ZM79.81,73.33c-.74-1.59-1.53-3.18-.97-4.67.6-.45,1.23,1.41,1.63,1.91-1.2.3-.09,1.93-.66,2.77ZM79.87,74.38c.13.6-.44,1.15-.73,1.72-.46-.78-.54-1.14-1.02-.23-1.01-1.56-2.12-3.13-.54-4.49.91,1.02,1.09,2.84,2.29,3ZM78.44,77.53c-1.12,1.74-1.86,3.51-2.93,5.26-.24-.14-.48-.15-.75.09-.22-1.03,2.06-1.2,1.52-2.4-.47,1.06-1.03,1.22-2.07,1.77-.62-1.78-1.41-3.57.25-5.17.43,1.08.48,2.39,1.54,3.09.42-.36.96-.72.98-1.11-1.77-.87-2.33-3.44-.95-4.97.64,1.11,1.15,2.75,2.4,3.45ZM71.74,85.46c.2.6.53.98,1.09,1.27.42-.46.59-.94.7-1.43-.38-.16-.9-.03-.84-.66.02-.39.56-.75.98-1.11.38.25.78.12,1.13.68-1.06,1.65-1.3,3.36-2.61,4.99.08-1.23-1.27-2.57-.45-3.74ZM70.63,84.49c.12.31.11.6.23.91-.14.26-.74-.73-.23-.91ZM71.63,85.01c-.65.22-.41-.7-.52-.93.65-.22.41.7.52.93ZM73.4,83.22c-.54-.06-.29.47-.95.82-.18-.95-1.08-1.96-.22-2.84.76.77.03,1.64,1.18,2.02ZM68.88,87.91c-.27-.42.56-.75.39-1.16.88.96.8,3.13,1.13,4.54-1.17-.49-.14-2.87-1.52-3.38ZM67.47,90.77c-.13-.55.57-1.04.57-1.59,1.02.84,2.07,4.21,2.06,5.95-2.07-.71-.9-3.82-2.63-4.36ZM72.36,100.34c-1.61-1.28-.38-3.8-1.36-5.45,1.83-6.16,6.17-13.1,9.68-19.57,1.21-2.23,1.62-4.28,3.91-6.37.16.51.39,1.02.77,1.54.78.18,1.6-.17,2.38-.11-4.58,9.19-9.67,18.33-14.16,27.53-.44.5-.82.3-1.23.5-.09.54-.37,1.06.02,1.63.14.1.3.02.43.18,1.85-.57,1.87-3.66,3.23-5.24.94-.02.1,2.16-.8,2.61.02.89.13,1.79.68,2.72-1.42-.26-2.5.86-3.56.02ZM90.21,76.81c-.7.79-.9,1.61-1.52,2.4-.02-1.58-.67-3.22-.52-4.79.86.24.66,1.67,2.04,2.38ZM87.88,78.26c-.76-1.05-1.85-3.41-.52-4.79.53,1.03.25,3.28.52,4.79ZM88.12,80.81c-1.66,2.98-3.03,5.99-5.59,8.91-.52-1.28-.18-2.49-.45-3.74-.51-.31-.47.63-.36.86-.56,0-.63-1.23-.91-1.7.49-.51.86-1.02.86-1.57.55.05-.12,1.27.16,1.79.38.02.36-1.25.43-1.75,1.27.6.19,2.29,1.52,3.38,1.88-2.08-.18-4.46.37-6.65.5-.05-.07,1.07.77,1.54-.27.62.24,1.31.29,1.95.23.16.49,0,.73.2,1.71-2.09-.53-4.49.37-6.65.56,1.11.63,2.71,1.81,3.41ZM83.49,83.11c-.28-1.01-.62-2.03-.06-2.97.5.44.44,2.11.06,2.97ZM84.81,77.58c.24-.23.67-.44.5-.7.85.29-.06,2.94.56,4.2-1.05-.63-.72-2.43-1.06-3.49ZM80.24,88.65c.98-.68.18,3.14,1.95,1.64-.19.97-1.15,1.89-1.41,2.86-1.07-.98-.09-3.07-.54-4.49ZM79.61,91.12c-.17.41-.11-1.54-.72-2.13.75-.54.43-1.15,1.02-1.7.25,1.3-.12,2.56-.3,3.83ZM79.44,95.11c-.54.5-.32,1.06-.86,1.56-.6-1.18.18-2.26-.18-3.43.51.05.26,1.3,1.04,1.86ZM77.86,94.54c-.47.28-.12-1.37-.95-1.11.3-.67.39-1.35,1.05-1.99.14,1.05-.24,2.06-.09,3.11ZM81.43,105.8c-.36.23-.68-.16-1.04.07-.44-.38.46-.66.23-1.02.59-.22.53.71.82.95ZM83.27,105.05c-.54-.39.18-.68-.36-1.07.6-.61.89.83.36,1.07ZM82.36,105.28c-.3-.72-.36-1.41-1.02-2.16.61-.45.52-.95,1-1.41.14,1.2.39,2.4.02,3.56ZM85.9,101.7c-.59.3-.23.67-.82.97-.8-1.3-.5-2.51-1.04-3.79.68.36.69,1.93,1.86,2.82ZM84.31,103.06c-.67-.7-1.6-2.69-.75-3.77.36,1.26.71,2.53.75,3.77ZM87.6,102.72c-.13-.21.18-.38.34-.57.13.21-.18.38-.34.57ZM88.24,102.18c-.13-.21.18-.38.34-.57.13.21-.18.38-.34.57ZM95.59,101.12c-.37-.28-.03-.5.2-.73.1.26.08.5-.2.73ZM98.74,102.55c-.26-.58.09-.38.5-.7.06.39-.11.73-.5.7ZM97.5,93.7c-.05-.8.86-1.51.77-2.31.97-.26.46,1.77-.77,2.31ZM99.64,91.05c-.44-.53-.39-1.02-.18-1.5.73-.03.93,1.15.18,1.5ZM97.51,89.84c.32.33.73-.51,1.09-.66-1.51,5.66-6.02,8.71-11.67,12.74,4.08-6.31,7.75-12.65,11.57-18.98,3.39,2.05.77,4.77-.98,6.9ZM85.55,94.85c1.12.02.75,3.03,2.54,3.61-.92.57-.76,1.23-1.48,1.81-.83-1.84-.42-3.59-1.06-5.42ZM85.02,95.84c.81-.09.27,2.16.66,3.02-1.24-.5-1.36-2.18-.66-3.02ZM89.45,94.26c1.32-1.43.02-3.06-.09-4.61.88.28.84,2.89,2.34,2.41,1.11-1.54.12-3.25-.06-4.9.73.12,1.36,1.6,2.13,1.2,1.31-1.58-.37-3.39-.2-5.06.3-.18,1.47,2.16,1.99,2.97-2.35,3.57-3.91,7.21-6.77,10.74-.18-1.35-.84-2.73-.72-4.06.77-.12.55,1.37,1.38,1.29ZM88.18,89.56l.64-.54c.39.82.22,1.6.41,2.41-.97-.09-.68-1.33-1.04-1.86ZM89.89,86.73c.66-.35.41-.76.98-1.11.6,1.63.31,3.19.52,4.79-1.22-.69-1.16-2.56-1.49-3.68ZM93.02,82.67c.45,1.52.27,2.99.54,4.49-1.38-.46-2.49-3.32-.54-4.49ZM87.52,96.19c-.63-1.43-1.42-2.88-.56-4.2.9.29.91,3.02.56,4.2ZM93.73,81.24c.23-.82.44-1.65,1.23-2.43.2,1.6.19,3.18.52,4.79-1.08-.24-.94-1.65-1.74-2.36ZM96.99,83.13c-.19.38-.35.76-.68,1.13-.42-1.17-.3-2.3-.77-3.47.34-.35.49,1.67,1.45,2.34ZM88.91,85.91c-.12.87-.48,2.66-1.68,2.54-.09,1.43-.32,2.84-1.96,4.15-1.79,4.41-3.72,9.6-6.98,13.4-1.01-.89-.56-2.89-.86-4.22.41-.32.79-.63.82-.98.12-.29,0-.59-.23-.91,3.63-7.98,10.07-15.73,13.27-23.74.48-.46.89-.03,1.38-.63.82.85,1.76.32,2.61.8-2.18,3.02-3.27,7.63-6.38,9.59ZM70.16,50.48c.61,2.41,1.25,4.49,2.44,6.72,1.07,2,2.92,3.98,2.6,6.58-1.31,1.13-2.42,2.28-3.38,3.45-.17-.23-.31-.42-.44-.58-.07.05-.13.11-.21.16-.19.12-.38.25-.57.37-3.41-1.74-6.64-4.09-8.69-7.35-.08-.12-.28-.03-.21.1,1.95,3.35,5,5.79,8.38,7.6-.15.1-.31.2-.46.3-.88-.82-1.8-1.54-2.8-2.23-.1-.07-.23.08-.14.16.32.29.62.58.92.86-.66-.48-1.3-.98-1.92-1.51-.38-.85-.8-1.22-1.25-1.1-.11-.1-.21-.19-.32-.29-1.54-2.18-2.98-4.39-4.33-6.65.04,0,.08.02.12.02.92.18,1.84.16,2.72-.02-.44.17-.9.33-1.41.47-.06.02-.04.11.02.09,1.08-.28,2-.62,2.79-1.01.75-.33,1.43-.79,2.01-1.37.21-.2.39-.42.56-.63.02-.02.04-.05.06-.07.18-.23.33-.47.46-.72.06-.1.11-.19.16-.29.03-.07.06-.14.09-.22.56-1.22.8-2.68.54-4.32-.61-3.88-4.32-7.66-6.75-10.51-2.11-2.48-4.41-4.72-6.62-7-1.07-1.12-2.13-2.25-3.17-3.41-2.81-3.22-5.22-6.72-6.55-11.19-.02-.06-.11-.04-.09.02.03.1.06.19.08.29-.19-.2-.58-.11-.62.19-.02-.01-.05,0-.05.02.02.67.13,1.32.31,1.95.38,3.15.37,6.33.25,9.52-.02.12-.04.24-.07.36.02-.4.04-.79.06-1.16,0-.04-.05-.04-.06,0-.27,1.64-.59,4.55-.71,7.93,0,.02-.02.02-.02.04-.18,1.47-.32,2.9-.4,4.3,0,0,0,0,0,0-1.45-1.06-3.52-1.43-5.71-1.45-.04-.04-.08-.07-.13-.11-.16-.14-.38-.05-.5.1-3.03.05-6.2.66-8.25.93-2.68.34-5.35.75-8.02,1.13-2.02.29-4.97,1.28-7,.96-.03,0-.04.05-.01.06.7.2,1.5.27,2.35.26-1.23.04-2.45.06-3.67.04-.17,0-.19.26-.02.27.55.04,1.11.06,1.66.08-.98-.02-1.9.05-2.84.21-.16-.05-.31-.12-.47-.16-.18-.06-.28.14-.18.27-.08.03-.13.09-.16.16-.36.05-.71.1-1.06.17-.02,0-.02.04,0,.04.34-.06.68-.09,1.03-.13-.01.1.02.2.12.27,1.21.8,2.39,1.51,3.66,2.1.25.25.45.4.61.46,3.57,2.94,7.24,5.77,10.9,8.59,4.73,4.87,9.76,9.48,16.47,11.26,2.97.79,5.36.26,6.54-1.67.75-.42,1.3-.99,1.53-1.72.14-.21.26-.44.37-.69.05-.12.08-.2.12-.3.06-.12.11-.26.16-.39.3.06.59-.23.44-.54-.05-.11-.11-.21-.17-.31.03-.11.06-.21.09-.32,0-.02,0-.04,0-.06.73.48,1.52.74,2.36.74.14.06.28.14.42.2.26.1.47-.09.51-.31.17-.04.34-.1.51-.16,2.11,1.64,4.65,2.72,6.93,4.14.44.55.89,1.1,1.34,1.63.61,1.6,1.44,3.15,2.4,4.52.13.19.45-.02.34-.22-.67-1.2-1.41-2.36-2.08-3.56,1.15,1.3,2.33,2.57,3.57,3.77-3.43,3.42-7.34,7.44-11.53,7.28-2.05-3.72-5.81-4.45-9.07-5.45-2.75-.85-5.42-2.31-8.21-3.16-1.66-.5-3.52-.36-5.13-.84-1.5-.46-2.96-1.41-4.45-1.98-4.13-1.57-9.57-3.68-13.99-7.02-.43-.6.93-.11.5-.7-2.14-.84-4.12-2.32-5.87-4.61-4.74-6.2-5.35-13.4-4.86-19.51.31-3.82.7-5.57,2.39-9.75,1.15-2.85,2.48-4.66,4.25-6.94.57-.73.82-1.64,1.36-2.27,2.06-2.38,5.1-3.42,6.86-6.14,2.59-.28,5.37-2.93,7.85-1.76,1.63-1.18,3.17-1.3,4.77-2.15,4.39.28,8.65.87,13.43,2.83,4.18,1.71,8.03,2.37,11.52,6.39,6.14,7.08,10.32,14.92,11.43,22.7.62,4.35.08,8.53,1.21,13ZM69.32,34.69c-.33-1.21-1.39-3.77-1.36-5.45.61,1.83,1.4,3.67,1.36,5.45ZM66.69,26.48c-1.07-.39-.65-1.93-1.86-2.82.89-.18,1.4,2.05,1.86,2.82ZM65.02,23.23c-1.2-.69-1.52-2.59-2.67-3.77,1.6.72,1.69,2.6,2.67,3.77ZM61.82,18.53c-.84-.46-2.25-2.19-2.61-2.73,1.05.68,2.34,2.05,2.61,2.73ZM63.14,13c.26.67-.55-.27-.7-.5-.26-.67.54.27.7.5Z"/>
      <path class="cls-2" d="M96.44,92.13c-1.18,1.62-2.16,2.38-2.55,4.1,1.22-1.34,1.83-2.72,2.55-4.1Z"/>
    </g>
  </g>
</svg>