<?xml version="1.0" encoding="UTF-8"?>
<svg id="_レイヤー_2" data-name="レイヤー 2" xmlns="http://www.w3.org/2000/svg" xmlns:xlink="http://www.w3.org/1999/xlink" viewBox="0 0 959.9 144.58">
  <defs>
    <style>
      .cls-1 {
        fill: url(#_名称未設定グラデーション_45-11);
      }

      .cls-2 {
        fill: url(#_名称未設定グラデーション_45-8);
      }

      .cls-3 {
        fill: url(#_名称未設定グラデーション_45-5);
      }

      .cls-4 {
        fill: url(#_名称未設定グラデーション_45-12);
      }

      .cls-5 {
        fill: url(#_名称未設定グラデーション_45-10);
      }

      .cls-6 {
        fill: url(#_名称未設定グラデーション_45);
      }

      .cls-7 {
        fill: url(#_名称未設定グラデーション_45-6);
      }

      .cls-8 {
        fill: url(#_名称未設定グラデーション_45-9);
      }

      .cls-9 {
        fill: url(#_名称未設定グラデーション_45-3);
      }

      .cls-10 {
        fill: url(#_名称未設定グラデーション_45-4);
      }

      .cls-11 {
        fill: url(#_名称未設定グラデーション_45-7);
      }

      .cls-12 {
        fill: url(#_名称未設定グラデーション_45-2);
      }

      .cls-13 {
        fill: url(#_名称未設定グラデーション_45-13);
      }

      .cls-14 {
        fill: url(#_名称未設定グラデーション_45-14);
      }
    </style>
    <linearGradient id="_名称未設定グラデーション_45" data-name="名称未設定グラデーション 45" x1="4.93" y1="77.44" x2="1016.52" y2="175.21" gradientUnits="userSpaceOnUse">
      <stop offset="0" stop-color="#4fac00"/>
      <stop offset="1" stop-color="#5af300"/>
    </linearGradient>
    <linearGradient id="_名称未設定グラデーション_45-2" data-name="名称未設定グラデーション 45" x1="5.63" y1="70.25" x2="1017.22" y2="168.01" xlink:href="#_名称未設定グラデーション_45"/>
    <linearGradient id="_名称未設定グラデーション_45-3" data-name="名称未設定グラデーション 45" x1="6.35" y1="62.73" x2="1017.94" y2="160.5" xlink:href="#_名称未設定グラデーション_45"/>
    <linearGradient id="_名称未設定グラデーション_45-4" data-name="名称未設定グラデーション 45" x1="7.03" y1="55.73" x2="1018.62" y2="153.49" xlink:href="#_名称未設定グラデーション_45"/>
    <linearGradient id="_名称未設定グラデーション_45-5" data-name="名称未設定グラデーション 45" x1="7.61" y1="49.78" x2="1019.2" y2="147.55" xlink:href="#_名称未設定グラデーション_45"/>
    <linearGradient id="_名称未設定グラデーション_45-6" data-name="名称未設定グラデーション 45" x1="8.2" y1="43.64" x2="1019.79" y2="141.41" xlink:href="#_名称未設定グラデーション_45"/>
    <linearGradient id="_名称未設定グラデーション_45-7" data-name="名称未設定グラデーション 45" x1="8.82" y1="37.19" x2="1020.41" y2="134.96" xlink:href="#_名称未設定グラデーション_45"/>
    <linearGradient id="_名称未設定グラデーション_45-8" data-name="名称未設定グラデーション 45" x1="9.39" y1="31.33" x2="1020.98" y2="129.1" xlink:href="#_名称未設定グラデーション_45"/>
    <linearGradient id="_名称未設定グラデーション_45-9" data-name="名称未設定グラデーション 45" x1="10.12" y1="23.73" x2="1021.71" y2="121.5" xlink:href="#_名称未設定グラデーション_45"/>
    <linearGradient id="_名称未設定グラデーション_45-10" data-name="名称未設定グラデーション 45" x1="10.89" y1="15.83" x2="1022.45" y2="113.59" xlink:href="#_名称未設定グラデーション_45"/>
    <linearGradient id="_名称未設定グラデーション_45-11" data-name="名称未設定グラデーション 45" x1="11.16" y1="13.02" x2="1022.75" y2="110.79" xlink:href="#_名称未設定グラデーション_45"/>
    <linearGradient id="_名称未設定グラデーション_45-12" data-name="名称未設定グラデーション 45" x1="11.56" y1="8.87" x2="1023.15" y2="106.64" xlink:href="#_名称未設定グラデーション_45"/>
    <linearGradient id="_名称未設定グラデーション_45-13" data-name="名称未設定グラデーション 45" x1="7.72" y1="48.64" x2="1019.3" y2="146.41" xlink:href="#_名称未設定グラデーション_45"/>
    <linearGradient id="_名称未設定グラデーション_45-14" data-name="名称未設定グラデーション 45" x1="4.44" y1="97.63" x2="955.46" y2="189.54" xlink:href="#_名称未設定グラデーション_45"/>
  </defs>
  <g id="_レイヤー_2-2" data-name="レイヤー 2">
    <g>
      <g>
        <g>
          <path class="cls-6" d="M161.81,110.5c0-.33.29-.54.87-.62,5-.5,9.55-1.77,13.64-3.81,4.09-2.05,7.32-4.59,9.67-7.63,2.36-3.04,3.53-6.19,3.53-9.46,0-2.31-.51-4.29-1.52-5.92-1.01-1.63-2.32-2.86-3.94-3.69-1.61-.83-3.31-1.24-5.08-1.24-2.44,0-5,.66-7.69,1.98-2.69,1.32-4.84,2.58-6.45,3.78-1.61,1.2-3.33,2.54-5.15,4.03-.21.17-.77.62-1.67,1.36-.91.74-1.85,1.37-2.82,1.89-.97.52-1.85.78-2.64.78-1.2,0-2.42-.42-3.66-1.27-1.24-.85-2.25-1.73-3.04-2.64-.62-.58-.93-1.03-.93-1.36,0-.21.05-.34.16-.4.1-.06.3-.09.59-.09.25,0,.81.06,1.67.19s1.57.19,2.11.19c1.24,0,2.48-.3,3.72-.9,1.24-.6,2.93-1.56,5.08-2.88,2.31-1.4,4.34-2.56,6.08-3.47,1.74-.91,3.78-1.69,6.14-2.36,2.36-.66,4.92-.99,7.69-.99s5.59.64,8.09,1.92c2.5,1.28,4.5,3.08,5.98,5.39,1.49,2.32,2.23,4.94,2.23,7.87,0,2.23-.69,4.71-2.08,7.44-1.39,2.73-4.42,5.34-9.11,7.84-4.69,2.5-11.54,4.02-20.55,4.56-.62,0-.93-.16-.93-.5Z"/>
          <path class="cls-12" d="M247.74,72.43c3.51,1.45,6.45,3.76,8.8,6.94,2.36,3.18,3.53,7.23,3.53,12.15,0,5.99-1.8,10.69-5.39,14.1-3.6,3.41-7.68,5.73-12.25,6.94-4.57,1.22-8.71,1.83-12.43,1.83-.29,0-.56-.03-.81-.09s-.37-.13-.37-.22c0-.17.27-.32.81-.46.54-.14,1.07-.26,1.61-.34,6.94-1.16,12.62-3.54,17.02-7.16,4.4-3.62,6.6-8.59,6.6-14.91,0-4.59-.97-8.3-2.91-11.13-1.94-2.83-4.32-4.85-7.13-6.04-2.81-1.2-5.6-1.8-8.37-1.8-.66,0-1.14.02-1.43.06.5,1.08.91,2.4,1.24,3.97.33,1.57.5,3.02.5,4.34,0,1.57-.19,3.32-.56,5.24-.37,1.92-.93,3.83-1.67,5.74-1.32,3.51-2.86,6.59-4.62,9.24-1.76,2.65-3.46,4.67-5.11,6.08-1.65,1.41-3,2.11-4.03,2.11-1.53,0-2.97-.76-4.31-2.29-1.34-1.53-2.42-3.51-3.22-5.95-.81-2.44-1.21-4.92-1.21-7.44,0-4.55,1.21-8.58,3.63-12.09,2.42-3.51,5.56-6.22,9.42-8.12,3.86-1.9,7.88-2.85,12.06-2.85,3.55,0,7.09.72,10.6,2.17ZM233.98,72.37c-3.22.41-6.2,1.53-8.93,3.35-2.73,1.82-4.9,4.16-6.51,7.04-1.61,2.87-2.42,6.04-2.42,9.52,0,2.36.3,4.35.9,5.98.6,1.63,1.28,2.84,2.05,3.63.76.79,1.37,1.18,1.83,1.18.99,0,2.18-.74,3.56-2.23,1.38-1.49,2.72-3.22,4-5.21,2.23-3.47,3.82-6.67,4.77-9.58.95-2.91,1.43-5.9,1.43-8.96,0-1.65-.23-3.22-.68-4.71Z"/>
          <path class="cls-9" d="M289.97,101.82l-.93,1.98c-.58,1.28-.93,2.03-1.05,2.23-.12.25-.29.39-.5.43-.37.17-.87.25-1.49.25-.91,0-1.86-.19-2.85-.56-.29-.12-.37-.33-.25-.62,1.16-2.11,2.48-4.79,3.97-8.06,1.49-3.26,2.91-6.57,4.28-9.92h-6.57c-2.65.04-5.6.31-8.87.81h-.12c-.21,0-.37-.1-.5-.31l-1.12-2.17-.06-.25c0-.21.14-.31.43-.31,2.23.21,4.73.35,7.5.43h9.98c1.82-4.59,2.95-8.45,3.41-11.59.04-.29.25-.41.62-.37,4.17.95,6.26,1.7,6.26,2.23,0,.12-.21.29-.62.5l-1.18.56c-.74,2.15-1.86,5.04-3.35,8.68h22.51l1.43-2.11c.12-.16.33-.45.62-.87.29-.41.53-.72.71-.93.19-.21.36-.31.53-.31.37,0,1.31.64,2.82,1.92,1.51,1.28,2.41,2.21,2.7,2.79.12.21.12.41,0,.62-.25.46-.72.68-1.43.68h-11.35c-.83,3.64-1.81,6.84-2.95,9.61-1.14,2.77-2.55,5.21-4.25,7.32,3.8,1.24,6.91,2.6,9.33,4.09,2.42,1.49,4.15,2.9,5.21,4.25,1.05,1.34,1.58,2.55,1.58,3.63,0,.62-.19,1.12-.56,1.49-.37.37-.89.56-1.55.56-.33,0-.72-.06-1.18-.19-.17-.04-.35-.17-.56-.37-1.57-1.57-3.67-3.23-6.29-4.99-2.63-1.76-5.61-3.48-8.96-5.18-3.14,2.89-7.21,5.19-12.21,6.88-5,1.69-11.28,2.95-18.85,3.78h-.12c-.21,0-.35-.15-.43-.43v-.19c0-.29.23-.46.68-.5,6.28-1.2,11.59-2.73,15.93-4.59,4.34-1.86,7.91-4.17,10.73-6.94-3.72-1.53-7.42-2.85-11.1-3.97ZM282.71,72.49c.04,1.86-.23,3.49-.81,4.9-.58,1.41-1.32,2.44-2.23,3.1-.74.54-1.55.81-2.42.81-1.2,0-2.01-.47-2.42-1.43-.12-.33-.19-.64-.19-.93,0-.58.18-1.13.53-1.64.35-.52.82-.96,1.4-1.33,1.16-.7,2.15-1.85,2.98-3.44.83-1.59,1.22-3.3,1.18-5.12,0-.16.05-.3.16-.4.1-.1.22-.16.34-.16.33,0,.52.12.56.37.41,1.16.68,2.32.81,3.47h16.12c0-3.31-.17-6.32-.5-9.05v-.12c0-.33.19-.43.56-.31,2.36.58,4.01,1.06,4.96,1.46.95.39,1.43.73,1.43,1.02,0,.17-.19.35-.56.56l-1.05.68v5.77h17.11l1.24-1.49c.16-.16.43-.46.81-.9.37-.43.68-.65.93-.65.33,0,1.14.62,2.42,1.86,1.28,1.24,2.07,2.19,2.36,2.85.12.21.08.41-.12.62-.33.21-.99.35-1.98.43-1.03,1.2-2.22,2.43-3.56,3.69-1.34,1.26-2.59,2.28-3.75,3.07-.25.21-.48.21-.68,0-.17-.21-.23-.39-.19-.56,1.12-2.6,2-4.98,2.67-7.13h-38.07ZM296.17,87.56c-1.53,3.76-3.41,8.1-5.64,13.02,4.79.66,9.11,1.51,12.96,2.54,3.1-3.97,5.27-9.15,6.51-15.56h-13.83Z"/>
          <path class="cls-10" d="M346.76,81.54h.06c.33,0,.52.15.56.43.74,2.81,1.12,5.58,1.12,8.31s-.39,5.28-1.18,7.41c-.79,2.13-1.74,3.81-2.85,5.05-.58.62-1.21,1.11-1.89,1.46-.68.35-1.33.53-1.95.53-.83,0-1.45-.27-1.86-.81-.29-.41-.43-.89-.43-1.43,0-1.03.47-2.02,1.43-2.98,1.78-1.4,3.31-3.72,4.59-6.94,1.28-3.22,1.92-6.74,1.92-10.54,0-.33.16-.5.5-.5ZM354.76,87.87c0-4.5-.23-8.53-.68-12.09v-.12c0-.33.19-.43.56-.31,2.4.66,4.05,1.19,4.96,1.58.91.39,1.36.73,1.36,1.02,0,.17-.15.35-.43.56l-.99.68v30.5c0,.74.23,1.26.68,1.55.45.29,1.38.43,2.79.43h7.38c3.47,0,5.77-.06,6.88-.19.45-.04.8-.14,1.02-.31.23-.16.44-.41.65-.74.5-1.07,1.26-4.42,2.29-10.04.04-.29.19-.43.43-.43s.37.17.37.5l.19,10.42c.83.29,1.4.61,1.71.96.31.35.47.78.47,1.27,0,.91-.38,1.6-1.15,2.08-.77.47-2.16.82-4.19,1.02-2.03.21-5,.31-8.93.31h-7.81c-2.03,0-3.58-.15-4.65-.46-1.08-.31-1.83-.85-2.26-1.61-.43-.77-.65-1.91-.65-3.44v-23.13ZM356.18,62.88c4.26.7,7.73,1.68,10.42,2.94,2.69,1.26,4.61,2.6,5.77,4.03,1.16,1.43,1.74,2.76,1.74,4,0,.79-.23,1.45-.68,1.98-.46.54-1.03.81-1.74.81-.46,0-.91-.12-1.36-.37-.21-.04-.37-.19-.5-.43-1.12-1.9-2.89-3.97-5.33-6.2-2.44-2.23-5.31-4.15-8.62-5.77-.25-.12-.35-.33-.31-.62.12-.29.33-.41.62-.37ZM380.86,81.17c.16-.21.39-.23.68-.06,4.34,2.4,7.5,5.11,9.49,8.12,1.98,3.02,2.98,5.89,2.98,8.62,0,1.57-.3,2.87-.9,3.91-.6,1.03-1.31,1.55-2.14,1.55-.66,0-1.32-.35-1.98-1.05-.12-.21-.19-.37-.19-.5-.12-3.31-.81-6.8-2.05-10.48-1.24-3.68-3.16-6.84-5.77-9.49-.25-.17-.29-.37-.12-.62Z"/>
          <path class="cls-3" d="M411.02,96.89c-2.21,2.01-4.54,3.75-6.98,5.24-.25.17-.48.15-.68-.06-.25-.25-.25-.5,0-.74,2.56-2.44,4.93-5.33,7.1-8.68,2.17-3.35,3.9-6.72,5.18-10.11-.46-1.98-1.01-3.91-1.67-5.77-3.1,2.94-6.26,5.35-9.49,7.25-.29.17-.52.12-.68-.12-.21-.29-.19-.52.06-.68,3.06-2.69,5.93-5.93,8.62-9.73-1.74-3.18-4.05-6.12-6.94-8.8-.25-.25-.25-.5,0-.74l.12-.12c.21-.21.43-.23.68-.06,3.06,2.03,5.68,4.4,7.87,7.13.91-1.4,1.77-2.95,2.57-4.65.81-1.69,1.42-3.24,1.83-4.65.04-.33.27-.43.68-.31,3.8,1.98,5.7,3.25,5.7,3.78,0,.12-.21.23-.62.31l-1.18.19c-1.61,2.77-3.84,5.66-6.7,8.68,1.69,2.89,2.88,6.05,3.57,9.46.68,3.41,1.06,7.22,1.15,11.44v2.29c0,9.01-1.22,15.23-3.66,18.66-1.08,1.61-3.12,2.46-6.14,2.54-.33,0-.5-.17-.5-.5-.04-1.41-.39-2.38-1.05-2.91-.83-.7-2.19-1.26-4.09-1.67-.29-.12-.43-.31-.43-.56v-.06c0-.37.16-.52.5-.43,2.6.25,4.77.37,6.51.37.87,0,1.51-.31,1.92-.93.83-1.2,1.44-3.33,1.83-6.39.39-3.06.59-6.51.59-10.35,0-1.98-.04-3.45-.12-4.4-1.49,2.07-3.34,4.1-5.55,6.11ZM452.16,72.3c.16-.21.4-.52.71-.93.31-.41.59-.62.84-.62.33,0,1.16.55,2.48,1.64,1.32,1.1,2.15,1.95,2.48,2.57.12.21.08.41-.12.62-.54.5-1.28.83-2.23.99v6.26c.12,5.21.27,9.11.43,11.72,0,.25-.08.46-.25.62-.37.37-.99.71-1.86,1.02-.87.31-1.63.47-2.29.47-.5,0-.79-.31-.87-.93l.06-.62s.04-.14.12-.56v-1.05h-9.18v15.93l9.61-1.12c-1.28-2.89-2.77-5.64-4.46-8.25-.21-.33-.17-.56.12-.68.29-.12.52-.1.68.06,3.76,2.44,6.51,4.99,8.25,7.66,1.74,2.67,2.6,5.07,2.6,7.22,0,1.16-.24,2.09-.71,2.79-.48.7-1.08,1.05-1.83,1.05-.62,0-1.26-.27-1.92-.81-.17-.17-.25-.37-.25-.62-.17-1.86-.81-4.26-1.92-7.19-10.79,2.89-19.84,5.21-27.16,6.94-.33.58-.72.97-1.18,1.18-.04.04-.12.06-.25.06-.17,0-.29-.12-.37-.37l-1.74-5.39-.06-.25c0-.16.14-.29.43-.37,2.85-.16,8.08-.66,15.69-1.49v-16.37h-8.74v1.18c.04.41.06.74.06.99s.02.46.06.62v.31c0,.12-.02.23-.06.31-.29.37-.8.71-1.52,1.02-.72.31-1.48.46-2.26.46-.33,0-.6-.12-.81-.37-.21-.25-.31-.54-.31-.87.16-2.02.31-4.79.43-8.31v-4.77c0-4.88-.23-8.89-.68-12.03v-.12c0-.29.16-.37.5-.25l4.96,2.17h8.37c0-4.38-.23-8.33-.68-11.84v-.12c0-.33.19-.43.56-.31,2.27.62,3.83,1.12,4.68,1.49.85.37,1.27.7,1.27.99,0,.17-.15.35-.43.56l-.93.62v8.62h8.62l1.05-1.55ZM429.28,75.71v16.06h8.74v-16.06h-8.74ZM451.66,91.77v-16.06h-9.18v16.06h9.18Z"/>
          <path class="cls-7" d="M510.93,70.51c.12-.12.3-.35.53-.68.23-.33.42-.57.59-.71.16-.14.33-.22.5-.22.37,0,1.25.56,2.64,1.67,1.38,1.12,2.26,1.98,2.64,2.6.12.17.08.35-.12.56-.58.5-1.36.87-2.36,1.12v26.85c.08,5.17.25,9.9.5,14.2,0,.25-.08.45-.25.62-.5.45-1.18.88-2.05,1.27-.87.39-1.67.59-2.42.59-.46,0-.77-.31-.93-.93,0-.25.02-.46.06-.62.04-.12.07-.29.09-.5.02-.21.05-.48.09-.81v-1.43h-27.16v2.48c0,.37-.42.78-1.27,1.24-.85.45-1.77.68-2.76.68-.41,0-.77-.12-1.08-.37-.31-.25-.47-.54-.47-.87.16-2.44.31-4.81.43-7.1s.21-5.3.25-9.02v-19.16c0-4.88-.23-8.89-.68-12.03v-.12c0-.16.04-.27.12-.31.08-.04.21-.02.37.06l5.52,2.48h7.69c.5-1.57.88-3.32,1.15-5.24.27-1.92.38-3.65.34-5.18,0-.37.19-.52.56-.43l7.38,1.55c.16.04.29.11.37.22.08.1.08.24,0,.4-.41.58-1.05.89-1.92.93-1.82,2.89-3.74,5.48-5.77,7.75h16.24l1.18-1.55ZM510.44,85.2v-11.41h-27.16v11.41h27.16ZM510.44,98.53v-11.59h-27.16v11.59h27.16ZM483.28,100.39v11.84h27.16v-11.84h-27.16Z"/>
          <path class="cls-11" d="M541.25,84.83c-2.36,3.35-4.65,6.12-6.88,8.31-.21.21-.43.21-.68,0h-.06c-.29-.21-.33-.43-.12-.68,3.31-5.08,6.2-11.14,8.68-18.17.7-1.94,1.34-4.13,1.92-6.57.58-2.44.93-4.5,1.05-6.2.08-.37.29-.5.62-.37,2.52.79,4.28,1.41,5.27,1.86.99.46,1.49.81,1.49,1.05,0,.17-.19.33-.56.5l-1.12.5c-1.78,4.96-3.62,9.24-5.52,12.83l1.92.74c.16.08.27.18.31.28.04.1,0,.22-.12.34-.33.33-.83.56-1.49.68v22.2c.08,5.17.25,9.9.5,14.2,0,.25-.08.45-.25.62-.41.41-1.01.8-1.8,1.15-.79.35-1.55.53-2.29.53-.41,0-.78-.12-1.08-.37-.31-.25-.47-.54-.47-.87.16-2.44.31-4.81.43-7.1s.21-5.3.25-9.02v-16.43ZM581.74,89.66c.12-.17.33-.45.62-.87.29-.41.53-.72.71-.93.19-.21.36-.31.53-.31.33,0,1.24.62,2.73,1.86,1.49,1.24,2.4,2.17,2.73,2.79.04.08.06.19.06.31,0,.29-.16.53-.47.71-.31.19-.69.28-1.15.28h-15.69c1.86,3.35,4.41,6.44,7.66,9.27,3.24,2.83,6.58,5.01,10.01,6.54.25.12.37.27.37.43s-.04.29-.12.37-.19.15-.31.19c-1.7.37-2.85,1.55-3.47,3.53-.04.21-.11.33-.22.37-.1.04-.24,0-.4-.12-2.89-2.15-5.56-4.84-8-8.06-2.44-3.22-4.46-6.82-6.08-10.79v7.32c.08,5.13.25,9.78.5,13.95,0,.25-.08.45-.25.62-.37.41-.94.78-1.71,1.12-.77.33-1.6.5-2.51.5-.37,0-.67-.12-.9-.37-.23-.25-.34-.54-.34-.87.25-3.84.41-7.69.5-11.53v-6.45c-4.22,6.32-10.11,11.47-17.67,15.44-.29.12-.52.06-.68-.19v-.06c-.17-.29-.15-.52.06-.68,3.47-2.6,6.56-5.69,9.27-9.27,2.71-3.57,4.85-7.33,6.42-11.25h-5.08c-2.65.04-5.6.31-8.87.81h-.19c-.17,0-.31-.1-.43-.31l-1.05-2.17s-.06-.12-.06-.25c0-.21.14-.31.43-.31,2.27.21,4.79.35,7.56.43h10.29v-8.62h-7.07v2.23c0,.29-.43.63-1.3,1.02-.87.39-1.76.59-2.67.59-.33,0-.59-.12-.77-.37-.19-.25-.28-.54-.28-.87.16-1.78.29-4.01.37-6.7v-3.97c0-4.59-.21-8.41-.62-11.47v-.12c0-.17.04-.27.12-.31.08-.04.21-.02.37.06l5.15,2.29h18.1l1.12-1.43c.12-.12.3-.33.53-.62.23-.29.42-.51.59-.65.16-.14.33-.22.5-.22.37,0,1.24.53,2.6,1.58,1.36,1.05,2.21,1.87,2.54,2.45.12.17.08.35-.12.56-.62.54-1.41.89-2.36,1.05v5.46c.12,4.42.25,7.81.37,10.17,0,.25-.08.46-.25.62-.37.37-.98.71-1.83,1.02-.85.31-1.6.46-2.26.46h-.25c-.33,0-.5-.16-.5-.5v-2.36h-7.38v8.62h9.05l1.43-2.05ZM578.64,67.28h-19.16v13.95h19.16v-13.95Z"/>
          <path class="cls-2" d="M606.79,75.34c-2.11.04-4.2.29-6.26.74-.33.08-.54,0-.62-.25l-1.05-2.17s-.06-.12-.06-.25c0-.21.14-.31.43-.31,2.27.21,4.79.35,7.56.43h8.62l1.18-1.74c.12-.16.3-.42.53-.77.23-.35.42-.61.59-.77.16-.16.33-.25.5-.25.33,0,1.14.53,2.42,1.58,1.28,1.05,2.07,1.87,2.36,2.45.04.21.04.39,0,.56-.25.5-.74.74-1.49.74h-14.69ZM606.23,114.28l.19,2.17.06.25c0,.37-.43.77-1.3,1.21-.87.43-1.76.65-2.67.65-.29,0-.53-.12-.71-.37-.19-.25-.28-.54-.28-.87.16-1.65.29-3.8.37-6.45v-3.84c0-4.42-.21-8.14-.62-11.16v-.12c0-.16.04-.27.12-.31.08-.04.21-.02.37.06l4.71,2.11h7.25l1.05-1.3c.08-.12.23-.32.43-.59.21-.27.39-.47.56-.59.16-.12.33-.19.5-.19.37,0,1.17.47,2.39,1.4,1.22.93,1.99,1.69,2.32,2.26.12.17.08.35-.12.56-.58.5-1.32.83-2.23.99v4.9c.12,3.97.25,6.99.37,9.05,0,.25-.06.45-.19.62-.37.37-.94.72-1.71,1.05-.77.33-1.46.5-2.08.5-.5,0-.83-.31-.99-.93,0-.08.04-.29.12-.62,0-.04.04-.27.12-.68v-1.18h-8.06v1.43ZM613.36,64c.16-.21.34-.45.53-.74.19-.29.38-.54.59-.74.21-.21.39-.31.56-.31.33,0,1.13.54,2.39,1.61,1.26,1.08,2.04,1.9,2.33,2.48l.06.25c0,.33-.16.58-.47.74-.31.17-.69.25-1.15.25h-6.14c-2.65.04-5.6.31-8.87.81h-.19c-.17,0-.31-.1-.43-.31l-1.05-2.11s-.06-.12-.06-.25c0-.21.14-.31.43-.31,2.02.21,4.28.35,6.76.43h3.53l1.18-1.8ZM614.1,79.87c.12-.16.3-.4.53-.71.23-.31.42-.55.59-.71.16-.16.33-.25.5-.25.41,0,1.24.58,2.48,1.74,1.24,1.16,1.86,1.96,1.86,2.42-.04.66-.56.99-1.55.99h-6.39c-2.65.04-5.6.31-8.87.81h-.19c-.17,0-.31-.1-.43-.31l-1.05-2.23s-.06-.12-.06-.25c0-.21.14-.31.43-.31,2.19.21,4.61.35,7.25.43h3.72l1.18-1.61ZM614.1,87.8c.12-.16.3-.4.53-.71.23-.31.42-.55.59-.71.16-.16.33-.25.5-.25.41,0,1.24.58,2.48,1.74,1.24,1.16,1.86,1.96,1.86,2.42-.04.66-.56.99-1.55.99h-6.39c-2.65.04-5.6.31-8.87.81h-.19c-.17,0-.31-.1-.43-.31l-1.05-2.17s-.06-.12-.06-.25c0-.21.14-.31.43-.31,2.19.21,4.61.35,7.25.43h3.72l1.18-1.67ZM606.23,99.34v11.72h8.06v-11.72h-8.06ZM646.34,86.32c.12-.16.31-.44.56-.84.25-.39.47-.68.65-.87.19-.19.36-.28.53-.28.33,0,1.15.59,2.45,1.77,1.3,1.18,2.1,2.08,2.39,2.7.04.21.02.41-.06.62-.25.46-.72.68-1.43.68h-10.91v23.68h5.77l1.36-1.98c.16-.21.38-.51.65-.9.27-.39.5-.68.68-.87s.36-.28.53-.28c.33,0,1.21.61,2.64,1.83,1.43,1.22,2.28,2.14,2.57,2.76.04.08.06.19.06.31,0,.29-.15.53-.46.71s-.67.28-1.08.28h-22.88c-2.65.04-5.6.31-8.87.81h-.19c-.17,0-.31-.1-.43-.31l-1.05-2.17-.06-.25c0-.25.16-.33.5-.25.7.12,1.74.23,3.1.31h1.67v-21.2c0-4.5-.23-8.53-.68-12.09v-.12c0-.33.19-.43.56-.31,2.27.58,3.85,1.06,4.74,1.46.89.39,1.33.73,1.33,1.02,0,.17-.17.35-.5.56l-1.05.68v30.01h6.45v-44.89h-4.28c-2.52.08-4.94.35-7.25.81h-.19c-.17,0-.31-.1-.43-.31l-1.05-2.11s-.06-.12-.06-.25c0-.21.14-.31.43-.31,2.27.21,4.79.35,7.56.43h14.76l1.3-1.98c.16-.21.38-.5.65-.87.27-.37.49-.65.65-.84.16-.19.33-.28.5-.28.37,0,1.24.58,2.6,1.74,1.36,1.16,2.19,2.05,2.48,2.67.04.08.06.19.06.31,0,.29-.16.53-.47.71-.31.19-.67.28-1.08.28h-11.53v19.34h4.59l1.24-1.92Z"/>
          <path class="cls-8" d="M711.75,79.37c1.12.95,1.67,2.19,1.67,3.72,0,1.98-.86,3.65-2.57,4.99-1.72,1.34-3.98,2.59-6.79,3.75l-2.85,1.05c-.7.29-1.84.72-3.41,1.3-1.57.58-2.94,1.12-4.09,1.61-.12,1.08-.15,2.32-.06,3.72,0,.37,0,1.12.03,2.23.02,1.12,0,1.84-.03,2.17-.04.74-.32,1.41-.84,1.98-.52.58-1.11.87-1.77.87-.62,0-1.17-.27-1.64-.81-.48-.54-.71-1.16-.71-1.86,0-.54.1-1.67.31-3.41l.25-2.79c-4.96,2.65-7.44,5.46-7.44,8.43s2.95,4.53,8.87,4.53c1.2,0,2.28-.08,3.26-.25.97-.16,2.04-.39,3.19-.68.21-.04.72-.16,1.55-.34.83-.19,1.61-.28,2.36-.28.91,0,1.61.19,2.11.56.5.37.74.89.74,1.55,0,1.41-1.19,2.4-3.56,2.98-2.38.58-4.93.87-7.66.87-4.8,0-8.19-.75-10.2-2.26-2.01-1.51-3.01-3.46-3.01-5.86,0-2.27.87-4.3,2.6-6.08,1.74-1.78,4.17-3.53,7.32-5.27.04-.45.06-1.09.06-1.92,0-2.19-.35-3.84-1.05-4.96-.7-1.12-1.53-1.67-2.48-1.67-1.32,0-2.63.73-3.94,2.2-1.3,1.47-2.7,3.32-4.18,5.55l-.68,1.05c-.12.17-.43.62-.93,1.36-.5.74-.97,1.32-1.43,1.74-.46.41-.87.62-1.24.62-.79,0-1.4-.31-1.83-.93-.43-.62-.65-1.38-.65-2.29,0-1.2.52-2.29,1.55-3.29l.93-.87c1.16-1.07,2.16-2.06,3.01-2.94.85-.89,1.64-1.89,2.39-3.01,1.98-3.06,3.64-6.57,4.96-10.54-1.86.37-3.43.56-4.71.56-1.41,0-2.61-.28-3.63-.84-1.01-.56-2.22-1.46-3.63-2.7-.17-.16-.25-.31-.25-.43s.1-.19.31-.19c.16,0,.45.06.87.19,1.49.54,3,.81,4.53.81.83,0,1.91-.09,3.26-.28,1.34-.19,2.76-.53,4.25-1.02.25-1.2.37-2.21.37-3.04,0-1.74-.66-3.06-1.98-3.97-.33-.21-.5-.41-.5-.62.04-.37.16-.67.37-.9.21-.23.5-.34.87-.34.58,0,1.4.12,2.45.37s1.75.56,2.08.93c.29.33.43.85.43,1.55,0,.25-.04.66-.12,1.24.78.41,1.67.62,2.67.62.54,0,.99-.06,1.36-.19.5-.08.93-.12,1.3-.12.99,0,1.49.39,1.49,1.18,0,.7-.34,1.43-1.02,2.17-.68.74-1.56,1.43-2.64,2.05-1.61.87-3.37,1.59-5.27,2.17-1.28,3.93-2.73,7.61-4.34,11.04,1.16-.62,2.25-.93,3.29-.93,3.76,0,6.12,1.98,7.07,5.95.66-1.69,1.4-3.17,2.23-4.43.83-1.26,1.82-2.51,2.98-3.75,1.24-1.32,2.76-2.49,4.56-3.5,1.8-1.01,3.59-1.52,5.36-1.52,1.49,0,2.79.48,3.91,1.43ZM688.01,70.69c.78-.45,1.24-.72,1.36-.81.29-.16.43-.33.43-.5s-.17-.35-.5-.56l-.68-.43-.62,2.29ZM707.19,85.29c1.14-1.3,1.71-2.43,1.71-3.38,0-1.28-.81-1.92-2.42-1.92-1.08,0-2.29.36-3.66,1.08-1.36.72-2.65,1.73-3.84,3.01-1.08,1.16-2.07,2.59-2.98,4.31-.91,1.72-1.55,3.38-1.92,4.99l.74-.37,1.36-.68c2.6-1.28,4.75-2.42,6.45-3.41,1.9-1.12,3.42-2.33,4.56-3.63Z"/>
          <path class="cls-5" d="M735.62,113.91c0-.25.41-.6,1.24-1.05,7.44-3.84,13.63-8.32,18.57-13.42,4.94-5.1,8.59-9.83,10.94-14.17,2.36-4.34,3.57-7.23,3.66-8.68,0-.33-.19-.5-.56-.5s-2.08.21-5.12.62c-3.04.41-6.28.95-9.73,1.61-3.45.66-6.33,1.34-8.65,2.05-.91.29-1.76.43-2.54.43-1.28,0-2.4-.37-3.35-1.12-.74-.62-1.39-1.47-1.92-2.54-.54-1.07-.81-1.94-.81-2.6,0-.45.19-.68.56-.68s.85.17,1.43.5c.91.37,1.67.62,2.29.74.62.12,1.3.19,2.05.19,1.28,0,5.01-.25,11.19-.74,6.18-.5,9.93-.93,11.25-1.3.74-.21,1.49-.5,2.23-.87,1.49-.58,2.44-.87,2.85-.87.45,0,1.2.33,2.23.99,1.03.66,1.96,1.43,2.79,2.29.83.87,1.24,1.59,1.24,2.17,0,.46-.12.87-.37,1.24s-.66.87-1.24,1.49c-1.08,1.16-1.84,2.17-2.29,3.04-2.77,5.42-5.91,10.02-9.42,13.83-3.51,3.8-7.42,7.03-11.72,9.67-4.3,2.65-9.4,5.21-15.31,7.69-.5.21-.85.31-1.05.31-.29,0-.43-.1-.43-.31ZM776.48,72.02c-1.16-1.14-1.74-2.53-1.74-4.19s.58-3.05,1.74-4.19c1.16-1.14,2.56-1.71,4.22-1.71s3.05.58,4.19,1.74c1.14,1.16,1.7,2.54,1.7,4.15s-.58,3.05-1.74,4.19c-1.16,1.14-2.54,1.71-4.15,1.71s-3.06-.57-4.22-1.71ZM783.67,70.82c.83-.83,1.24-1.82,1.24-2.98s-.41-2.16-1.24-3.01c-.83-.85-1.82-1.27-2.98-1.27s-2.15.42-2.98,1.27c-.83.85-1.24,1.85-1.24,3.01s.41,2.15,1.24,2.98c.83.83,1.82,1.24,2.98,1.24s2.15-.41,2.98-1.24Z"/>
          <path class="cls-1" d="M800.04,114.65c0-.12.16-.27.5-.43,7.6-3.35,14.05-7.41,19.34-12.18,5.29-4.77,9.69-10.84,13.21-18.2.25-.66.37-1.01.37-1.05,0-.33-.25-.5-.74-.5-.54,0-3.04.42-7.5,1.27-4.46.85-7.69,1.54-9.67,2.08-.99.25-1.74.5-2.23.74s-.89.48-1.18.68c-.29.21-.5.35-.62.43-.5.29-1.05.43-1.67.43-.99,0-2.06-.35-3.19-1.05-1.14-.7-2.1-1.57-2.88-2.6-.41-.54-.62-1.24-.62-2.11,0-.33.04-.61.12-.84.08-.23.21-.34.37-.34.08,0,.26.08.53.25.27.17.53.31.77.43.54.25,1.28.48,2.23.68.95.21,2.05.31,3.29.31.41,0,1.12-.04,2.11-.12,1.16-.12,4.43-.62,9.83-1.49s8.52-1.4,9.39-1.61c.45-.12,1.09-.45,1.92-.99.12-.08.33-.21.62-.37.29-.16.54-.25.74-.25.58,0,1.37.32,2.39.96,1.01.64,1.91,1.36,2.7,2.17.78.81,1.18,1.46,1.18,1.95,0,.29-.12.58-.37.87-.25.29-.64.66-1.18,1.12-1.2.95-2.07,1.88-2.6,2.79-3.93,6.9-8.69,12.52-14.29,16.86-5.6,4.34-12.97,7.77-22.1,10.29l-.43.06c-.21,0-.31-.08-.31-.25ZM810.21,72.68c-1.24-.91-2.09-1.84-2.54-2.79-.12-.25-.19-.47-.19-.68,0-.08.04-.16.12-.25.08-.08.16-.12.25-.12.16,0,.43.07.81.22.37.15.72.26,1.05.34,1.2.33,2.31.5,3.35.5.83,0,1.65-.08,2.48-.25,4.42-.66,7.63-1.26,9.61-1.8.7-.16,1.24-.41,1.61-.74.37-.21.7-.36.99-.46.29-.1.68-.16,1.18-.16.91,0,1.85.23,2.82.68.97.46,1.77,1,2.39,1.64.62.64.93,1.23.93,1.77,0,.46-.18.77-.53.93-.35.17-1.02.25-2.01.25-.7,0-1.3-.02-1.8-.06-1.41-.08-2.63-.12-3.66-.12-1.74,0-3.84.17-6.32.5-2.48.33-4.26.68-5.33,1.05-1.12.33-2.03.5-2.73.5-.83,0-1.65-.31-2.48-.93Z"/>
          <path class="cls-4" d="M901.69,98.25c3.53,2.58,5.3,5.09,5.3,7.53,0,.91-.28,1.67-.84,2.29-.56.62-1.17.93-1.83.93s-1.31-.28-1.95-.84c-.64-.56-1.21-1.33-1.71-2.33-1.41-2.81-3.07-5.35-4.99-7.63-1.92-2.27-3.96-4.07-6.11-5.39-7.77,8.76-16.74,15.23-26.91,19.41-.21.08-.39.12-.56.12-.25,0-.37-.1-.37-.31s.23-.41.68-.62c4.46-2.4,8.87-5.64,13.21-9.73,4.34-4.09,8.07-8.25,11.19-12.46,3.12-4.22,5.2-7.65,6.23-10.29.08-.41.12-.64.12-.68,0-.21-.19-.31-.56-.31-.74,0-2.9.49-6.48,1.46-3.58.97-6.04,1.77-7.41,2.39-.25.12-.6.3-1.05.53-.46.23-.89.34-1.3.34-1.03,0-2.03-.37-2.98-1.12-.95-.74-1.7-1.61-2.26-2.6-.56-.99-.84-1.82-.84-2.48,0-.58.14-.87.43-.87.12,0,.37.15.74.43.37.29.78.54,1.24.74.78.33,1.71.5,2.79.5.87,0,3.57-.36,8.12-1.08,4.55-.72,7.4-1.25,8.56-1.58.41-.12,1.14-.43,2.17-.93.7-.41,1.18-.62,1.43-.62.5,0,1.2.29,2.11.87.91.58,1.73,1.25,2.45,2.01.72.77,1.08,1.42,1.08,1.95,0,.29-.13.57-.4.84-.27.27-.67.59-1.21.96-.33.25-.67.52-1.02.81-.35.29-.61.58-.77.87-2.4,3.8-4.96,7.34-7.69,10.6,4.05,1.61,7.84,3.71,11.38,6.29Z"/>
        </g>
        <path class="cls-13" d="M106.48,71.74c6.36,2.64,11.27,3.96,14.72,3.96s6.22-.93,8.31-2.8c2.63-2.64,3.95-5.83,3.95-9.57,0-1.21-.14-2.5-.41-3.88-.27-1.37.04-2.06.95-2.06s1.59.55,2.04,1.65c1.73,3.74,2.59,7.09,2.59,10.06,0,7.48-5.54,11.21-16.63,11.21-4.73,0-10.63-1.32-17.72-3.96-3.45,7.81-5.64,16.27-6.54,25.4-.09,1.32-.14,3.13-.14,5.44s.55,4.67,1.64,7.09c.18.66.27,1.15.27,1.48,0,1.98-.73,2.97-2.18,2.97-1,0-1.73-.33-2.18-.99-1.27-3.3-1.91-7.26-1.91-11.87,0-8.35,2.04-18.74,6.13-31.17-7-2.42-13.11-3.63-18.33-3.63s-13.34,2.75-24.33,8.25c-1.09.44-2,.11-2.73-.99-.73-1.1-1.09-2.47-1.09-4.12,0-2.86,1-4.67,3-5.44,1.36-.66,3.91-1.43,7.63-2.31,4.91-3.19,12.38-9.12,22.42-17.81,10.04-8.68,16.42-14.13,19.15-16.33,17.45-13.3,27.81-22.92,31.08-28.86l1.23-2.31c.45-.77,1.23-1.15,2.32-1.15,3.09,0,4.63,1.05,4.63,3.13,0,.11-8.09,14.24-24.26,42.38-5.27,9.46-9.81,18.2-13.63,26.22ZM82.63,63.99c4.82,0,11.04,1.76,18.67,5.28,4-10.55,11.49-25.34,22.49-44.36l3.14-5.61c-5.72,4.29-14.93,11.93-27.6,22.92-12.68,11-21.38,18.53-26.1,22.59,3.73-.55,6.86-.82,9.41-.82Z"/>
      </g>
      <polygon class="cls-14" points="0 143.58 119.99 143.1 239.98 142.82 479.95 142.59 719.93 142.81 839.91 143.09 959.9 143.58 839.91 144.07 719.93 144.35 479.95 144.58 239.98 144.35 119.99 144.07 0 143.58"/>
    </g>
  </g>
</svg>