<?xml version="1.0" encoding="UTF-8"?>
<svg id="_レイヤー_2" data-name="レイヤー 2" xmlns="http://www.w3.org/2000/svg" viewBox="0 0 198.86 128.63">
  <defs>
    <style>
      .cls-1 {
        opacity: .25;
      }

      .cls-2 {
        fill: #515266;
        fill-rule: evenodd;
      }
    </style>
  </defs>
  <g id="_レイヤー_2-2" data-name="レイヤー 2">
    <g class="cls-1">
      <path class="cls-2" d="M187.06,16.44c2.02,3.57,2.92,10.29.63,13.86-.04,4.97-2.32,15.12,1.27,19.99-.19,3.33,1.32,6.99,2.22,10.96,1.62,7.2,3.72,14.29,5.39,21.92.77,3.55,2.66,8.74,2.22,11.28-.3,1.74-2.47,3.15-3.49,4.84-1.13,1.87-1.49,3.97-3.49,4.51-2.94-1.52-6.16-2.76-9.19-4.19.08-13.79-4.45-28.8-6.98-42.88-8.25,14.46-14.6,30.51-22.19,45.45-1.24,2.43-2.74,4.94-3.81,7.42-1.95,4.57-2.43,9.79-6.34,12.57-.42,2.79-2.04,4.37-3.17,6.44-21.51-2.45-39.41-10.24-58.33-15.47-13.06-3.61-26.07-6.01-39-10.96-4-1.53-7.69-3.81-11.73-4.83-4.49-1.14-8.99-1.92-13.32-3.22-5.89-1.77-11.27-3.68-17.75-5.48-.19-3.58,1.57-3.74.95-6.45,6.07-9.68,11.77-19.39,17.75-29.01,1.12-1.79,2.96-3.1,4.12-4.83,1.75-2.6,2.91-5.54,4.76-8.06,3.55-4.85,7.02-9.92,10.78-14.83,1.96-2.56,2.85-5.17,4.44-8.06,2.73-4.97,7.17-8.93,9.19-15.15,1.63-.69,2.88.31,3.49-2.26,15.86.57,33.78,4.84,51.04,6.13,13.71,1.02,27.55,5.13,41.21,6.13,8.01.58,16.14.86,23.78,1.93,4.65.65,9.96,1.98,15.53,2.26ZM59.62,2.9c.21.21-.13-.14,0,0h0ZM68.18,2.58c-.25.07-.62,0-.63.32.25-.07.63,0,.63-.32ZM53.28,4.19c.21.21-.13-.14,0,0h0ZM8.89,75.44c1.22.59,1.2,2.44,1.59,3.87,16.89,7.32,35.61,12.41,54.53,17.08,6.02,1.49,11.69,4.54,17.75,6.13,4.29,1.12,8.52,2.03,12.68,3.22,12.48,3.59,25.24,6.57,37.73,10.32,4.77-4.99,7.74-11.54,11.41-17.41,1.26-2,3.11-3.86,4.12-5.8,1.16-2.22,1.75-4.83,2.85-7.09,4.5-9.25,10.32-17.95,14.58-27.4,2.11-4.68,3.95-8.2,6.02-12.57,2.87-6.06,6.17-11.36,9.19-16.76,1.51-2.68,4.11-5.08,4.12-8.38C144.5,12.52,98.24,11.37,57.08,4.19,39.75,26.65,24.93,51.67,8.89,75.44ZM52.96,4.83c-.87.98.96-.88,0,0h0ZM88.15,7.42c.21.21-.13-.14,0,0h0ZM185.16,26.11c-9.98,14.23-16.66,31.92-25.36,47.07-2.96,5.16-5.89,10.6-7.61,16.12,7.51-14.08,15.6-27.67,22.51-41.91,2.34-4.82,5.96-9.25,6.98-14.83,2.15-2.22,3.3-5.46,5.07-8.06-.05-.38.06-.92-.32-.97-.6.68-.91,1.65-1.27,2.58ZM182.94,46.42c0-.47.12-2.64-.32-1.61,0,.47-.12,2.64.32,1.61ZM184.53,45.13c.21.21-.13-.13,0,0h0ZM184.21,57.71c.09-3.59,1.47-9.22,0-12.25.1,4.36-1.33,9.43,0,12.25ZM182.31,48.36c.21.21-.13-.13,0,0h0ZM179.77,49c.36,1.27.36-1.27,0,0h0ZM182.94,51.26c.21.21-.13-.13,0,0h0ZM182.31,52.55c.21.21-.13-.14,0,0h0ZM184.84,95.1c-.01.34.15.82.32.32,1.93-1.5.48,2.14,1.59,1.93.6.14.8.7,1.59.65-.22-.87.66-.62.95-.97-2.6-7.6-1.48-16.81-5.07-23.21.96-7.44-2.36-15.49-5.39-20.96-.08,14.7,4.51,29.15,6.03,42.23ZM185.79,61.25c.32-2.46,1.09-4.6,0-6.44.08,2.02-.79,4.2,0,6.44ZM186.75,73.18c-.41-4.2,2.55-8.95.32-11.93.36,4.43-2.39,8.69-.32,11.93ZM185.16,64.47c.37,1.28.37-1.27,0,0h0ZM188.33,79.95c.77-4.14,2.42-8.49.32-12.25.09,4.22-2.51,8.85-.32,12.25ZM165.5,71.25c.21.21-.13-.14,0,0h0ZM162.65,72.86s.02.3,0,.32c-1.51,1.75,1.52-.6,0-.32ZM140.46,113.15c-.79,1.66-2.38,3.77-1.9,5.8,1.64-.72,2.47-3,3.17-4.51,6.36-13.78,14.25-26.87,20.61-39.97.33-.02.25-.41-.32-.32-6.54,12.89-15.43,26.21-21.56,39.01ZM189.6,86.72c-.46-4.3,3.47-7.73.63-10.64-.44,3.8-1.64,7.88-.63,10.64ZM162.02,78.66c.21.21-.13-.14,0,0h0ZM7.31,79.63c.32,0,.38.26.63.32-.03-.51.04-1.12-.63-.97v.64ZM191.18,93.49c-.36-4.63,3.58-8.89.63-12.25-.54,3.56-3.29,9.43-.63,12.25ZM160.12,81.88c.37,1.27.37-1.28,0,0h0ZM6.99,86.72c.21.21-.13-.14,0,0h0ZM192.14,97.36c.4-3.21,3.8-7.55,1.59-10.31-.58,3.17-2.24,6.96-1.59,10.31ZM27.6,90.91c.21.21-.13-.13,0,0h0ZM150.92,90.91c.21.21-.13-.13,0,0h0ZM29.18,90.91c-.25.07-.62,0-.63.32.25-.07.63,0,.63-.32ZM193.72,97.36c.76-1.81,2.59-4.24,1.9-6.45-.39,2.19-2.2,4.64-1.9,6.45ZM37.11,93.17c-2.22-.64-5.44-1.99-7.61-1.61,2.52.35,5.51,1.92,7.61,1.61ZM150.6,101.55c1.16-2.48,3.18-5.79,3.49-8.06-1.14,2.5-3.09,5.89-3.49,8.06ZM32.04,96.07c.21.21-.13-.14,0,0h0ZM33.62,96.39c.3-.8-1.82-.09-.63,0,.52-.03,1.38.54.63,0ZM143.31,104.13c-1.75,2.93-5.25,5.39-4.44,8.38,2.95-4.09,7.34-11.23,9.19-16.44-2.2,2.17-3.12,5.32-4.76,8.06ZM51.37,98.32c.21.21-.13-.13,0,0h0ZM72.93,104.45c-4.52-1.67-10.39-3.42-15.53-4.83-1.18-.33-4.57-1.75-4.12-.97,6.64,1.63,12.81,5.46,19.66,5.8ZM189.28,99.61c.37,1.27.37-1.27,0,0h0ZM149.97,102.52c.21.21-.13-.13,0,0h0ZM59.62,104.77c-.37.05-.9-.06-.95.32.37-.05.9.05.95-.32ZM60.57,105.1c-.25.07-.63,0-.63.32.25-.07.62-.01.63-.32ZM62.47,105.74c-.25.07-.63,0-.63.32.25-.07.62-.01.63-.32ZM91.32,109.29c.21.21-.13-.14,0,0h0ZM94.81,109.93c-.96-.32-1.89-.66-2.85-.97.19.9,2.27,1.53,2.85.97ZM101.15,111.86c-.19-.18-1.5-.76-1.58,0,.79-.42,1.32.95,1.58,0ZM146.17,112.83c.05-.38.56-.73,0-.97-.04.38-.57.73,0,.97ZM109.07,114.12c-1.31-.47-6.11-1.87-5.07-1.29,1.07.42,1.9,1.08,3.49.97-.01.44.15.71.32.97,6.64,1.53,13.54,4.5,19.66,5.48-5.78-1.76-12.84-4.15-18.39-6.13ZM136.34,116.7c1.24-.18,2.68-2.72,1.59-3.22-.92.67-1.37,1.83-1.59,3.22ZM145.53,113.48c-1.85,2.64.17,1.9,0,0h0ZM122.39,117.02c-.62-1.16-4.95-1.75-5.07-1.29,1.8.32,3.49.75,5.07,1.29ZM104.32,116.7c-.37.05-.9-.06-.95.32.37-.05.9.06.95-.32ZM123.34,116.7c-.25.07-.63,0-.63.32.25-.07.63,0,.63-.32ZM143.95,117.02c.21.21-.13-.14,0,0h0ZM105.59,117.02c-.37.05-.9-.06-.95.32.37-.05.9.05.95-.32ZM106.54,117.67c2.47.92-1.72-.94,0,0h0ZM108.12,118.31c.21.21-.13-.14,0,0h0ZM135.7,118.96c.56-.07,1.59.33,1.27-.64-.72-.09-1.19.08-1.27.64ZM117.32,122.18c-.25.07-.63,0-.63.32.25-.07.63-.01.63-.32ZM118.9,122.5c-.37.05-.9-.06-.95.32.37-.05.9.06.95-.32Z"/>
      <path class="cls-2" d="M79.27,13.86c.46,1.62-1.77,1.7-1.27,3.87-1.09,1.78-3.12,2.95-4.44,5.16-.32.52-.21,1.67-.63,2.26-.8,1.12-2.27,1.89-3.17,3.22-2.34,3.48-6.12,12.29-10.78,12.57-2.47.15-6.78-2.57-10.46-2.9-2.15-.19-3.93.06-6.02-1.29-.8-1.01.85-2.05,0-3.22,4.66-5.79,7.85-13.08,12.68-18.7.25-2,1.54-2.95,2.22-4.52,6.25-.02,16.05,2.11,21.88,3.55ZM58.03,13.86c1.25-.15,1.65.68,2.22-.32-.79-.17-1.13-.79-1.59-1.29-.32.42-.31,1.19-.63,1.61ZM66.27,15.15c1.19.02,1.82-.52,2.22-1.29-1.38-.22-1.75.58-2.22,1.29ZM71.98,14.83c.21.21-.13-.14,0,0h0ZM59.93,19.67c-1.95.38-.79,1.55,0,0h0ZM70.08,23.86c.79.05.99-.49,1.27-.97-.79-.05-.99.5-1.27.97ZM55.81,27.08c2.44-.35,6.15-2.73,5.71-3.87-1.64,1.56-3.99,2.39-5.71,3.87ZM52.01,26.43c.05-.38.56-.73,0-.97-.05.38-.57.73,0,.97ZM68.81,25.47c-.25.07-.62,0-.63.32.25-.07.63,0,.63-.32ZM51.06,26.76c.21.21-.13-.13,0,0h0ZM65.96,30.63c.43-.85,1.33-1.22,1.59-2.26-1.12-.05-2.05,1.76-1.59,2.26ZM58.03,32.24c.21.21-.13-.13,0,0h0ZM53.28,34.82c1.37-.65,4.22-1.5,4.12-2.58-1.09,1.14-3.2,1.26-4.12,2.58ZM60.57,35.46c1.04-.23,2.39-.15,2.54-1.29-1.02.25-1.87.67-2.54,1.29ZM45.98,34.82c.21.21-.13-.13,0,0h0Z"/>
      <path class="cls-2" d="M136.97,22.89c-4.99,10.72-10.65,20.76-17.75,29.34-8.57,1.27-17.13-3.08-22.19-3.55.31-6.06,4.83-10.36,7.61-15.15,2.89-4.99,5.18-10.3,8.88-14.51,6.53-1.51,13.51,1.22,21.56.97.37,1.23,1.45,1.74,1.9,2.9ZM124.61,21.28c.46,1.07.79-1.26,0,0h0ZM129.05,22.57c.03-.61,1.05-.22.95-.97-.9-.44-1.9.58-.95.97ZM131.9,22.89h.63c.02-.41.41-.45.32-.97h-.63c-.02.41-.41.45-.32.97ZM123.02,24.18c.89.23,3.09-.63,4.12-1.29-1.64.16-3.48.11-4.12,1.29ZM112.24,24.5c.81-.04,1.11-.59,1.58-.97-.99-.15-1.29.4-1.58.97ZM134.12,24.82c.37,1.27.37-1.27,0,0h0ZM120.49,25.15c-.24.07-.62,0-.63.32.25-.07.63,0,.63-.32ZM125.24,26.11c.21.21-.13-.13,0,0h0ZM120.49,30.3c2.16-.85,7.7-1.59,6.66-3.55-2.04,1.37-4.8,2-6.66,3.55ZM119.22,27.4c.21.21-.13-.14,0,0h0ZM109.07,30.3c.48-.38,1.3-.4,1.59-.97-.84-.17-2.11.82-1.59.97ZM119.22,29.66c-1.03.61,1.56-.92,0,0h0ZM126.51,31.91c1.78-.44,3.59-.86,4.12-2.58-1.45.78-3.04,1.43-4.12,2.58ZM118.27,30.3c.21.21-.13-.13,0,0h0ZM119.85,30.63c.21.21-.13-.14,0,0h0ZM119.22,30.95c.21.21-.13-.14,0,0h0ZM110.98,34.17c1.47-.87,5.6-.75,4.75-2.9-1.53,1.36-3.75,1.92-4.75,2.9ZM121.44,33.85c1.42.16,3.67-1.92,3.17-1.61-1.1.49-2.59.59-3.17,1.61ZM118.27,32.56c.21.21-.13-.14,0,0h0ZM117.32,32.88c-.86.98.97-.88,0,0h0ZM125.24,36.11c.84.28,1.92-.79,1.27-.97-.09.66-1.18.31-1.27.97ZM120.17,36.11c.21.21-.13-.14,0,0h0ZM119.22,36.43c.21.21-.13-.14,0,0h0ZM124.61,36.43c.21.21-.13-.14,0,0h0ZM115.1,36.75c-.37.05-.9-.06-.95.32.37-.05.9.06.95-.32ZM113.51,37.4c.21.21-.13-.13,0,0h0ZM113.51,39.33c1.68-.12,3.35-.25,4.12-1.29-1.19.26-1.86,1.04-1.9,0-.34.84-1.88.45-2.22,1.29ZM126.83,38.69c.21.21-.13-.14,0,0h0ZM125.56,40.94c-.6,1.23.84-1.7,0,0h0ZM106.54,42.55c2.47-.52,1.32-1.69,0,0h0ZM116.36,44.17c.35.78,1.64-.5.95-.65,0,.53-.88.18-.95.65ZM101.47,45.45c.21.21-.13-.13,0,0h0ZM106.22,46.42c.07-.89,1.79-.12,1.59-1.29-.76,0-2.24.92-1.59,1.29ZM118.9,47.71c0-.53.88-.18.95-.64-.65-.28-1.75.51-.95.64ZM117,49.97c-1.03.61,1.56-.92,0,0h0Z"/>
      <path class="cls-2" d="M173.12,27.08c.32.97-.71.57-1.27.65.13.62,1.23.25.95,1.29-2.79,9.85-9.63,15.57-13.63,24.18-.26.91.45.84.32,1.61-2.63,1.62-4.77,3.74-6.98,5.8-6.42-2.18-14.18-2.99-20.61-5.16-2.8-2.77-.2-5.69,1.59-9.02,3.87-7.25,8.73-20.49,14.9-23.86,7.45,2.19,18.54,2.07,24.73,4.51ZM155.68,28.05c2.2-.3,3.52-.22,4.76-.97-1.28-.54-3.51.42-4.76.97ZM160.12,29.66c1.33-.69,3.28-.75,4.12-1.93-1.8.21-3.06.98-4.12,1.93ZM167.41,28.69c.02-.56-.24-.83-.63-.97-.45.47-.46,1.25.63.97ZM155.36,28.05c-.25.07-.63,0-.63.32.24-.07.62,0,.63-.32ZM166.14,28.37c-.19-.09-1.22-.8-1.27,0,.2.09,1.22.8,1.27,0ZM153.14,32.24c1.84-1.35,5.26-1.1,6.66-2.9-2.47.5-5.98,1.65-6.66,2.9ZM144.58,30.3c-1.57.43-.49,1.52,0,0h0ZM152.19,30.63c-1.03.61,1.56-.92,0,0h0ZM151.56,30.95c-2.09.66-4.47,1.04-5.71,2.58,2.07-.69,3.95-1.57,5.71-2.58ZM164.24,31.59c-1.68.85,1.21-.61,0,0h0ZM169.94,33.53c.25-.34,1.01-2.66.32-1.94.25.82-1.24,1.48-.32,1.94ZM162.97,32.24c.21.21-.13-.13,0,0h0ZM162.02,32.88c.07-.41.5-.66-.32-.65-2.5,2.08-6.67,2.46-9.19,4.51,3.48.24,6.22-2.86,9.51-3.87ZM166.46,33.85c.14-.61.68-.81.63-1.61-.94-.38-1.36,1.36-.63,1.61ZM151.87,34.17c1.04-.24,3.52-.7,2.85-1.61-.5.99-2.48.48-2.85,1.61ZM162.02,34.49c.81-.14,1.46-.45,1.9-.96-.97-.02-1.62.29-1.9.96ZM140.78,36.11c.98-.1,2.75-1.05,1.9-1.94-.27,1.02-1.63.92-1.9,1.94ZM143,38.36c2.21-.79,5.89-3.42,6.66-3.55-2.93.46-4.73,2.07-6.66,3.55ZM160.75,35.14c.54.02.81-.25.95-.65-.54-.01-.81.25-.95.65ZM162.34,34.82c-5.55,4.36-14.75,4.99-19.97,9.67,3.52-1.22,7.08-2.99,10.78-4.51,3.54-1.46,8.02-1.89,10.15-5.16h-.95ZM163.92,38.04c.23-.73,1.21-.71,1.27-1.61h-.95c.34.82-1.37,1.13-.32,1.61ZM168.04,36.43c-1.57.43-.5,1.52,0,0h0ZM152.19,37.72c.21.21-.13-.13,0,0h0ZM151.56,38.04c.21.21-.13-.14,0,0h0ZM166.77,38.04c-.86.98.97-.88,0,0h0ZM152.51,42.87c3.4-.95,8.18-2.21,8.88-4.83-2.5,2.08-6.19,2.94-8.88,4.83ZM145.21,39.33c.21.21-.13-.13,0,0h0ZM138.88,39.65c.46,1.07.79-1.26,0,0h0ZM165.82,39.65c.21.21-.13-.14,0,0h0ZM143.31,39.97c-1.63.78,1.09.83,0,0h0ZM162.65,40.3c.21.21-.13-.13,0,0h0ZM138.56,43.84c1.09-.52,3.45-1.43,2.85-2.58-.54,1.07-3.01,1.87-2.85,2.58ZM153.77,44.17c.52,1.1-.04.97-.63,1.61,1.22-.38,3.82-1.04,3.8-1.61-.59-.31-1.06.97-1.27,0,1.15-.41,3.87-2.41,3.49-2.26-2.16.38-3.37,1.73-5.39,2.26ZM158.85,43.52c.21.21-.13-.13,0,0h0ZM141.1,48.36c3.16-1.19,8.25-2.14,9.19-4.51-1.72,1.57-8.02,2.45-9.19,4.51ZM136.02,45.13c.46,1.07.79-1.26,0,0h0ZM139.19,45.78c1.04.07,3.04-.54,2.54-.97-1.06.57-1.84-.23-2.54.97ZM138.24,51.58c5.14-1.65,10.16-3.43,14.58-5.8-5.14,1.65-10.06,3.52-14.58,5.8ZM150.29,49c.53-.65,2.08-.24,2.22-1.29-.78.2-2.9.68-2.22,1.29ZM158.85,49c-.07-.61.36-.71.32-1.29h-.95c.04.6.21,1.08.63,1.29ZM151.24,50.61c2.22-.53,4.27-1.24,5.71-2.58-2.13.63-4.51,1-5.71,2.58ZM147.12,49.97c.21.21-.13-.14,0,0h0ZM146.17,50.29c.21.21-.13-.14,0,0h0ZM144.9,50.94c.37-.16.72-.35.95-.64-.42-.05-1.75.51-.95.64ZM144.26,50.94c-.25.07-.62,0-.63.32.25-.07.62,0,.63-.32ZM143,51.58c.21.21-.13-.13,0,0h0ZM156.63,52.55c.85.22.61-.67.95-.97-.69-.06-1.01.26-.95.97ZM155.04,52.55c.21.21-.13-.14,0,0h0ZM150.92,54.16c1.39.12,1.96-.58,2.54-1.29-1.02.25-1.87.67-2.54,1.29ZM138.24,53.84h.95v-.65h-.95v.65ZM141.73,54.48c1.29-.19,2.35-.62,3.17-1.29-1.41.07-2.89.08-3.17,1.29ZM146.17,54.16c-.22.87.65.62.95.97-.3-.6.95-1.08,0-1.29-.05.37-.5.35-.95.32ZM152.82,55.45c.21.21-.13-.13,0,0h0ZM152.19,55.77c.21.21-.13-.13,0,0h0ZM152.51,58.67c-.37-.27-.85-.43-1.59-.32-.49.97,1.64.85,1.59.32Z"/>
      <path class="cls-2" d="M64.37,40.3c-.13-.13.21.21,0,0h0Z"/>
      <path class="cls-2" d="M56.45,48.36c-.27,3.01-2.28,5.44-3.8,7.74-4.48,6.76-9.87,13.02-13.63,20.96-.28.25-.72.35-1.27.32-.37.94-.52,1.85-.63,2.26-5.81,1.74-13.1-3.25-18.07-4.51-.72-1.27.23-2.45-.32-3.55,5.39-8.49,11.21-16.54,16.49-25.14,1.4-.19,2.21-.98,2.54-2.26,6.12-.97,14.58,2.06,18.71,4.19ZM41.86,46.74c.79,1.26.46-1.07,0,0h0ZM49.79,48.03c-.27-.27-.9.24-.95.32-.3.57,1.17-.1.95-.32ZM47.89,50.94c.21.21-.13-.13,0,0h0ZM49.47,53.51c.37,1.28.37-1.27,0,0h0ZM44.08,57.06c.21.21-.13-.14,0,0h0ZM37.11,60.61c.55.08,1.88-.61.95-.97-.04.61-1.05.22-.95.97ZM42.81,60.29c.21.21-.13-.14,0,0h0ZM36.47,60.93c.21.21-.13-.14,0,0h0ZM36.16,61.25c-.25.07-.63.01-.63.32.25-.07.63,0,.63-.32ZM35.21,61.57c-.25.07-.63,0-.63.32.25-.07.63,0,.63-.32ZM39.01,61.9c-2.43,1.06,1.02-.44,0,0h0ZM33.62,62.54c.21.21-.13-.14,0,0h0ZM36.79,63.51c.21.21-.13-.14,0,0h0ZM37.42,67.38c.28-.5,1.99-1.16,1.27-1.61-.28.5-1.99,1.16-1.27,1.61ZM40.28,67.7c1.95-.38.79-1.55,0,0h0ZM29.5,71.25c.21.21-.13-.14,0,0h0ZM28.23,71.89c.21.21-.13-.14,0,0h0ZM27.6,72.21c.21.21-.13-.13,0,0h0ZM32.99,73.83c.81-.16,2.63-.96,1.9-1.61-.2.98-1.71.63-1.9,1.61ZM38.06,73.18c.21.21-.13-.13,0,0h0ZM30.45,75.11c.72.09,1.19-.08,1.27-.64-.56.07-1.59-.33-1.27.64ZM33.94,75.76c.21.21-.13-.14,0,0h0ZM32.67,76.73c-.37.05-.9-.05-.95.32.37-.05.9.06.95-.32Z"/>
      <path class="cls-2" d="M83.08,55.13c-4.07,11.13-10.67,19.67-16.17,29.34.2.66,1.6.09,1.27,1.29-1.27.64-2.49,1.34-3.8,1.94-.77-.18-1.63-.28-1.59-1.29-.56.94-2.16.81-2.85,1.61-3.58-1.6-8.78-4.35-13-3.23-1.79-.33-2.42-1.84-3.49-2.9,3.08-5.69,6.67-11.16,10.46-16.76,2.83-4.18,3.89-9.08,6.97-12.25,5.34-5.48,15.44.06,22.19,2.26ZM66.27,53.84c1.63-.78-1.09-.83,0,0h0ZM73.57,55.45c.59-.04,1.06-.21,1.27-.64-.72-.09-1.19.08-1.27.64ZM67.86,55.77c.55.02.81-.25.95-.64-.54-.02-.81.25-.95.64ZM71.35,59.64c-.05-.44,1.83-.42.63-.97.05.44-1.84.42-.63.97ZM60.57,61.57c-4.12,2.09-.27.89,0,0h0ZM68.49,61.57c.21.21-.13-.13,0,0h0ZM57.4,63.83c-.86.98.97-.88,0,0h0ZM58.67,65.77c.37,1.27.37-1.28,0,0h0ZM58.03,66.73c.21.21-.13-.13,0,0h0ZM61.52,70.28c.21.21-.13-.14,0,0h0ZM65.64,70.28c-.22,1.2,1.65.02,1.9-.32-.97-.23-1.15.33-1.9.32ZM60.25,73.83c-3.14,1.59.67.19,0,0h0ZM61.52,76.08c.92-.35,2.14-.4,2.22-1.61-1.62-.36-1.6.95-2.22,1.61ZM56.76,78.34c-.25.07-.63,0-.63.32.25-.07.63,0,.63-.32ZM45.98,82.21c.73-.34,1.91-.2,2.54-.64.02-.55-.24-.83-.63-.97.11,1.3-2.49-.17-1.9,1.61ZM66.91,80.92c.37,1.27.37-1.27,0,0h0Z"/>
      <path class="cls-2" d="M112.56,61.57c-.6,8.1-5.11,12.05-8.88,17.73-3.04,4.58-5.82,9.19-8.56,14.18-1.15.34-1.76,1.23-2.54,1.94-6.34.8-11.72-2.5-18.07-3.55-.6-1.52-.29-3.48-1.9-3.22.77-5.02,4.07-9.87,7.29-14.83,4.26-6.58,6.14-14.38,13.32-17.41,5.17.98,9.7,2.6,15.53,2.9,1.25.78,2.4,1.64,3.8,2.26ZM95.12,59.64c.47-.05,1.17.12,1.27-.32-.42-.42-1.18-.42-1.27.32ZM92.59,59.64c-.37.05-.9-.05-.95.32.37-.05.9.06.95-.32ZM93.22,63.19c.52-.97,2.36-.61,2.54-1.94-.96.33-2.9,1.33-2.54,1.94ZM91.64,62.54c.08-.46.52-.55.63-.97-.65-.28-1.42.84-.63.97ZM89.42,64.15c-.05-.43,1.29-.97.32-1.29.05.43-1.29.97-.32,1.29ZM96.39,63.83c-1.8.64-3.45,1.43-4.76,2.58,2-.44,3.19-1.7,4.76-2.58ZM94.49,67.05c-1.6,1.2,4.57-1.4,4.76-2.26-2.5,1.05-4.13,1.78-4.76,2.26ZM87.83,66.09c.21.21-.13-.13,0,0h0ZM108.44,66.73c.21.21-.13-.13,0,0h0ZM106.86,67.38c.21.21-.13-.14,0,0h0ZM98.61,68.34c-.17-.46,1.23-.79.32-.97.04.33-1.37.65-.32.97ZM91.32,68.67c.81-.14,1.46-.45,1.9-.97-.81.14-1.46.45-1.9.97ZM90.69,68.99c-2.43,1.06,1.02-.44,0,0h0ZM97.66,70.92c.82.67,2.69-.51,1.9-1.29-.23.85-1.81.31-1.9,1.29ZM104.63,71.25c1.25.08,3.29-.72,2.54-1.61-.57.81-1.96.8-2.54,1.61ZM89.73,71.25c.21.21-.13-.14,0,0h0ZM84.34,72.53h.63v-.64h-.63v.64ZM87.83,72.21c-1.03.61,1.56-.92,0,0h0ZM83.71,72.86c.21.21-.13-.13,0,0h0ZM86.56,72.86c.21.21-.13-.13,0,0h0ZM101.47,73.5c.21.21-.13-.14,0,0h0ZM91,73.83c.21.21-.13-.14,0,0h0ZM85.61,76.73c1.62.19,3.8-1.68,5.07-2.9-1.69.96-4.09,1.22-5.07,2.9ZM100.51,74.15c.21.21-.13-.14,0,0h0ZM84.34,75.11c-.86.98.97-.88,0,0h0ZM94.49,77.05c.77-.18,1.63-.28,1.59-1.29-.77.18-1.63.27-1.59,1.29ZM87.51,79.31c.21.21-.13-.14,0,0h0ZM80.86,79.63c.21.21-.13-.14,0,0h0ZM80.22,79.95c.21.21-.13-.14,0,0h0ZM91.32,79.95c-1.63.78,1.09.83,0,0h0ZM82.13,86.07c2.24-2.03,5.82-2.68,7.61-5.16-2.97,1.06-6.74,3.02-7.61,5.16ZM99.25,81.88c.46,1.07.79-1.26,0,0h0ZM91,84.78c.09-.66,1.18-.3,1.27-.97-.48.09-2.29.41-1.27.97ZM85.3,87.37c1.31-.28,2.18-1.01,3.49-1.29v-.65c-.32,0-.38-.26-.63-.32-.45,1.26-2.36,1.03-2.86,2.26ZM95.12,88.01c.65.28,1.42-.84.63-.97-.08.46-.52.54-.63.97ZM87.83,88.65c-.37.05-.9-.06-.95.32.37-.05.9.06.95-.32ZM92.59,89.3c.21.21-.13-.13,0,0h0ZM86.56,92.2c.49-.97-1.64-.85-1.58-.32.9-.27.82.45,1.58.32ZM90.37,92.84c.54.02.81-.25.95-.64-.54-.02-.81.25-.95.64ZM90.05,92.52c-.38.05-.9-.06-.95.32.37-.05.9.06.95-.32Z"/>
      <path class="cls-2" d="M149.34,68.67c2.12,7.32-2.22,12.11-5.39,18.38-1.44,2.84-2.54,6.26-4.12,8.7-.67,1.03-1.86,1.81-2.54,2.9-1.06,1.7-1.64,4.03-2.85,5.48-.62.74-3.35,1.71-3.81,2.9-6.85,1.58-11.34-2.68-17.44-4.19-5.08-1.26-8.37-.78-11.41-3.87,6.68-11.44,12.58-22.17,19.66-33.53,1.4-.39,2.89-.95,4.12-2.26,7.73,2.02,16.8,2.69,23.78,5.48ZM127.46,66.41c.72.09,1.19-.08,1.27-.64-.59.04-1.06.21-1.27.64ZM130.95,67.05c.56-.19,1.86.39,1.9-.32-.7-.14-1.72-.74-1.9.32ZM136.97,67.7c-.47.06-1.17-.11-1.27.32.48-.05,1.17.12,1.27-.32ZM126.83,69.63c1.39.02,1.99-.77,2.53-1.61-1.1.28-1.76,1.01-2.53,1.61ZM131.27,68.99c.21.21-.13-.13,0,0h0ZM142.05,68.67c-.37.05-.9-.05-.95.32.37-.05.9.06.95-.32ZM130.95,70.6c-.61,1.96-3.1,2-4.12,3.54,1.96-1.13,5.45-2.41,6.02-3.87-.04.71-1.34.14-1.9.32ZM139.19,70.28c-.25.07-.63,0-.63.32.25-.07.63,0,.63-.32ZM145.21,73.18c-.17-.46,1.24-.79.32-.97.04.33-1.37.65-.32.97ZM118.9,74.47c.65-.74,2.08-.68,2.54-1.61-.71-.65-3.06,1.05-2.54,1.61ZM128.73,75.44c2.31-.34,4.35-.96,5.39-2.58-1.88.39-5.44,2.35-5.39,2.58ZM136.65,73.5c.21.21-.13-.14,0,0h0ZM135.07,74.47c.54.02.81-.25.95-.64-.54-.02-.81.25-.95.64ZM126.19,74.47c-.87.98.96-.88,0,0h0ZM124.92,85.11c6.66-3.12,13.02-6.53,18.39-10.96-6.89,2.88-12.14,7.42-18.39,10.96ZM127.46,76.73c-.17-.46,1.24-.79.32-.97.04.33-1.37.65-.32.97ZM117,77.05c.05-.38.57-.73,0-.97-.05.38-.56.73,0,.97ZM129.68,77.37c.21.21-.13-.13,0,0h0ZM117.63,85.11c4.04-2.12,9.05-4.98,11.41-7.74-3.63,2.55-9.25,4.78-11.41,7.74ZM119.85,89.3c3.48.39,5.12-3.8,9.51-3.55,4.08-2.84,8.72-5.1,12.68-8.06-8.25,4.38-13.76,7.79-22.19,11.61ZM115.41,79.31c.05-.38.56-.73,0-.97-.05.38-.56.73,0,.97ZM117.32,81.24c1.19-.4,4.89-.96,3.17-2.26-.84.97-2.45,1.16-3.17,2.26ZM131.58,79.31c.21.21-.13-.14,0,0h0ZM140.78,80.59c-.25.07-.62,0-.63.32.25-.07.62,0,.63-.32ZM134.12,84.46c2.21-.33,4.75-2.05,5.07-3.22-1.63,1.14-3.45,2.08-5.07,3.22ZM115.1,82.53c-1.03.61,1.56-.92,0,0h0ZM139.19,84.14c1.01.24,1.9-1.26,1.27-1.61-.32.64-1.4.51-1.27,1.61ZM124.61,83.17c-.86.98.97-.88,0,0h0ZM121.76,85.43c.6-.68,1.44-1.12,2.22-1.61-1.22-.15-2.93.87-2.22,1.61ZM116.36,85.43c-1.03.61,1.56-.92,0,0h0ZM134.44,86.72c.21.21-.13-.14,0,0h0ZM112.56,91.23c3.2-.72,5.02-2.85,7.29-4.51-2.61.91-6.72,3.66-7.29,4.51ZM123.02,92.52c3.29-.09,4.28-2.52,7.61-2.58.41-1.07,3.87-2.17,2.54-2.9-3.01,2.2-6.83,3.59-10.14,5.48ZM136.02,89.62c.63-.65,1.5-1.05,1.9-1.93-1.07,0-2.81.98-1.9,1.93ZM123.66,96.39c3.01-1.67,6.27-3.08,8.88-5.16-3.09,1.37-7.43,3.19-8.88,5.16ZM122.71,92.52c-.25.07-.63,0-.63.32.25-.07.63,0,.63-.32ZM133.49,93.81c.21.21-.13-.13,0,0h0ZM135.39,95.75c.65.28,1.42-.84.63-.97-.03.51-.81.25-.63.97ZM114.46,95.43c-3.71,1.39.49.32,0,0h0ZM125.88,98c1.09-.52,3.8-1.07,3.17-2.26-.87.94-2.44,1.17-3.17,2.26ZM107.49,96.71c.21.21-.13-.13,0,0h0ZM122.71,96.71c.21.21-.13-.13,0,0h0ZM124.29,98.32c.37,1.27.37-1.27,0,0h0ZM128.41,98.97c-.25.07-.62.01-.63.32.25-.07.63,0,.63-.32ZM111.61,99.94c-.56.19-1.86-.39-1.9.32.56-.19,1.86.39,1.9-.32ZM123.66,101.55c1.02.28.99-.5,1.27-.97-.61.13-1.36.11-1.27.97ZM131.27,102.19c.81-.04,1.63-.06,1.59-.97-.81.04-1.63.06-1.59.97ZM117.95,102.19c.21.21-.13-.13,0,0h0ZM121.12,103.48h.63v-.64h-.63v.64ZM127.15,104.45c.79.05,1.31-.17,1.58-.64-.3-.33-1.63-.29-1.58.64ZM123.97,104.13c.21.21-.13-.14,0,0h0ZM130.63,105.1c.21.21-.13-.14,0,0h0Z"/>
      <path class="cls-2" d="M97.34,14.83c-.39,1.85,6.7.94,8.56,2.58-.96,4.9-4.05,8.73-6.34,12.57-3.32,5.59-7.42,10.21-10.46,16.44-5.08,1.21-8.29-1.39-12.36-2.26-2.53-.54-5.38.14-6.02-2.58,2.91-7.76,9.29-14.29,13.63-21.6,1.44-2.42,2.33-5.05,5.07-5.48,2.75-.43,5.16,1.93,7.92.32ZM93.22,19.67c.64-1.18,3.04-.57,3.17-2.26-1.95-.36-3.22,1.66-3.17,2.26ZM89.1,18.05c-1.03.61,1.56-.92,0,0h0ZM99.88,18.37c-.31,1.17,1.77.69,1.59,0-.79-.03-.98-.6-1.59,0ZM91,20.63c.37-.16.72-.34.95-.64-.42-.05-1.75.51-.95.64ZM101.15,21.28c1.16,0,1.7-.64,2.22-1.29-1.18-.02-1.81.52-2.22,1.29ZM95.44,21.28c.74-.11,1.37-.33,1.59-.97-.74.11-1.37.33-1.59.97ZM90.05,20.95c-.87.98.96-.88,0,0h0ZM94.81,21.6c.21.21-.13-.13,0,0h0ZM94.81,23.86c.76,0,2.24-.92,1.59-1.29-.25.71-1.49.42-1.59,1.29ZM83.08,25.47c1.57-.43.5-1.52,0,0h0ZM92.9,24.82c.46,1.07.79-1.26,0,0h0ZM87.2,25.15c.21.21-.13-.14,0,0h0ZM85.61,26.11c.54.02.81-.25.95-.64-.54-.02-.81.25-.95.64ZM81.81,28.37c.03-.51.81-.25.63-.97-.65-.28-1.42.84-.63.97ZM83.71,30.63c1.62-.45,5.13-2.23,4.12-3.22-1.06,1.39-3.06,1.83-4.12,3.22ZM92.59,28.37c.21.21-.13-.14,0,0h0ZM88.78,31.27c.69-1.13,3.52-1.78,3.17-2.9-.79,1.03-3.5,1.81-3.17,2.9ZM79.59,31.27c-.6,1.23.84-1.7,0,0h0ZM87.2,32.24c.65.28,1.42-.84.63-.97-.08.46-.52.54-.63.97ZM86.56,32.56c.21.21-.13-.14,0,0h0ZM91.32,32.88c.21.21-.13-.14,0,0h0ZM90.69,33.21c-.25.07-.63,0-.63.32.24-.07.62-.01.63-.32ZM77.37,34.49c.55.08,1.88-.61.95-.96-.04.61-1.05.22-.95.96ZM89.42,33.85c-.87.98.96-.88,0,0h0ZM81.81,35.14c.65.28,1.42-.84.63-.97-.08.46-.52.54-.63.97ZM85.93,37.07c.47-.38,1.3-.4,1.58-.97-.83-.17-2.11.82-1.58.97ZM73.57,40.62c1.11-.37,1.22-1.77,1.9-2.58-1.02.46-1.81,1.17-1.9,2.58Z"/>
    </g>
  </g>
</svg>