<?xml version="1.0" encoding="UTF-8"?>
<svg id="_レイヤー_2" data-name="レイヤー 2" xmlns="http://www.w3.org/2000/svg" viewBox="0 0 206 290.9">
  <defs>
    <style>
      .cls-1 {
        fill: #504e62;
      }

      .cls-2 {
        fill: #fff;
      }
    </style>
  </defs>
  <g id="_レイヤー_2-2" data-name="レイヤー 2">
    <path class="cls-1" d="M206,103C206,46.11,159.89,0,103,0S0,46.11,0,103c0,46.17,30.38,85.24,72.23,98.32,24.1,37.03,30.77,89.57,30.77,89.57,0,0,6.67-52.55,30.77-89.57,41.86-13.08,72.23-52.16,72.23-98.32Z"/>
    <g>
      <path class="cls-2" d="M71.3,106.98c0,.65-.18,1.29-.55,1.94-.37.65-.83,1.18-1.39,1.61-.56.43-1.09.64-1.58.64-.29,0-.59-.09-.88-.26-.29-.18-.54-.38-.75-.62-1.03-1.06-2.35-1.96-3.96-2.71-1.61-.75-3.29-1.12-5.02-1.12-1.97,0-3.54.45-4.73,1.34-1.19.9-1.78,2.09-1.78,3.59,0,1.41.51,2.51,1.52,3.3,1.01.79,2.54,1.19,4.6,1.19.7,0,1.73-.12,3.08-.35.88-.12,1.38-.18,1.5-.18.82,0,1.48.21,1.98.64.5.43.75.9.75,1.43,0,.94-.84,1.54-2.51,1.8-1.17.18-2.38.26-3.61.26-3.37-.03-5.86-.75-7.46-2.16-1.6-1.41-2.4-3.12-2.4-5.15,0-1.47.43-2.73,1.3-3.81.86-1.07,1.99-1.88,3.37-2.44,1.38-.56,2.83-.84,4.36-.84,1.23,0,2.4.12,3.52.35,1.11.24,2.29.54,3.52.92,1.14.32,1.83.48,2.07.48.35,0,.64-.13.86-.4.22-.26.33-.6.33-1.01,0-.44-.13-.94-.4-1.5-1.17-3.05-3.56-5.98-7.17-8.8-1.44.68-2.85,1.17-4.22,1.5-1.38.32-2.52.48-3.43.48-1.41,0-2.79-.37-4.16-1.1-1.36-.73-2.49-1.67-3.37-2.82-.29-.35-.44-.6-.44-.75s.07-.22.22-.22c.09,0,.23.05.42.15.19.1.37.2.55.29.88.5,1.88.94,3.01,1.32,1.13.38,2.09.57,2.88.57.56,0,1.38-.13,2.46-.4,1.08-.26,2.17-.6,3.26-1.01-1.47-.97-2.64-1.61-3.52-1.94-.7-.38-1.26-.85-1.67-1.41-.41-.56-.62-1.11-.62-1.67,0-.59.24-1.14.73-1.65.48-.51,1.05-.77,1.69-.77.41,0,.81.12,1.19.35.97.68,2.02,1.2,3.15,1.58,1.13.38,2.25.57,3.37.57.29,0,.58-.01.86-.04.28-.03.52-.06.73-.09.47-.09.91-.13,1.32-.13.65,0,1.17.11,1.58.33.41.22.62.55.62.99,0,.7-.5,1.53-1.5,2.46-.94.85-2.04,1.66-3.3,2.42,3.46,2.76,6,5.32,7.61,7.7,1.35,1.97,2.02,3.67,2.02,5.1ZM59.07,92.28c.91-.47,1.48-.86,1.72-1.19.29-.29.44-.54.44-.75,0-.15-.12-.29-.35-.44-2.93-1.26-4.66-1.89-5.19-1.89-.24,0-.41.08-.53.24-.12.16-.18.35-.18.55,0,.62.5,1.22,1.5,1.8,1.41.88,2.27,1.44,2.6,1.67Z"/>
      <path class="cls-2" d="M96.03,120.31c0-.15.07-.25.2-.31.13-.06.28-.1.44-.13.16-.03.27-.04.33-.04,4.63-.76,8.13-2.05,10.49-3.85,2.36-1.8,3.54-4.08,3.54-6.84,0-1.58-.36-2.85-1.08-3.81-.72-.95-1.74-1.43-3.06-1.43s-2.6.54-3.65,1.61c-1.06,1.07-2.23,2.69-3.52,4.86-.26.5-.66.92-1.19,1.28s-.98.53-1.36.53c-1.41,0-2.49-.43-3.23-1.28-.75-.85-1.12-2.07-1.12-3.65,0-.94.07-2.33.2-4.18.13-1.85.23-3.15.29-3.92.18-1.64.26-2.79.26-3.43,0-.44-.04-.86-.11-1.28-.07-.41-.11-.72-.11-.92,0-.62.18-1.14.53-1.56.35-.42.91-.92,1.67-1.47.62-.47,1.72-1.07,3.3-1.8.82-.35,1.4-.62,1.74-.81.34-.19.51-.4.51-.64,0-.32-.26-.72-.79-1.19-.53-.47-1.13-.89-1.8-1.28-.09-.06-.21-.12-.37-.2-.16-.07-.24-.15-.24-.24s.18-.15.53-.2.65-.07.88-.07c1.26,0,2.38.24,3.34.73.97.48,1.8,1.33,2.51,2.53.29.5.44,1.01.44,1.54,0,.59-.18,1.09-.53,1.5-.35.41-.75.62-1.19.62-.24,0-.46-.05-.66-.15-.21-.1-.41-.23-.62-.37-.41-.26-.78-.47-1.1-.62-.32-.15-.73-.22-1.23-.22-1.17,0-2.41.43-3.7,1.28-.32.18-.57.43-.75.77-.18.34-.26.65-.26.95,0,.24.05.46.15.68.1.22.17.36.2.42.35.65.53,1.25.53,1.8,0,.38-.1,1.35-.31,2.9-.41,2.64-.62,4.62-.62,5.94,0,.79.11,1.55.33,2.27.22.72.52,1.08.9,1.08.41,0,1.28-.48,2.6-1.45,1.5-1.08,2.88-1.95,4.16-2.6,1.28-.64,2.63-.97,4.07-.97,1.29,0,2.49.35,3.61,1.03,1.11.69,1.99,1.61,2.64,2.77.65,1.16.97,2.4.97,3.72s-.34,2.65-1.01,3.89c-.68,1.25-2.28,2.47-4.82,3.67-2.54,1.2-6.33,2.11-11.37,2.73-.38.06-.7.09-.97.09-.38,0-.57-.09-.57-.26Z"/>
      <path class="cls-2" d="M135.32,118.38c-.56-.53-.98-1.14-1.28-1.85-1.14-2.87-1.72-6.36-1.72-10.47,0-1.94.15-3.66.44-5.17.29-1.51.69-3.12,1.19-4.82.32-1.14.56-2.05.7-2.71.15-.66.22-1.31.22-1.96s-.11-1.24-.33-1.87c-.22-.63-.52-1.14-.9-1.52-.06-.06-.15-.15-.26-.29-.12-.13-.18-.26-.18-.37s.09-.18.26-.18.41.07.7.22c1.17.59,2.13,1.33,2.86,2.22.73.9,1.1,2.06,1.1,3.5,0,.7-.13,1.42-.4,2.16-.26.73-.66,1.58-1.19,2.55-.29.59-.59,1.21-.88,1.87-.29.66-.51,1.28-.66,1.87-.29,1.06-.44,2.19-.44,3.39,0,.73.07,1.42.22,2.05.15.63.34.95.57.95.12,0,.26-.12.42-.37.16-.25.27-.42.33-.51l2.42-4.97c.21-.32.37-.48.48-.48.09,0,.13.06.13.18l-.13.53c-.44,1.17-.9,2.62-1.39,4.33-.48,1.72-.73,3.12-.73,4.2,0,.76.07,1.53.22,2.29.15.76.35,1.7.62,2.82.26,1,.4,1.61.4,1.85,0,.44-.12.78-.37,1.01-.25.23-.55.35-.9.35-.47,0-.98-.26-1.54-.79ZM148.01,116.2c-1.72-.72-2.94-2.03-3.67-3.94-.21-.5-.31-.84-.31-1.01,0-.12.06-.18.18-.18.09,0,.2.06.35.18.15.12.26.21.35.26,1.14.91,2.46,1.54,3.96,1.89.7.18,1.7.26,2.99.26,1.41,0,3.24-.16,5.5-.48,1.11-.12,1.72-.18,1.8-.18.79,0,1.42.21,1.89.62.47.41.7.87.7,1.36,0,.94-.71,1.56-2.13,1.85-1.42.29-3.23.44-5.43.44-2.41,0-4.47-.36-6.18-1.08ZM148.96,93.91c-.94-.32-1.75-.75-2.42-1.3-.68-.54-1.14-1.08-1.41-1.61-.12-.23-.18-.42-.18-.57,0-.12.04-.18.13-.18.06,0,.2.07.44.22.23.15.44.26.62.35,1,.41,2.13.62,3.39.62.82,0,1.89-.09,3.21-.26,1.32-.18,2.45-.38,3.39-.62.44-.15.81-.22,1.1-.22.67,0,1.28.18,1.8.55.53.37.79.8.79,1.3,0,.79-.75,1.37-2.24,1.74-1.5.37-3.08.55-4.75.55-1.53,0-2.82-.19-3.87-.57Z"/>
    </g>
  </g>
</svg>