<?xml version="1.0" encoding="UTF-8"?>
<svg id="_レイヤー_2" data-name="レイヤー 2" xmlns="http://www.w3.org/2000/svg" viewBox="0 0 964.75 313">
  <defs>
    <style>
      .cls-1 {
        fill: #3c3b48;
      }

      .cls-2 {
        fill: #fcfcfc;
      }

      .cls-3 {
        fill: #504e62;
      }

      .cls-4 {
        fill: #f9cc73;
      }

      .cls-5 {
        fill: #eff6f9;
      }

      .cls-6 {
        fill: #d2e5f1;
      }

      .cls-7 {
        fill: #fff;
      }

      .cls-8 {
        fill: #f0f7fa;
      }

      .cls-9 {
        fill: none;
        stroke: #504e62;
        stroke-miterlimit: 10;
        stroke-width: 4.27px;
      }

      .cls-10 {
        fill: #f2c261;
      }

      .cls-11 {
        fill: #f9cd73;
      }

      .cls-12 {
        fill: #face73;
      }

      .cls-13 {
        fill: #f1f7fb;
      }

      .cls-14 {
        fill: #737288;
      }

      .cls-15 {
        fill: #f0c060;
      }

      .cls-16 {
        fill: #f1f7fa;
      }

      .cls-17 {
        fill: #facc72;
      }

      .cls-18 {
        fill: #f1c165;
      }

      .cls-19 {
        fill: #f2f7fa;
      }

      .cls-20 {
        fill: #f9fafa;
      }
    </style>
  </defs>
  <g id="_レイヤー_2-2" data-name="レイヤー 2">
    <g>
      <g>
        <path class="cls-3" d="M885.73,88.71c2.7-1.89,4.12-4.64,5.01-7.69.36-1.25.87-1.55,2.16-1.25,7.62,1.77,15.31,3.29,22.9,5.19,8.48,2.13,12.9,7.74,13.71,16.46.22,2.4.25,4.78.37,7.17.74.94.61,2.03.55,3.11-.7,1.87-.73,3.82-.78,5.8-.15,5.87-.96,11.68-1.5,17.51-.32,3.46-.95,6.89-1.16,10.37-.37,6.37-1.62,12.55-5.48,17.89-3.47,3.49-7.21,6.52-12.06,7.29,2.85-.64,5.97-.34,9.09-.33.69,0,1.49-.03,1.82.86-.1.26-.27.45-.53.57-1.05.43-2.15.35-3.24.35-21.48,0-42.96,0-64.44,0-.66,0-1.31.01-1.96-.06-2.2-.23-3.13-1.1-3.24-3.35-.12-2.54-.15-5.09.03-7.64.22-1.49-.5-3.15.81-4.43,2.56-1.31,5.4-.87,8.11-1.18,3.45-.4,6.89-.86,10.35-1.18,3.61-.33,7.22-.71,10.83-1.03,5.34-.48,10.68-1.05,16.01-1.61,2.02-.21,4.05-.38,6.07-.48,1.52-.07,1.9-.64,1.96-1.91.28-5.37.68-10.74.99-16.12.47-8.28.92-16.55,1.58-24.82.2-2.52.02-5.05.41-7.56-.42,4.63-.74,9.27-1.08,13.9-.63,8.41-.83,16.85-1.64,25.25-.29,2.97.02,5.97-.51,8.93-.25,1.37-.66,2.12-2.29,2.28-4.4.43-8.82.73-13.21,1.25-4.82.57-9.66.97-14.5,1.42-5.84.54-11.65,1.48-17.52,1.75-.66.03-1.31.06-1.9-.34-.43-.55-.53-1.21-.44-1.86.68-4.83-.05-9.72.56-14.55.05-5.15.68-10.27.6-15.43-.14-8.49.73-16.95.46-25.44-.03-1.02.18-2.02.39-3.01-.07-1.08.61-1.72,1.35-2.34,3.84-3.25,8.33-5.27,13.01-6.93,1.02-.36,1.76-.22,2.42.75,4.04,5.89,7.64,6.71,13.96,3.27.63-.34,1.18-.88,1.97-.85Z"/>
        <path class="cls-20" d="M847.61,160.76c.02,2.55.06,5.09.07,7.64,0,2.41.37,2.78,3.02,2.78,17.76.02,35.53.04,53.29.05,5.46,0,10.92-.02,16.38-.03.78-.71,1.74-.62,2.69-.59,9.9.09,19.81-.13,29.71-.09,2.76.01,3.13-.37,3.5-3.05.3-2.24.88-4.43,1.24-6.66.12-.74.14-1.66,1.18-1.87.12,3.1,0,6.16-.79,9.2-.39,1.51-.18,2.88,2.21,2.32,1.62-.38,2.31,1.08,2.48,2.43.18,1.43.14,2.91.04,4.36-.12,1.67-2.05,2.78-3.69,2.22-.69-.23-1.36-.49-2.05-.74-2.1,1.26-4.39.5-6.6.62-9.69.15-19.37.14-29.06,0-2.25.13-4.51.09-6.76,0-10.72.08-21.44.28-32.15-.1-.99-.29-1.99-.38-3.02-.38-10.13.01-20.27-.27-30.38.09-8.8.31-17.6.8-26.39.84-31.11.15-62.21.06-93.32.06-.73,0-1.46,0-2.19.04-.95.05-1.66.33-1.96,1.38-.27.95-.55,2.25-1.92,1.84-1.22-.36-1.13-1.54-.89-2.59.11-.5-.09-.84-.49-1.1-.33-.12-.67-.19-1.01-.29-1.48-.46-2.96-.38-4.43.03-.62.15-1.24.14-1.87.16-15.21.89-30.43.37-45.65.51-1.24.01-2.48-.05-3.71.16-1.2.21-2.21.62-2.66,1.93-.25.71-.5,1.7-1.55,1.5-.99-.19-1.27-1.1-1.43-1.99-.11-.64.08-1.32-.28-1.91-.18-.13-.38-.24-.58-.34-1.92-.34-3.83-.95-5.81-.33-.22.03-.42-.03-.59-.17-.29,0-.58,0-.87,0-5.19,0-6.36-1.35-5.68-6.51.15-1.17.63-1.88,1.95-1.81,4.28.23,8.58-.42,12.84.4,1.84.35,3.26-.31,3.99-2.14,2.78,2.46,6.18,1.88,9.45,1.91,4.36.04,8.72-.08,13.09.06,1.16-.11,2.33-.11,3.49-.11,35.89,0,71.78,0,107.68.03,1.63,0,3.33-.55,4.92.33,1.15.41,2.37.05,2.83-.82.92-1.72,1.54-1.02,2.6-.2,2.33,1.8,5.67.89,6.77-1.76,1-2.4,3.3-3.57,4.91-5.39.83-.95,1.62-2.02,3-2.26,1.49-1.42,3.47-1.72,5.3-2.36,2.05-.07,4.03-.33,5.96-1.15,1.92-.81,3.85.37,5.8.31.71-.02,1.45.37,2.16.23,2.84-.57,4.42.74,5.24,3.31Z"/>
        <path class="cls-14" d="M632.47,309.57c-.86-1.21-.76-2.61-.83-3.99-.37-6.44-1.23-12.83-2.05-19.23-.6-4.68-.97-9.39-1.47-14.08-.25-2.36.06-4.87-1.87-6.79-.65-.64-.73-1.55-.73-2.45,0-2.19-.06-4.37-.04-6.56.02-2.52.56-3,3.15-3.02,1.16,0,2.33,0,3.49,0,.65-.73,1.55-.71,2.4-.71,3.31-.01,6.62-.11,9.93.06.54-.06,1.08.02,1.62,0,1.32-.09,2.64-.06,3.97,0,1.99-.09,3.98-.1,5.98,0,.67.01,1.35-.05,2.02,0,3.83-.17,7.67-.07,11.5-.07,1.23.17,2.47,0,3.71.01,1.73.03,2.86.78,2.99,2.5.31,3.97.7,7.86-1.34,11.7-1.27,2.39-1.1,5.38-1.35,8.11-.71,7.74-1.56,15.45-2.51,23.16-.3,2.45-.36,4.93-.67,7.39-.14,1.09-.28,2.16-.73,3.18-.71,1.73-2.08,2.25-3.84,2.25-9.96,0-19.93,0-29.89-.01-1.35,0-2.62-.19-3.43-1.46Z"/>
        <path class="cls-2" d="M885.73,88.71c-3.14,2.76-6.8,3.87-10.89,3.09-2.63-.5-4.25-2.39-5.3-4.76-.33-.74-.41-1.61-1.61-1.15-5.32,2.03-10.54,4.22-14.66,8.34-1.54,2.97-3.81,5.39-5.97,7.89-.3.35-.8.75-1.33.41-.51-.33-.34-.91-.26-1.4.19-1.14.45-2.28.82-3.37.48-1.42.34-2.69-.55-3.88-.22-1.26.22-2.44.47-3.64.31-1.45,1.1-2.47,2.58-2.95,2.95-.97,4.89-3.07,6.11-5.83.83-1.87,1.75-3.66,2.98-5.29.39-.52.71-1.1.89-1.74.5-1.76-.31-2.72-2.1-2.31-1.59.37-2.58.13-2.56-1.74.71-1.33,2.15-1.6,3.33-2.25,1.07-.59,2.19-1.09,3.27-1.66,2.47-1.29,2.52-1.59.7-3.72-1.21-1.52-2.56-.91-3.59.03-1.34,1.23-2,.66-2.61-.6-2.23-4.63-2.81-9.59-2.48-14.61.36-5.42,1.75-10.67,3.32-15.87.63-2.09,1.86-3.36,3.63-4.33.68-.73,1.6-.63,2.45-.63,5.17-.02,10.34-.04,15.51,0,2.86.03,2.98.41,2.37,3.28-1.06,5.02-.42,9.99.9,14.89.23.85.72,1.68,1.77,1.68,1.23,0,1.5-.99,1.69-1.94.34-1.72,1.16-3.01,2.99-3.33,1.94-.34,3.61.23,4.88,1.77,2.97,3.6,1.55,8.77-2.84,10.37-2.69.98-2.83,1.34-2.26,4.12.46,2.26,1.83,4.09,2.68,6.16.4,4.3.8,8.61,1.2,12.91.04.43.24,1.04.04,1.27-1.71,1.92-1.53,4.78-3.45,6.61-1.16,1.11-1.85,2.57-2.13,4.19Z"/>
        <path class="cls-3" d="M846.29,93.88c1.21.72,1.61,1.59,1.06,3.06-.65,1.74-.93,3.61-1.49,5.91,2.99-2.84,4.6-6.26,7.4-8.62.43.29.45.68.37,1.15-.13.71-.28,1.43-.3,2.15-.17,10.19-.1,20.38-.57,30.55-.17,3.58.25,7.26-.76,10.8-.53,1.62-1.88,2.59-3.06,3.6-4.91,4.2-9.58,8.67-14.54,12.8-1.78,1.48-3.61,2.92-6.01,3.29-1.75.62-3.49,1.24-5.24,1.86-7.81.08-12.54-7.59-11.56-14.17.89-5.96,3.48-11.38,5.42-17,4.13-11.95,8.44-23.84,12.52-35.81.75-2.21,1.91-2.57,3.91-2.17,3.26.64,6.4,1.81,9.74,2.06,1.13-.41,2.17-.26,3.09.54Z"/>
        <path class="cls-3" d="M890.06,63.73c-2.91-2.45-3.64-5.76-3.64-9.34,0-1.36,1.04-1.1,1.86-1.22,4.49-.66,6.63-5.46,4.13-9.25-1.18-1.79-2.83-2.45-4.89-2-1.84.4-2.3,1.75-2.27,3.45.03,1.32-.9,1.91-2.03,2.17-1.31.3-2.2-.38-2.49-1.55-1.42-5.77-3.02-11.58-.54-17.45.51-1.2-.12-1.26-.89-1.26-2.91,0-5.81.03-8.72.11-3.56.1-7.12.27-10.68-.03-5.07-1.62-8.35-4.8-9.07-10.28-.62-4.66,1.7-8.77,5.51-9.67,1.79-.43,3.54-.08,5.13.56,6.76,2.72,13.78,3.23,20.98,3.3,5.4.05,9.84,2.43,12.38,7.52.35.69.76,1.1,1.5,1.39,5.66,2.2,8.77,6.83,8,12.78-1.4,10.73-5.53,20.41-12.06,29.05-.58.77-1.34,1.33-2.22,1.71Z"/>
        <path class="cls-12" d="M958.69,158.94c-.84,2.84-1.33,5.76-1.66,8.68-.35,3.09-.73,3.6-3.82,3.6-10.11,0-20.22-.02-30.34-.04.22-1.12,1.18-.96,1.9-.99,2.69-.09,5.35-.58,8.05-.52,2.41.06,3.18-.52,3.54-2.93,1.16-7.78,2.91-15.44,4.34-23.16,1.45-7.8,2.91-15.59,4.32-23.39.3-1.66.5-3.32.11-4.98-.41-1.76-1.59-2.8-2.9-4.05-2.01-1.94-4.11-1.76-6.38-1.76-2.03,0-4.18-.25-5.06,2.33-.11.32-.61.34-.96.09,0-1.07.01-2.15.02-3.22,7.62-.55,15.29-.64,22.88-.08,7.82.58,13.6,7.58,11.62,16.88-1.26,5.93-1.99,11.98-3.11,17.94-.97,5.19-2.19,10.33-2.57,15.61Z"/>
        <path class="cls-3" d="M650.04,253.43c-1.3.01-2.6.03-3.91.04-.85-.57-1.12-1.48-1.39-2.4-3.07-10.49-7.01-20.67-10.9-30.87-.15-.39-.3-.79-.67-1.07,2.39,6.24,4.58,12.54,6.86,18.81,1.49,4.1,2.82,8.27,4.28,12.38.34.97.96,2.02.36,3.14-4.19,0-8.37,0-12.56,0-6.22-8.34-9.35-17.76-10.21-28.08-.34-4.04-.16-7.96.92-11.85,1.99-7.22,8.51-9.52,14.6-5.15,5.58,4,8.96,9.63,11.73,15.72.47,1.04.93,2.09,1.55,3.49.48-2.4-.22-4.5.49-6.49.71.46.77,1.22.74,1.92-.13,3.57.12,7.06,1.82,10.31.26.5.31,1.11.29,1.69-.33,2.46-1.38,4.73-1.93,7.14-.7,3.13-1.26,6.26-1.49,9.45-.05.66-.12,1.31-.6,1.82Z"/>
        <path class="cls-6" d="M632.47,309.57c1.23.66,2.53.76,3.91.75,9.77-.03,19.53-.05,29.3.03,1.58.01,2.75-.31,3.58-1.66,1.34.41,2.71.49,4.1.49,11.14.01,22.28-.06,33.42.03.95,0,1.89.03,2.82.23,1.1.18,2.19.32,3.31.12,1.26-.06,2.51-.06,3.77-.1,1.53.08,3.06.1,4.59.1,28.03,0,56.05,0,84.08,0,1.53,0,3.06.03,4.57-.21,7.67-.37,15.34-.25,23-.06.81-.09,1.61-.26,2.44-.19,21.06.13,42.13-.06,63.19.09.29,0,.58-.01.86-.1.66-.16,1.32-.16,1.98.01,1.52.31,3.04.04,4.56.06,9.87.12,19.74-.19,29.61.17.61-.11,1.23-.23,1.85-.21,3.67-.04,7.35.19,11.02.11,1.09-.02,2.16-.04,3.21-.35.36-.08.78-.14,1.04.13,1.32,1.33,2.72,1.03,4.16.27,1.13.52,2.33.59,3.54.6,1.01,0,2.24-.15,2.18,1.4-.06,1.38-1.2,1.22-2.14,1.22-5.66,0-11.32-.04-16.98.02-103.25.97-206.51.16-309.76.44-4.29.01-8.55-.76-12.85-.46-.93.06-1.84-.07-1.85-1.29,0-1.22.9-1.35,1.83-1.32,3.63.13,7.28-.32,10.9.25.49.08.65-.16.74-.55Z"/>
        <path class="cls-1" d="M956.87,309.27c-1.66,1.99-3.31,1.85-4.62-.4-.61-.42-.69-1.08-.78-1.73-.05-.43-.07-.87-.06-1.31.24-14.93-.42-29.84-.54-44.77-.11-13.32-.04-26.65-.44-39.96-.25-8.23-.17-16.44-.32-24.66-.04-2.23-.32-4.49-.37-6.74-.13-2.9-.05-5.8-.03-8.71,0-.8.04-1.61.65-2.24,2.18-.01,4.36-.03,6.54-.04.03,12.88.1,25.76.1,38.64,0,29.91-.05,59.82-.07,89.73,0,.73-.03,1.45-.04,2.18Z"/>
        <path class="cls-1" d="M653.52,234.99c-.02-.22.03-.47-.07-.64-2.28-4.16-2.28-8.71-2.25-13.26.27-13.63.54-27.27.82-40.9.01-.5.11-1,.17-1.5.15-.02.29-.05.44-.07,2.04-.55,4.08-.15,6.11.07h0c1.17,1.56.82,3.42.62,5.05-.52,4.27-.45,8.56-.63,12.83-.35,8.34-1.01,16.67-1.02,25.02,0,2.55-.46,5.06-.59,7.6-.39,1.91-1.55,3.47-2.45,5.14-.22.4-.51.9-1.15.65Z"/>
        <path class="cls-14" d="M846.29,93.88c-1.08.08-2.09-.23-3.09-.54.85-2.54,1.39-5.15,1.86-7.77.21-1.19.2-2.16,2.19-1.86,5.74.84,9.45-4.45,7.54-10.44-.24-.75-.65-1.45-.98-2.17.21-.36.05-1.09.86-.85.14,1.25.36,2.32,1.99,1.22.8-.54,1.66-.48,2.43.14.77.62.85,1.47.75,2.38,0,.07,0,.16-.04.21-2.75,3.81-3.83,8.66-7.41,11.93-.64.58-1.4,1.27-2.18,1.39-2.65.41-3.36,2.13-3.48,4.45-.03.64-.28,1.27-.43,1.91Z"/>
        <path class="cls-3" d="M854.66,70.25c-.29.28-.57.56-.86.85-1.34-1.46-2.82-2.71-5.26-3.24,4.43-2.25,8.66-3.94,13.1-5.11,1.09.17,1.98.66,2.09,1.85.11,1.16-.87,1.55-1.71,1.97-2.45,1.23-4.91,2.45-7.36,3.68Z"/>
        <path class="cls-10" d="M929.85,111.81c.36-.09.83-.22.79-.62-.21-2.33,1.54-2.32,2.99-2.42,2.1-.13,4.22-.09,6.33-.02.86.03,2.06-.13,1.88,1.4-.04.35.1.69.37.66,1.63-.18,2.25.83,2.88,2.09.99,1.99,1.2,4.08.85,6.17-1.04,6.2-2.09,12.4-3.38,18.55-1.48,7.07-2.53,14.23-4.26,21.26-.7,2.87-.98,5.84-1.45,8.77-.31,1.97-1.37,2.85-3.45,2.76-3.54-.15-7.06.18-10.55.78-.84,0-1.67,0-2.51.01-.03-.12-.07-.23-.12-.34.46-2.47-.38-5.07.79-7.46.18-.54-.02-1.15.39-1.66,3.59-4.41,4.26-9.84,4.76-15.14.37-3.93.86-7.88,1.29-11.78.35-3.14.11-6.36.8-9.4.87-3.81.61-7.61.76-11.42.03-.89.64-1.43.8-2.19Z"/>
        <path class="cls-5" d="M828.4,158.56c6.51-3.42,11.32-8.96,16.85-13.59,2.33-1.95,4.51-4.06,6.76-6.1.16,4.46.05,8.91-.18,13.36-.05.94-.19,1.88-.29,2.81-.92,1.04-2.59.63-3.45,1.78-.88,1.22-.12,2.64-.47,3.93-.49-.05-.67-.37-.9-.79-.75-1.39-1.58-2.26-3.56-1.94-1.93.31-4.07.02-5.99-.49-1.33-.36-2.32-.29-3.45.33-1.67.91-3.51.74-5.32.71Z"/>
        <path class="cls-14" d="M848.08,156.83c.58-1.7,2.06-1.66,3.45-1.78,4.16-.43,8.32-.85,12.48-1.29,5.18-.55,10.35-1.15,15.53-1.65,5.33-.52,10.67-.94,16-1.41,1.29-.11,2.58-.29,3.88-.32.88-.02.61-.62.69-1.06.76-4.16.41-8.39.8-12.58.8-8.58.94-17.22,1.76-25.81.32-3.32.3-6.67.56-9.99.06-.86.05-2.44.89-2.38,1.37.1.83,1.65.75,2.53-.61,6.78-.92,13.59-1.29,20.39-.51,9.48-1.15,18.95-1.73,28.43-.05.9-.3,1.56-1.33,1.66-4.68.44-9.36.87-14.04,1.34-5.18.52-10.35,1.23-15.54,1.57-4.99.33-9.93,1.04-14.9,1.52-2.66.26-5.36.14-7.97.85Z"/>
        <path class="cls-3" d="M921.04,163.4c0,1.87,0,3.75.02,5.62,0,.74-.01,1.46-.81,1.84-3.9,0-7.81,0-11.71,0,4.84-1.42,8.59-4.59,12.51-7.46Z"/>
        <g>
          <path class="cls-14" d="M741.81,145.93c-1.19-4.28-3.29-8.21-4.77-12.39-1.88-5.35-4.05-10.59-6.06-15.9-.28-.74-.51-1.54-.55-2.32-.07-1.35.54-2.24,2.03-2.26,1.16-.02,2.33-.04,3.5-.04,18.57-.01,37.14-.02,55.71-.03.43,0,.87.06,1.3.08.82.47,1.15,1.27,1.44,2.11,5.24,15.22,10.93,30.28,16.21,45.49.14.41.28.83.4,1.25.31,1.18-.18,1.81-1.34,2-.94.16-1.89.11-2.84.11-15.23,0-30.45.03-45.68-.02-2.45,0-4.9-.32-6.15,2.5-.79-.53-.72-1.37-.75-2.15-.21-5.08.18-10.15.6-15.21.05-.65.37-1.36.11-1.94-1.08-2.37.24-4.13,1.25-6.07,1.47-2.82,3.6-5.28,4.45-8.41.39-1.14,1.28-2.09,1.42-3.41-.98.52-1.64,1.31-2.36,2.02-.99.67-1.63,1.6-2.16,2.66-1.84,3.69-4.27,7.05-5.91,10.86-.88,2.04-1.61,2.09-3.52.95-.37-1.12.14-2.11.44-3.14,1.05-3.58,2.24-7.13,2.76-10.85.24-1.12.78-2.65-.51-3.09-1.41-.48-1.27,1.35-1.83,2.15-1.66,4.52-2.84,9.18-4.29,13.76-.17.55-.21,1.15-.6,1.63-.85.45-1.6.25-2.28-.37Z"/>
          <path class="cls-3" d="M869.45,170.86c-1.14.1-2.29.28-3.43.28-36.53.03-73.06.04-109.59.06-1.09,0-2.18.03-3.27.04-.22-1.96,1.04-3.34,1.88-4.89-.2-2.6,1.08-3.04,3.5-3.03,16.52.12,33.03.06,49.55.06,2.73,0,2.77-.02,1.88-2.5-5.66-15.94-11.34-31.87-17.01-47.8,1.48-.15,2.07.84,2.46,2,5.16,15.42,10.92,30.63,16.37,45.95.62,1.75,1.38,2.41,3.35,2.4,17.25-.1,34.5-.05,51.75-.1,1.95,0,3.41.59,4.33,2.29.97,1.79.41,3.33-1.78,5.23Z"/>
          <path class="cls-17" d="M755.03,166.35c.38,2.02-1.21,3.28-1.88,4.89-5.82,0-11.63-.09-17.45.03-2.25.04-3.94-.48-4.88-2.64-.74-6.21-.68-12.49-.18-18.66.36-4.53-1.56-7.77-3.52-11.31-1.08-1.95-2.65-3.62-3.24-5.84.35-1.02.87-1.75,2.12-1.2,1.12.09,1.51.85,2.12,1.74,2.49,3.61,4.79,7.32,6.8,11.22.67,1.29,1.92,1.73,3.3,1.69,1.2-.04,2.4-.22,3.59-.33.69.05,1.38.1,2.07.14,1.46-.6,2.95-.54,4.45-.17,2.97,1,3.11-1.78,3.71-3.19,1.56-3.69,4.26-6.73,5.72-10.47.25-.64,1.07-1.15,1.95-1.18.72.12,1.33.37,1.41,1.22.33,1.04.17,2.07-.45,2.9-2.08,2.77-3.58,5.88-5.24,8.89-.17.31-.51.65-.47.92,1.29,7.12-.77,14.24.06,21.35Z"/>
          <path class="cls-1" d="M726,131.63c-.83.18-1.5.64-2.12,1.2-.56-1.42-1.12-2.85-1.68-4.27,1.52.79,3.53.92,3.8,3.07Z"/>
          <path class="cls-3" d="M748.34,145.91c-1.46.64-2.96.3-4.45.17.91-5.15,2.97-9.98,4.23-15.04.05-.21.43-.35.66-.52,1.2-.27,2.19.11,3.04.95-.02,3.97-1.6,7.58-2.6,11.33-.28,1.04-.58,2.07-.87,3.11Z"/>
          <path class="cls-1" d="M751.82,131.47c-1.05-.19-2.12-.35-3.04-.95,0-.5-.06-1,.26-1.46.45-.63.72-1.51,1.72-1.38.98.13,1.16.96,1.31,1.75.14.7.35,1.42-.25,2.03Z"/>
          <path class="cls-1" d="M761.13,132.29c-.47-.41-.94-.81-1.41-1.22.43-1.63,2.09-1.94,3.16-2.94-.16,1.59-.44,3.09-1.75,4.16Z"/>
        </g>
        <path class="cls-5" d="M656.52,229.81c.56-11.96,1.15-23.92,1.68-35.88.23-5.08.36-10.16.53-15.23,1.31-.11,1.32.75,1.33,1.69.01,1.04-.33,2.24,1.06,2.82.14-.17.32-.32.39-.51,1.22-3.35,1.53-3.57,5.26-3.57,12.72,0,25.43.04,38.15-.03,3.32-.02,6.63-.7,9.97-.32,1.13,3.04.7,6.22.44,9.28-.36,4.14-.4,8.29-.61,12.43-.4,7.48-.62,14.98-1.05,22.46-.67,11.48-.81,22.98-1.61,34.46-.32,4.65-.27,9.32-.4,13.97-.18,6.48-.73,12.94-.58,19.43.13,5.61-.67,11.2-.45,16.81.03.79-.02,1.62-.69,2.22-4.46,0-8.92.02-13.38.03-8.42,0-16.83,0-25.25-.02-.84,0-2.06.45-2.03-1.16.71-6.62,1.43-13.23,2.14-19.85.75-7.09,1.49-14.19,2.24-21.28.04-.35.08-.77.29-1.01,3.19-3.66,1.54-7.92,1.49-11.97-.01-.99-.75-1.09-1.54-1.09-1.38,0-2.76-.04-4.14-.07-.32-.87.37-1.33.79-1.88,4.96-6.7,8.67-13.95,9.74-22.35.3-2.4.34-4.79-.37-7.14-1.12-3.72-3.82-5.24-7.58-4.27-5.66,1.47-9.63,5.2-12.99,9.76-.75,1.02-1.21,2.37-2.63,2.77-.04.01-.12-.07-.17-.13-.08-.1-.08-.23,0-.38Z"/>
        <path class="cls-5" d="M715.68,309.72c-.88.42-1.77.63-2.7.14-.93-2.26-.31-4.59-.14-6.86.58-7.61,1.02-15.23,1.61-22.84.61-7.75,1.02-15.52,1.56-23.28.5-7.25,1.02-14.5,1.53-21.75.55-7.9,1.02-15.81,1.56-23.71.4-5.8.6-11.61,1.02-17.41.31-4.35.28-8.72.83-13.05.1-.79.11-1.61.69-2.25.98-.04,1.7.17,1.36,1.41-.15.56-.33,1.12-.37,1.69-.03.53.19,1.04.84,1.05.52,0,.85-.44.79-.87-.42-3.32,1.86-2.88,3.89-2.88,28.18,0,56.36.01,84.55,0,2.88,0,5.74-.15,8.63-.04,6.68.26,13.37-.22,20.04-.49,13.06-.52,26.11-.15,39.17-.33.57,0,1.18-.1,1.65.37-.98,1.06-2.28.78-3.47.79-9.35.03-18.7.05-28.04-.01-1.91-.01-3.25.4-3.52,2.51-1.52,1.49-3.54,1.15-5.35,1.3-13.63,1.13-27.28,2.03-40.89,3.47-6.44.68-12.92.93-19.34,1.79-9.65,1.29-15.34,6.35-17.69,15.89-2.05,8.35-4.17,16.67-6.16,25.04-3.56,15.02-7.31,30-10.96,45.01-1.24,5.1-2.28,10.24-3.74,15.28-.47,1.6-.02,2.48,1.57,2.95.92.27,2.11.32,2.23,1.7-.52,1.02-1.48.86-2.3.7-1.73-.34-3.35,0-4.93.58-5.94,2.22-11.88,4.42-17.69,6.97-3.25,1.43-5.08,3.96-6.24,7.15Z"/>
        <path class="cls-4" d="M950.34,178.76c-.01,3.64-.02,7.28-.04,10.92.18,6.22-1.12,12.27-2.29,18.31-2.12,10.94-8.77,17.73-19.48,20.62-.43.11-.86.18-1.28-.03-.78-.71-.74-1.71-.87-2.62-1.85-13.66-3.6-27.33-5.1-41.03-.22-2.06-.96-4.13-.08-6.22,9.71.02,19.42.03,29.13.05Z"/>
        <path class="cls-1" d="M721.64,178.71c-.32,6.18-.62,12.36-.97,18.53-.35,6.1-.75,12.2-1.15,18.3-.64,9.81-1.29,19.61-1.95,29.42-.66,9.8-1.31,19.61-1.99,29.41-.66,9.51-1.34,19.02-2.03,28.53-.17,2.32-.38,4.64-.58,6.96-1.03.89-2.05.71-3.06-.02-.03-10.63.39-21.24.8-31.86.63-16.5,1.07-33.01,1.86-49.51.8-16.57,1.67-33.13,2.31-49.7.53-.05,1.06-.1,1.58-.15,1.45-.25,2.9-.23,4.35,0,.27.03.55.07.82.1Z"/>
        <path class="cls-1" d="M921.22,178.72c.68,5.84,1.33,11.68,2.06,17.52,1.23,9.79,2.5,19.58,3.81,29.36.13.99-.15,2.06.49,2.97.87.66.79,1.68.92,2.59,1.75,11.58,3.09,23.21,4.61,34.83,1.68,12.84,3.38,25.67,5.08,38.51.13,1.01.31,2.02.33,3.04.02.91-.1,1.77-1.2,2.04-.46.12-.91.24-1.37.36-1.65-.28-1.65-1.69-1.83-2.86-1.45-9.29-3.18-18.53-4.74-27.79-2.9-17.17-6.02-34.3-8.48-51.53-.81-5.98-1.83-11.92-2.7-17.89-.78-5.86-1.68-11.71-2.59-17.55-.61-3.81-.95-7.66-1.4-11.49-.08-.72-.21-1.46.35-2.08,2.22,0,4.43-.01,6.65-.02Z"/>
        <path class="cls-3" d="M914.57,178.74c.57,4.45,1.14,8.9,1.71,13.35-.48,1.31.31,3.06-1.39,3.94-3.37.31-6.66-.26-9.91-1.02-5.46-1.28-10.78-3.09-16.02-5.05-8.33-3.11-17.05-4.26-25.72-5.78-4.73-.83-9.47-1.55-14.31-1.35-.78.03-1.62.04-2.2-.69q.09-3.41,3.55-3.43c10.64-.03,21.27-.06,31.91-.08,10.07.02,20.14.04,30.21.06.72,0,1.45.04,2.17.06Z"/>
        <path class="cls-5" d="M658.74,178.69c-2.04-.02-4.07-.05-6.11-.07.31-.54.83-1,1.38-.75,1.52.7,3.28-.12,4.73.82Z"/>
        <path class="cls-5" d="M720.82,178.61c-1.45,0-2.9,0-4.35,0,1.45-.6,2.9-.59,4.35,0Z"/>
        <path class="cls-14" d="M656.52,229.81c2.03-1.47,3.16-3.73,4.75-5.58,3.3-3.85,7.34-6.31,12.25-7.35,3.08-.65,6.11,1.63,7.03,5.11,1.1,4.15.39,8.22-.65,12.22-1.88,7.19-5.43,13.53-10.16,19.23-3.95,0-7.9,0-11.85,0-.7-1.02.06-1.82.46-2.61,3.79-7.47,7.32-15.07,11.4-22.39.13-.23.33-.47.16-.79-.6.09-.74.64-.96,1.05-3.59,6.83-7.24,13.64-10.73,20.52-.71,1.4-.66,3.2-2.13,4.21-2.01,0-4.03,0-6.04,0-.22-5.58,1.19-10.88,2.8-16.15.23-.76.45-1.52.68-2.29,1.29-1.56,2.01-3.45,3-5.19Z"/>
        <path class="cls-14" d="M644.68,253.47c-3.73-11.38-7.76-22.66-12.03-33.85-.23-.59-1.11-1.43-.07-1.84,1.01-.4,1.29.72,1.55,1.43,2.69,7.28,5.32,14.58,8.03,21.85,1.52,4.08,2.71,8.26,3.98,12.42-.49,0-.97,0-1.46,0Z"/>
        <path class="cls-3" d="M656.08,253.43c2.36-7.05,6.31-13.33,9.65-19.9.92-1.81,1.86-3.62,2.84-5.4.43-.79.87-2.15,1.94-1.57,1.24.67.04,1.59-.37,2.34-4.34,8.05-8.5,16.19-12.27,24.53-.6,0-1.2,0-1.8,0Z"/>
        <path class="cls-14" d="M846.34,104.96c-.42,2.13-.84,4.4-1.31,6.67-2.04,9.98-4.09,19.95-6.14,29.92-.12.57-.32,1.12-.42,1.68-.13.7-.36,1.41-1.19,1.21-.88-.21-.59-1.07-.47-1.66,1.59-7.64,3.22-15.27,4.83-22.9,1-4.73,1.96-9.47,2.95-14.21.07-.35.16-.71.29-1.04.2-.5.1-1.38.87-1.27.71.1.55.9.59,1.61Z"/>
        <path class="cls-8" d="M899.67,309.47c-.06.3-.15.55-.52.55-20.78-.05-41.56-.1-62.34-.16-.63,0-1.33.17-1.84-.42-.64-.82-.23-1.68-.06-2.51,5.14-25.22,11.1-50.26,16.01-75.53.2-1.05.32-2.19,1.42-2.82.97-.41,2-.36,3.01-.36,10.9,0,21.79,0,32.69,0,1.08,0,2.19-.09,3.2.46.66.48.75,1.22.81,1.95,1.35,16.47,3.31,32.89,4.93,49.33.91,9.2,1.87,18.4,2.86,27.59.07.66.2,1.3-.15,1.92Z"/>
        <path class="cls-8" d="M833.2,309.93c-7.71-.02-15.41-.05-23.12-.07-.57-.44-.71-1.09-.73-1.74-.1-3.97-.14-7.94.03-11.91.02-.43.15-.85.35-1.25,1.11-1.21,1.38-2.67,1.31-4.25-.61-14.17-.51-28.37-.99-42.54-.28-8.23-.17-16.44-.3-24.66-.06-3.61.72-4.45,4.31-4.43,6.03.02,12.07-.35,18.1.21.34.14.63.32.75.71,1.81,5.74,5.14,8.19,11.2,8.36,1.41.04,2.93-.43,4.19.67.44.94.12,1.87-.07,2.78-4.52,22.23-8.87,44.49-13.3,66.74-.75,3.75-1.98,7.46-1.73,11.38Z"/>
        <path class="cls-19" d="M921.45,227.79c1.19,7.38,2.32,14.76,3.58,22.13,2.39,14.02,4.87,28.03,7.28,42.05.84,4.86,1.53,9.75,2.39,14.61.2,1.16.12,2.51,1.26,3.35-10.21-.02-20.43-.04-30.64-.04-1.15,0-2.31-.18-3.46.2-.87.29-.43-.41-.46-.73-.86-3.92-.78-7.93-1.06-11.89-.7-9.78-1.3-19.57-2.1-29.34-.61-7.38-.88-14.79-1.48-22.18-.31-3.84-.31-7.69-.7-11.53-.19-1.85-.54-3.77.47-5.55.96-.69,2.07-.6,3.16-.61,4.95-.02,9.91,0,14.86,0,2.32,0,4.64.11,6.93-.46Z"/>
        <path class="cls-16" d="M937.33,309.57c1.3-1.37.47-2.95.29-4.37-1.36-10.8-2.83-21.59-4.26-32.38-1.28-9.64-2.58-19.27-3.85-28.91-.67-5.11-1.28-10.23-1.92-15.34,2.12-.89,4.23-1.8,6.35-2.68,4.51-1.86,7.68-5.12,10.19-9.24,2.63-4.32,3.63-9.07,4.07-13.98.14-1.54.72-2.94.99-4.42.53-2.84.64-5.72,1.12-8.56.76,15.27.75,30.55.96,45.84.34,24.16.68,48.32,1.01,72.48,0,.29-.03.58-.04.87-.29.54-.67.97-1.33.97-4.53,0-9.06.19-13.58-.28Z"/>
        <path class="cls-14" d="M809.98,294.98c.04,4.96.07,9.92.11,14.88-.68.64-1.52.38-2.29.38-29.86,0-59.72-.02-89.58-.02-.89,0-1.74-.06-2.54-.49-.19-2.4.98-4.16,2.71-5.63,1.51-1.29,3.3-2.1,5.11-2.88,5.34-2.29,10.82-4.25,16.25-6.32,2.3-.88,4.57-.47,6.87-.38.4.24.63.63.73,1.05,1.32,5.92,11.57,6.3,14.5,1.63,1.34-2.15,1.99-2.14,3.81-.98.86,2.59.03,5.31.57,8.18,4.97-3.59,10.52-5.73,15.85-8.31,1.96-.95,3.96-1.82,6.11-2.25,1.88-.05,3.35.55,4.31,2.31,3.03,5.56,12.74,5.4,15.05-.34.4-1.01,1.12-2.04,2.43-.82Z"/>
        <path class="cls-1" d="M896.44,228.96c.8,12.69,1.56,25.39,2.42,38.08.76,11.16,1.71,22.31,2.39,33.47.18,2.92,1.1,5.88.15,8.83-.56.24-1.14.25-1.72.12-1.11-2.68-.93-5.57-1.24-8.36-1.24-11.1-2.35-22.22-3.48-33.34-.93-9.17-1.82-18.33-2.71-27.5-.37-3.76-.69-7.52-1.04-11.28.03-.44.31-.69.68-.86,1.57-.03,3.31-.94,4.56.83Z"/>
        <path class="cls-1" d="M833.2,309.93c-1.24-.69-.98-1.86-.77-2.88,2.71-13.57,5.46-27.14,8.19-40.71,1.68-8.39,3.33-16.79,5-25.18.81-4.05,1.64-8.09,2.46-12.14,1.32-1.03,2.63-1.03,3.95,0-4.32,22.59-9.45,45.01-14.31,67.48-.93,4.31-1.84,8.63-2.75,12.94-.51.43-1.14.45-1.76.49Z"/>
        <path class="cls-1" d="M809.98,294.98c-.83-.22-1.55-.26-1.87.81-1.86,6.26-12.17,6.72-15.52,1.49-1.16-1.81-2.39-2.94-4.51-3.09-2.07-.21-2.62-.76-2.71-3.05-.14-3.56-.34-7.13-.37-10.67-.06-7.05-.72-14.09-.54-21.14.13-5.09-.88-10.15-.46-15.26-5.41,16.32-9.9,32.89-14.76,49.35-.8,2.72-1.69,3.4-3.82,2.9-1.36-.84-2.32-.41-2.97.96-1.97,4.12-9.72,5.26-13.95,1.51-1.27-1.13-1.68-2.65-1.89-4.26-.35-1.47-1.72-.98-2.62-1.28-1.79-.59-2.28-1.39-1.79-3.37,4.91-19.75,9.7-39.53,14.54-59.29,2.3-9.38,4.54-18.78,6.98-28.13,2.14-8.21,8.96-13.83,17.39-14.61,15.57-1.44,31.13-2.88,46.7-4.26,6.3-.56,12.62-.97,18.92-1.45,12.6-.19,24.81,2.49,36.92,5.44,6.05,1.47,11.89,3.79,17.8,5.82,4.37,1.5,8.93,1.82,13.46,2.36.51.8.07,1.55-.17,2.27-1.93,5.81-4.82,10.97-9.99,14.55-1.29.91-2.72,1.57-4.07,2.4-.48.29-.99.49-1.54.58-2.12.46-4.17,1.25-6.34,1.47-.36.12-.73.21-1.11.26-10,.76-20.01,1.38-30.02,1.8-7.41.31-14.81,1.03-22.23,1-1.24,0-2.47.15-3.7.29-1.08.13-2.19.29-3.13-.51-6.69.04-13.39.11-20.08.08-1.9,0-2.28.9-2.24,2.54.22,9.38.38,18.77.58,28.15.29,13.75.59,27.5.87,41.25.03,1.36.32,2.91-1.76,3.1Z"/>
        <path class="cls-11" d="M896.44,228.96c-1.46-.8-3.09-.03-4.59-.49.42-1.4,1.64-.79,2.53-.99.91-.2,2.13.34,2.49-1.09.03-.33.05-.65.09-.98.59-4.07,2.17-7.58,5.7-9.97,2.1-2.09,4.87-2.08,7.52-2.32,1.73-.16,3.47-.31,5.22-.23,1.49.07,2.6-.18,2.59-2.02,0-.47.14-1.04.82-1.1.85,5.36,1.7,10.72,2.53,16.08.1.64.09,1.29.13,1.94-.38,1.13-1.26,1.13-2.26,1.13-7.59,0-15.17.03-22.76.05Z"/>
        <path class="cls-15" d="M918.79,209.77c-.1.41-.37.86-.28,1.22.55,2.25-.87,2.73-2.52,2.61-3.17-.23-6.28.41-9.42.46-1.64.02-2.39,1.57-3.84,1.79-4.44,1.51-4.47,6.2-6.28,9.2.1-.02.62-.04,1.03.42,0,.29,0,.58,0,.87-.84.76-1.88.71-2.89.71-11.42.01-22.85.01-34.27,0-.73,0-1.46.01-2.16-.21-.48-.16-1.02-.33-.99-.97.03-.63.58-.78,1.07-.92.85-.24,1.73-.19,2.6-.19,7.06,0,14.11.02,21.17-.02.9,0,2,.27,2.52-.8.35-.72.49-1.59.13-2.33-.39-.8-1.26-.6-1.96-.54-1.52.14-3.03.49-4.56.42-1.43-.07-1.78-.84-.99-2.02.6-.89,1.45-1.33,2.56-1.43,3.32-.32,6.63-.8,9.97-.87.86-.02,1.73-.04,2.52-.48.19-.06.39-.12.58-.18,2.29.16,4.42-.4,6.44-1.46.39-.19.79-.38,1.18-.57,1.6-.28,2.98-.96,4.01-2.26,5.61-4.14,8.61-9.94,10.48-16.46.46-1.22.91-2.45,1.37-3.67.84,5.89,1.67,11.79,2.51,17.68Z"/>
        <path class="cls-18" d="M892.22,216.68c-.48.66-1.29.88-1.93.84-3.37-.2-6.62.78-9.94.92-1.71.07-2.58.93-3.46,2.55,2.56-.27,4.82-.51,7.07-.76,1.54-.17,2.07.33,1.73,1.98-.68,3.25-.59,3.27-4.01,3.27-7.28,0-14.57-.01-21.85.02-.75,0-1.58-.29-2.25.86h39.9c.16,1.27-.32,1.79-1.67,1.79-1.32,0-2.71-.43-3.98.33-.21.17-.43.35-.64.52-13.06-.14-26.11-.21-39.17.03-1.32-.23-2.63-.18-3.95,0-3.66-.12-7.33.03-10.74-1.75-2.74-1.43-4.2-3.8-5.23-6.54-.08-.2.32-.58.5-.88,4.68-.71,9.42-.49,14.13-.77,15.15-.9,30.32-1.62,45.48-2.41Z"/>
        <path class="cls-13" d="M765.43,296.32c1.89,0,2.67-.96,3.19-2.79,4.89-17.23,9.73-34.49,15.26-51.53.03-.1.19-.16.31-.27.58.62.31,1.39.33,2.06.51,15.72.99,31.45,1.45,47.17.05,1.56.15,2.96,2.1,3.22-5.24,2.09-10.3,4.57-15.38,7.04-2.48,1.21-4.86,2.54-7.28,5.05v-9.96Z"/>
        <path class="cls-18" d="M899.24,215.05c-1.79,2.06-4.08,1.91-6.44,1.46,2.15-.49,4.29-.97,6.44-1.46Z"/>
        <path class="cls-18" d="M904.43,212.21c-.8,1.7-2.06,2.6-4.01,2.26,1.34-.75,2.67-1.51,4.01-2.26Z"/>
        <path class="cls-18" d="M897.49,225.48c-.6-.1-1.28.24-1.97-.37,1.33-.99,1.75-2.47,1.99-3.94.5-3.06,2.4-4.61,5.23-5.31-2.98,2.53-4.78,5.72-5.25,9.62Z"/>
        <path class="cls-18" d="M895.01,225.14c-1.38.46-2.35.52-3.18-.19-.39-.33.05-.66.31-.84,1.21-.88,1.76.28,2.87,1.03Z"/>
      </g>
      <rect class="cls-3" x="15.67" y="14.33" width="679.25" height="174.17" transform="translate(710.58 202.83) rotate(180)"/>
      <rect class="cls-9" x="2.13" y="2.13" width="706.32" height="198.56" transform="translate(710.58 202.83) rotate(180)"/>
      <polygon class="cls-3" points="709.04 68.65 752 68.65 709.04 39.01 709.04 68.65"/>
      <g>
        <path class="cls-7" d="M113.99,63.74c-1.19,2.79-3.2,6.63-5.58,9.69,3.5,2.99,7.62,7.38,9.72,9.96l-2.99,2.65c-2.24-3.06-5.64-6.8-9.01-9.93-3.64,3.88-8.23,7.51-13.09,9.79l-2.75-2.89c5.51-2.11,10.61-6.19,13.97-9.96,2.31-2.58,4.59-6.32,5.41-8.97h-12.48c-1.33,0-3.16.17-3.71.2v-3.84c.68.1,2.65.24,3.71.24h12.61c1.26,0,2.38-.14,2.96-.34l2.21,1.63c-.24.34-.75,1.19-.99,1.77Z"/>
        <path class="cls-7" d="M127.09,73.19c1.6-1.6,4.42-5.2,6.63-7.85,1.9-2.24,3.71-2.62,6.15-.27,2.14,2.01,4.93,4.93,6.94,7.07,2.31,2.45,5.75,6.15,8.36,8.98l-2.96,3.13c-2.38-2.86-5.3-6.36-7.41-8.81-1.97-2.28-5.07-5.61-6.43-6.94-1.22-1.19-1.9-1.09-2.96.24-1.5,1.84-4.15,5.41-5.64,7.28-.71.99-1.5,2.07-2.04,2.86l-3.23-3.3c.95-.78,1.63-1.43,2.58-2.38ZM149.52,60c2.38,0,4.28,1.9,4.28,4.28s-1.9,4.22-4.28,4.22-4.22-1.87-4.22-4.22,1.87-4.28,4.22-4.28ZM149.52,66.63c1.29,0,2.35-1.05,2.35-2.35s-1.05-2.35-2.35-2.35-2.35,1.02-2.35,2.35,1.05,2.35,2.35,2.35Z"/>
        <path class="cls-7" d="M167.04,69.9h18.49c1.63,0,2.96-.14,3.81-.2v4.22c-.75-.03-2.31-.17-3.81-.17h-18.49c-1.87,0-3.91.07-5.07.17v-4.22c1.12.07,3.23.2,5.07.2Z"/>
        <path class="cls-7" d="M221.09,63.74c-1.19,2.79-3.2,6.63-5.58,9.69,3.5,2.99,7.62,7.38,9.72,9.96l-2.99,2.65c-2.24-3.06-5.64-6.8-9.01-9.93-3.64,3.88-8.23,7.51-13.09,9.79l-2.75-2.89c5.51-2.11,10.61-6.19,13.97-9.96,2.31-2.58,4.59-6.32,5.41-8.97h-12.48c-1.33,0-3.16.17-3.71.2v-3.84c.68.1,2.65.24,3.71.24h12.61c1.26,0,2.38-.14,2.96-.34l2.21,1.63c-.24.34-.75,1.19-.99,1.77Z"/>
        <path class="cls-7" d="M244.45,60.72c-.2,1.05-.51,2.69-.82,4.28,1.39-.14,2.65-.2,3.43-.2,3.26,0,5.78,1.33,5.78,6.08,0,4.01-.51,9.49-1.94,12.34-1.12,2.35-2.89,2.99-5.24,2.99-1.33,0-2.92-.24-4.05-.51l-.58-3.54c1.39.41,3.23.68,4.18.68,1.19,0,2.14-.31,2.79-1.6,1.02-2.14,1.5-6.46,1.5-10,0-2.92-1.33-3.43-3.47-3.43-.71,0-1.84.07-3.09.2-1.26,5-3.67,12.85-7.04,18.29l-3.5-1.39c3.4-4.59,5.85-11.93,7.04-16.56-1.53.17-2.92.34-3.71.44-.85.1-2.45.31-3.37.48l-.34-3.67c1.12.07,2.14.03,3.3,0,1.09-.03,2.92-.17,4.83-.34.51-2.52.82-5.1.82-7.31l3.98.41c-.17.71-.34,1.6-.51,2.35ZM259.34,61.91l-2.18.92c2.07,3.06,4.62,8.57,5.61,11.49l-3.37,1.6c-.95-3.64-3.54-9.59-5.92-12.44l3.16-1.39c.03.07.1.14.14.2-.65-1.33-1.6-3.03-2.41-4.15l2.21-.92c.85,1.22,2.07,3.37,2.75,4.69ZM263.29,60.41l-2.21.99c-.75-1.46-1.84-3.4-2.82-4.69l2.21-.92c.88,1.26,2.18,3.4,2.82,4.62Z"/>
        <path class="cls-7" d="M280.15,62.69c1.73-.27,3.43-.65,5-1.16l.1,3.13c-1.7.48-3.81.92-6.09,1.22-1.67,4.79-4.62,10.71-7.38,14.45l-3.26-1.67c2.79-3.33,5.61-8.57,7.14-12.41-.85.03-1.67.07-2.48.07-1.29,0-2.72-.03-4.08-.1l-.24-3.16c1.33.14,2.96.2,4.32.2,1.12,0,2.31-.03,3.5-.14.51-1.9.92-4.01.99-5.81l3.74.37c-.27,1.19-.75,3.09-1.26,5ZM289.4,72.21c.03,1.12.14,3.09.24,5.03,2.92,1.05,5.3,2.75,7.04,4.28l-1.8,2.89c-1.33-1.22-3.06-2.69-5.1-3.81v.95c0,2.89-1.73,5.24-6.22,5.24-3.94,0-7.14-1.7-7.14-5.24,0-3.2,2.89-5.44,7.1-5.44,1.02,0,1.97.1,2.89.24-.1-2.69-.27-5.88-.34-8.12h3.33c-.07,1.43-.03,2.62,0,3.98ZM283.11,83.7c2.58,0,3.43-1.43,3.43-3.26,0-.31,0-.71-.03-1.16-.99-.27-2.04-.44-3.16-.44-2.24,0-3.77,1.02-3.77,2.41,0,1.46,1.22,2.45,3.54,2.45ZM287.84,64.76l1.73-2.62c2.45,1.09,6.46,3.33,8.16,4.56l-1.94,2.82c-1.87-1.56-5.64-3.71-7.96-4.76Z"/>
        <path class="cls-7" d="M323.23,62.14c-2.28,1.9-6.97,5.61-9.38,7.65-1.94,1.67-1.94,2.11.07,3.84,2.89,2.38,9.08,7.31,12.61,10.84l-3.09,2.82c-.82-.92-1.7-1.87-2.58-2.75-2.28-2.31-7.34-6.66-10.51-9.32-3.3-2.75-2.96-4.39.27-7.07,2.62-2.18,7.55-6.12,9.86-8.4.78-.82,1.77-1.84,2.21-2.55l3.16,2.82c-.85.65-1.94,1.56-2.62,2.11Z"/>
        <path class="cls-7" d="M343.02,61.74c2.48-.24,8.53-.82,14.79-1.33,3.64-.31,7.04-.51,9.38-.61v3.43c-1.87,0-4.83.03-6.6.51-4.52,1.36-7.55,6.19-7.55,10.23,0,6.19,5.78,8.26,11.42,8.5l-1.26,3.6c-6.66-.31-13.63-3.88-13.63-11.39,0-5.1,3.03-9.25,5.78-11.05-3.43.37-11.36,1.19-15.13,2.01l-.37-3.74c1.33-.03,2.52-.1,3.16-.17Z"/>
        <path class="cls-7" d="M374.23,61.94h11.69v2.52h-11.69v-2.52ZM384.94,85.6h-6.7v1.5h-2.58v-11.42h9.28v9.93ZM384.91,69.01h-9.21v-2.45h9.21v2.45ZM375.69,71.09h9.21v2.48h-9.21v-2.48ZM384.8,59.93h-8.91v-2.48h8.91v2.48ZM378.24,78.22v4.9h4.08v-4.9h-4.08ZM405.2,65.99v5.95h-2.96v-3.23h-12.95v3.23h-2.82v-5.95h4.28c-.24-1.12-.65-2.52-1.12-3.64l.92-.2h-3.81v-2.69h7.45v-3.13h3.16v3.13h7.58v2.69h-3.77l.99.24c-.58,1.26-1.12,2.58-1.6,3.6h4.66ZM404.01,81.28c0,1.29-.2,2.11-1.12,2.55-.88.51-2.14.51-3.91.51-.07-.82-.51-1.97-.88-2.72,1.16.03,2.24.03,2.58.03.31-.03.41-.1.41-.44v-5.68h-3.88v12h-2.96v-12h-3.5v8.74h-2.89v-11.49h6.39v-3.13h2.96v3.13h6.8v8.5ZM392.52,62.14c.51,1.22,1.02,2.69,1.19,3.71l-.51.14h5.03l-.65-.17c.44-1.02.99-2.52,1.29-3.67h-6.36Z"/>
        <path class="cls-7" d="M431.08,61.4c-.14.61-.27,1.22-.44,1.84,5.41,1.05,9.08,5.3,9.08,11.19,0,6.97-5,11.08-12.17,12.14l-2.04-3.06c7.27-.65,10.78-4.42,10.78-9.21,0-4.15-2.48-7.24-6.43-8.09-1.22,4.18-2.86,8.36-4.79,11.25.61.82,1.29,1.6,1.97,2.24l-2.69,2.18c-.51-.58-.99-1.12-1.43-1.7-2.18,2.55-4.18,3.98-6.7,3.98-2.69,0-5.03-2.24-5.03-6.42,0-3.88,2.04-7.99,5.13-10.61-.34-.99-.65-2.01-.95-2.96-.34-1.16-.75-2.24-1.26-3.3l3.54-1.09c.2.99.48,2.11.71,3.09.2.75.44,1.56.71,2.41,2.75-1.53,5.47-2.18,8.33-2.28.17-.71.31-1.39.41-2.07.17-.82.27-2.11.24-2.89l3.71.34c-.24.88-.51,2.28-.68,3.03ZM416.56,80.71c1.5,0,3.06-1.39,4.45-3.23-.1-.2-.24-.41-.37-.61-1.05-1.6-2.18-4.04-3.2-6.66-1.94,2.04-3.13,4.86-3.13,7.28,0,1.97.85,3.23,2.24,3.23ZM422.99,74.55c1.39-2.35,2.65-5.47,3.6-8.53-2.45.17-4.56.99-6.53,2.14.85,2.31,1.8,4.52,2.62,5.88.1.17.2.34.31.51Z"/>
        <path class="cls-7" d="M450.12,61.74c2.48-.24,8.53-.82,14.79-1.33,3.64-.31,7.04-.51,9.38-.61v3.43c-1.87,0-4.83.03-6.6.51-4.52,1.36-7.55,6.19-7.55,10.23,0,6.19,5.78,8.26,11.42,8.5l-1.26,3.6c-6.66-.31-13.63-3.88-13.63-11.39,0-5.1,3.03-9.25,5.78-11.05-3.43.37-11.35,1.19-15.13,2.01l-.37-3.74c1.33-.03,2.52-.1,3.16-.17Z"/>
        <path class="cls-7" d="M487.76,64.56c-.03,2.14,0,5,.24,7.65.51,5.34,1.9,8.94,4.18,8.94,1.7,0,3.2-3.71,3.98-6.8l2.69,3.16c-2.14,5.81-4.25,7.82-6.73,7.82-3.43,0-6.59-3.26-7.51-12.21-.34-2.99-.37-7.07-.37-9.11,0-.85-.07-2.28-.27-3.2l4.15.07c-.17.99-.34,2.75-.34,3.67ZM511.59,78.97l-3.5,1.36c-.58-5.85-2.52-13.39-5.95-17.47l3.37-1.12c3.13,3.94,5.64,11.73,6.09,17.24Z"/>
        <path class="cls-7" d="M530.53,60.85c-.1.58-.24,1.26-.41,2.01,2.07-.31,4.18-.68,6.15-1.19v3.37c-2.14.51-4.52.88-6.83,1.16-.34,1.46-.71,3.03-1.09,4.45-1.22,4.79-3.54,11.8-5.37,15.64l-3.71-1.26c2.01-3.47,4.49-10.47,5.78-15.23.27-1.05.54-2.18.82-3.3-.99.03-1.9.07-2.75.07-1.56,0-2.82-.03-4.05-.14l-.07-3.33c1.67.2,2.86.27,4.15.27,1.05,0,2.21-.03,3.4-.14.17-1.02.34-1.9.41-2.55.17-1.05.2-2.31.14-3.06l4.08.31c-.2.85-.51,2.24-.65,2.92ZM534.61,79.62c0,1.53.92,2.92,5.27,2.92,2.24,0,4.56-.27,6.8-.68l-.1,3.43c-1.87.24-4.15.48-6.73.48-5.54,0-8.53-1.8-8.53-5.17,0-1.43.27-2.86.58-4.25l3.16.31c-.27,1.05-.44,2.11-.44,2.96ZM540.22,67.96c1.97,0,4.01.07,5.95.27l-.1,3.26c-1.73-.24-3.74-.44-5.78-.44-2.21,0-4.28.14-6.42.37v-3.16c1.84-.17,4.18-.31,6.36-.31Z"/>
        <path class="cls-7" d="M559.74,61.09c-.95,4.45-2.14,11.76-1.02,16.73.44-1.26,1.16-3.16,1.73-4.66l1.77,1.12c-.92,2.58-1.87,6.05-2.28,7.82-.1.51-.17,1.22-.17,1.6,0,.34.07.85.1,1.26l-2.96.34c-.71-2.07-1.87-6.66-1.87-10.88,0-5.58.82-10.78,1.22-13.6.14-.85.17-1.84.17-2.55l3.98.37c-.24.71-.51,1.8-.68,2.45ZM577.35,60.27c-.03.75,0,2.75.03,4.79,1.97-.17,3.84-.41,5.37-.71l-.03,3.47c-1.46.2-3.33.41-5.3.51v1.33c0,7.89-.27,13.16-7.28,17.44l-3.13-2.45c1.19-.48,2.72-1.43,3.6-2.38,3.16-2.96,3.54-6.46,3.54-12.65v-1.12c-1.39.03-2.79.07-4.11.07-1.56,0-3.81-.1-5.37-.17v-3.43c1.53.24,3.5.37,5.34.37,1.29,0,2.69-.03,4.08-.07-.03-2.07-.1-4.11-.17-5-.07-.78-.24-1.63-.34-2.14h3.94c-.1.61-.14,1.36-.17,2.14Z"/>
        <path class="cls-7" d="M601.35,68.4c2.79-1.7,5.58-3.06,7.31-4.01,1.12-.65,1.97-1.16,2.75-1.8l1.7,3.13c-.88.54-1.84,1.02-2.92,1.6-2.24,1.12-5.78,2.79-9.01,4.9-2.99,1.97-4.9,4.08-4.9,6.56,0,2.69,2.55,4.25,7.62,4.25,3.6,0,8.16-.51,10.98-1.19l-.03,3.84c-2.72.48-6.49.85-10.81.85-6.56,0-11.39-1.9-11.39-7.34,0-3.6,2.31-6.39,5.78-8.87-1.56-2.86-3.3-6.66-4.86-10.3l3.37-1.43c1.33,3.67,2.99,7.14,4.42,9.83ZM616.34,62.86l-2.21.99c-.68-1.39-1.8-3.43-2.72-4.76l2.21-.92c.85,1.26,2.07,3.37,2.72,4.69ZM620.29,61.36l-2.21.99c-.71-1.46-1.84-3.43-2.79-4.69l2.21-.92c.88,1.26,2.18,3.4,2.79,4.62Z"/>
        <path class="cls-7" d="M132.08,137.79c0,2.41,2.38,4.11,7.58,4.11,4.66,0,9.01-.51,11.76-1.36l.03,3.74c-2.65.71-6.87,1.19-11.66,1.19-7.31,0-11.25-2.41-11.25-6.87,0-1.84.37-3.47.68-4.79l3.5.31c-.41,1.29-.65,2.48-.65,3.67ZM139.8,120.56c3.3,0,6.97-.24,9.48-.48v3.54c-2.35.17-6.29.41-9.45.41-3.47,0-6.42-.17-9.14-.37v-3.54c2.48.31,5.64.44,9.11.44Z"/>
        <path class="cls-7" d="M168.19,117.12l3.94.14c-.17.88-.44,2.69-.71,4.93l.1-.03,1.12,1.43c-.41.61-1.05,1.6-1.6,2.45-.03.48-.07.95-.14,1.46,2.69-2.41,6.87-5.47,10.23-5.47s5,1.97,5,4.79c0,3.43-1.22,8.91-1.22,12.41,0,1.02.51,1.84,1.56,1.84,1.46,0,3.16-.95,4.83-2.65l.51,3.71c-1.73,1.67-3.81,2.72-6.32,2.72-2.38,0-3.98-1.63-3.98-4.66,0-3.74,1.26-9.08,1.26-12.27,0-1.87-.95-2.69-2.58-2.69-2.65,0-6.56,3.2-9.52,6.39-.07,1.22-.1,2.41-.1,3.47,0,2.96-.03,5.37.17,8.47.03.61.1,1.6.17,2.31h-3.67c.07-.71.1-1.7.1-2.24.03-3.2.03-5.13.14-8.91-1.6,2.35-3.6,5.27-5.03,7.24l-2.11-2.96c1.87-2.38,5.58-7.28,7.41-10.03.07-.99.14-1.97.2-2.96-1.6.2-4.42.58-6.46.85l-.34-3.47c.85.03,1.56.03,2.55-.03,1.05-.07,2.82-.27,4.45-.51.1-1.46.17-2.58.17-2.96,0-.88,0-1.84-.14-2.75Z"/>
        <path class="cls-7" d="M208.75,122.19c1.73-.27,3.43-.65,5-1.16l.1,3.13c-1.7.48-3.81.92-6.08,1.22-1.67,4.79-4.62,10.71-7.38,14.45l-3.26-1.67c2.79-3.33,5.61-8.57,7.14-12.41-.85.03-1.67.07-2.48.07-1.29,0-2.72-.03-4.08-.1l-.24-3.16c1.33.14,2.96.2,4.32.2,1.12,0,2.31-.03,3.5-.14.51-1.9.92-4.01.99-5.81l3.74.37c-.27,1.19-.75,3.09-1.26,5ZM218,131.71c.03,1.12.14,3.09.24,5.03,2.92,1.05,5.3,2.75,7.04,4.28l-1.8,2.89c-1.33-1.22-3.06-2.69-5.1-3.81v.95c0,2.89-1.73,5.24-6.22,5.24-3.94,0-7.14-1.7-7.14-5.24,0-3.2,2.89-5.44,7.11-5.44,1.02,0,1.97.1,2.89.24-.1-2.69-.27-5.88-.34-8.12h3.33c-.07,1.43-.03,2.62,0,3.98ZM211.71,143.2c2.58,0,3.43-1.43,3.43-3.26,0-.31,0-.71-.03-1.16-.99-.27-2.04-.44-3.16-.44-2.24,0-3.77,1.02-3.77,2.41,0,1.46,1.22,2.45,3.54,2.45ZM216.44,124.26l1.73-2.62c2.45,1.09,6.46,3.33,8.16,4.56l-1.94,2.82c-1.87-1.56-5.64-3.71-7.96-4.76Z"/>
        <path class="cls-7" d="M239.76,132.73c3.16-2.58,6.77-3.77,10.61-3.77,5.54,0,9.01,3.37,9.01,7.41,0,6.12-5.17,10.54-18.46,9.42l-1.02-3.5c10.5,1.33,15.81-1.5,15.81-5.98,0-2.52-2.35-4.32-5.61-4.32-4.18,0-7.79,1.6-10.03,4.32-.58.65-.88,1.22-1.16,1.8l-3.13-.75c.68-3.2,1.5-10.13,1.73-13.97l3.6.48c-.48,2.14-1.05,6.8-1.36,8.87ZM254.79,120.01l-.78,3.3c-3.33-.44-10.81-2.01-13.43-2.69l.85-3.23c3.06.95,10.37,2.31,13.36,2.62Z"/>
        <path class="cls-7" d="M284.3,128.58c-3.88,0-7.21,1.16-9.11,1.7-1.02.31-2.14.75-3.03,1.09l-1.05-3.88c1.02-.1,2.31-.31,3.37-.54,2.45-.58,6.29-1.6,10.23-1.6,5.07,0,8.74,2.86,8.74,7.92,0,7.31-6.66,11.63-15.77,12.95l-1.94-3.3c8.33-1.02,14.01-4.05,14.01-9.79,0-2.62-2.07-4.56-5.44-4.56ZM290.66,118.92l-.54,3.3c-3.84-.24-10.91-.92-14.79-1.6l.51-3.26c3.84.85,11.39,1.53,14.82,1.56Z"/>
        <path class="cls-7" d="M315.58,120.66c-.07.44-.17.95-.31,1.53,3.98-.17,8.84-.68,12.99-1.6l.07,3.26c-3.81.65-9.25,1.22-13.7,1.43-.54,2.52-1.22,5.27-1.87,7.1,2.89-1.84,5.75-2.55,9.08-2.55,5.44,0,8.84,2.82,8.84,6.97,0,7.31-7.31,10-17.95,8.87l-.92-3.43c7.72,1.12,15.3-.03,15.3-5.37,0-2.31-1.94-4.15-5.64-4.15-3.98,0-7.62,1.39-9.79,4.05-.37.48-.68.95-.99,1.53l-3.2-1.12c1.7-3.3,3.06-8.02,3.91-11.83-2.24-.03-4.35-.14-6.22-.31v-3.33c1.94.34,4.62.58,6.7.58h.17c.1-.71.2-1.36.27-1.87.17-1.22.24-2.07.17-3.06l3.81.17c-.31,1.02-.48,2.14-.71,3.13Z"/>
        <path class="cls-7" d="M352.1,120.08c-.1.75-.24,1.8-.41,3.09,2.52,0,4.79-.17,6.6-.44l-.1,3.2c-2.11.2-4.05.34-6.83.34h-.07c-.24,1.77-.48,3.71-.68,5.47h.48c2.21,0,4.66-.1,6.97-.41l-.1,3.2c-2.07.2-4.15.34-6.36.34h-1.29c-.1,1.19-.17,2.24-.17,2.96,0,3.09,1.8,4.9,5.44,4.9,4.96,0,7.96-2.21,7.96-5.41,0-2.31-1.22-4.69-3.6-6.8l3.77-.78c2.28,2.69,3.4,5.07,3.4,7.99,0,5.1-4.56,8.43-11.59,8.43-4.93,0-8.7-2.14-8.7-7.79,0-.88.1-2.18.24-3.71-2.48-.2-4.86-.61-6.8-1.16l.17-3.26c2.21.78,4.66,1.16,6.97,1.36.24-1.8.48-3.71.71-5.51-2.45-.2-5-.65-7.07-1.19l.17-3.13c2.07.68,4.73,1.09,7.24,1.29.17-1.22.27-2.31.34-3.2.1-1.36.1-2.01.03-2.69l3.81.2c-.24,1.05-.37,1.87-.51,2.69Z"/>
        <path class="cls-7" d="M387.22,123.96h-12.99v-2.52h12.99v2.52ZM385.99,145.17h-7.51v1.43h-2.72v-11.42h10.23v10ZM386.03,128c3.09-2.07,3.57-4.76,3.57-7.1v-4.05h10.91v7.99c0,.78.07.92.54.92h1.33c.51,0,.65-.44.71-3.57.61.51,1.8.99,2.58,1.16-.2,4.05-.99,5.1-2.96,5.1h-2.18c-2.35,0-3.06-.78-3.06-3.57v-5.2h-4.9v1.26c0,3.06-.71,6.77-4.28,9.15-.44-.54-1.6-1.6-2.28-2.01v.44h-10.2v-2.45h10.2v1.94ZM375.83,130.59h10.2v2.48h-10.2v-2.48ZM385.93,119.43h-9.96v-2.48h9.96v2.48ZM378.48,137.72v4.9h4.76v-4.9h-4.76ZM403.81,131.03c-1.12,4.15-3.03,7.41-5.51,9.93,2.14,1.5,4.62,2.62,7.45,3.33-.68.61-1.6,1.9-2.04,2.72-2.96-.88-5.58-2.21-7.79-3.98-2.41,1.8-5.17,3.09-8.19,3.98-.31-.78-1.09-2.11-1.7-2.79,2.75-.68,5.3-1.8,7.55-3.33-1.8-1.94-3.3-4.18-4.42-6.73l2.82-.88c.92,2.11,2.24,4.05,3.91,5.68,1.67-1.6,2.99-3.5,3.91-5.71h-12.17v-2.89h13.56l.58-.1,2.04.78Z"/>
        <path class="cls-7" d="M423.56,129.91c.1-.54.2-1.09.27-1.7h-12.88v-2.41h13.23c.07-.54.14-1.09.17-1.63h-11.87v-6.97h26.42v6.97h-11.32c-.1.54-.17,1.09-.24,1.63h12.88v2.41h-13.29c-.1.61-.2,1.19-.31,1.7h10.98v11.73h-18.73v-11.73h4.69ZM441.04,145.75h-25.09v1.29h-3.2v-16.69h3.2v12.92h25.09v2.48ZM420.17,119.4h-4.66v2.55h4.66v-2.55ZM434.55,131.67h-12.75v1.56h12.75v-1.56ZM434.55,134.94h-12.75v1.6h12.75v-1.6ZM434.55,138.23h-12.75v1.63h12.75v-1.63ZM423.09,121.95h4.83v-2.55h-4.83v2.55ZM430.81,121.95h4.9v-2.55h-4.9v2.55Z"/>
        <path class="cls-7" d="M449.98,121.41c2.48-.24,8.53-.82,14.79-1.36,3.64-.31,7.04-.51,9.38-.58v3.43c-1.9,0-4.86.03-6.63.48-4.52,1.36-7.51,6.22-7.51,10.23,0,6.19,5.78,8.26,11.39,8.5l-1.22,3.64c-6.66-.34-13.63-3.91-13.63-11.39,0-5.13,3.03-9.25,5.78-11.05-3.43.34-11.35,1.16-15.16,1.97l-.34-3.71c1.29-.03,2.48-.1,3.16-.17ZM472.05,131.37l-2.11.95c-.82-1.73-1.7-3.3-2.72-4.76l2.04-.88c.82,1.19,2.07,3.26,2.79,4.69ZM475.92,129.84l-2.07.99c-.88-1.73-1.77-3.23-2.86-4.69l2.04-.92c.82,1.16,2.14,3.2,2.89,4.62Z"/>
        <path class="cls-7" d="M495.64,117.36l3.64-.41c.14,1.26.41,2.55.71,3.84,2.38-.31,4.69-.82,6.87-1.53l.44,3.09c-1.9.54-4.22,1.02-6.53,1.33.24.71.44,1.39.68,2.01.2.58.44,1.19.68,1.84,2.79-.34,5.03-.92,6.66-1.43l.54,3.2c-1.63.41-3.64.82-5.88,1.12.65,1.33,1.36,2.58,2.11,3.71.41.61.85,1.09,1.39,1.6l-1.7,2.52c-1.9-.44-5.3-.82-7.68-1.05l.27-2.58c1.63.17,3.67.37,4.73.48-.88-1.39-1.67-2.86-2.31-4.28-4.15.34-9.69.34-14.89,0l-.17-3.16c5.1.51,9.96.51,13.8.2-.2-.51-.41-1.02-.58-1.5-.31-.88-.54-1.67-.78-2.38-3.26.17-7.34.14-11.59-.27l-.2-3.09c4.05.44,7.75.61,10.95.44-.03-.1-.07-.2-.1-.31-.31-1.09-.65-2.24-1.05-3.37ZM489.39,138.98c0,2.69,2.45,3.94,7.41,3.94,3.2,0,5.85-.24,8.3-.75l-.17,3.43c-2.38.37-5.24.61-8.09.61-6.73,0-10.67-2.01-10.74-6.6-.03-2.04.65-3.57,1.43-5.1l3.33.65c-.82,1.16-1.46,2.35-1.46,3.81Z"/>
        <path class="cls-7" d="M526.21,119.06c1.77,0,9.52-.2,11.35-.37,1.19-.1,1.8-.17,2.18-.31l1.87,2.45c-.71.44-1.43.92-2.14,1.46-1.73,1.29-5.92,4.83-8.33,6.8,1.36-.41,2.72-.58,4.08-.58,5.68,0,9.89,3.5,9.89,8.26,0,5.41-4.32,9.28-11.97,9.28-4.69,0-7.82-2.07-7.82-5.17,0-2.52,2.24-4.79,5.61-4.79,4.22,0,6.63,2.72,7.07,5.95,2.35-1.02,3.6-2.86,3.6-5.34,0-3.2-3.13-5.51-7.38-5.51-5.44,0-8.64,2.55-12.65,6.83l-2.48-2.52c2.65-2.18,6.9-5.75,8.91-7.41,1.9-1.56,5.85-4.83,7.55-6.32-1.8.07-7.68.34-9.45.44-.85.03-1.73.1-2.52.2l-.1-3.5c.85.1,1.9.14,2.72.14ZM532.53,142.99c.85,0,1.67-.03,2.41-.14-.27-2.48-1.77-4.22-4.01-4.22-1.43,0-2.48.92-2.48,1.94,0,1.5,1.67,2.41,4.08,2.41Z"/>
        <path class="cls-7" d="M565.82,142.01c0-1.53,1.12-2.58,2.55-2.58s2.55,1.05,2.55,2.58-1.12,2.58-2.55,2.58-2.55-1.05-2.55-2.58ZM566.19,123.41l-.1-4.49h4.56l-.1,4.49-.78,12.51h-2.79l-.78-12.51Z"/>
      </g>
    </g>
  </g>
</svg>