<?xml version="1.0" encoding="UTF-8"?>
<svg id="_レイヤー_2" data-name="レイヤー 2" xmlns="http://www.w3.org/2000/svg" xmlns:xlink="http://www.w3.org/1999/xlink" viewBox="0 0 842.13 185.35">
  <defs>
    <style>
      .cls-1 {
        fill: #fff;
      }

      .cls-2 {
        fill: url(#_名称未設定グラデーション_45);
      }

      .cls-3 {
        fill: url(#_名称未設定グラデーション_45-3);
      }

      .cls-4 {
        fill: url(#_名称未設定グラデーション_45-4);
      }

      .cls-5 {
        fill: url(#_名称未設定グラデーション_45-2);
      }
    </style>
    <linearGradient id="_名称未設定グラデーション_45" data-name="名称未設定グラデーション 45" x1="49.31" y1="-28.3" x2="811.8" y2="219.83" gradientUnits="userSpaceOnUse">
      <stop offset="0" stop-color="#4fac00"/>
      <stop offset="1" stop-color="#5af300"/>
    </linearGradient>
    <linearGradient id="_名称未設定グラデーション_45-2" data-name="名称未設定グラデーション 45" x1="710.53" y1="84.54" x2="772.65" y2="95.41" xlink:href="#_名称未設定グラデーション_45"/>
    <linearGradient id="_名称未設定グラデーション_45-3" data-name="名称未設定グラデーション 45" x1="710.78" y1="83.13" x2="772.9" y2="94" xlink:href="#_名称未設定グラデーション_45"/>
    <linearGradient id="_名称未設定グラデーション_45-4" data-name="名称未設定グラデーション 45" x1="711.03" y1="81.72" x2="773.14" y2="92.59" xlink:href="#_名称未設定グラデーション_45"/>
  </defs>
  <g id="_レイヤー_2-2" data-name="レイヤー 2">
    <g>
      <g>
        <path class="cls-2" d="M749.45,185.35H92.67C41.49,185.35,0,143.86,0,92.67h0C0,41.49,41.49,0,92.67,0h656.78c51.18,0,92.67,41.49,92.67,92.67h0c0,51.18-41.49,92.67-92.67,92.67Z"/>
        <circle class="cls-1" cx="767.82" cy="92.67" r="33.26"/>
        <g>
          <polygon class="cls-5" points="757.01 101.51 755.94 100.44 763.7 92.67 755.94 84.91 757.01 83.84 765.85 92.67 757.01 101.51"/>
          <polygon class="cls-3" points="765.31 101.51 764.24 100.44 772 92.67 764.24 84.91 765.31 83.84 774.15 92.67 765.31 101.51"/>
          <polygon class="cls-4" points="773.62 101.51 772.54 100.44 780.31 92.67 772.54 84.91 773.62 83.84 782.46 92.67 773.62 101.51"/>
        </g>
      </g>
      <g>
        <g>
          <path class="cls-1" d="M201.97,50.8c-1.82.06-3.57.26-5.24.59h-.14c-.12,0-.23-.08-.32-.23l-.77-1.55s-.04-.09-.04-.18c0-.15.11-.23.32-.23,1.67.15,3.52.26,5.55.32h7.79l.96-1.41c.12-.15.28-.36.48-.64s.36-.48.48-.61c.12-.14.24-.21.36-.21.27,0,.92.42,1.93,1.25,1.02.84,1.65,1.48,1.89,1.94.03.15.02.29-.04.41-.18.36-.55.55-1.09.55h-12.11ZM202.61,56.63c-1.21.03-2.44.21-3.69.55-.24.06-.39,0-.46-.18l-.82-1.55s-.05-.09-.05-.18c0-.15.12-.23.36-.23,1.64.15,3.48.26,5.51.32h3.64l.91-1.32c.12-.15.25-.33.39-.55.14-.21.28-.39.43-.55s.29-.23.41-.23c.24,0,.83.4,1.78,1.18.94.79,1.52,1.4,1.73,1.82.03.15.03.29,0,.41-.18.33-.56.5-1.14.5h-9.01ZM208.03,59.91c.12-.15.27-.36.43-.62.17-.26.31-.45.43-.57.12-.12.24-.18.36-.18.24,0,.83.4,1.78,1.21.94.8,1.52,1.42,1.73,1.84.03.15.01.3-.05.46-.18.33-.55.5-1.09.5h-6.19c-1.94.03-4.11.23-6.51.59h-.14c-.12,0-.23-.08-.32-.23l-.82-1.59s-.05-.09-.05-.18c0-.15.11-.23.32-.23,1.67.15,3.52.26,5.55.32h3.64l.91-1.32ZM207.75,42.29c.15-.18.3-.38.46-.59.15-.21.3-.4.46-.57.15-.17.29-.25.41-.25.24,0,.86.42,1.84,1.25.99.84,1.59,1.46,1.8,1.89.03.15.03.3,0,.46-.18.33-.55.5-1.09.5h-6.19c-1.94.03-4.11.23-6.51.59h-.14c-.12,0-.23-.08-.32-.23l-.77-1.59s-.04-.09-.04-.18c0-.15.11-.23.32-.23,1.67.15,3.52.26,5.55.32h3.28l.96-1.37ZM201.88,81.45c0,.21-.36.47-1.07.77-.71.3-1.45.46-2.21.46-.24,0-.43-.09-.57-.27-.14-.18-.21-.4-.21-.64.12-1.31.21-2.94.27-4.92v-2.91c0-3.34-.15-6.16-.46-8.47v-.09c0-.24.12-.32.36-.23l4.05,1.78h5.24l.87-1.09c.09-.09.22-.24.39-.46.17-.21.31-.37.43-.48.12-.11.24-.16.36-.16.27,0,.92.39,1.93,1.18,1.02.79,1.66,1.4,1.94,1.82.09.12.06.26-.09.41-.33.33-.87.58-1.59.73v3.92c.09,3.22.18,5.68.27,7.38,0,.15-.05.29-.14.41-.3.3-.79.6-1.46.89-.67.29-1.29.43-1.87.43-.39,0-.65-.23-.77-.68l.04-.46.14-.59v-.87h-5.87v2.14ZM201.88,68.24v9.74h5.87v-9.74h-5.87ZM229.65,42.74c.12-.15.25-.33.39-.55.14-.21.28-.39.43-.55.15-.15.29-.23.41-.23.27,0,.95.46,2.03,1.39,1.08.93,1.75,1.63,2.03,2.12.09.12.06.26-.09.41-.36.36-.91.61-1.64.73v4.92c.09,4.13.2,7.22.32,9.29,0,.18-.06.33-.18.46-.33.3-.86.6-1.59.89-.73.29-1.37.43-1.91.43h-.32c-.24,0-.36-.12-.36-.36v-1.87h-9.42v16.71c0,.46.13.76.39.91.26.15.81.23,1.66.23h4.83c1.88,0,3.31-.03,4.28-.09.3-.03.53-.09.68-.18.15-.09.3-.26.46-.5.36-.73.94-2.81,1.73-6.24.03-.21.15-.32.36-.32.15,0,.23.12.23.36l.09,6.47c.61.21,1.03.46,1.27.73.24.27.36.62.36,1.05,0,.67-.27,1.19-.82,1.57-.55.38-1.52.65-2.91.82-1.4.17-3.42.25-6.06.25h-5.24c-1.49,0-2.61-.11-3.37-.34s-1.29-.63-1.59-1.21c-.3-.58-.46-1.43-.46-2.55v-11.79c0-3.28-.17-6.22-.5-8.83v-.09c0-.12.03-.21.09-.25.06-.04.15-.04.27.02l4.78,1.96h8.88v-13.16h-6.24c-1.94.03-4.11.23-6.51.59h-.14c-.12,0-.23-.08-.32-.23l-.82-1.59s-.05-.09-.05-.18c0-.15.11-.23.32-.23,1.67.15,3.52.26,5.55.32h7.79l.91-1.27Z"/>
          <path class="cls-1" d="M254.67,73.39c-3.48,3.89-7.67,6.94-12.59,9.15-.24.09-.41.04-.5-.14-.12-.21-.08-.38.14-.5,3.19-1.88,6.1-4.45,8.74-7.72,2.64-3.26,4.8-7.06,6.49-11.41,1.68-4.34,2.72-8.97,3.12-13.89v-3.05h-3.37c-1.79.03-3.78.23-5.96.59h-.14c-.12,0-.23-.08-.32-.23l-.77-1.59s-.05-.09-.05-.18c0-.15.11-.23.32-.23,1.67.15,3.52.26,5.55.32h3.69l1.91-3c.15-.21.32-.24.5-.09l4.83,3.69c.21.15.23.32.05.5-.91.76-2.54,1.26-4.87,1.5v1.82c1.37,14.05,8.2,23.77,20.49,29.14.15.06.23.15.23.27,0,.24-.14.4-.41.46-1.7.24-2.97,1.43-3.82,3.55-.09.24-.21.32-.36.23-2.22-1.37-4.38-3.18-6.49-5.44-2.11-2.26-3.95-4.88-5.53-7.85-1.58-2.97-2.7-6.08-3.37-9.33-1.52,5.07-4.01,9.55-7.49,13.43Z"/>
          <path class="cls-1" d="M303.46,64.6c-1.85,2.09-4.4,3.96-7.65,5.6-.21.09-.38.04-.5-.14l-.14-.18c-.12-.21-.09-.38.09-.5,3.19-2.46,5.47-5.21,6.85-8.26,1.38-3.05,2.24-6.7,2.57-10.95h-10.61v19.9c.06,3.76.18,7.25.36,10.47,0,.18-.04.32-.14.41-.27.42-.77.8-1.48,1.14-.71.33-1.46.5-2.25.5-.33,0-.61-.09-.84-.27s-.34-.4-.34-.64c.12-1.79.23-3.53.32-5.21.09-1.69.15-3.89.18-6.62v-13.84c0-3.58-.17-6.53-.5-8.83v-.09c0-.24.12-.32.36-.23l4.74,2.05h10.29c.06-1.15.09-2.06.09-2.73,0-1.91-.11-3.76-.32-5.56v-.09c0-.24.14-.33.41-.27,2.06.18,3.5.36,4.3.52.8.17,1.21.34,1.21.52,0,.12-.12.26-.36.41l-.77.5c-.12,3-.24,5.24-.36,6.69h11.29l.91-1.23c.12-.12.27-.3.46-.52.18-.23.33-.4.46-.52.12-.12.24-.18.36-.18.27,0,.97.44,2.09,1.32,1.12.88,1.82,1.56,2.09,2.05.09.12.06.26-.09.41-.43.36-.96.61-1.59.73v26.04c0,1.15-.14,2.09-.43,2.82-.29.73-.86,1.33-1.71,1.8-.85.47-2.11.8-3.78.98h-.09c-.15,0-.26-.11-.32-.32-.24-1.34-.67-2.26-1.28-2.78-.88-.73-2.32-1.27-4.33-1.64-.24-.06-.36-.18-.36-.36,0-.09.03-.17.09-.23.06-.06.15-.08.27-.04,3.52.24,5.72.36,6.6.36.39,0,.68-.08.84-.25.17-.17.25-.43.25-.8v-26.36h-11.84c-.18,2.34-.53,4.39-1.05,6.15,2.43,1.03,4.41,2.19,5.94,3.46,1.53,1.27,2.64,2.53,3.32,3.76.68,1.23,1.02,2.36,1.02,3.39,0,.76-.18,1.37-.52,1.82-.35.46-.8.68-1.34.68-.46,0-.93-.15-1.41-.46-.15-.06-.24-.18-.27-.36-.49-1.73-1.38-3.57-2.69-5.53s-2.76-3.83-4.37-5.62c-.85,2.67-2.2,5.05-4.05,7.15Z"/>
          <path class="cls-1" d="M362.51,62.78c3.37,1.76,6.88,3.1,10.52,4.01.21.03.32.17.32.41v.09c-.03.21-.14.33-.32.36-.73.27-1.34.72-1.84,1.34-.5.62-.86,1.31-1.07,2.07-.06.24-.21.32-.46.23-1.79-.82-3.2-1.53-4.23-2.14-.24.3-.7.55-1.37.73v3.78c.09,3.1.18,5.45.27,7.06,0,.18-.06.33-.18.46-.3.3-.83.58-1.57.84-.74.26-1.4.39-1.98.39-.49,0-.79-.23-.91-.68,0-.18.01-.33.05-.46.03-.09.04-.21.04-.34s.03-.31.09-.52v-1h-14.34v2c0,.12-.18.29-.55.5-.36.21-.82.4-1.37.57-.55.17-1.08.25-1.59.25-.3,0-.55-.09-.75-.27-.2-.18-.3-.4-.3-.64.21-2.61.35-5.51.41-8.7v-4.83c-3,1.76-5.84,3.1-8.51,4.01-.21.09-.36.03-.46-.18-.03-.03-.05-.09-.05-.18,0-.12.06-.23.18-.32,2.37-1.18,4.72-2.71,7.06-4.58,2.34-1.87,4.4-3.83,6.19-5.9,2.06-2.4,3.32-4.7,3.78-6.92.09-.27.24-.36.46-.27l6.19,1.82c.27.12.39.23.36.32-.21.36-.85.61-1.91.73,1.85,2.22,4.46,4.21,7.83,5.96ZM368.02,44.84c.12-.12.34-.35.66-.68.32-.33.57-.5.75-.5.24,0,.87.49,1.87,1.48,1,.99,1.62,1.74,1.87,2.25.09.15.06.3-.09.46-.21.15-.71.26-1.5.32-.64.7-1.49,1.46-2.55,2.28-1.06.82-2.11,1.55-3.14,2.19-.21.09-.38.08-.5-.05-.15-.15-.18-.3-.09-.46.64-1.52,1.23-3.11,1.78-4.78h-27.87c.06,1.49-.12,2.8-.55,3.94-.43,1.14-1,2.01-1.73,2.62-.49.46-1.11.68-1.87.68-.4,0-.77-.1-1.12-.3-.35-.2-.6-.48-.75-.84-.12-.27-.18-.58-.18-.91,0-.91.48-1.69,1.46-2.32.82-.55,1.58-1.44,2.28-2.69.7-1.24,1.06-2.53,1.09-3.87,0-.24.11-.36.32-.36.24,0,.38.11.41.32.18.52.36,1.32.55,2.41h11.43c0-2.15-.11-3.98-.32-5.46,0-.3.14-.41.41-.32,2.03.49,3.44.87,4.21,1.14.77.27,1.16.52,1.16.73,0,.15-.12.3-.36.46l-.82.5v2.96h12.16l1.05-1.18ZM345.35,48.89l2.59,1.46c1.46.55,2.19.96,2.19,1.23,0,.15-.17.26-.5.32l-.77.18c-1.25,1.55-2.91,3.09-4.99,4.62-2.08,1.53-4.26,2.79-6.53,3.76-.21.09-.38.05-.5-.14v-.04c-.15-.21-.14-.38.05-.5,1.33-1.06,2.47-2.16,3.41-3.28.97-1.06,1.87-2.28,2.71-3.64.83-1.37,1.45-2.62,1.84-3.78.09-.27.26-.33.5-.18ZM345.76,68.06h13.75l1.64-1.87c-3.28-2.7-5.69-5.66-7.24-8.88-1.09,1.67-2.55,3.34-4.37,5.01-1.82,1.67-3.87,3.25-6.15,4.73l2.37,1ZM345.53,69.33v8.79h14.34v-8.79h-14.34ZM355.32,50.44c-.03-.09-.02-.17.05-.23.12-.12.27-.17.46-.14,2.64.27,4.82.81,6.53,1.62,1.71.8,2.96,1.7,3.73,2.69.77.99,1.16,1.94,1.16,2.85,0,.64-.18,1.16-.52,1.57s-.81.61-1.39.61c-.36,0-.68-.06-.96-.18-.15-.03-.26-.12-.32-.27-.82-1.43-2.04-2.91-3.67-4.46-1.62-1.55-3.26-2.84-4.89-3.87-.09-.03-.15-.09-.18-.18Z"/>
          <path class="cls-1" d="M399.89,65.74c-.06.85-.06,1.67,0,2.46.09,1.43.12,2.35.09,2.78-.03.64-.26,1.22-.68,1.75-.43.53-.91.8-1.46.8s-1.03-.22-1.46-.66c-.43-.44-.64-.96-.64-1.57,0-.24.06-1,.18-2.28l.14-1.55c-3.49,1.82-5.24,3.75-5.24,5.78s2.03,3.14,6.1,3.14c1.03,0,1.9-.06,2.62-.18.71-.12,1.6-.3,2.66-.55,1.21-.33,2.17-.5,2.87-.5.76,0,1.36.16,1.8.48.44.32.66.77.66,1.34,0,1.12-.9,1.94-2.71,2.44s-3.77.75-5.9.75c-3.28,0-5.75-.53-7.4-1.59s-2.48-2.55-2.48-4.46c0-1.61.63-3.07,1.89-4.39s3.01-2.65,5.26-3.98c.03-.3.05-.77.05-1.41,0-1.43-.24-2.62-.71-3.57s-1.02-1.43-1.66-1.43c-.88,0-1.74.52-2.57,1.55-.83,1.03-1.74,2.37-2.71,4.01l-.68,1.14c-.09.15-.33.52-.73,1.12-.39.59-.77,1.04-1.12,1.34-.35.3-.71.46-1.07.46-.64,0-1.14-.27-1.5-.82s-.55-1.2-.55-1.96c0-.58.14-1.11.41-1.59.27-.48.71-1,1.32-1.55l.73-.68c1.49-1.37,2.62-2.6,3.41-3.69,1.49-2.03,2.67-4.37,3.55-7.01-1.4.21-2.55.32-3.46.32-1.03,0-1.94-.23-2.73-.71-.79-.47-1.68-1.21-2.69-2.21-.12-.12-.2-.23-.23-.32l-.09-.18c0-.06.08-.09.23-.09.12,0,.33.05.64.14,1.27.46,2.46.68,3.55.68.61,0,1.42-.07,2.44-.21,1.02-.14,2.06-.37,3.12-.71.15-.91.23-1.65.23-2.23,0-1.3-.5-2.26-1.5-2.87-.15-.06-.27-.14-.36-.23-.09-.09-.14-.2-.14-.32,0-.3.09-.56.27-.77.18-.21.46-.32.82-.32.58,0,1.25.09,2.03.27.77.18,1.33.43,1.66.73.24.24.36.65.36,1.23,0,.18-.03.49-.09.91.61.3,1.26.46,1.96.46.39,0,.76-.04,1.09-.14.42-.06.76-.09,1-.09.76,0,1.14.32,1.14.96s-.26,1.22-.77,1.84c-.52.62-1.25,1.19-2.19,1.71-1.06.61-2.38,1.14-3.96,1.59-.82,2.46-1.84,4.9-3.05,7.33.73-.39,1.46-.59,2.19-.59,2.73,0,4.46,1.41,5.19,4.23.52-1.24,1.05-2.32,1.62-3.23.56-.91,1.22-1.78,1.98-2.6.94-1,2.06-1.89,3.35-2.66,1.29-.77,2.62-1.16,3.98-1.16,1.24,0,2.28.37,3.12,1.12.83.74,1.25,1.72,1.25,2.94,0,1.52-.68,2.8-2.03,3.85-1.35,1.05-3.06,1.97-5.12,2.75-2.95,1.03-5.37,1.93-7.29,2.69ZM395.84,47.3l1.05-.59c.21-.12.32-.24.32-.36s-.12-.26-.36-.41l-.55-.36-.46,1.73ZM401.3,60.07c-.58,1.14-.97,2.33-1.18,3.57l.55-.27c2.76-1.4,4.61-2.38,5.55-2.96,1.3-.73,2.33-1.54,3.07-2.44.74-.89,1.12-1.69,1.12-2.39,0-.46-.15-.82-.46-1.09-.3-.27-.76-.41-1.37-.41-.79,0-1.65.25-2.57.75-.93.5-1.81,1.24-2.66,2.21-.79.88-1.47,1.89-2.05,3.03Z"/>
          <path class="cls-1" d="M458.13,69.15c.12-.18.27-.4.43-.66.17-.26.31-.45.43-.57.12-.12.24-.18.36-.18.24,0,.84.42,1.8,1.25.96.83,1.54,1.46,1.75,1.89.03.06.05.14.05.23,0,.21-.11.39-.32.52-.21.14-.47.21-.77.21h-7.38v6.33h3.6l1.05-1.5c.09-.12.24-.33.46-.64.21-.3.39-.53.52-.68.14-.15.26-.23.39-.23.24,0,.88.46,1.91,1.37,1.03.91,1.67,1.59,1.91,2.05.03.15.02.3-.04.46-.18.33-.55.5-1.09.5h-17.12v1.96c0,.09-.14.23-.41.43-.27.2-.64.37-1.09.52-.46.15-.97.23-1.55.23-.3,0-.57-.09-.8-.27-.23-.18-.34-.39-.34-.64.12-1.79.23-3.53.32-5.21s.15-3.89.18-6.62v-9.47c-1.12,1.12-2.28,2.11-3.46,2.96-.15.12-.3.11-.46-.05l-.23-.18v4.92c.09,4.1.2,7.18.32,9.24,0,.18-.06.33-.18.46-.27.27-.74.54-1.41.8s-1.27.39-1.82.39c-.39,0-.65-.23-.77-.68,0-.18.01-.33.04-.46s.05-.28.05-.48.03-.45.09-.75v-1.18h-4.14v1.5l.14,2.55.04.18c0,.15-.14.35-.41.59-.27.24-.65.46-1.14.64-.49.18-1.02.27-1.59.27-.3,0-.56-.09-.77-.27-.21-.18-.32-.4-.32-.64.12-1.55.22-3.07.3-4.58.08-1.5.13-3.41.16-5.71v-5.65c-1,1.55-1.94,2.88-2.82,4.01-.15.21-.32.23-.5.05l-.14-.09c-.15-.15-.18-.32-.09-.5,2.67-5.4,4.54-12.66,5.6-21.76h-1.64c-.79.03-1.62.2-2.5.5-.21.09-.36.03-.46-.18l-.77-1.55s-.05-.09-.05-.18c0-.15.11-.23.32-.23,1.67.15,3.52.26,5.56.32h5.14l1.05-1.46c.12-.15.28-.37.48-.66.2-.29.36-.5.5-.64s.27-.21.39-.21c.27,0,.96.45,2.05,1.34s1.76,1.56,2,1.98c.03.06.04.14.04.23,0,.21-.11.39-.34.52s-.51.21-.84.21h-6.83c-.61,4.07-1.56,7.88-2.87,11.43l.91.41h3.19l.77-.96c.09-.12.26-.32.5-.59.24-.27.46-.41.64-.41.27,0,.87.36,1.8,1.07.93.71,1.51,1.28,1.75,1.71.09.12.06.26-.09.41-.36.27-.8.47-1.32.59v3.32c3.46-3.64,6.25-8.6,8.38-14.89h-3.32c0,1.18-.16,2.2-.48,3.05-.32.85-.75,1.49-1.3,1.91-.49.33-1,.5-1.55.5-.52,0-.96-.16-1.34-.48-.38-.32-.57-.78-.57-1.39,0-.46.13-.87.39-1.23.26-.36.61-.68,1.07-.96.61-.42,1.15-1.09,1.64-2,.49-.91.74-1.84.77-2.78,0-.12.04-.21.11-.27.08-.06.16-.09.25-.09.24,0,.38.11.41.32.15.49.32,1.18.5,2.09h3.82c.67-2.22,1.08-4.33,1.23-6.33,0-.12.04-.21.11-.27.08-.06.17-.06.3,0,1.88.58,3.19,1.02,3.94,1.34.74.32,1.12.57,1.12.75,0,.09-.14.2-.41.32l-.82.32c-.52,1.58-.99,2.87-1.41,3.87h7.6l.96-1.09c.12-.12.32-.34.59-.66s.5-.48.68-.48c.24,0,.83.46,1.78,1.39.94.93,1.53,1.63,1.78,2.12.09.18.05.33-.14.46-.24.15-.71.26-1.41.32-1.31,1.21-2.82,2.43-4.55,3.64-.12.12-.29.14-.5.05-.18-.09-.24-.26-.18-.5l.36-1.14c.42-1.4.68-2.32.77-2.78h-8.29c-1.21,2.79-2.66,5.39-4.33,7.79l.36.18h4.1c.61-2.55.91-4.74.91-6.56,0-.27.14-.38.41-.32,1.82.4,3.07.71,3.76.96.68.24,1.02.46,1.02.64,0,.12-.12.23-.36.32l-.77.36c-1.12,1.76-2.32,3.29-3.6,4.6h5.37l.96-1.37c.12-.15.28-.36.48-.61.2-.26.36-.45.48-.57.12-.12.24-.18.36-.18.24,0,.87.4,1.87,1.21,1,.8,1.62,1.42,1.87,1.84.03.15.01.3-.05.46-.18.33-.52.5-1,.5h-7.88v5.87h2.5l.91-1.37c.09-.12.23-.31.41-.57.18-.26.34-.46.48-.59.14-.14.27-.21.39-.21.24,0,.83.41,1.78,1.23.94.82,1.52,1.44,1.73,1.87.03.15.03.3,0,.46-.18.33-.53.5-1.05.5h-7.15v6.01h2.73l.91-1.37ZM430.4,59.13v14.93h4.14v-14.93h-4.14ZM450.75,63.19v-5.87h-4.69v5.87h4.69ZM446.06,70.52h4.69v-6.01h-4.69v6.01ZM450.75,71.84h-4.69v6.33h4.69v-6.33Z"/>
          <path class="cls-1" d="M474.52,50.71c-1.64.06-3.2.26-4.69.59-.09,0-.18-.02-.27-.05-.09-.03-.15-.09-.18-.18l-.82-1.55s-.04-.09-.04-.18c0-.15.12-.23.36-.23,1.64.15,3.48.26,5.51.32h6.28l.96-1.41c.09-.15.24-.36.43-.61.2-.26.36-.46.48-.59.12-.14.24-.21.36-.21.27,0,.9.42,1.89,1.25.99.83,1.58,1.46,1.8,1.89.03.15.01.29-.05.41-.18.36-.53.55-1.05.55h-10.97ZM474.56,79.44c.03.39.05.71.05.96s.01.44.05.59l.04.23c0,.3-.36.62-1.09.96-.73.33-1.49.5-2.28.5-.24,0-.44-.09-.59-.27-.15-.18-.23-.4-.23-.64.12-1.27.21-2.88.27-4.83v-2.87c0-3.31-.15-6.09-.46-8.33v-.09c0-.21.12-.27.37-.18l4.01,1.73h4.74l.82-1.05c.09-.09.22-.24.39-.46.17-.21.31-.37.43-.48.12-.11.24-.16.36-.16.27,0,.91.39,1.91,1.16,1,.77,1.64,1.37,1.91,1.8.09.18.05.33-.14.46-.39.33-.91.55-1.55.64v3.55c.09,2.88.18,5.1.27,6.65,0,.15-.05.29-.14.41-.27.3-.74.59-1.41.87-.67.27-1.27.41-1.82.41-.4,0-.65-.23-.77-.68l.05-.46.14-.59v-.87h-5.33v1.05ZM479.3,42.29c.09-.15.24-.36.43-.61.2-.26.36-.46.48-.59.12-.14.24-.21.36-.21.27,0,.89.41,1.87,1.23s1.56,1.46,1.78,1.91c.03.15.01.3-.05.46-.18.33-.53.5-1.05.5h-4.74c-1.94.03-4.11.23-6.51.59h-.14c-.12,0-.23-.08-.32-.23l-.82-1.59s-.04-.09-.04-.18c0-.15.12-.23.36-.23,1.43.15,3.03.26,4.83.32h2.59l.96-1.37ZM479.75,53.94c.12-.15.25-.33.39-.55.14-.21.28-.39.43-.55s.29-.23.41-.23c.24,0,.82.39,1.73,1.18.91.79,1.47,1.4,1.68,1.82l.05.18c0,.24-.11.43-.32.55-.21.12-.49.18-.82.18h-4.92c-1.94.03-4.11.23-6.51.59h-.14c-.12,0-.23-.08-.32-.23l-.82-1.55s-.04-.09-.04-.18c0-.15.12-.23.36-.23,1.55.15,3.28.26,5.19.32h2.73l.91-1.32ZM479.75,59.82c.12-.15.25-.33.39-.55.14-.21.28-.39.43-.55.15-.15.29-.23.41-.23.24,0,.82.4,1.73,1.18.91.79,1.47,1.4,1.68,1.82.03.06.05.14.05.23,0,.21-.11.39-.34.52s-.49.21-.8.21h-4.92c-1.94.03-4.11.23-6.51.59h-.14c-.12,0-.23-.08-.32-.23l-.82-1.59s-.04-.09-.04-.18c0-.15.12-.23.36-.23,1.55.15,3.28.26,5.19.32h2.73l.91-1.32ZM474.56,68.51v8.56h5.33v-8.56h-5.33ZM488.31,67.38h.05c.24,0,.38.11.41.32.46,1.49.68,2.98.68,4.46,0,1.12-.14,2.13-.43,3.03-.29.9-.68,1.6-1.16,2.12-.52.58-1.15.87-1.91.87-.36,0-.69-.08-.98-.25-.29-.17-.51-.4-.66-.71-.15-.36-.23-.67-.23-.91,0-.82.44-1.53,1.32-2.14.67-.58,1.26-1.46,1.78-2.66.52-1.2.77-2.41.77-3.62,0-.33.12-.5.36-.5ZM504.66,42.15c.12-.12.27-.3.46-.52.18-.23.33-.4.46-.52.12-.12.24-.18.36-.18.24,0,.86.45,1.84,1.34.99.9,1.59,1.57,1.8,2.03.09.12.06.26-.09.41-.27.3-.77.5-1.5.59-.12,5.04-.37,8.71-.75,11.02-.38,2.31-1.01,3.85-1.89,4.64-1,.91-2.37,1.41-4.1,1.5-.24,0-.36-.12-.36-.36-.03-.61-.08-1.1-.16-1.48-.08-.38-.24-.69-.48-.93-.46-.55-1.38-.97-2.78-1.27-.21-.09-.32-.23-.32-.41.03-.27.17-.38.41-.32,1.43.15,2.72.23,3.87.23.55,0,.96-.14,1.23-.41.39-.39.71-1.63.96-3.71s.41-5.11.5-9.08h-6.46c-.27,1.85-.64,3.63-1.09,5.33,1.24.61,2.19,1.31,2.82,2.09.64.79.96,1.55.96,2.28,0,.55-.17.99-.5,1.32s-.79.5-1.37.5c-.15,0-.27-.01-.36-.05-.21-.06-.36-.14-.46-.23-.43-.58-1.23-1.34-2.41-2.28-.94,1.97-2.16,3.72-3.67,5.24-1.5,1.52-3.42,2.84-5.76,3.96-.24.09-.41.05-.5-.14l-.05-.09c-.09-.21-.06-.38.09-.5,1.76-1.46,3.18-3.06,4.26-4.8,1.08-1.75,1.9-3.69,2.48-5.85-1.61-1-3.19-1.84-4.74-2.5-.21-.09-.27-.23-.18-.41.09-.15.23-.23.41-.23,2.03,0,3.75.15,5.14.46.3-1.73.49-3.1.55-4.1h-2.05c-1.12.03-2.23.21-3.32.55-.24.06-.39,0-.46-.18l-.82-1.59-.05-.18c0-.15.11-.23.32-.23,1.64.15,3.47.26,5.51.32h11.34l.91-1.23ZM491.18,72.11c0-2.16-.12-4.16-.36-6.01,0-.3.15-.41.46-.32,1.73.46,2.91.82,3.55,1.09.64.27.96.52.96.73,0,.09-.09.21-.27.36l-.64.46v8.92c0,.27.07.46.2.57.14.11.45.16.93.16h2.64c1.37,0,2.17-.02,2.41-.05.36,0,.62-.14.77-.41.3-.48.7-1.81,1.18-3.96.03-.21.15-.32.36-.32.18,0,.27.12.27.36l.14,4.01c.52.21.86.44,1.02.68.17.24.25.56.25.96,0,.85-.49,1.46-1.46,1.84-.97.38-2.73.57-5.28.57h-3.28c-1.09,0-1.91-.11-2.46-.32-.55-.21-.92-.55-1.12-1.02-.2-.47-.3-1.16-.3-2.07v-6.24ZM491.82,62.14c.12-.15.32-.23.59-.23,1.97,0,3.6.24,4.89.73,1.29.49,2.23,1.09,2.82,1.82s.89,1.46.89,2.19c0,.55-.17,1.01-.52,1.39-.35.38-.8.57-1.34.57-.15,0-.38-.03-.68-.09-.21-.06-.33-.17-.36-.32-.55-1.03-1.4-2.08-2.57-3.14-1.17-1.06-2.34-1.9-3.53-2.5-.21-.12-.27-.26-.18-.41ZM503.16,66.92c.15-.09.32-.09.5,0,2.16,1.24,3.73,2.6,4.74,4.07,1,1.47,1.5,2.86,1.5,4.17,0,.88-.2,1.59-.59,2.14s-.9.82-1.5.82c-.52,0-1.05-.23-1.59-.68-.12-.12-.18-.27-.18-.46,0-1.49-.28-3.09-.84-4.8-.56-1.71-1.25-3.32-2.07-4.8-.12-.21-.11-.36.04-.46Z"/>
          <path class="cls-1" d="M543.59,48.53c2.61,1.06,4.78,2.77,6.51,5.12,1.73,2.35,2.6,5.33,2.6,8.95,0,4.1-1.19,7.4-3.57,9.9-2.38,2.5-5.27,4.27-8.65,5.3-3.38,1.03-6.73,1.55-10.04,1.55-.76,0-1.14-.08-1.14-.23,0-.12.27-.24.82-.34.55-.11.87-.17.96-.2,5.01-.82,9.12-2.6,12.34-5.33s4.83-6.37,4.83-10.93c0-3.55-.74-6.37-2.21-8.45-1.47-2.08-3.21-3.51-5.21-4.3-2-.79-3.9-1.18-5.69-1.18-.43,0-.74.02-.96.05.36.79.68,1.78.96,2.96s.41,2.29.41,3.32c0,1.12-.13,2.43-.39,3.92-.26,1.49-.69,2.98-1.3,4.46-.94,2.46-2.05,4.64-3.32,6.56s-2.53,3.38-3.76,4.42c-1.23,1.03-2.25,1.55-3.07,1.55-1.12,0-2.19-.58-3.21-1.75-1.02-1.17-1.84-2.66-2.46-4.46-.62-1.81-.93-3.62-.93-5.44,0-3.4.9-6.39,2.71-8.97,1.81-2.58,4.14-4.57,7.01-5.96s5.82-2.09,8.86-2.09c2.67,0,5.31.53,7.92,1.59ZM533.39,48.48c-2.4.27-4.58,1.08-6.56,2.41-1.97,1.34-3.54,3.04-4.69,5.12-1.15,2.08-1.73,4.32-1.73,6.72,0,1.67.21,3.09.64,4.26s.93,2.04,1.5,2.62c.58.58,1.05.87,1.41.87.7,0,1.55-.53,2.55-1.59,1-1.06,1.97-2.34,2.91-3.82,1.58-2.4,2.71-4.63,3.39-6.69.68-2.06,1.02-4.23,1.02-6.51,0-1.09-.15-2.21-.46-3.37Z"/>
          <path class="cls-1" d="M571.82,81.54c-.09,0-.17-.02-.23-.07-.06-.05-.09-.1-.09-.16,0-.09.05-.18.16-.27s.27-.18.48-.27c3.43-1.34,6.21-3.1,8.33-5.28,2.12-2.19,3.63-4.52,4.53-7.01.89-2.49,1.34-4.96,1.34-7.42,0-1.76-.32-3.26-.96-4.51-.64-1.24-1.62-1.87-2.96-1.87-.73,0-1.43.21-2.12.61-.68.41-1.51,1.01-2.48,1.8-.88.73-1.6,1.27-2.16,1.62-.56.35-1.13.52-1.71.52-.7,0-1.4-.21-2.09-.64s-1.26-.97-1.68-1.64c-.43-.67-.64-1.33-.64-2,0-.39.06-.78.18-1.16.12-.38.26-.57.41-.57.18,0,.46.18.82.55.27.3.58.51.91.61.33.11.74.16,1.23.16.76,0,1.62-.13,2.57-.39s1.51-.42,1.66-.48c2.43-.64,4.48-.96,6.15-.96,1.79,0,3.49.61,5.1,1.84,1.61,1.23,2.41,3.59,2.41,7.08,0,2.55-.63,5.12-1.89,7.72-1.26,2.6-3.28,4.98-6.06,7.15-2.78,2.17-6.32,3.8-10.63,4.89-.36.09-.56.14-.59.14ZM573.46,49.35c0-.15.18-.33.55-.55l2.32-1.32,1.28-.68c.36-.24.55-.44.55-.59,0-.12-.09-.23-.27-.34-.18-.11-.41-.2-.68-.3-.94-.42-1.81-.91-2.59-1.46-.79-.55-1.55-1.35-2.28-2.41-.18-.24-.27-.42-.27-.55,0-.15.04-.23.14-.23.06,0,.17.04.32.14.15.09.27.15.36.18.49.33.93.61,1.34.82.41.21.89.36,1.43.46.88.21,2.44.36,4.69.46.39,0,.87.04,1.43.11.56.08,1.02.19,1.39.34.79.24,1.53.64,2.21,1.18.68.55,1.02,1.08,1.02,1.59,0,.43-.21.77-.64,1.05-.42.27-.91.41-1.46.41l-2.82-.09c-1.09,0-2.19.13-3.28.39-1.09.26-2.41.71-3.96,1.34-.06.03-.13.06-.21.09-.08.03-.14.06-.21.09h-.18c-.12,0-.18-.05-.18-.14Z"/>
          <path class="cls-1" d="M641.46,75.59c.47.44.71.96.71,1.57,0,1.15-.76,1.9-2.28,2.23-1.52.33-3.45.5-5.78.5-1.76,0-3.16-.2-4.19-.61-1.03-.41-1.8-1.12-2.3-2.12s-.8-2.41-.89-4.23c-.09-1.24-.32-2.18-.68-2.8s-1.05-.93-2.05-.93c-1.15,0-2.53.64-4.14,1.91-.88.61-1.84,1.65-2.87,3.12-1.03,1.47-1.75,2.68-2.14,3.62-.3.7-.58,1.22-.84,1.57-.26.35-.55.52-.89.52s-.71-.21-1.12-.61c-.41-.41-.77-.9-1.07-1.48s-.46-1.09-.46-1.55c0-.55.17-1.05.52-1.53.35-.47.75-.94,1.21-1.41.46-.47.77-.8.96-.98l4.23-4.23c5.07-5.01,8.35-8.29,9.83-9.83.12-.12.32-.31.59-.57.27-.26.48-.49.61-.68s.21-.36.21-.48-.07-.24-.21-.36c-.14-.12-.37-.18-.71-.18-1.27,0-2.41.36-3.41,1.07-1,.71-1.99,1.6-2.96,2.66-.58.64-1.02,1.07-1.32,1.3-.3.23-.71.34-1.23.34-.49,0-1.08-.2-1.78-.61-.7-.41-1.38-.92-2.05-1.53-.88-.79-1.32-1.62-1.32-2.5,0-.36.07-.71.21-1.05.14-.33.33-.5.57-.5.15,0,.33.09.55.27.21.18.36.3.46.36.94.85,1.88,1.28,2.82,1.28.58,0,1.27-.17,2.09-.5,1.34-.61,2.87-1.17,4.6-1.68,1.73-.52,3.14-.77,4.23-.77.73,0,1.43.17,2.09.52.67.35,1.23.89,1.68,1.62.39.43.59.91.59,1.46,0,.49-.21.9-.64,1.25-.43.35-1.09.77-2,1.25-1.18.67-1.84,1.05-1.96,1.14-2.97,1.91-5.6,3.96-7.88,6.15l-1.18,1.23c1.64-1.03,3.37-1.55,5.19-1.55.94,0,1.75.27,2.41.82.49.36.83.84,1.02,1.41s.37,1.43.52,2.55c.12,1.34.26,2.25.41,2.75.15.5.39.83.73.98s.93.23,1.78.23c.73,0,2.17-.2,4.33-.59,1.7-.3,2.78-.46,3.23-.46.82,0,1.46.22,1.93.66ZM617.76,51.94c0-.09.12-.24.36-.46.64-.48,2.2-1.56,4.69-3.23.3-.18.46-.3.46-.36,0-.09-.15-.24-.46-.46-.88-.58-1.58-1.2-2.09-1.87-.55-.73-.92-1.4-1.12-2.03-.2-.62-.3-1.12-.3-1.48,0-.24.05-.36.14-.36.06,0,.19.1.39.3.2.2.33.33.39.39.42.36.99.77,1.71,1.21.71.44,1.39.78,2.03,1.02,1.03.36,1.87.55,2.5.55.18,0,.49-.05.91-.14.42-.09.71-.14.87-.14.39,0,.86.17,1.39.5s.98.74,1.34,1.23c.36.49.55.94.55,1.37,0,.67-.53,1.09-1.59,1.28-.27.03-.68.06-1.21.09-.53.03-1.02.08-1.48.14-1.52.12-3.26.52-5.24,1.18-1.85.61-3.07,1.05-3.64,1.32-.18.09-.32.14-.41.14-.12,0-.18-.06-.18-.18Z"/>
        </g>
        <g>
          <path class="cls-1" d="M251.26,111.46c.12-.15.31-.41.57-.77.26-.36.47-.63.64-.8s.31-.25.43-.25c.27,0,1.05.55,2.34,1.64s2.07,1.88,2.35,2.37c.06.12.08.26.04.41-.18.33-.55.5-1.09.5h-14.98v19.81h11.66l1.27-1.82c.15-.21.35-.49.59-.82s.44-.58.59-.75c.15-.17.29-.25.41-.25.27,0,1.08.55,2.44,1.64s2.16,1.88,2.44,2.37c.09.15.09.3,0,.46-.18.33-.56.5-1.14.5h-31.83c-1.94.03-4.11.23-6.51.59h-.14c-.12,0-.23-.08-.32-.23l-.77-1.59s-.04-.09-.04-.18c0-.15.11-.23.32-.23,1.67.15,3.52.26,5.55.32h10.97v-28.96c0-3.34-.17-6.3-.5-8.88v-.09c0-.24.14-.32.41-.23,2.19.52,3.69.93,4.51,1.23.82.3,1.23.58,1.23.82,0,.12-.12.26-.36.41l-.77.5v14.07h8.42l1.28-1.78Z"/>
          <path class="cls-1" d="M272.02,106.18c-1.82.06-3.57.26-5.24.59h-.14c-.12,0-.23-.08-.32-.23l-.77-1.55s-.05-.09-.05-.18c0-.15.11-.23.32-.23,1.67.15,3.52.26,5.55.32h7.79l.96-1.41c.12-.15.28-.36.48-.64.2-.27.36-.48.48-.61s.24-.21.36-.21c.27,0,.92.42,1.94,1.25,1.02.84,1.65,1.48,1.89,1.94.03.15.01.29-.05.41-.18.36-.55.55-1.09.55h-12.11ZM272.66,112.01c-1.21.03-2.44.21-3.69.55-.24.06-.39,0-.46-.18l-.82-1.55s-.05-.09-.05-.18c0-.15.12-.23.36-.23,1.64.15,3.48.26,5.51.32h3.64l.91-1.32c.12-.15.25-.33.39-.55.14-.21.28-.39.43-.55.15-.15.29-.23.41-.23.24,0,.83.4,1.78,1.18.94.79,1.52,1.4,1.73,1.82.03.15.03.29,0,.41-.18.33-.56.5-1.14.5h-9.01ZM278.07,115.29c.12-.15.27-.36.43-.62.17-.26.31-.45.43-.57.12-.12.24-.18.36-.18.24,0,.83.4,1.78,1.21.94.8,1.52,1.42,1.73,1.84.03.15.01.3-.05.46-.18.33-.55.5-1.09.5h-6.19c-1.94.03-4.11.23-6.51.59h-.14c-.12,0-.23-.08-.32-.23l-.82-1.59s-.05-.09-.05-.18c0-.15.11-.23.32-.23,1.67.15,3.52.26,5.55.32h3.64l.91-1.32ZM277.8,97.67c.15-.18.3-.38.46-.59.15-.21.3-.4.46-.57.15-.17.29-.25.41-.25.24,0,.86.42,1.84,1.25.99.84,1.59,1.46,1.8,1.89.03.15.03.3,0,.46-.18.33-.55.5-1.09.5h-6.19c-1.94.03-4.11.23-6.51.59h-.14c-.12,0-.23-.08-.32-.23l-.77-1.59s-.05-.09-.05-.18c0-.15.11-.23.32-.23,1.67.15,3.52.26,5.55.32h3.28l.96-1.37ZM271.93,136.82c0,.21-.36.47-1.07.77-.71.3-1.45.46-2.21.46-.24,0-.43-.09-.57-.27-.14-.18-.21-.4-.21-.64.12-1.31.21-2.94.27-4.92v-2.91c0-3.34-.15-6.16-.46-8.47v-.09c0-.24.12-.32.36-.23l4.05,1.78h5.24l.87-1.09c.09-.09.22-.24.39-.46.17-.21.31-.37.43-.48.12-.11.24-.16.36-.16.27,0,.92.39,1.94,1.18,1.02.79,1.66,1.4,1.93,1.82.09.12.06.26-.09.41-.33.33-.87.58-1.59.73v3.92c.09,3.22.18,5.68.27,7.38,0,.15-.05.29-.14.41-.3.3-.79.6-1.46.89-.67.29-1.29.43-1.87.43-.4,0-.65-.23-.77-.68l.05-.46.14-.59v-.87h-5.87v2.14ZM271.93,123.62v9.74h5.87v-9.74h-5.87ZM299.7,98.12c.12-.15.25-.33.39-.55.14-.21.28-.39.43-.55.15-.15.29-.23.41-.23.27,0,.95.46,2.03,1.39,1.08.93,1.75,1.63,2.03,2.12.09.12.06.26-.09.41-.36.36-.91.61-1.64.73v4.92c.09,4.13.2,7.22.32,9.29,0,.18-.06.33-.18.46-.33.3-.87.6-1.59.89-.73.29-1.37.43-1.91.43h-.32c-.24,0-.36-.12-.36-.36v-1.87h-9.43v16.71c0,.46.13.76.39.91.26.15.81.23,1.66.23h4.83c1.88,0,3.31-.03,4.28-.09.3-.03.53-.09.68-.18.15-.09.3-.26.46-.5.36-.73.94-2.81,1.73-6.24.03-.21.15-.32.37-.32.15,0,.23.12.23.36l.09,6.47c.61.21,1.03.46,1.27.73s.36.62.36,1.05c0,.67-.27,1.19-.82,1.57-.55.38-1.52.65-2.91.82-1.4.17-3.42.25-6.06.25h-5.24c-1.49,0-2.61-.11-3.37-.34s-1.29-.63-1.59-1.21c-.3-.58-.46-1.43-.46-2.55v-11.79c0-3.28-.17-6.22-.5-8.83v-.09c0-.12.03-.21.09-.25.06-.04.15-.04.27.02l4.78,1.96h8.88v-13.16h-6.24c-1.94.03-4.11.23-6.51.59h-.14c-.12,0-.23-.08-.32-.23l-.82-1.59s-.04-.09-.04-.18c0-.15.11-.23.32-.23,1.67.15,3.52.26,5.55.32h7.79l.91-1.27Z"/>
          <path class="cls-1" d="M327.98,119.98c-1.85,2.09-4.4,3.96-7.65,5.6-.21.09-.38.04-.5-.14l-.14-.18c-.12-.21-.09-.38.09-.5,3.19-2.46,5.47-5.21,6.85-8.26,1.38-3.05,2.24-6.7,2.57-10.95h-10.61v19.9c.06,3.76.18,7.25.36,10.47,0,.18-.04.32-.14.41-.27.42-.77.8-1.48,1.14-.71.33-1.46.5-2.25.5-.33,0-.61-.09-.84-.27s-.34-.4-.34-.64c.12-1.79.23-3.53.32-5.21.09-1.69.15-3.89.18-6.62v-13.84c0-3.58-.17-6.53-.5-8.83v-.09c0-.24.12-.32.36-.23l4.74,2.05h10.29c.06-1.15.09-2.06.09-2.73,0-1.91-.11-3.76-.32-5.56v-.09c0-.24.14-.33.41-.27,2.06.18,3.5.36,4.3.52.8.17,1.21.34,1.21.52,0,.12-.12.26-.36.41l-.77.5c-.12,3-.24,5.24-.36,6.69h11.29l.91-1.23c.12-.12.27-.3.46-.52.18-.23.33-.4.46-.52.12-.12.24-.18.36-.18.27,0,.97.44,2.09,1.32,1.12.88,1.82,1.56,2.09,2.05.09.12.06.26-.09.41-.43.36-.96.61-1.59.73v26.04c0,1.15-.14,2.09-.43,2.82-.29.73-.86,1.33-1.71,1.8-.85.47-2.11.8-3.78.98h-.09c-.15,0-.26-.11-.32-.32-.24-1.34-.67-2.26-1.27-2.78-.88-.73-2.32-1.27-4.33-1.64-.24-.06-.36-.18-.36-.36,0-.09.03-.17.09-.23.06-.06.15-.08.27-.04,3.52.24,5.72.36,6.6.36.39,0,.67-.08.84-.25.17-.17.25-.43.25-.8v-26.36h-11.84c-.18,2.34-.53,4.39-1.05,6.15,2.43,1.03,4.41,2.19,5.94,3.46,1.53,1.27,2.64,2.53,3.32,3.76.68,1.23,1.02,2.36,1.02,3.39,0,.76-.17,1.37-.52,1.82-.35.46-.8.68-1.34.68-.46,0-.93-.15-1.41-.46-.15-.06-.24-.18-.27-.36-.49-1.73-1.38-3.57-2.69-5.53-1.31-1.96-2.76-3.83-4.37-5.62-.85,2.67-2.2,5.05-4.05,7.15Z"/>
          <path class="cls-1" d="M387.03,118.16c3.37,1.76,6.88,3.1,10.52,4.01.21.03.32.17.32.41v.09c-.03.21-.14.33-.32.36-.73.27-1.34.72-1.84,1.34-.5.62-.86,1.31-1.07,2.07-.06.24-.21.32-.46.23-1.79-.82-3.2-1.53-4.23-2.14-.24.3-.7.55-1.37.73v3.78c.09,3.1.18,5.45.27,7.06,0,.18-.06.33-.18.46-.3.3-.83.58-1.57.84-.74.26-1.4.39-1.98.39-.49,0-.79-.23-.91-.68,0-.18.01-.33.04-.46.03-.09.05-.21.05-.34s.03-.31.09-.52v-1h-14.34v2c0,.12-.18.29-.55.5-.36.21-.82.4-1.37.57-.55.17-1.08.25-1.59.25-.3,0-.55-.09-.75-.27-.2-.18-.3-.4-.3-.64.21-2.61.35-5.51.41-8.7v-4.83c-3,1.76-5.84,3.1-8.51,4.01-.21.09-.36.03-.46-.18-.03-.03-.04-.09-.04-.18,0-.12.06-.23.18-.32,2.37-1.18,4.72-2.71,7.06-4.58,2.34-1.87,4.4-3.83,6.19-5.9,2.06-2.4,3.32-4.7,3.78-6.92.09-.27.24-.36.46-.27l6.19,1.82c.27.12.39.23.36.32-.21.36-.85.61-1.91.73,1.85,2.22,4.46,4.21,7.83,5.96ZM392.54,100.22c.12-.12.34-.35.66-.68s.57-.5.75-.5c.24,0,.87.49,1.87,1.48,1,.99,1.62,1.74,1.87,2.25.09.15.06.3-.09.46-.21.15-.71.26-1.5.32-.64.7-1.49,1.46-2.55,2.28-1.06.82-2.11,1.55-3.14,2.19-.21.09-.38.08-.5-.05-.15-.15-.18-.3-.09-.46.64-1.52,1.23-3.11,1.78-4.78h-27.87c.06,1.49-.12,2.8-.55,3.94-.43,1.14-1,2.01-1.73,2.62-.49.46-1.11.68-1.87.68-.39,0-.77-.1-1.12-.3-.35-.2-.6-.48-.75-.84-.12-.27-.18-.58-.18-.91,0-.91.49-1.69,1.46-2.32.82-.55,1.58-1.44,2.28-2.69.7-1.24,1.06-2.53,1.09-3.87,0-.24.11-.36.32-.36.24,0,.38.11.41.32.18.52.37,1.32.55,2.41h11.43c0-2.15-.11-3.98-.32-5.46,0-.3.14-.41.41-.32,2.03.49,3.44.87,4.21,1.14.77.27,1.16.52,1.16.73,0,.15-.12.3-.36.46l-.82.5v2.96h12.16l1.05-1.18ZM369.86,104.27l2.6,1.46c1.46.55,2.19.96,2.19,1.23,0,.15-.17.26-.5.32l-.77.18c-1.25,1.55-2.91,3.09-4.99,4.62-2.08,1.53-4.26,2.79-6.53,3.76-.21.09-.38.05-.5-.14v-.04c-.15-.21-.14-.38.04-.5,1.34-1.06,2.47-2.16,3.42-3.28.97-1.06,1.87-2.28,2.71-3.64s1.45-2.62,1.84-3.78c.09-.27.26-.33.5-.18ZM370.27,123.44h13.75l1.64-1.87c-3.28-2.7-5.69-5.66-7.24-8.88-1.09,1.67-2.55,3.34-4.37,5.01-1.82,1.67-3.87,3.25-6.15,4.73l2.37,1ZM370.05,124.71v8.79h14.34v-8.79h-14.34ZM379.84,105.82c-.03-.09-.02-.17.05-.23.12-.12.27-.17.46-.14,2.64.27,4.82.81,6.53,1.62,1.71.8,2.96,1.7,3.73,2.69.77.99,1.16,1.94,1.16,2.85,0,.64-.17,1.16-.52,1.57s-.81.61-1.39.61c-.36,0-.68-.06-.96-.18-.15-.03-.26-.12-.32-.27-.82-1.43-2.04-2.91-3.67-4.46s-3.25-2.84-4.89-3.87c-.09-.03-.15-.09-.18-.18Z"/>
          <path class="cls-1" d="M437.02,101.51c1.03.68,1.55,1.45,1.55,2.3,0,.49-.15.88-.46,1.18-.3.3-.68.46-1.14.46-.4,0-1.11-.09-2.14-.27-1.21-.24-2.23-.36-3.05-.36-1.18,0-2.41.21-3.69.64-1.34.49-2.53,1.68-3.57,3.57-1.05,1.9-1.86,4.05-2.44,6.47-.58,2.41-.87,4.56-.87,6.44s.17,3.52.52,4.64c.35,1.12.92,1.93,1.71,2.41.79.49,1.87.73,3.23.73l1.23-.09c.91-.12,1.64-.18,2.19-.18,1.18,0,2.12.22,2.8.66.68.44,1.02.99,1.02,1.66,0,1-.62,1.65-1.87,1.96-1.25.3-2.57.46-3.96.46-3.79,0-6.52-.96-8.17-2.87-1.65-1.91-2.48-4.87-2.48-8.88,0-3.79.87-7.22,2.6-10.27,1.73-3.05,3.92-5.49,6.56-7.31-.12,0-.33.03-.64.09-1.12.15-2.72.63-4.8,1.43-2.08.8-4.14,1.75-6.17,2.85-.64.43-1.23.83-1.78,1.23-.73.58-1.37,1-1.93,1.27-.56.27-1.19.41-1.89.41s-1.35-.25-2.05-.75c-.7-.5-1.31-1.1-1.84-1.8s-.89-1.32-1.07-1.87c-.09-.15-.14-.35-.14-.59,0-.27.12-.41.36-.41.15,0,.33.06.55.18.42.21.8.39,1.14.52.33.14.71.21,1.14.21.24,0,.55-.03.91-.09.18-.03.61-.16,1.3-.39.68-.23,1.31-.43,1.89-.61,3.13-1.06,6.03-1.99,8.72-2.78,2.69-.79,5.17-1.35,7.44-1.68.67-.09,1.67-.38,3-.87.52-.18,1.04-.35,1.57-.5.53-.15,1.02-.23,1.48-.23,1.12,0,2.2.34,3.23,1.02ZM432.54,117.18c-.38-.26-.66-.64-.84-1.16-.33-1.03-.71-1.91-1.12-2.64s-.99-1.4-1.75-2c-.09-.06-.27-.19-.52-.39-.26-.2-.39-.37-.39-.52,0-.06.04-.11.11-.16.08-.05.16-.07.25-.07.46,0,1.29.2,2.5.59,1.21.4,2.33.99,3.35,1.8,1.02.8,1.52,1.8,1.52,2.98,0,.67-.2,1.16-.59,1.48-.39.32-.83.48-1.32.48-.42,0-.83-.13-1.21-.39ZM437.84,114.13c-.36-.26-.67-.61-.91-1.07-.46-1-.89-1.78-1.3-2.32-.41-.55-1.05-1.14-1.93-1.78-.12-.09-.34-.23-.66-.41-.32-.18-.48-.35-.48-.5s.23-.23.68-.23c.64,0,1.55.16,2.75.48,1.2.32,2.29.84,3.28,1.57s1.48,1.67,1.48,2.82c0,.64-.18,1.1-.55,1.39-.36.29-.79.43-1.28.43-.36,0-.73-.13-1.09-.39Z"/>
          <path class="cls-1" d="M454.42,113.97c.12-.15.28-.36.48-.64.2-.27.36-.48.48-.61.12-.14.24-.2.36-.2.27,0,1,.49,2.19,1.48,1.18.99,1.91,1.72,2.18,2.21.09.15.06.3-.09.46-.39.36-1.08.61-2.05.73v11.7c1.03,1.09,2.12,1.91,3.26,2.46,1.14.55,2.5.91,4.1,1.09,1.59.18,3.77.27,6.53.27,7.59,0,13.13-.06,16.62-.18.24,0,.36.09.36.27s-.11.32-.32.41c-1.37.39-2.18,1.47-2.46,3.23-.06.24-.18.36-.36.36h-13.8c-2.85,0-5.13-.19-6.83-.57s-3.15-1.08-4.35-2.09c-1.2-1.02-2.3-2.51-3.3-4.49-.82,1.09-1.86,2.32-3.12,3.69-1.26,1.37-2.38,2.5-3.35,3.41v.14c0,.27-.11.52-.32.73-.06.06-.14.09-.23.09-.12,0-.21-.08-.27-.23l-2.05-4.33s-.05-.09-.05-.18c0-.15.08-.26.23-.32,1.49-.58,3.43-1.46,5.83-2.64v-13.43h-1.96c-1.03.03-2.08.21-3.14.55h-.09c-.15,0-.27-.08-.36-.23l-.68-1.55-.05-.18c0-.21.11-.29.32-.23.79.12,1.96.21,3.51.27h1.82l.96-1.46ZM449.77,97.3c.15-.09.3-.12.46-.09,2.79.7,4.86,1.69,6.19,2.98,1.33,1.29,2,2.57,2,3.85,0,.7-.2,1.28-.59,1.75s-.9.71-1.5.71c-.55,0-1.05-.17-1.5-.5-.12-.06-.21-.18-.27-.36-.33-1.24-.94-2.59-1.82-4.03-.88-1.44-1.84-2.72-2.87-3.85-.18-.18-.21-.33-.09-.46ZM482.83,112.97c.12-.15.3-.38.52-.68.23-.3.41-.53.55-.68.14-.15.27-.23.39-.23.24,0,.94.47,2.09,1.41s1.87,1.64,2.14,2.09c.03.06.05.14.05.23,0,.21-.11.39-.34.52-.23.14-.51.2-.84.2h-11.97c-.24,1.43-.58,2.69-1,3.78,2.79.61,5.08,1.43,6.85,2.46,1.78,1.03,3.07,2.12,3.87,3.26.8,1.14,1.21,2.19,1.21,3.16,0,.7-.18,1.27-.55,1.71-.36.44-.85.66-1.46.66-.33,0-.71-.09-1.14-.27-.18-.03-.29-.14-.32-.32-.79-1.58-2-3.24-3.64-4.99-1.64-1.75-3.37-3.3-5.19-4.67-.94,2.22-2.43,4.17-4.46,5.85-2.03,1.68-4.81,3.15-8.33,4.39h-.14c-.15,0-.27-.05-.36-.14l-.09-.09-.09-.18c0-.12.08-.23.23-.32,3.4-1.82,5.86-3.87,7.38-6.15,1.52-2.28,2.49-4.99,2.91-8.15h-3.51c-1.82.03-3.87.23-6.15.59h-.14c-.12,0-.23-.08-.32-.23l-.82-1.59s-.05-.09-.05-.18c0-.15.11-.23.32-.23,1.67.15,3.52.26,5.55.32h5.24c.12-1.27.21-3.29.27-6.06v-1.23h-3.46c-1.79.03-3.81.23-6.06.59h-.14c-.12,0-.23-.08-.32-.23l-.82-1.59s-.05-.09-.05-.18c0-.15.11-.23.32-.23,1.67.15,3.52.26,5.55.32h8.74l.55-1.32c.52-1.37.99-2.88,1.43-4.55.44-1.67.75-3.13.93-4.37.03-.27.18-.36.46-.27,3.64,1.4,5.46,2.29,5.46,2.69,0,.09-.14.2-.41.32l-.86.27c-2.19,3-4.28,5.42-6.28,7.24h4.74l1.09-1.5c.15-.18.31-.39.48-.62.17-.23.33-.43.5-.61.17-.18.31-.27.43-.27.27,0,.97.46,2.09,1.37,1.12.91,1.81,1.58,2.05,2,.03.06.05.14.05.23,0,.21-.11.39-.34.52-.23.14-.49.2-.8.2h-10.79c-.06,2.76-.21,5.19-.46,7.29h6.1l1.14-1.55ZM464.61,96.07c.09-.09.24-.11.46-.05,2.22.73,3.85,1.65,4.89,2.75,1.05,1.11,1.57,2.22,1.57,3.35,0,.76-.21,1.39-.64,1.89-.42.5-.96.75-1.59.75-.55,0-1.08-.2-1.59-.59-.09-.09-.17-.24-.23-.46-.12-1.15-.45-2.38-.98-3.69-.53-1.3-1.16-2.47-1.89-3.51-.12-.21-.12-.36,0-.46Z"/>
          <path class="cls-1" d="M498.94,113.92c-1.55,2.28-3.23,4.28-5.05,6.01-.15.15-.32.17-.5.05-.18-.18-.21-.35-.09-.5,2.28-3.88,4.39-8.65,6.33-14.3.49-1.49.93-3.12,1.34-4.89.41-1.78.66-3.27.75-4.48.06-.27.21-.36.46-.27,2.15.7,3.64,1.23,4.46,1.59s1.23.64,1.23.82c0,.12-.12.23-.36.32l-.82.32c-1.25,3.4-2.69,6.66-4.33,9.79,1.21.88,1.82,1.49,1.82,1.82,0,.09-.04.17-.11.25-.08.08-.17.14-.29.21l-.68.32v14.84c.06,3.79.18,7.27.36,10.43,0,.18-.06.33-.18.46-.33.3-.85.6-1.55.89-.7.29-1.37.43-2,.43-.36,0-.67-.09-.91-.27-.24-.18-.37-.39-.37-.64.12-1.79.23-3.53.32-5.21s.15-3.89.18-6.62v-11.34ZM514.11,106.82c-1.94.03-4.11.23-6.51.59h-.14c-.12,0-.23-.08-.32-.23l-.77-1.59s-.05-.09-.05-.18c0-.15.11-.23.32-.23,1.67.15,3.52.26,5.55.32h15.66l1.14-1.64c.12-.18.3-.43.52-.75.23-.32.41-.55.55-.71.14-.15.26-.23.39-.23.24,0,.93.5,2.07,1.5,1.14,1,1.83,1.73,2.07,2.19.09.15.09.29,0,.41-.18.36-.55.55-1.09.55h-19.4ZM516.66,112.87c-1.88.03-3.96.23-6.24.59h-.14c-.12,0-.23-.08-.32-.23l-.82-1.59s-.05-.09-.05-.18c0-.15.11-.23.32-.23,1.67.15,3.52.26,5.55.32h10.52l1.05-1.55c.12-.15.28-.38.48-.68.2-.3.36-.53.5-.68s.26-.23.39-.23c.18,0,.61.27,1.28.8.67.53,1.3,1.1,1.89,1.71.59.61.89,1.02.89,1.23-.03.24-.15.42-.37.55-.21.12-.47.18-.77.18h-14.16ZM526.54,116.11c.12-.15.28-.38.48-.68.2-.3.36-.53.5-.68.14-.15.26-.23.39-.23.18,0,.61.27,1.28.8.67.53,1.3,1.1,1.89,1.71.59.61.89,1.02.89,1.23-.03.24-.15.43-.37.55-.21.12-.47.18-.77.18h-13.89c-1.94.03-4.11.23-6.51.59h-.14c-.12,0-.23-.08-.32-.23l-.82-1.55s-.05-.09-.05-.18c0-.15.12-.23.36-.23,1.64.15,3.48.26,5.51.32h10.52l1.05-1.59ZM513.61,136.5c0,.24-.39.52-1.16.84-.77.32-1.56.48-2.34.48-.27,0-.49-.09-.64-.27-.15-.18-.23-.4-.23-.64.12-1.18.21-2.66.27-4.42v-2.69c0-2.94-.14-5.51-.41-7.7v-.09c0-.21.12-.27.36-.18l4.37,1.87h12.34l.91-1.14c.12-.12.26-.3.43-.52.17-.23.31-.39.43-.5.12-.11.24-.16.36-.16.27,0,.95.42,2.03,1.25,1.08.84,1.75,1.48,2.03,1.94.09.12.06.26-.09.41-.36.36-.87.61-1.5.73v3.55c.09,2.91.18,5.11.27,6.6,0,.18-.06.33-.18.46-.3.3-.83.59-1.59.87-.76.27-1.43.41-2,.41-.49,0-.79-.23-.91-.68,0-.18.01-.33.04-.46.03-.09.05-.21.05-.34s.03-.31.09-.52v-1.05h-12.93v1.96ZM525.31,97.62c.12-.18.29-.42.5-.73.21-.3.39-.53.52-.68.14-.15.26-.23.39-.23.18,0,.61.27,1.3.82.68.55,1.33,1.13,1.94,1.75.61.62.91,1.04.91,1.25-.03.24-.15.42-.36.55-.21.12-.47.18-.77.18h-12.11c-1.94.03-4.11.23-6.51.59h-.14c-.12,0-.23-.08-.32-.23l-.77-1.59s-.05-.09-.05-.18c0-.15.11-.23.32-.23,1.67.15,3.52.26,5.55.32h8.56l1.05-1.59ZM513.61,124.99v8.24h12.93v-8.24h-12.93Z"/>
          <path class="cls-1" d="M576.6,105.59c.59.33.89.93.89,1.78,0,1.12-.76,1.68-2.28,1.68-.24,0-1.28-.12-3.1-.36-.27-.03-1.19-.15-2.75-.36-1.56-.21-3.03-.32-4.39-.32-.55,0-1.37.03-2.46.09-.15,2.37-.23,4.55-.23,6.56,0,.97.01,1.65.05,2.05.67,1.06,1.18,2.25,1.55,3.57s.55,2.69.55,4.12c0,3.43-1.17,6.18-3.51,8.24-2.34,2.06-5.07,3.49-8.2,4.28-.21.06-.36.09-.46.09s-.16-.02-.21-.07c-.05-.05-.07-.1-.07-.16,0-.18.14-.35.41-.5,1.88-.79,3.42-1.81,4.62-3.07,1.2-1.26,2.07-2.54,2.62-3.85.55-1.31.83-2.5.86-3.6v-.32c-.21.39-.63.77-1.25,1.14s-1.19.55-1.71.55c-1.49,0-2.79-1.15-3.92-3.46-.36-.76-.66-1.59-.89-2.48-.23-.9-.34-1.74-.34-2.53,0-1.52.46-2.82,1.39-3.92.92-1.09,2.12-1.64,3.57-1.64.67,0,1.3.17,1.91.5.18-1.64.29-3.32.32-5.05-2.61.55-5.74,1.64-9.38,3.28-1.31.7-2.49,1.05-3.55,1.05-.82,0-1.66-.24-2.5-.73-.67-.39-1.43-1.08-2.3-2.05-.87-.97-1.3-1.62-1.3-1.96,0-.15.11-.23.32-.23.15,0,.39.04.71.11.32.08.58.14.8.21,1.21.24,2.29.36,3.23.36,1.18,0,2.25-.12,3.19-.36,3.1-.64,6.69-1.27,10.79-1.91-.06-1.82-.15-3.17-.27-4.05-.09-.82-.3-1.55-.64-2.19-.33-.64-.73-1.09-1.18-1.37-.15-.09-.36-.21-.61-.36-.26-.15-.39-.29-.39-.41,0-.21.23-.41.68-.59s.88-.27,1.27-.27c.61,0,1.26.12,1.96.36,2.03.64,3.05,1.67,3.05,3.1,0,.21-.09.65-.27,1.32,1.7.85,3.07,1.49,4.1,1.91,1.03.43,2.14.7,3.32.82.91.21,1.82.32,2.73.32l1,.09c.91.06,1.66.26,2.25.59ZM558.82,122.12c.39-.67.59-1.52.59-2.55,0-1.12-.28-2.22-.84-3.3-.56-1.08-1.28-1.62-2.16-1.62-.79,0-1.43.4-1.91,1.21-.49.8-.73,1.69-.73,2.66,0,.64.16,1.32.48,2.05.32.73.74,1.34,1.25,1.82.52.49,1.06.73,1.64.73.73,0,1.29-.33,1.69-1ZM565.67,105.57c.29-.02.5-.04.64-.07s.21-.09.21-.18c0-.12-.11-.25-.32-.39-.21-.14-.35-.22-.41-.25l-2.87-1.82v.09l-.27,2.91c.91-.12,1.7-.21,2.37-.27.15,0,.37,0,.66-.02Z"/>
          <path class="cls-1" d="M612,116.68c1.58.65,2.88,1.64,3.89,2.96,1.02,1.32,1.53,2.94,1.53,4.85,0,2.09-.6,3.91-1.8,5.44-1.2,1.53-2.76,2.7-4.69,3.51-1.93.8-3.92,1.21-5.99,1.21-1.94,0-3.57-.43-4.89-1.3s-1.98-1.95-1.98-3.26c0-1.03.42-1.94,1.27-2.71.85-.77,1.99-1.16,3.42-1.16,1.3,0,2.53.4,3.69,1.21,1.15.8,2.02,1.91,2.59,3.3,1.3-.73,2.36-1.68,3.17-2.87.8-1.18,1.21-2.49,1.21-3.92,0-2.25-.67-3.95-2-5.1-1.34-1.15-2.95-1.73-4.83-1.73s-3.66.54-5.33,1.62c-1.67,1.08-3.23,2.94-4.69,5.58-.73,1.4-1.3,2.34-1.71,2.85s-.98.75-1.71.75c-.64,0-1.16-.19-1.57-.57-.41-.38-.61-.87-.61-1.48,0-1.03.32-2.03.96-3.01.64-.97,1.84-2.47,3.6-4.51-.09.09,1.05-1.21,3.42-3.92,3.61-4.04,6.01-6.84,7.19-8.42.12-.18.3-.42.52-.73.23-.3.39-.57.5-.8.11-.23.16-.43.16-.61,0-.3-.12-.61-.36-.91-.24-.3-.5-.46-.77-.46-.33,0-.71.29-1.14.86-2.28,3.22-4.36,4.83-6.24,4.83-.94,0-1.73-.39-2.37-1.18-.64-.79-1.06-1.91-1.27-3.37-.06-.33-.09-.61-.09-.82,0-.12.01-.22.04-.3.03-.08.08-.11.14-.11.12,0,.33.2.64.59.49.67,1.03,1,1.64,1,1.33,0,3.44-.9,6.33-2.69.85-.58,1.67-.86,2.46-.86.67,0,1.47.17,2.41.5.94.33,1.76.79,2.46,1.37.7.58,1.05,1.23,1.05,1.96,0,.52-.18,1.02-.55,1.53-.37.5-.91,1.02-1.64,1.57-4.61,3.49-8.26,7.03-10.93,10.61,2.73-1.52,5.39-2.28,7.97-2.28,1.7,0,3.34.33,4.92.98ZM605.85,131.86c-.76-2.22-2.02-3.32-3.78-3.32-.55,0-.96.13-1.23.39-.27.26-.41.57-.41.93,0,.61.46,1.11,1.39,1.5.92.39,1.89.59,2.89.59.27,0,.65-.03,1.14-.09Z"/>
        </g>
      </g>
    </g>
  </g>
</svg>