<?xml version="1.0" encoding="UTF-8"?>
<svg id="_レイヤー_2" data-name="レイヤー 2" xmlns="http://www.w3.org/2000/svg" viewBox="0 0 843.06 84">
  <defs>
    <style>
      .cls-1 {
        fill: #fccd4d;
      }
    </style>
  </defs>
  <g id="_レイヤー_2-2" data-name="レイヤー 2">
    <g>
      <polygon class="cls-1" points="421.56 83.96 553.35 0 421.56 0 421.5 0 289.71 0 421.5 83.96 421.5 84 421.53 83.98 421.56 84 421.56 83.96"/>
      <polygon class="cls-1" points="131.85 83.96 263.64 0 131.85 0 131.79 0 0 0 131.79 83.96 131.79 84 131.82 83.98 131.85 84 131.85 83.96"/>
      <polygon class="cls-1" points="711.27 83.96 843.06 0 711.27 0 711.21 0 579.42 0 711.21 83.96 711.21 84 711.24 83.98 711.27 84 711.27 83.96"/>
    </g>
  </g>
</svg>